<?xml version="1.0" encoding="utf-8"?>
<!-- Generator: Adobe Illustrator 25.4.1, SVG Export Plug-In . SVG Version: 6.00 Build 0)  -->
<svg version="1.1" id="Layer_1" xmlns="http://www.w3.org/2000/svg" xmlns:xlink="http://www.w3.org/1999/xlink" x="0px" y="0px"
	 viewBox="0 0 512 512" style="enable-background:new 0 0 512 512;" xml:space="preserve">
<style type="text/css">
	.st0{fill:#FFFFFF;}
</style>
<g id="_1814112_audio_play_player_video_icon" transform="translate(-8.2 -8.2)">
	<g id="Icon-Play" transform="translate(8.2 8.2)">
		<path id="Fill-124" class="st0" d="M256,512C114.6,512,0,397.4,0,256C0,114.6,114.6,0,256,0s256,114.6,256,256S397.4,512,256,512
			L256,512z M256,27.8C130.2,28.3,28.3,130.2,27.8,256C28.3,381.8,130.2,483.7,256,484.2c125.8-0.5,227.7-102.3,228.2-228.2
			C484,130,382,28,256,27.8z"/>
		<path id="Fill-125" class="st0" d="M179.9,387.7V123.2L407,256L179.9,387.7z M209.9,175.7v159.6L346,256L209.9,175.7L209.9,175.7z
			"/>
	</g>
</g>
</svg>
