<svg xmlns="http://www.w3.org/2000/svg" xmlns:xlink="http://www.w3.org/1999/xlink" width="340.005" height="81.402" viewBox="0 0 340.005 81.402">
  <defs>
    <radialGradient id="radial-gradient" cx="0.5" cy="0.5" r="0.5" gradientTransform="translate(0)" gradientUnits="objectBoundingBox">
      <stop offset="0" stop-color="#e4001d"/>
      <stop offset="1" stop-color="#850f17"/>
    </radialGradient>
  </defs>
  <g id="Group_764" data-name="Group 764" transform="translate(-38.921 -39.498)">
    <path id="Path_1194" data-name="Path 1194" d="M513.889,140.188l-1.781,7.25h-.522a9.334,9.334,0,0,0-.613-2.729,5.552,5.552,0,0,0-1.76-2.282,3.9,3.9,0,0,0-2.374-.807,3.187,3.187,0,0,0-3.074,3.057,4.626,4.626,0,0,0,.641,2.3,18.214,18.214,0,0,0,3.02,3.4,12.467,12.467,0,0,1,2.562,3.122,6.266,6.266,0,0,1,.651,2.842,5.823,5.823,0,0,1-.91,3.165,6,6,0,0,1-2.659,2.25,9.38,9.38,0,0,1-3.951.8,18.37,18.37,0,0,1-3.413-.4,18.1,18.1,0,0,0-2.74-.4,2.672,2.672,0,0,0-.958.167,4.893,4.893,0,0,0-1.06.641h-.614l1.911-8.155h.6a11.81,11.81,0,0,0,.867,3.649,5.4,5.4,0,0,0,1.895,2.352,4.858,4.858,0,0,0,2.8.845,3.566,3.566,0,0,0,2.61-1.033,3.292,3.292,0,0,0,1.05-2.422,4.719,4.719,0,0,0-.592-2.271,16.228,16.228,0,0,0-2.7-3.171,14.75,14.75,0,0,1-2.912-3.719,5.917,5.917,0,0,1-.581-2.589,5.417,5.417,0,0,1,1.878-4.112,6.929,6.929,0,0,1,4.9-1.733,14.421,14.421,0,0,1,3.612.614,8.082,8.082,0,0,0,1.846.36,1.72,1.72,0,0,0,.818-.194,3.322,3.322,0,0,0,.85-.781Zm-18.987,0-1.48,6.857h-.6a6.654,6.654,0,0,0-1.351-4.311,4.448,4.448,0,0,0-3.429-1.319,7.87,7.87,0,0,0-4.543,1.6,12.482,12.482,0,0,0-3.87,4.936,16.041,16.041,0,0,0-1.6,7.014,7.256,7.256,0,0,0,1.415,4.817,4.267,4.267,0,0,0,3.332,1.663,5.579,5.579,0,0,0,1.954-.458l1.637-5.647a8.918,8.918,0,0,0,.414-1.862,1.224,1.224,0,0,0-.5-.985,2.753,2.753,0,0,0-1.712-.4l.162-.6h9.226l-.145.6a2.933,2.933,0,0,0-1.281.312,1.805,1.805,0,0,0-.738.765,10.109,10.109,0,0,0-.49,1.545l-1.938,6.572a19.326,19.326,0,0,1-6.97,1.265,10.341,10.341,0,0,1-4.8-1.028,8.179,8.179,0,0,1-3.278-3.246,9.857,9.857,0,0,1-1.3-5.065q0-6.055,5.378-9.979a15.9,15.9,0,0,1,9.554-3.041,14.217,14.217,0,0,1,1.722.092c.388.054,1.071.2,2.051.441a6.635,6.635,0,0,0,1.292.237,1.711,1.711,0,0,0,1.308-.77Zm-36.879.484,6.685,14.259,3.009-10.346a5.589,5.589,0,0,0,.237-1.512,1.658,1.658,0,0,0-.5-1.265,2.743,2.743,0,0,0-1.712-.549l.172-.587H472.7l-.156.587a3.776,3.776,0,0,0-2.137.727,5.059,5.059,0,0,0-1.427,2.6l-5.221,17.709h-.6l-8.58-18.231-4.145,14.21a4.939,4.939,0,0,0-.21,1.324,1.763,1.763,0,0,0,.56,1.362,2.6,2.6,0,0,0,1.793.516l-.14.581h-6.97l.14-.581a3.575,3.575,0,0,0,1.276-.161,3.4,3.4,0,0,0,1.3-.969,5.435,5.435,0,0,0,1.022-2.072l4.527-15.534a5.23,5.23,0,0,0-1.4-1.2,4.333,4.333,0,0,0-1.7-.28l.172-.587Zm-20.564.587.172-.587h10.442l-.2.587a3.288,3.288,0,0,0-2.169.63,5.494,5.494,0,0,0-1.319,2.632l-3.908,13.688a8.755,8.755,0,0,0-.425,1.938,1.03,1.03,0,0,0,.442.888,4.107,4.107,0,0,0,2.142.441l-.156.581H431.861l.172-.581a3.67,3.67,0,0,0,2.336-.608,5.549,5.549,0,0,0,1.34-2.659l3.94-13.688a7.6,7.6,0,0,0,.366-1.905,1.084,1.084,0,0,0-.441-.915A4.666,4.666,0,0,0,437.459,141.259Zm-20.924,9.253h7.821l1.739-5.975a7.489,7.489,0,0,0,.344-1.879,1.135,1.135,0,0,0-.425-.958,4.4,4.4,0,0,0-2.051-.441l.172-.587h10.631l-.172.587a3.655,3.655,0,0,0-2.368.662,5.389,5.389,0,0,0-1.373,2.616l-3.972,13.688a7.83,7.83,0,0,0-.393,1.922,1.017,1.017,0,0,0,.425.888,3.7,3.7,0,0,0,2,.441l-.156.581H418.333l.237-.581a3.485,3.485,0,0,0,2.234-.592,5.631,5.631,0,0,0,1.313-2.659l1.846-6.373h-7.789l-1.83,6.373a7.491,7.491,0,0,0-.393,1.938,1.1,1.1,0,0,0,.479.926,3.621,3.621,0,0,0,1.9.388l-.156.581H405.893l.172-.581a3.4,3.4,0,0,0,2.212-.592,5.745,5.745,0,0,0,1.3-2.659l3.972-13.688a7.086,7.086,0,0,0,.35-1.862,1.164,1.164,0,0,0-.42-.974,4.164,4.164,0,0,0-1.991-.441l.172-.587h10.453l-.237.587a3.343,3.343,0,0,0-2.19.619,5.776,5.776,0,0,0-1.357,2.659Zm-25.1-9.839h17.2l-1.626,5.76h-.565q.032-.46.032-.808a3.331,3.331,0,0,0-.964-2.546,5.123,5.123,0,0,0-3.246-1.033l-4.764,16.1a7.835,7.835,0,0,0-.393,1.991,1.122,1.122,0,0,0,.484.953,3.9,3.9,0,0,0,1.992.388l-.145.581H388.833l.188-.581a3.725,3.725,0,0,0,2.363-.608,5.713,5.713,0,0,0,1.356-2.724l4.764-16.1a8.435,8.435,0,0,0-4.118,1.071,9.218,9.218,0,0,0-3.025,3.316h-.619Zm-18.164,10c.366.021.678.032.931.032a4.976,4.976,0,0,0,3.784-1.577,5.817,5.817,0,0,0,1.48-4.134,3.144,3.144,0,0,0-.786-2.3,2.834,2.834,0,0,0-2.083-.786q-.315,0-.743.016Zm-.22.947-1.895,6.481a7.91,7.91,0,0,0-.409,2.019,1.13,1.13,0,0,0,.49.958,3.9,3.9,0,0,0,2.035.4l-.22.581h-10.3l.189-.581a3.5,3.5,0,0,0,2.26-.6,5.674,5.674,0,0,0,1.319-2.68l3.972-13.72a6.987,6.987,0,0,0,.334-1.814,1.157,1.157,0,0,0-.414-.958,3.9,3.9,0,0,0-1.905-.441l.156-.587h8.866q3.794,0,5.345,1.324a4.289,4.289,0,0,1,1.545,3.408,5.43,5.43,0,0,1-1.8,3.962,9.685,9.685,0,0,1-4.021,1.905l1.921,6.481a8.549,8.549,0,0,0,1.352,3.138,2.913,2.913,0,0,0,1.916.587v.581h-6.658L374.1,151.621l-.522.027C373.469,151.648,373.291,151.637,373.049,151.621ZM353.5,141.857l-2.384,8.3h.727a8.751,8.751,0,0,0,4.188-.759,5.8,5.8,0,0,0,2.228-2.681h.587l-2.4,8.327h-.549a8.734,8.734,0,0,0,.14-1.357,1.98,1.98,0,0,0-.511-1.415,2.8,2.8,0,0,0-1.335-.791,9.973,9.973,0,0,0-2.223-.156h-1.227l-2.051,7.175a5.82,5.82,0,0,0-.269,1.4.663.663,0,0,0,.35.581,3.928,3.928,0,0,0,1.905.318,11.57,11.57,0,0,0,5.082-1.147,12.51,12.51,0,0,0,4.269-3.461h.651l-2.223,5.867h-18.3l.189-.581a3.711,3.711,0,0,0,2.352-.608,5.572,5.572,0,0,0,1.34-2.675l4.021-13.764a7.024,7.024,0,0,0,.328-1.814,1.086,1.086,0,0,0-.425-.926,4.162,4.162,0,0,0-1.938-.431l.172-.587H363.24l-1.372,5.345H361.3a4.593,4.593,0,0,0-.49-2.223,3.881,3.881,0,0,0-1.76-1.475,9.9,9.9,0,0,0-3.553-.463Zm-16.839,20.2H319.579l.172-.581a3.429,3.429,0,0,0,2.229-.592,5.749,5.749,0,0,0,1.3-2.659l3.972-13.736a6.831,6.831,0,0,0,.334-1.782,1.218,1.218,0,0,0-.474-1.007,3.458,3.458,0,0,0-1.862-.441l.178-.587h10.265l-.173.587a3.455,3.455,0,0,0-2.218.662,5.529,5.529,0,0,0-1.3,2.568l-3.628,12.568a16.443,16.443,0,0,0-.689,2.917.758.758,0,0,0,.35.592,1.893,1.893,0,0,0,1.147.274,11.349,11.349,0,0,0,5.054-1.195,10.949,10.949,0,0,0,4.123-3.579h.662Zm-26.318-20.2-2.385,8.3h.727a8.75,8.75,0,0,0,4.188-.759,5.8,5.8,0,0,0,2.229-2.681h.587l-2.4,8.327h-.549a8.777,8.777,0,0,0,.14-1.357,1.982,1.982,0,0,0-.511-1.415,2.8,2.8,0,0,0-1.335-.791,9.972,9.972,0,0,0-2.223-.156h-1.227l-2.051,7.175a5.82,5.82,0,0,0-.269,1.4.663.663,0,0,0,.35.581,3.928,3.928,0,0,0,1.906.318,11.568,11.568,0,0,0,5.081-1.147,12.508,12.508,0,0,0,4.269-3.461h.651l-2.223,5.867H297l.189-.581a3.709,3.709,0,0,0,2.352-.608,5.565,5.565,0,0,0,1.34-2.675l4.021-13.764a7.01,7.01,0,0,0,.328-1.814,1.085,1.085,0,0,0-.425-.926,4.161,4.161,0,0,0-1.938-.431l.172-.587h17.047l-1.373,5.345h-.565a4.589,4.589,0,0,0-.49-2.223,3.878,3.878,0,0,0-1.76-1.475,9.894,9.894,0,0,0-3.552-.463Zm-11.419-1.669-1.577,6.793h-.613a6.349,6.349,0,0,0-1.362-4.139,4.242,4.242,0,0,0-3.273-1.362,6.677,6.677,0,0,0-4.338,1.857,14.2,14.2,0,0,0-3.66,5.695,16.817,16.817,0,0,0-1.211,6.136,5.849,5.849,0,0,0,1.33,4.139,4.748,4.748,0,0,0,3.655,1.426,7.2,7.2,0,0,0,3.418-.818,11.063,11.063,0,0,0,3.122-2.67h.759a13.047,13.047,0,0,1-3.951,4.118,9.385,9.385,0,0,1-4.882,1.184,8.436,8.436,0,0,1-6.217-2.342,8.241,8.241,0,0,1-2.358-6.115,13.181,13.181,0,0,1,1.873-6.739,15.216,15.216,0,0,1,12.412-7.164,12.385,12.385,0,0,1,3.294.565,6.308,6.308,0,0,0,1.405.285,2.268,2.268,0,0,0,1.593-.851Z" transform="translate(-145.819 -61.474)" fill="#fff"/>
    <path id="Path_1195" data-name="Path 1195" d="M192.265,91.89h11.847l4.35,6.479q14.859-15.141,45.307-24.713l6.664,7.451c-27.962,4.093-50.252,18.049-68.26,44.289l9.071-19.946-8.98-13.561" transform="translate(-93.565 -20.855)" fill="#fff" fill-rule="evenodd"/>
    <path id="Path_1196" data-name="Path 1196" d="M233.375,154.178l10.607,17.6H233.653l-7.109-11.274Z" transform="translate(-114.549 -70.016)" fill="#fff" fill-rule="evenodd"/>
    <path id="Path_1197" data-name="Path 1197" d="M39.812,211.178H98.585a.891.891,0,1,1,0,1.782H39.812a.891.891,0,0,1,0-1.782" transform="translate(0 -104.815)" fill="#fff" fill-rule="evenodd"/>
    <path id="Path_1198" data-name="Path 1198" d="M51.314,217.874h50.069a.683.683,0,0,1,0,1.366H51.314a.683.683,0,0,1,0-1.366" transform="translate(-7.149 -108.903)" fill="#fff" fill-rule="evenodd"/>
    <path id="Path_1199" data-name="Path 1199" d="M60.033,223.5h43.276a.683.683,0,1,1,0,1.365H60.033a.683.683,0,1,1,0-1.365" transform="translate(-12.472 -112.339)" fill="#fff" fill-rule="evenodd"/>
    <path id="Path_1200" data-name="Path 1200" d="M70.949,229.127h34.774a.683.683,0,1,1,0,1.365H70.949a.683.683,0,1,1,0-1.365" transform="translate(-19.137 -115.774)" fill="#fff" fill-rule="evenodd"/>
    <path id="Path_1201" data-name="Path 1201" d="M82.606,234.754H108.3a.683.683,0,0,1,0,1.366H82.606a.683.683,0,0,1,0-1.366" transform="translate(-26.254 -119.209)" fill="#fff" fill-rule="evenodd"/>
    <path id="Path_1202" data-name="Path 1202" d="M90.287,240.381h19.979a.463.463,0,1,1,0,.925H90.287a.463.463,0,0,1,0-.925" transform="translate(-31.078 -122.644)" fill="#fff" fill-rule="evenodd"/>
    <path id="Path_1203" data-name="Path 1203" d="M99.377,244.878h12.9a.463.463,0,0,1,0,.925h-12.9a.463.463,0,1,1,0-.925" transform="translate(-36.627 -125.39)" fill="#fff" fill-rule="evenodd"/>
    <path id="Path_1204" data-name="Path 1204" d="M89.475,134.271c-.07-4.733,1.218-8.151,3.443-10.663,2.035-3.068,7.352-6.122,10.511-4.553,3.412,1.694,1.806,6.537.106,8.935-3.47,4.9-8.591,5.784-14.06,6.281m17.165-33.088c-1.714,2.776-1.434,4.513,1.111,5.068,2.168.188,3.316-1.207,3.818-3.61.619-4.666-2.171-5.543-4.928-6.456-5.441-1.05-10.132.009-14.092,3.124-1.936,2.049-2.738,4.245-1.8,6.664,1.624,2.842,5.044,4.526,7.428,5.97l-.833,1.458c-6.666.523-13.412.87-18.259,4.383-2.7,1.956-3.807,3.544-4.222,6.814-.662,5.212,2.064,8.78,10.4,9.629a30.326,30.326,0,0,1,2.376-9.335c2.466-5.415,6.927-9.119,13.091-9.1q.576,0,1.164.06c2.96.294,4.36,1.067,6.063,3.525,1.87,2.7,2.043,5.733.157,9.2-3.8,6.988-18.776,9.707-28.413,7.484-4.208-.971-7.005-2.393-8.38-6.648a10.27,10.27,0,0,1-.485-2.612c-.391-7.171,4.332-10.574,10.054-13.338l6.595-2.291c-3.108-2.751-5.121-5.82-4.122-9.76.849-3.352,2.786-4.643,5.8-6.135,8.487-4.206,22.078-4.442,25.745,3.748,1.21,4.931-.261,8.142-3.957,9.927a12.667,12.667,0,0,1-3.1.406,6.782,6.782,0,0,1-5.228-2.211,5.526,5.526,0,0,1-.74-1.486,4.786,4.786,0,0,1,1.51-5.074C105.32,99,107.655,99.633,106.639,101.183Z" transform="translate(-19.468 -32.307)" fill="#fff" fill-rule="evenodd"/>
    <path id="Path_1205" data-name="Path 1205" d="M112.384,218.172a137.992,137.992,0,0,0-4.054-15.9l-.421-2.579,4.216-.047q-.175,1.293-.349,2.587a92.815,92.815,0,0,0,1.478,15.9c.094.619-.721.792-.87.033" transform="translate(-42.119 -97.776)" fill="#fff" fill-rule="evenodd"/>
    <path id="Path_1206" data-name="Path 1206" d="M366.172,213.67a6.244,6.244,0,0,0,1.9-1.242,1.383,1.383,0,0,0,.433-.922.813.813,0,0,0-.177-.55.582.582,0,0,0-.462-.205.906.906,0,0,0-.567.225,2.239,2.239,0,0,0-.62.9,8.106,8.106,0,0,0-.511,1.8m2.754,1.163.26.353q-1.931,1.868-3.308,1.867a1.019,1.019,0,0,1-.855-.383,2.06,2.06,0,0,1-.3-1.237,6.567,6.567,0,0,1,1.024-3.415,3.269,3.269,0,0,1,2.749-1.932,1.194,1.194,0,0,1,.854.285,1.041,1.041,0,0,1,.293.782,1.767,1.767,0,0,1-.352,1.026,4.121,4.121,0,0,1-1.269,1.051c-.3.175-.957.492-1.954.952a5.319,5.319,0,0,0-.07.826,1.324,1.324,0,0,0,.177.794.617.617,0,0,0,.516.224,1.664,1.664,0,0,0,.71-.183A10.32,10.32,0,0,0,368.927,214.833Zm-4.713.079.266.287a7.815,7.815,0,0,1-1.451,1.289,2.662,2.662,0,0,1-1.384.58.5.5,0,0,1-.4-.189.782.782,0,0,1-.159-.517,14.779,14.779,0,0,1,.489-2.66l.849-3.522a15.065,15.065,0,0,1,.782-2.556,3.64,3.64,0,0,1,1.382-1.533,3.545,3.545,0,0,1,1.883-.544.8.8,0,0,1,.532.164.505.505,0,0,1,.194.4.538.538,0,0,1-.188.421.824.824,0,0,1-.553.164,4.112,4.112,0,0,1-.669-.079,4.09,4.09,0,0,0-.7-.066.759.759,0,0,0-.489.137,1.746,1.746,0,0,0-.414.81c-.124.411-.323,1.223-.6,2.438l-.779,3.358c-.387,1.683-.583,2.564-.583,2.638,0,.172.062.257.183.257a1.114,1.114,0,0,0,.5-.208A8.152,8.152,0,0,0,364.213,214.912Zm-4.316-5.758h-.419a4.38,4.38,0,0,0,.064-.648.407.407,0,0,0-.263-.421,10.066,10.066,0,0,0-1.988-.1l-1.151.009-.873,3.544H356.9a2.251,2.251,0,0,0,.949-.118.868.868,0,0,0,.255-.58h.449c-.169.646-.317,1.357-.449,2.132h-.4c.027-.252.04-.446.04-.586a.376.376,0,0,0-.11-.216.335.335,0,0,0-.2-.088,3.85,3.85,0,0,0-.661-.041h-1.615a23.228,23.228,0,0,1-1.456,4.274,4.342,4.342,0,0,1,1.3-.233,11.009,11.009,0,0,1,2.314.3,5.437,5.437,0,0,0,.983.17.847.847,0,0,0,.559-.178.512.512,0,0,0,.212-.4,1.39,1.39,0,0,0-.1-.419,1.293,1.293,0,0,1-.062-.375.461.461,0,0,1,.145-.331.475.475,0,0,1,.349-.142.5.5,0,0,1,.406.192.773.773,0,0,1,.161.514,1.548,1.548,0,0,1-.586,1.193,2.265,2.265,0,0,1-1.548.514,11.284,11.284,0,0,1-1.274-.09,24.658,24.658,0,0,0-2.582-.191,22.558,22.558,0,0,0-2.725.191l.127-.44a4.877,4.877,0,0,0,1.094-.389.946.946,0,0,0,.277-.364,19.374,19.374,0,0,0,.978-3.054q.6-2.295,1.225-4.844a3.706,3.706,0,0,0-1.787.457,3.5,3.5,0,0,0-1.314,1.191,2.816,2.816,0,0,0-.473,1.543,2.366,2.366,0,0,0,.067.6,3.81,3.81,0,0,0,.3.72,1.048,1.048,0,0,1,.148.457.422.422,0,0,1-.145.315.51.51,0,0,1-.358.137.553.553,0,0,1-.489-.315,2.465,2.465,0,0,1-.266-1.243,4.314,4.314,0,0,1,1.25-3.021,4.744,4.744,0,0,1,3.646-1.341h2.7a8.448,8.448,0,0,0,2.069-.183C360.088,208.15,359.954,208.782,359.9,209.154Zm-15.879,7.69h-1.174l.551-2.157q.4-1.589.7-3.016a2.968,2.968,0,0,0,.07-.44c0-.129-.056-.192-.172-.192a.793.793,0,0,0-.363.164,7.569,7.569,0,0,0-.881.813l-.245-.279a6.107,6.107,0,0,1,1.508-1.24,2.737,2.737,0,0,1,1.156-.413.349.349,0,0,1,.223.069.221.221,0,0,1,.083.172,3.841,3.841,0,0,1-.1.553l-.339,1.437a10.2,10.2,0,0,1,1.8-2.181,1.337,1.337,0,0,1,.8-.432.537.537,0,0,1,.395.156.506.506,0,0,1,0,.733,2.344,2.344,0,0,1-.766.361,3.376,3.376,0,0,0-.948.479,4.525,4.525,0,0,0-.8.859,4.648,4.648,0,0,0-.61,1.007,16.459,16.459,0,0,0-.527,1.992Zm-4.668-6.141q-.669,0-1.3.974a4.957,4.957,0,0,0-.626,2.691,3.008,3.008,0,0,0,.387,1.642.859.859,0,0,0,.755.44,1.5,1.5,0,0,0,1.2-.832,4.888,4.888,0,0,0,.693-2.687,3.417,3.417,0,0,0-.32-1.716A.926.926,0,0,0,339.351,210.7Zm.669-.6a1.586,1.586,0,0,1,1.282.627,2.668,2.668,0,0,1,.513,1.738,4.744,4.744,0,0,1-1.228,3.2,3.476,3.476,0,0,1-2.6,1.415,1.752,1.752,0,0,1-1.357-.561,2.176,2.176,0,0,1-.516-1.533,5.52,5.52,0,0,1,.943-3.109A3.488,3.488,0,0,1,340.02,210.1Zm-8.8.523h1.884a10.476,10.476,0,0,1,1.061-2.983,4.448,4.448,0,0,1,1.559-1.543,3.588,3.588,0,0,1,1.811-.566,1.159,1.159,0,0,1,.725.194.564.564,0,0,1,.242.457.534.534,0,0,1-.164.4.6.6,0,0,1-.432.161,5.937,5.937,0,0,1-1.04-.169,3.139,3.139,0,0,0-.591-.079,1.147,1.147,0,0,0-.935.654,5.523,5.523,0,0,0-.669,1.768l-.395,1.708h2.08l-.127.569h-2.1l-1.242,5.115a7.1,7.1,0,0,1-1.841,3.536,3.908,3.908,0,0,1-2.743,1.2,1.205,1.205,0,0,1-.75-.2.586.586,0,0,1-.258-.484.492.492,0,0,1,.177-.4.773.773,0,0,1,.508-.148,4.257,4.257,0,0,1,.489.041,8.482,8.482,0,0,0,1.056.071,1.5,1.5,0,0,0,1.131-.372,4.639,4.639,0,0,0,.709-1.826l1.6-6.54h-1.881Zm-13.595,1.322-.236-.32a6.353,6.353,0,0,1,1.481-1.172,2.562,2.562,0,0,1,1.1-.377.357.357,0,0,1,.247.074.245.245,0,0,1,.083.2,3,3,0,0,1-.127.618c-.121.449-.2.8-.252,1.065q1.891-1.954,2.892-1.957a.511.511,0,0,1,.392.145.66.66,0,0,1,.134.457,4.763,4.763,0,0,1-.236,1.147,7.986,7.986,0,0,1,1.559-1.352,2.269,2.269,0,0,1,1.032-.4.665.665,0,0,1,.511.194.838.838,0,0,1,.183.591,2.431,2.431,0,0,1-.081.569c-.051.222-.245.89-.575,2.006a14.717,14.717,0,0,0-.621,2.476c0,.183.072.274.22.274a.517.517,0,0,0,.29-.1,7.5,7.5,0,0,0,.954-.835l.261.287c-.11.093-.32.279-.623.561a7.32,7.32,0,0,1-.865.722,1.577,1.577,0,0,1-.771.274.514.514,0,0,1-.416-.238,1.043,1.043,0,0,1-.183-.652,4.482,4.482,0,0,1,.11-.9c.073-.345.29-1.119.645-2.321a9.226,9.226,0,0,0,.4-1.645c0-.181-.078-.271-.237-.271a1.114,1.114,0,0,0-.527.2,4.061,4.061,0,0,0-1.134,1.018,3.853,3.853,0,0,0-.551,1.322q-.529,1.983-.788,3.232h-1.118l1.171-4.9a5.26,5.26,0,0,0,.126-.61.279.279,0,0,0-.062-.194.234.234,0,0,0-.183-.069,1.375,1.375,0,0,0-.661.337,4.4,4.4,0,0,0-1.121,1.1,5.235,5.235,0,0,0-.588,1.626l-.6,2.71h-1.126l.889-3.823c.263-1.109.393-1.708.393-1.806,0-.123-.046-.183-.14-.183C318.679,211.032,318.259,211.335,317.63,211.946Zm-3.59,4.9h-1.174l.551-2.157q.4-1.589.7-3.016a2.972,2.972,0,0,0,.07-.44c0-.129-.056-.192-.172-.192a.792.792,0,0,0-.363.164,7.582,7.582,0,0,0-.881.813l-.245-.279a6.115,6.115,0,0,1,1.508-1.24,2.737,2.737,0,0,1,1.156-.413.349.349,0,0,1,.223.069.221.221,0,0,1,.083.172,3.839,3.839,0,0,1-.1.553l-.338,1.437a10.17,10.17,0,0,1,1.8-2.181,1.336,1.336,0,0,1,.8-.432.536.536,0,0,1,.395.156.506.506,0,0,1,0,.733,2.34,2.34,0,0,1-.766.361,3.374,3.374,0,0,0-.949.479,4.526,4.526,0,0,0-.8.859,4.662,4.662,0,0,0-.61,1.007,16.479,16.479,0,0,0-.527,1.992Zm-4.668-6.141q-.669,0-1.3.974a4.958,4.958,0,0,0-.626,2.691,3.008,3.008,0,0,0,.387,1.642.859.859,0,0,0,.755.44,1.5,1.5,0,0,0,1.2-.832,4.888,4.888,0,0,0,.693-2.687,3.412,3.412,0,0,0-.32-1.716A.926.926,0,0,0,309.373,210.7Zm.669-.6a1.587,1.587,0,0,1,1.282.627,2.667,2.667,0,0,1,.513,1.738,4.744,4.744,0,0,1-1.228,3.2,3.476,3.476,0,0,1-2.6,1.415,1.751,1.751,0,0,1-1.357-.561,2.176,2.176,0,0,1-.516-1.533,5.519,5.519,0,0,1,.943-3.109A3.488,3.488,0,0,1,310.042,210.1Zm-8.8.523h1.884a10.489,10.489,0,0,1,1.062-2.983,4.445,4.445,0,0,1,1.558-1.543,3.589,3.589,0,0,1,1.811-.566,1.16,1.16,0,0,1,.726.194.565.565,0,0,1,.241.457.534.534,0,0,1-.164.4.6.6,0,0,1-.433.161,5.939,5.939,0,0,1-1.04-.169,3.142,3.142,0,0,0-.591-.079,1.147,1.147,0,0,0-.935.654,5.515,5.515,0,0,0-.669,1.768l-.395,1.708h2.08l-.126.569h-2.1l-1.241,5.115a7.108,7.108,0,0,1-1.841,3.536,3.907,3.907,0,0,1-2.743,1.2,1.206,1.206,0,0,1-.75-.2.586.586,0,0,1-.258-.484.493.493,0,0,1,.177-.4.773.773,0,0,1,.508-.148,4.263,4.263,0,0,1,.489.041,8.476,8.476,0,0,0,1.056.071,1.494,1.494,0,0,0,1.131-.372,4.644,4.644,0,0,0,.71-1.826l1.6-6.54h-1.881Zm-3.219-1.757,1.252-.49-.567,2.247h1.628l-.123.569h-1.631l-.693,2.685a7.853,7.853,0,0,0-.322,1.683.436.436,0,0,0,.091.312.317.317,0,0,0,.247.1,1.711,1.711,0,0,0,.747-.3,9.345,9.345,0,0,0,1.26-.89l.3.37a20.326,20.326,0,0,1-2.308,1.62,2.232,2.232,0,0,1-.935.3.551.551,0,0,1-.462-.217,1.158,1.158,0,0,1-.169-.706,8.029,8.029,0,0,1,.3-1.762l.811-3.191h-1.274l.14-.569h1.268Zm-4.582,2.326a3.564,3.564,0,0,0-.717-.09,2.011,2.011,0,0,0-1.236.4,3.581,3.581,0,0,0-.981,1.429,5.083,5.083,0,0,0-.451,2.055,1.319,1.319,0,0,0,.18.786.563.563,0,0,0,.473.241,1.761,1.761,0,0,0,1.166-.6,3.565,3.565,0,0,0,.911-1.719Zm.976-1.229.518-.112-.591,2.03q-.351,1.207-.669,2.789a7.5,7.5,0,0,0-.172,1.106c0,.167.064.249.2.249a.942.942,0,0,0,.4-.167,5.174,5.174,0,0,0,.935-.739l.253.312c-.6.555-.981.895-1.15,1.013a4.4,4.4,0,0,1-.959.52,1.685,1.685,0,0,1-.583.112.434.434,0,0,1-.306-.1.367.367,0,0,1-.1-.282,1.274,1.274,0,0,1,.062-.328l.314-1.089a6.7,6.7,0,0,1-1.612,1.418,2,2,0,0,1-1.056.37.823.823,0,0,1-.7-.328,1.88,1.88,0,0,1-.331-1.155,4.9,4.9,0,0,1,.446-1.891,6.962,6.962,0,0,1,1.193-1.894,5.085,5.085,0,0,1,1.575-1.251,3.812,3.812,0,0,1,1.637-.3,4.053,4.053,0,0,1,.513.033Zm-5.958,4.948.266.287a7.814,7.814,0,0,1-1.451,1.289,2.662,2.662,0,0,1-1.384.58.5.5,0,0,1-.4-.189.785.785,0,0,1-.159-.517,14.785,14.785,0,0,1,.489-2.66l.849-3.522a15.049,15.049,0,0,1,.782-2.556,3.639,3.639,0,0,1,1.381-1.533,3.547,3.547,0,0,1,1.884-.544.8.8,0,0,1,.532.164.506.506,0,0,1,.194.4.539.539,0,0,1-.188.421.826.826,0,0,1-.554.164,4.117,4.117,0,0,1-.669-.079,4.087,4.087,0,0,0-.7-.066.757.757,0,0,0-.489.137,1.75,1.75,0,0,0-.414.81q-.185.616-.6,2.438l-.779,3.358c-.387,1.683-.583,2.564-.583,2.638,0,.172.062.257.183.257a1.112,1.112,0,0,0,.5-.208A8.119,8.119,0,0,0,288.463,214.912Zm-8.416-5.742.094-.361a12.974,12.974,0,0,0,1.954-.32q-.2.563-.427,1.467l-.58,2.255.723.047a2.315,2.315,0,0,0,1.1-.257,2.943,2.943,0,0,0,1.532-2.51,1.572,1.572,0,0,0-.572-1.281,2.678,2.678,0,0,0-1.744-.474,5.547,5.547,0,0,0-2.62.676,5.236,5.236,0,0,0-1.98,1.732,3.761,3.761,0,0,0-.7,2.08,1.984,1.984,0,0,0,.18.879,2.179,2.179,0,0,0,.645.733c.258.194.387.381.387.561a.4.4,0,0,1-.127.3.419.419,0,0,1-.3.12c-.312,0-.61-.216-.9-.652a2.885,2.885,0,0,1-.433-1.642,4.81,4.81,0,0,1,1.368-3.319,6.2,6.2,0,0,1,4.818-1.973,4.943,4.943,0,0,1,1.887.307,2.4,2.4,0,0,1,1.1.832,1.975,1.975,0,0,1,.366,1.147,2.709,2.709,0,0,1-.516,1.543,3.6,3.6,0,0,1-1.518,1.223,5.26,5.26,0,0,1-2.233.465c-.123,0-.322-.008-.588-.025l-.623,2.493q-.158.636-.355,1.251a4.579,4.579,0,0,0,1.072.153,3.836,3.836,0,0,0,1.236-.224l-.094.449a4.088,4.088,0,0,1-1.04.169,11.3,11.3,0,0,1-1.2-.09,8.84,8.84,0,0,0-1.024-.079,6.965,6.965,0,0,0-1.567.183l.094-.424a2.415,2.415,0,0,0,1.118-.391,2.822,2.822,0,0,0,.693-1.453l1.188-4.8a2.326,2.326,0,0,0,.078-.471.3.3,0,0,0-.1-.23.336.336,0,0,0-.242-.1A1.059,1.059,0,0,0,280.047,209.171Zm-10.061-.3,1.253-.49-.567,2.247H272.3l-.123.569h-1.632l-.693,2.685a7.839,7.839,0,0,0-.323,1.683.434.434,0,0,0,.092.312.317.317,0,0,0,.247.1,1.713,1.713,0,0,0,.747-.3,9.367,9.367,0,0,0,1.26-.89l.3.37a20.364,20.364,0,0,1-2.308,1.62,2.236,2.236,0,0,1-.935.3.552.552,0,0,1-.462-.217,1.158,1.158,0,0,1-.169-.706,8.055,8.055,0,0,1,.3-1.762l.812-3.191h-1.274l.139-.569h1.269Zm-3.9,1.226a1.832,1.832,0,0,1,1.083.277.791.791,0,0,1,.381.638.513.513,0,0,1-.161.377.533.533,0,0,1-.39.159.5.5,0,0,1-.261-.066,1.58,1.58,0,0,1-.314-.342,1.035,1.035,0,0,0-.763-.52.778.778,0,0,0-.572.252.865.865,0,0,0-.247.63,1.389,1.389,0,0,0,.159.638,5.49,5.49,0,0,0,.8,1,2.746,2.746,0,0,1,.874,1.8,1.94,1.94,0,0,1-.71,1.486,2.618,2.618,0,0,1-1.827.638,2.1,2.1,0,0,1-1.392-.389,1.214,1.214,0,0,1-.457-.958.653.653,0,0,1,.172-.465.562.562,0,0,1,.427-.183.532.532,0,0,1,.376.148.462.462,0,0,1,.159.347,1.743,1.743,0,0,1-.016.208c-.005.071-.008.129-.008.178a.563.563,0,0,0,.22.449.859.859,0,0,0,.583.183,1.786,1.786,0,0,0,.747-.148,1.129,1.129,0,0,0,.505-.449,1.147,1.147,0,0,0,.18-.6,1.13,1.13,0,0,0-.169-.577,7.383,7.383,0,0,0-.761-.955,2.762,2.762,0,0,1-.817-1.787,1.837,1.837,0,0,1,.621-1.374A2.205,2.205,0,0,1,266.081,210.093Zm-7.564,3.577a6.241,6.241,0,0,0,1.905-1.242,1.385,1.385,0,0,0,.433-.922.813.813,0,0,0-.178-.55.58.58,0,0,0-.462-.205.906.906,0,0,0-.567.225,2.243,2.243,0,0,0-.621.9A8.1,8.1,0,0,0,258.517,213.67Zm2.754,1.163.261.353q-1.931,1.868-3.308,1.867a1.018,1.018,0,0,1-.854-.383,2.057,2.057,0,0,1-.3-1.237,6.562,6.562,0,0,1,1.024-3.415,3.268,3.268,0,0,1,2.749-1.932,1.193,1.193,0,0,1,.854.285,1.04,1.04,0,0,1,.293.782,1.767,1.767,0,0,1-.352,1.026,4.123,4.123,0,0,1-1.268,1.051q-.456.262-1.954.952a5.274,5.274,0,0,0-.07.826,1.32,1.32,0,0,0,.178.794.616.616,0,0,0,.516.224,1.662,1.662,0,0,0,.709-.183A10.321,10.321,0,0,0,261.271,214.833Zm-9.016-4.209h1.884a10.476,10.476,0,0,1,1.061-2.983,4.446,4.446,0,0,1,1.559-1.543,3.587,3.587,0,0,1,1.811-.566,1.16,1.16,0,0,1,.726.194.565.565,0,0,1,.242.457.534.534,0,0,1-.164.4.6.6,0,0,1-.433.161,5.94,5.94,0,0,1-1.04-.169,3.142,3.142,0,0,0-.591-.079,1.148,1.148,0,0,0-.935.654,5.531,5.531,0,0,0-.669,1.768l-.395,1.708h2.08l-.126.569h-2.1l-1.241,5.115a7.11,7.11,0,0,1-1.841,3.536,3.909,3.909,0,0,1-2.744,1.2,1.206,1.206,0,0,1-.75-.2.587.587,0,0,1-.258-.484.493.493,0,0,1,.177-.4.773.773,0,0,1,.508-.148,4.263,4.263,0,0,1,.489.041,8.477,8.477,0,0,0,1.056.071,1.494,1.494,0,0,0,1.131-.372,4.638,4.638,0,0,0,.71-1.826l1.6-6.54h-1.881Zm-2.644.569a3.571,3.571,0,0,0-.718-.09,2.01,2.01,0,0,0-1.236.4,3.585,3.585,0,0,0-.981,1.429,5.089,5.089,0,0,0-.451,2.055,1.322,1.322,0,0,0,.18.786.565.565,0,0,0,.473.241,1.761,1.761,0,0,0,1.166-.6,3.562,3.562,0,0,0,.911-1.719Zm.975-1.229.519-.112-.591,2.03q-.351,1.207-.669,2.789a7.471,7.471,0,0,0-.172,1.106c0,.167.065.249.2.249a.942.942,0,0,0,.4-.167,5.185,5.185,0,0,0,.935-.739l.252.312c-.6.555-.981.895-1.15,1.013a4.417,4.417,0,0,1-.959.52,1.687,1.687,0,0,1-.583.112.433.433,0,0,1-.306-.1.365.365,0,0,1-.1-.282,1.288,1.288,0,0,1,.062-.328l.314-1.089a6.7,6.7,0,0,1-1.612,1.418,2,2,0,0,1-1.056.37.824.824,0,0,1-.7-.328,1.882,1.882,0,0,1-.33-1.155,4.9,4.9,0,0,1,.446-1.891,6.961,6.961,0,0,1,1.193-1.894,5.086,5.086,0,0,1,1.575-1.251,3.81,3.81,0,0,1,1.636-.3,4.044,4.044,0,0,1,.513.033Zm-6.054.377h-.411c.059-.561.088-.985.088-1.275a1.392,1.392,0,0,0-.328-.974,1.142,1.142,0,0,0-.887-.356,2.087,2.087,0,0,0-1.51.638,1.964,1.964,0,0,0-.645,1.431,1.659,1.659,0,0,0,.178.769,4.619,4.619,0,0,0,.782.963,9.037,9.037,0,0,1,1.457,1.73,2.517,2.517,0,0,1,.347,1.221,3.051,3.051,0,0,1-.524,1.683,3.923,3.923,0,0,1-1.543,1.335,4.632,4.632,0,0,1-2.152.525,3,3,0,0,1-1.887-.594,1.639,1.639,0,0,1-.768-1.251.865.865,0,0,1,.2-.586.594.594,0,0,1,.459-.233.533.533,0,0,1,.441.216,1.583,1.583,0,0,1,.223.578,2.209,2.209,0,0,0,.307.791,1.354,1.354,0,0,0,.5.4,1.556,1.556,0,0,0,.7.156,2.817,2.817,0,0,0,1.97-.775,2.3,2.3,0,0,0,.841-1.71,1.942,1.942,0,0,0-.107-.638,2.749,2.749,0,0,0-.389-.717,9.929,9.929,0,0,0-.874-.964,8.925,8.925,0,0,1-.841-.922,2.822,2.822,0,0,1-.363-.725,2.365,2.365,0,0,1-.118-.725,2.679,2.679,0,0,1,.481-1.467,3.564,3.564,0,0,1,1.247-1.174,3.453,3.453,0,0,1,1.744-.438,5.984,5.984,0,0,1,1.2.153c.274.052.511.093.71.12a8.73,8.73,0,0,0-.269.983Q244.7,208.97,244.533,210.342Z" transform="translate(-120.767 -101.368)" fill="#fff"/>
    <path id="Path_1207" data-name="Path 1207" d="M677.993,215.112a.66.66,0,0,1,.516.238.86.86,0,0,1,.207.6,1.264,1.264,0,0,1-.242.818.767.767,0,0,1-.615.3.689.689,0,0,1-.516-.219.788.788,0,0,1-.207-.566,1.4,1.4,0,0,1,.29-.881.673.673,0,0,1,.567-.282m-3.55,0a.66.66,0,0,1,.516.238.86.86,0,0,1,.207.6,1.263,1.263,0,0,1-.242.818.767.767,0,0,1-.615.3.69.69,0,0,1-.516-.219.79.79,0,0,1-.206-.566,1.406,1.406,0,0,1,.29-.881A.674.674,0,0,1,674.443,215.112Zm-3.55,0a.66.66,0,0,1,.516.238.862.862,0,0,1,.207.6,1.264,1.264,0,0,1-.242.818.767.767,0,0,1-.615.3.689.689,0,0,1-.516-.219.788.788,0,0,1-.207-.566,1.406,1.406,0,0,1,.29-.881A.674.674,0,0,1,670.893,215.112Zm-3.762.49a24.356,24.356,0,0,1-2.064,1.563,8.567,8.567,0,0,0-1.653,1.338,1.469,1.469,0,0,0-.306.884,1.091,1.091,0,0,0,.4.821,1.368,1.368,0,0,0,.965.364,2.162,2.162,0,0,0,1.037-.268,2.608,2.608,0,0,0,.879-.777,3,3,0,0,0,.516-1.15,8.531,8.531,0,0,0,.151-1.7C667.059,216.521,667.083,216.163,667.131,215.6Zm1.069-4.37a3.727,3.727,0,0,0-.669-.071,2.088,2.088,0,0,0-1.282.4,3.059,3.059,0,0,0-.914,1.349,6.37,6.37,0,0,0-.527,2.252.973.973,0,0,0,.207.632.6.6,0,0,0,.47.257,1.525,1.525,0,0,0,.779-.309,2.554,2.554,0,0,0,.758-.775,6.2,6.2,0,0,0,.6-1.6Zm.881-1.185.64-.145q-.577,1.876-1.056,3.76c-.231.9-.39,1.645-.481,2.244a8.442,8.442,0,0,0-.078,1.139,6.258,6.258,0,0,1-.252,1.861,3.016,3.016,0,0,1-1.231,1.587,3.775,3.775,0,0,1-2.136.6,2.534,2.534,0,0,1-1.674-.509,1.5,1.5,0,0,1-.61-1.168,1.8,1.8,0,0,1,.489-1.21,5.46,5.46,0,0,1,1.51-1.026c.39-.208.752-.421,1.094-.64a2.17,2.17,0,0,1-.906.3.66.66,0,0,1-.516-.277,1.14,1.14,0,0,1-.223-.733,5.7,5.7,0,0,1,.863-2.931,6.092,6.092,0,0,1,2.074-2.184,3.566,3.566,0,0,1,1.873-.449c.148,0,.328.005.543.016Zm-12.477,1.932-.269-.282a8.128,8.128,0,0,1,1.607-1.3,2.231,2.231,0,0,1,1.024-.323.4.4,0,0,1,.258.074.2.2,0,0,1,.094.167,1.36,1.36,0,0,1-.038.257l-.355,1.612a9.674,9.674,0,0,1,2.016-1.691,2.141,2.141,0,0,1,1.061-.41.6.6,0,0,1,.481.2.849.849,0,0,1,.175.574,2.521,2.521,0,0,1-.073.564c-.083.345-.3,1.1-.661,2.269a9.52,9.52,0,0,0-.5,2.173.467.467,0,0,0,.046.238.15.15,0,0,0,.134.082c.154,0,.392-.15.718-.449.231-.213.46-.413.691-.594l.2.287a7.208,7.208,0,0,1-1.5,1.316,1.635,1.635,0,0,1-.82.32.543.543,0,0,1-.462-.222,1.209,1.209,0,0,1-.167-.717,17.76,17.76,0,0,1,.874-3.552,8.348,8.348,0,0,0,.269-1.177c0-.167-.1-.249-.293-.249a1.58,1.58,0,0,0-.809.336,4.92,4.92,0,0,0-1.236,1.172,3.845,3.845,0,0,0-.529,1.379l-.637,2.8h-1.172q.33-1.2.572-2.3l.7-3.046a1.408,1.408,0,0,0,.04-.265c0-.142-.054-.216-.159-.216a.729.729,0,0,0-.36.169A4.743,4.743,0,0,0,656.606,211.978Zm-3.848-.016-.347-.274a6.145,6.145,0,0,1,1.435-1.253,2.341,2.341,0,0,1,1.107-.375.586.586,0,0,1,.384.112.375.375,0,0,1,.134.306,15.008,15.008,0,0,1-.51,1.973,20.085,20.085,0,0,0-.836,3.429.3.3,0,0,0,.057.189.144.144,0,0,0,.118.077q.25,0,1.29-.994l.306.3a10.342,10.342,0,0,1-1.572,1.325,1.756,1.756,0,0,1-.812.287.561.561,0,0,1-.438-.175.7.7,0,0,1-.161-.49,24.587,24.587,0,0,1,1.182-4.9,1.242,1.242,0,0,0,.054-.329c0-.106-.046-.161-.142-.161a.693.693,0,0,0-.358.129A7.857,7.857,0,0,0,652.758,211.962Zm3.1-5.309a.532.532,0,0,1,.4.164.589.589,0,0,1,.158.421.9.9,0,0,1-.242.621.7.7,0,0,1-.538.268.517.517,0,0,1-.395-.167.62.62,0,0,1-.156-.44.875.875,0,0,1,.228-.613A.7.7,0,0,1,655.859,206.653Zm-4.128,8.492.2.3a6.922,6.922,0,0,1-1.486,1.3,1.739,1.739,0,0,1-.86.328.527.527,0,0,1-.443-.224,1.164,1.164,0,0,1-.17-.7,4.923,4.923,0,0,1,.129-.933c.086-.411.333-1.286.737-2.636a8.03,8.03,0,0,0,.269-1.16.239.239,0,0,0-.269-.274,1.585,1.585,0,0,0-.825.337,4.925,4.925,0,0,0-1.228,1.188,3.773,3.773,0,0,0-.546,1.379l-.629,2.789H645.44q.379-1.4.583-2.294l1.158-5.148a6.483,6.483,0,0,1,.831-2.184,3.818,3.818,0,0,1,1.346-1.223,3.4,3.4,0,0,1,1.642-.457.8.8,0,0,1,.535.169.53.53,0,0,1,.2.424.492.492,0,0,1-.191.38.783.783,0,0,1-.524.164,4.14,4.14,0,0,1-.489-.039,7.794,7.794,0,0,0-.938-.1.712.712,0,0,0-.588.3,4.14,4.14,0,0,0-.473,1.4l-.881,3.96a10.119,10.119,0,0,1,2.039-1.691,2.132,2.132,0,0,1,1.038-.41.621.621,0,0,1,.481.189.747.747,0,0,1,.172.525,2.355,2.355,0,0,1-.062.544q-.1.472-.481,1.716c-.341,1.144-.54,1.855-.6,2.132a3.648,3.648,0,0,0-.089.747.334.334,0,0,0,.043.191.14.14,0,0,0,.129.066c.126,0,.363-.153.71-.457C651.218,215.572,651.454,215.375,651.731,215.145Zm-9.274-6.278,1.253-.49-.567,2.247h1.628l-.123.569h-1.632l-.693,2.685a7.86,7.86,0,0,0-.323,1.683.436.436,0,0,0,.091.312.317.317,0,0,0,.247.1,1.711,1.711,0,0,0,.747-.3,9.373,9.373,0,0,0,1.26-.89l.3.37a20.351,20.351,0,0,1-2.308,1.62,2.235,2.235,0,0,1-.935.3.552.552,0,0,1-.462-.217,1.158,1.158,0,0,1-.169-.706,8.059,8.059,0,0,1,.3-1.762l.812-3.191h-1.274l.139-.569h1.268Zm-5.581,7.978H635.7l.551-2.157q.4-1.589.7-3.016a2.974,2.974,0,0,0,.07-.44c0-.129-.056-.192-.172-.192a.791.791,0,0,0-.363.164,7.573,7.573,0,0,0-.881.813l-.245-.279a6.116,6.116,0,0,1,1.507-1.24,2.737,2.737,0,0,1,1.156-.413.35.35,0,0,1,.223.069.221.221,0,0,1,.083.172,3.852,3.852,0,0,1-.1.553l-.339,1.437a10.2,10.2,0,0,1,1.8-2.181,1.336,1.336,0,0,1,.8-.432.536.536,0,0,1,.395.156.505.505,0,0,1,0,.733,2.337,2.337,0,0,1-.766.361,3.364,3.364,0,0,0-.948.479,4.514,4.514,0,0,0-.8.859,4.655,4.655,0,0,0-.61,1.007,16.511,16.511,0,0,0-.527,1.992Zm-3.835-5.651a3.565,3.565,0,0,0-.717-.09,2.012,2.012,0,0,0-1.236.4,3.579,3.579,0,0,0-.981,1.429,5.084,5.084,0,0,0-.451,2.055,1.319,1.319,0,0,0,.18.786.564.564,0,0,0,.473.241,1.762,1.762,0,0,0,1.167-.6,3.565,3.565,0,0,0,.911-1.719Zm.976-1.229.519-.112-.591,2.03q-.351,1.207-.669,2.789a7.479,7.479,0,0,0-.172,1.106c0,.167.065.249.2.249a.942.942,0,0,0,.4-.167,5.19,5.19,0,0,0,.935-.739l.252.312c-.6.555-.981.895-1.15,1.013a4.41,4.41,0,0,1-.959.52,1.686,1.686,0,0,1-.584.112.432.432,0,0,1-.306-.1.365.365,0,0,1-.1-.282,1.275,1.275,0,0,1,.062-.328l.314-1.089a6.693,6.693,0,0,1-1.612,1.418,2,2,0,0,1-1.056.37.824.824,0,0,1-.7-.328,1.879,1.879,0,0,1-.331-1.155,4.9,4.9,0,0,1,.446-1.891A6.972,6.972,0,0,1,630.1,211.8a5.089,5.089,0,0,1,1.575-1.251,3.812,3.812,0,0,1,1.637-.3,4.042,4.042,0,0,1,.513.033Zm-6.409-.81h-.419a4.334,4.334,0,0,0,.065-.648.407.407,0,0,0-.264-.421,10.062,10.062,0,0,0-1.988-.1l-1.15.009-.874,3.544h1.632a2.249,2.249,0,0,0,.948-.118.867.867,0,0,0,.256-.58h.449c-.169.646-.317,1.357-.449,2.132h-.4c.027-.252.041-.446.041-.586a.376.376,0,0,0-.11-.216.335.335,0,0,0-.2-.088,3.86,3.86,0,0,0-.661-.041h-1.615a23.246,23.246,0,0,1-1.457,4.274,4.344,4.344,0,0,1,1.3-.233,11.01,11.01,0,0,1,2.313.3,5.442,5.442,0,0,0,.983.17.849.849,0,0,0,.559-.178.513.513,0,0,0,.212-.4,1.391,1.391,0,0,0-.1-.419,1.306,1.306,0,0,1-.062-.375.461.461,0,0,1,.145-.331.476.476,0,0,1,.349-.142.5.5,0,0,1,.406.192.773.773,0,0,1,.161.514,1.548,1.548,0,0,1-.586,1.193,2.265,2.265,0,0,1-1.548.514,11.273,11.273,0,0,1-1.274-.09,24.656,24.656,0,0,0-2.583-.191,22.553,22.553,0,0,0-2.725.191l.126-.44a4.877,4.877,0,0,0,1.094-.389.946.946,0,0,0,.277-.364,19.407,19.407,0,0,0,.978-3.054q.6-2.295,1.225-4.844a3.706,3.706,0,0,0-1.787.457,3.5,3.5,0,0,0-1.314,1.191,2.816,2.816,0,0,0-.473,1.543,2.369,2.369,0,0,0,.067.6,3.8,3.8,0,0,0,.3.72,1.048,1.048,0,0,1,.148.457.422.422,0,0,1-.145.315.509.509,0,0,1-.357.137.553.553,0,0,1-.49-.315,2.464,2.464,0,0,1-.266-1.243,4.313,4.313,0,0,1,1.249-3.021,4.745,4.745,0,0,1,3.647-1.341h2.7a8.444,8.444,0,0,0,2.069-.183C627.8,208.15,627.664,208.782,627.608,209.154Zm-13.089,5.758.266.287a7.793,7.793,0,0,1-1.451,1.289,2.661,2.661,0,0,1-1.384.58.5.5,0,0,1-.4-.189.785.785,0,0,1-.159-.517,14.784,14.784,0,0,1,.489-2.66l.849-3.522a15.081,15.081,0,0,1,.782-2.556,3.641,3.641,0,0,1,1.381-1.533,3.548,3.548,0,0,1,1.884-.544.8.8,0,0,1,.532.164.507.507,0,0,1,.193.4.539.539,0,0,1-.188.421.824.824,0,0,1-.553.164,4.111,4.111,0,0,1-.669-.079,4.092,4.092,0,0,0-.7-.066.759.759,0,0,0-.489.137,1.75,1.75,0,0,0-.414.81c-.123.411-.322,1.223-.6,2.438l-.779,3.358c-.387,1.683-.583,2.564-.583,2.638,0,.172.062.257.183.257a1.112,1.112,0,0,0,.5-.208A8.123,8.123,0,0,0,614.518,214.912Zm-5.654-3.719a3.565,3.565,0,0,0-.717-.09,2.012,2.012,0,0,0-1.236.4,3.589,3.589,0,0,0-.981,1.429,5.09,5.09,0,0,0-.451,2.055,1.322,1.322,0,0,0,.18.786.564.564,0,0,0,.473.241,1.761,1.761,0,0,0,1.166-.6,3.562,3.562,0,0,0,.911-1.719Zm.976-1.229.519-.112-.591,2.03q-.351,1.207-.669,2.789a7.486,7.486,0,0,0-.172,1.106c0,.167.065.249.2.249a.942.942,0,0,0,.4-.167,5.18,5.18,0,0,0,.935-.739l.252.312c-.6.555-.981.895-1.15,1.013a4.406,4.406,0,0,1-.959.52,1.687,1.687,0,0,1-.583.112.433.433,0,0,1-.306-.1.365.365,0,0,1-.1-.282,1.287,1.287,0,0,1,.062-.328l.314-1.089a6.693,6.693,0,0,1-1.612,1.418,2,2,0,0,1-1.056.37.824.824,0,0,1-.7-.328,1.88,1.88,0,0,1-.331-1.155,4.9,4.9,0,0,1,.446-1.891,6.961,6.961,0,0,1,1.193-1.894,5.091,5.091,0,0,1,1.575-1.251,3.813,3.813,0,0,1,1.637-.3,4.045,4.045,0,0,1,.513.033Zm-6.527,5.139.167.465a5.548,5.548,0,0,1-3.166,1.5,1.092,1.092,0,0,1-1-.5,2.336,2.336,0,0,1-.309-1.259,5.866,5.866,0,0,1,.661-2.606,5.658,5.658,0,0,1,1.6-2.053,2.737,2.737,0,0,1,1.669-.553,1.462,1.462,0,0,1,.884.224.665.665,0,0,1,.3.545.546.546,0,0,1-.159.405.6.6,0,0,1-.441.156,1.5,1.5,0,0,1-.706-.255,1.534,1.534,0,0,0-.75-.273,1.141,1.141,0,0,0-.766.356,3.5,3.5,0,0,0-.728,1.385,6.406,6.406,0,0,0-.347,2.061,2.039,2.039,0,0,0,.29,1.177.677.677,0,0,0,.6.323A3.666,3.666,0,0,0,603.313,215.1Zm-7.933-3.142-.347-.274a6.157,6.157,0,0,1,1.435-1.253,2.342,2.342,0,0,1,1.107-.375.587.587,0,0,1,.384.112.376.376,0,0,1,.134.306,15.015,15.015,0,0,1-.511,1.973,20.085,20.085,0,0,0-.836,3.429.3.3,0,0,0,.057.189.145.145,0,0,0,.118.077q.25,0,1.29-.994l.306.3a10.345,10.345,0,0,1-1.572,1.325,1.758,1.758,0,0,1-.812.287.563.563,0,0,1-.438-.175.7.7,0,0,1-.161-.49,24.606,24.606,0,0,1,1.182-4.9,1.229,1.229,0,0,0,.054-.329c0-.106-.046-.161-.143-.161a.693.693,0,0,0-.357.129A7.877,7.877,0,0,0,595.38,211.962Zm3.1-5.309a.531.531,0,0,1,.4.164.587.587,0,0,1,.159.421.9.9,0,0,1-.242.621.7.7,0,0,1-.537.268.518.518,0,0,1-.4-.167.622.622,0,0,1-.156-.44.875.875,0,0,1,.229-.613A.7.7,0,0,1,598.481,206.653Zm-6.732,10.192h-1.174l.551-2.157q.4-1.589.7-3.016a3,3,0,0,0,.07-.44c0-.129-.057-.192-.172-.192a.791.791,0,0,0-.363.164,7.571,7.571,0,0,0-.881.813l-.245-.279a6.113,6.113,0,0,1,1.507-1.24,2.737,2.737,0,0,1,1.156-.413.35.35,0,0,1,.223.069.221.221,0,0,1,.083.172,3.815,3.815,0,0,1-.1.553l-.338,1.437a10.19,10.19,0,0,1,1.8-2.181,1.336,1.336,0,0,1,.8-.432.537.537,0,0,1,.4.156.506.506,0,0,1,0,.733,2.336,2.336,0,0,1-.766.361,3.37,3.37,0,0,0-.948.479,4.514,4.514,0,0,0-.8.859,4.657,4.657,0,0,0-.61,1.007,16.491,16.491,0,0,0-.526,1.992Zm-4.41-7.978,1.252-.49-.567,2.247h1.628l-.123.569H587.9l-.693,2.685a7.855,7.855,0,0,0-.322,1.683.436.436,0,0,0,.091.312.317.317,0,0,0,.247.1,1.711,1.711,0,0,0,.747-.3,9.341,9.341,0,0,0,1.26-.89l.3.37a20.319,20.319,0,0,1-2.308,1.62,2.234,2.234,0,0,1-.935.3.551.551,0,0,1-.462-.217,1.161,1.161,0,0,1-.169-.706,8.028,8.028,0,0,1,.3-1.762l.811-3.191h-1.274l.14-.569H586.9Zm-3.362,6.237.166.465a5.548,5.548,0,0,1-3.166,1.5,1.092,1.092,0,0,1-1-.5,2.335,2.335,0,0,1-.309-1.259,5.867,5.867,0,0,1,.661-2.606,5.65,5.65,0,0,1,1.6-2.053,2.735,2.735,0,0,1,1.669-.553,1.46,1.46,0,0,1,.884.224.665.665,0,0,1,.3.545.547.547,0,0,1-.159.405.6.6,0,0,1-.441.156,1.5,1.5,0,0,1-.707-.255,1.534,1.534,0,0,0-.75-.273,1.141,1.141,0,0,0-.766.356,3.49,3.49,0,0,0-.728,1.385,6.392,6.392,0,0,0-.347,2.061,2.036,2.036,0,0,0,.29,1.177.677.677,0,0,0,.6.323A3.668,3.668,0,0,0,583.978,215.1Z" transform="translate(-330.143 -101.368)" fill="#fff"/>
    <path id="Path_1208" data-name="Path 1208" d="M888.178,111.727h.474a5.905,5.905,0,0,0,1.258-.077.745.745,0,0,0,.384-.273.723.723,0,0,0,.143-.442.7.7,0,0,0-.137-.428.761.761,0,0,0-.394-.271,5.683,5.683,0,0,0-1.253-.08h-.474ZM887.007,115V109.24h1.171c1.1,0,1.71.005,1.841.015a2.234,2.234,0,0,1,.9.23,1.431,1.431,0,0,1,.537.551,1.61,1.61,0,0,1,.218.827,1.512,1.512,0,0,1-.408,1.064,1.853,1.853,0,0,1-1.144.551,1.424,1.424,0,0,1,.4.215,2.768,2.768,0,0,1,.39.442c.044.056.184.29.426.7l.68,1.161H890.58l-.484-.934a3.853,3.853,0,0,0-.808-1.188,1.292,1.292,0,0,0-.808-.245h-.3V115Zm2.46-7.268a4.431,4.431,0,0,0-2.148.559A4.06,4.06,0,0,0,885.7,109.9a4.377,4.377,0,0,0-.015,4.373,4.124,4.124,0,0,0,1.611,1.616,4.348,4.348,0,0,0,4.342,0,4.152,4.152,0,0,0,1.611-1.616,4.378,4.378,0,0,0-.01-4.373,4.055,4.055,0,0,0-1.623-1.608A4.453,4.453,0,0,0,889.467,107.731Zm-.007-1.064a5.5,5.5,0,0,1,2.678.7,5.032,5.032,0,0,1,2.018,2,5.449,5.449,0,0,1,.014,5.433,5.132,5.132,0,0,1-2.007,2.005,5.446,5.446,0,0,1-5.406,0,5.126,5.126,0,0,1-2.005-2.005,5.447,5.447,0,0,1,.014-5.433,5.043,5.043,0,0,1,2.015-2A5.52,5.52,0,0,1,889.46,106.667Z" transform="translate(-515.962 -41.009)" fill="#fff"/>
    <g id="Group_763" data-name="Group 763" transform="translate(168.121 39.498)">
      <circle id="Ellipse_65" data-name="Ellipse 65" cx="8.979" cy="8.979" r="8.979" transform="translate(0 0.907)" fill="url(#radial-gradient)"/>
      <path id="Path_1209" data-name="Path 1209" d="M373.182,49.651,388.868,39.5l-7.5,8.182,6.669.979L371.825,59.27l7.424-8.94Z" transform="translate(-371.367 -39.498)" fill="#ffe500" fill-rule="evenodd"/>
    </g>
  </g>
</svg>
