<svg xmlns="http://www.w3.org/2000/svg" xmlns:xlink="http://www.w3.org/1999/xlink" width="620.166" height="95" viewBox="0 0 620.166 95">
  <defs>
    <radialGradient id="radial-gradient" cx="0.5" cy="0.5" r="0.5" gradientTransform="translate(0)" gradientUnits="objectBoundingBox">
      <stop offset="0" stop-color="#e4001d"/>
      <stop offset="1" stop-color="#850f17"/>
    </radialGradient>
  </defs>
  <g id="Group_3391" data-name="Group 3391" transform="translate(-30 -20)">
    <rect id="Rectangle_392" data-name="Rectangle 392" width="1" height="95" transform="translate(391 20)" fill="#7b7b7b"/>
    <g id="Group_764" data-name="Group 764" transform="translate(-8.921 -13.498)">
      <path id="Path_1194" data-name="Path 1194" d="M513.889,140.188l-1.781,7.25h-.522a9.334,9.334,0,0,0-.613-2.729,5.552,5.552,0,0,0-1.76-2.282,3.9,3.9,0,0,0-2.374-.807,3.187,3.187,0,0,0-3.074,3.057,4.626,4.626,0,0,0,.641,2.3,18.214,18.214,0,0,0,3.02,3.4,12.467,12.467,0,0,1,2.562,3.122,6.266,6.266,0,0,1,.651,2.842,5.823,5.823,0,0,1-.91,3.165,6,6,0,0,1-2.659,2.25,9.38,9.38,0,0,1-3.951.8,18.37,18.37,0,0,1-3.413-.4,18.1,18.1,0,0,0-2.74-.4,2.672,2.672,0,0,0-.958.167,4.893,4.893,0,0,0-1.06.641h-.614l1.911-8.155h.6a11.81,11.81,0,0,0,.867,3.649,5.4,5.4,0,0,0,1.895,2.352,4.858,4.858,0,0,0,2.8.845,3.566,3.566,0,0,0,2.61-1.033,3.292,3.292,0,0,0,1.05-2.422,4.719,4.719,0,0,0-.592-2.271,16.228,16.228,0,0,0-2.7-3.171,14.75,14.75,0,0,1-2.912-3.719,5.917,5.917,0,0,1-.581-2.589,5.417,5.417,0,0,1,1.878-4.112,6.929,6.929,0,0,1,4.9-1.733,14.421,14.421,0,0,1,3.612.614,8.082,8.082,0,0,0,1.846.36,1.72,1.72,0,0,0,.818-.194,3.322,3.322,0,0,0,.85-.781Zm-18.987,0-1.48,6.857h-.6a6.654,6.654,0,0,0-1.351-4.311,4.448,4.448,0,0,0-3.429-1.319,7.87,7.87,0,0,0-4.543,1.6,12.482,12.482,0,0,0-3.87,4.936,16.041,16.041,0,0,0-1.6,7.014,7.256,7.256,0,0,0,1.415,4.817,4.267,4.267,0,0,0,3.332,1.663,5.579,5.579,0,0,0,1.954-.458l1.637-5.647a8.918,8.918,0,0,0,.414-1.862,1.224,1.224,0,0,0-.5-.985,2.753,2.753,0,0,0-1.712-.4l.162-.6h9.226l-.145.6a2.933,2.933,0,0,0-1.281.312,1.805,1.805,0,0,0-.738.765,10.109,10.109,0,0,0-.49,1.545l-1.938,6.572a19.326,19.326,0,0,1-6.97,1.265,10.341,10.341,0,0,1-4.8-1.028,8.179,8.179,0,0,1-3.278-3.246,9.857,9.857,0,0,1-1.3-5.065q0-6.055,5.378-9.979a15.9,15.9,0,0,1,9.554-3.041,14.217,14.217,0,0,1,1.722.092c.388.054,1.071.2,2.051.441a6.635,6.635,0,0,0,1.292.237,1.711,1.711,0,0,0,1.308-.77Zm-36.879.484,6.685,14.259,3.009-10.346a5.589,5.589,0,0,0,.237-1.512,1.658,1.658,0,0,0-.5-1.265,2.743,2.743,0,0,0-1.712-.549l.172-.587H472.7l-.156.587a3.776,3.776,0,0,0-2.137.727,5.059,5.059,0,0,0-1.427,2.6l-5.221,17.709h-.6l-8.58-18.231-4.145,14.21a4.939,4.939,0,0,0-.21,1.324,1.763,1.763,0,0,0,.56,1.362,2.6,2.6,0,0,0,1.793.516l-.14.581h-6.97l.14-.581a3.575,3.575,0,0,0,1.276-.161,3.4,3.4,0,0,0,1.3-.969,5.435,5.435,0,0,0,1.022-2.072l4.527-15.534a5.23,5.23,0,0,0-1.4-1.2,4.333,4.333,0,0,0-1.7-.28l.172-.587Zm-20.564.587.172-.587h10.442l-.2.587a3.288,3.288,0,0,0-2.169.63,5.494,5.494,0,0,0-1.319,2.632l-3.908,13.688a8.755,8.755,0,0,0-.425,1.938,1.03,1.03,0,0,0,.442.888,4.107,4.107,0,0,0,2.142.441l-.156.581H431.861l.172-.581a3.67,3.67,0,0,0,2.336-.608,5.549,5.549,0,0,0,1.34-2.659l3.94-13.688a7.6,7.6,0,0,0,.366-1.905,1.084,1.084,0,0,0-.441-.915A4.666,4.666,0,0,0,437.459,141.259Zm-20.924,9.253h7.821l1.739-5.975a7.489,7.489,0,0,0,.344-1.879,1.135,1.135,0,0,0-.425-.958,4.4,4.4,0,0,0-2.051-.441l.172-.587h10.631l-.172.587a3.655,3.655,0,0,0-2.368.662,5.389,5.389,0,0,0-1.373,2.616l-3.972,13.688a7.83,7.83,0,0,0-.393,1.922,1.017,1.017,0,0,0,.425.888,3.7,3.7,0,0,0,2,.441l-.156.581H418.333l.237-.581a3.485,3.485,0,0,0,2.234-.592,5.631,5.631,0,0,0,1.313-2.659l1.846-6.373h-7.789l-1.83,6.373a7.491,7.491,0,0,0-.393,1.938,1.1,1.1,0,0,0,.479.926,3.621,3.621,0,0,0,1.9.388l-.156.581H405.893l.172-.581a3.4,3.4,0,0,0,2.212-.592,5.745,5.745,0,0,0,1.3-2.659l3.972-13.688a7.086,7.086,0,0,0,.35-1.862,1.164,1.164,0,0,0-.42-.974,4.164,4.164,0,0,0-1.991-.441l.172-.587h10.453l-.237.587a3.343,3.343,0,0,0-2.19.619,5.776,5.776,0,0,0-1.357,2.659Zm-25.1-9.839h17.2l-1.626,5.76h-.565q.032-.46.032-.808a3.331,3.331,0,0,0-.964-2.546,5.123,5.123,0,0,0-3.246-1.033l-4.764,16.1a7.835,7.835,0,0,0-.393,1.991,1.122,1.122,0,0,0,.484.953,3.9,3.9,0,0,0,1.992.388l-.145.581H388.833l.188-.581a3.725,3.725,0,0,0,2.363-.608,5.713,5.713,0,0,0,1.356-2.724l4.764-16.1a8.435,8.435,0,0,0-4.118,1.071,9.218,9.218,0,0,0-3.025,3.316h-.619Zm-18.164,10c.366.021.678.032.931.032a4.976,4.976,0,0,0,3.784-1.577,5.817,5.817,0,0,0,1.48-4.134,3.144,3.144,0,0,0-.786-2.3,2.834,2.834,0,0,0-2.083-.786q-.315,0-.743.016Zm-.22.947-1.895,6.481a7.91,7.91,0,0,0-.409,2.019,1.13,1.13,0,0,0,.49.958,3.9,3.9,0,0,0,2.035.4l-.22.581h-10.3l.189-.581a3.5,3.5,0,0,0,2.26-.6,5.674,5.674,0,0,0,1.319-2.68l3.972-13.72a6.987,6.987,0,0,0,.334-1.814,1.157,1.157,0,0,0-.414-.958,3.9,3.9,0,0,0-1.905-.441l.156-.587h8.866q3.794,0,5.345,1.324a4.289,4.289,0,0,1,1.545,3.408,5.43,5.43,0,0,1-1.8,3.962,9.685,9.685,0,0,1-4.021,1.905l1.921,6.481a8.549,8.549,0,0,0,1.352,3.138,2.913,2.913,0,0,0,1.916.587v.581h-6.658L374.1,151.621l-.522.027C373.469,151.648,373.291,151.637,373.049,151.621ZM353.5,141.857l-2.384,8.3h.727a8.751,8.751,0,0,0,4.188-.759,5.8,5.8,0,0,0,2.228-2.681h.587l-2.4,8.327h-.549a8.734,8.734,0,0,0,.14-1.357,1.98,1.98,0,0,0-.511-1.415,2.8,2.8,0,0,0-1.335-.791,9.973,9.973,0,0,0-2.223-.156h-1.227l-2.051,7.175a5.82,5.82,0,0,0-.269,1.4.663.663,0,0,0,.35.581,3.928,3.928,0,0,0,1.905.318,11.57,11.57,0,0,0,5.082-1.147,12.51,12.51,0,0,0,4.269-3.461h.651l-2.223,5.867h-18.3l.189-.581a3.711,3.711,0,0,0,2.352-.608,5.572,5.572,0,0,0,1.34-2.675l4.021-13.764a7.024,7.024,0,0,0,.328-1.814,1.086,1.086,0,0,0-.425-.926,4.162,4.162,0,0,0-1.938-.431l.172-.587H363.24l-1.372,5.345H361.3a4.593,4.593,0,0,0-.49-2.223,3.881,3.881,0,0,0-1.76-1.475,9.9,9.9,0,0,0-3.553-.463Zm-16.839,20.2H319.579l.172-.581a3.429,3.429,0,0,0,2.229-.592,5.749,5.749,0,0,0,1.3-2.659l3.972-13.736a6.831,6.831,0,0,0,.334-1.782,1.218,1.218,0,0,0-.474-1.007,3.458,3.458,0,0,0-1.862-.441l.178-.587h10.265l-.173.587a3.455,3.455,0,0,0-2.218.662,5.529,5.529,0,0,0-1.3,2.568l-3.628,12.568a16.443,16.443,0,0,0-.689,2.917.758.758,0,0,0,.35.592,1.893,1.893,0,0,0,1.147.274,11.349,11.349,0,0,0,5.054-1.195,10.949,10.949,0,0,0,4.123-3.579h.662Zm-26.318-20.2-2.385,8.3h.727a8.75,8.75,0,0,0,4.188-.759,5.8,5.8,0,0,0,2.229-2.681h.587l-2.4,8.327h-.549a8.777,8.777,0,0,0,.14-1.357,1.982,1.982,0,0,0-.511-1.415,2.8,2.8,0,0,0-1.335-.791,9.972,9.972,0,0,0-2.223-.156h-1.227l-2.051,7.175a5.82,5.82,0,0,0-.269,1.4.663.663,0,0,0,.35.581,3.928,3.928,0,0,0,1.906.318,11.568,11.568,0,0,0,5.081-1.147,12.508,12.508,0,0,0,4.269-3.461h.651l-2.223,5.867H297l.189-.581a3.709,3.709,0,0,0,2.352-.608,5.565,5.565,0,0,0,1.34-2.675l4.021-13.764a7.01,7.01,0,0,0,.328-1.814,1.085,1.085,0,0,0-.425-.926,4.161,4.161,0,0,0-1.938-.431l.172-.587h17.047l-1.373,5.345h-.565a4.589,4.589,0,0,0-.49-2.223,3.878,3.878,0,0,0-1.76-1.475,9.894,9.894,0,0,0-3.552-.463Zm-11.419-1.669-1.577,6.793h-.613a6.349,6.349,0,0,0-1.362-4.139,4.242,4.242,0,0,0-3.273-1.362,6.677,6.677,0,0,0-4.338,1.857,14.2,14.2,0,0,0-3.66,5.695,16.817,16.817,0,0,0-1.211,6.136,5.849,5.849,0,0,0,1.33,4.139,4.748,4.748,0,0,0,3.655,1.426,7.2,7.2,0,0,0,3.418-.818,11.063,11.063,0,0,0,3.122-2.67h.759a13.047,13.047,0,0,1-3.951,4.118,9.385,9.385,0,0,1-4.882,1.184,8.436,8.436,0,0,1-6.217-2.342,8.241,8.241,0,0,1-2.358-6.115,13.181,13.181,0,0,1,1.873-6.739,15.216,15.216,0,0,1,12.412-7.164,12.385,12.385,0,0,1,3.294.565,6.308,6.308,0,0,0,1.405.285,2.268,2.268,0,0,0,1.593-.851Z" transform="translate(-145.819 -61.474)" fill="#fff"/>
      <path id="Path_1195" data-name="Path 1195" d="M192.265,91.89h11.847l4.35,6.479q14.859-15.141,45.307-24.713l6.664,7.451c-27.962,4.093-50.252,18.049-68.26,44.289l9.071-19.946-8.98-13.561" transform="translate(-93.565 -20.855)" fill="#fff" fill-rule="evenodd"/>
      <path id="Path_1196" data-name="Path 1196" d="M233.375,154.178l10.607,17.6H233.653l-7.109-11.274Z" transform="translate(-114.549 -70.016)" fill="#fff" fill-rule="evenodd"/>
      <path id="Path_1197" data-name="Path 1197" d="M39.812,211.178H98.585a.891.891,0,1,1,0,1.782H39.812a.891.891,0,0,1,0-1.782" transform="translate(0 -104.815)" fill="#fff" fill-rule="evenodd"/>
      <path id="Path_1198" data-name="Path 1198" d="M51.314,217.874h50.069a.683.683,0,0,1,0,1.366H51.314a.683.683,0,0,1,0-1.366" transform="translate(-7.149 -108.903)" fill="#fff" fill-rule="evenodd"/>
      <path id="Path_1199" data-name="Path 1199" d="M60.033,223.5h43.276a.683.683,0,1,1,0,1.365H60.033a.683.683,0,1,1,0-1.365" transform="translate(-12.472 -112.339)" fill="#fff" fill-rule="evenodd"/>
      <path id="Path_1200" data-name="Path 1200" d="M70.949,229.127h34.774a.683.683,0,1,1,0,1.365H70.949a.683.683,0,1,1,0-1.365" transform="translate(-19.137 -115.774)" fill="#fff" fill-rule="evenodd"/>
      <path id="Path_1201" data-name="Path 1201" d="M82.606,234.754H108.3a.683.683,0,0,1,0,1.366H82.606a.683.683,0,0,1,0-1.366" transform="translate(-26.254 -119.209)" fill="#fff" fill-rule="evenodd"/>
      <path id="Path_1202" data-name="Path 1202" d="M90.287,240.381h19.979a.463.463,0,1,1,0,.925H90.287a.463.463,0,0,1,0-.925" transform="translate(-31.078 -122.644)" fill="#fff" fill-rule="evenodd"/>
      <path id="Path_1203" data-name="Path 1203" d="M99.377,244.878h12.9a.463.463,0,0,1,0,.925h-12.9a.463.463,0,1,1,0-.925" transform="translate(-36.627 -125.39)" fill="#fff" fill-rule="evenodd"/>
      <path id="Path_1204" data-name="Path 1204" d="M89.475,134.271c-.07-4.733,1.218-8.151,3.443-10.663,2.035-3.068,7.352-6.122,10.511-4.553,3.412,1.694,1.806,6.537.106,8.935-3.47,4.9-8.591,5.784-14.06,6.281m17.165-33.088c-1.714,2.776-1.434,4.513,1.111,5.068,2.168.188,3.316-1.207,3.818-3.61.619-4.666-2.171-5.543-4.928-6.456-5.441-1.05-10.132.009-14.092,3.124-1.936,2.049-2.738,4.245-1.8,6.664,1.624,2.842,5.044,4.526,7.428,5.97l-.833,1.458c-6.666.523-13.412.87-18.259,4.383-2.7,1.956-3.807,3.544-4.222,6.814-.662,5.212,2.064,8.78,10.4,9.629a30.326,30.326,0,0,1,2.376-9.335c2.466-5.415,6.927-9.119,13.091-9.1q.576,0,1.164.06c2.96.294,4.36,1.067,6.063,3.525,1.87,2.7,2.043,5.733.157,9.2-3.8,6.988-18.776,9.707-28.413,7.484-4.208-.971-7.005-2.393-8.38-6.648a10.27,10.27,0,0,1-.485-2.612c-.391-7.171,4.332-10.574,10.054-13.338l6.595-2.291c-3.108-2.751-5.121-5.82-4.122-9.76.849-3.352,2.786-4.643,5.8-6.135,8.487-4.206,22.078-4.442,25.745,3.748,1.21,4.931-.261,8.142-3.957,9.927a12.667,12.667,0,0,1-3.1.406,6.782,6.782,0,0,1-5.228-2.211,5.526,5.526,0,0,1-.74-1.486,4.786,4.786,0,0,1,1.51-5.074C105.32,99,107.655,99.633,106.639,101.183Z" transform="translate(-19.468 -32.307)" fill="#fff" fill-rule="evenodd"/>
      <path id="Path_1205" data-name="Path 1205" d="M112.384,218.172a137.992,137.992,0,0,0-4.054-15.9l-.421-2.579,4.216-.047q-.175,1.293-.349,2.587a92.815,92.815,0,0,0,1.478,15.9c.094.619-.721.792-.87.033" transform="translate(-42.119 -97.776)" fill="#fff" fill-rule="evenodd"/>
      <path id="Path_1206" data-name="Path 1206" d="M366.172,213.67a6.244,6.244,0,0,0,1.9-1.242,1.383,1.383,0,0,0,.433-.922.813.813,0,0,0-.177-.55.582.582,0,0,0-.462-.205.906.906,0,0,0-.567.225,2.239,2.239,0,0,0-.62.9,8.106,8.106,0,0,0-.511,1.8m2.754,1.163.26.353q-1.931,1.868-3.308,1.867a1.019,1.019,0,0,1-.855-.383,2.06,2.06,0,0,1-.3-1.237,6.567,6.567,0,0,1,1.024-3.415,3.269,3.269,0,0,1,2.749-1.932,1.194,1.194,0,0,1,.854.285,1.041,1.041,0,0,1,.293.782,1.767,1.767,0,0,1-.352,1.026,4.121,4.121,0,0,1-1.269,1.051c-.3.175-.957.492-1.954.952a5.319,5.319,0,0,0-.07.826,1.324,1.324,0,0,0,.177.794.617.617,0,0,0,.516.224,1.664,1.664,0,0,0,.71-.183A10.32,10.32,0,0,0,368.927,214.833Zm-4.713.079.266.287a7.815,7.815,0,0,1-1.451,1.289,2.662,2.662,0,0,1-1.384.58.5.5,0,0,1-.4-.189.782.782,0,0,1-.159-.517,14.779,14.779,0,0,1,.489-2.66l.849-3.522a15.065,15.065,0,0,1,.782-2.556,3.64,3.64,0,0,1,1.382-1.533,3.545,3.545,0,0,1,1.883-.544.8.8,0,0,1,.532.164.505.505,0,0,1,.194.4.538.538,0,0,1-.188.421.824.824,0,0,1-.553.164,4.112,4.112,0,0,1-.669-.079,4.09,4.09,0,0,0-.7-.066.759.759,0,0,0-.489.137,1.746,1.746,0,0,0-.414.81c-.124.411-.323,1.223-.6,2.438l-.779,3.358c-.387,1.683-.583,2.564-.583,2.638,0,.172.062.257.183.257a1.114,1.114,0,0,0,.5-.208A8.152,8.152,0,0,0,364.213,214.912Zm-4.316-5.758h-.419a4.38,4.38,0,0,0,.064-.648.407.407,0,0,0-.263-.421,10.066,10.066,0,0,0-1.988-.1l-1.151.009-.873,3.544H356.9a2.251,2.251,0,0,0,.949-.118.868.868,0,0,0,.255-.58h.449c-.169.646-.317,1.357-.449,2.132h-.4c.027-.252.04-.446.04-.586a.376.376,0,0,0-.11-.216.335.335,0,0,0-.2-.088,3.85,3.85,0,0,0-.661-.041h-1.615a23.228,23.228,0,0,1-1.456,4.274,4.342,4.342,0,0,1,1.3-.233,11.009,11.009,0,0,1,2.314.3,5.437,5.437,0,0,0,.983.17.847.847,0,0,0,.559-.178.512.512,0,0,0,.212-.4,1.39,1.39,0,0,0-.1-.419,1.293,1.293,0,0,1-.062-.375.461.461,0,0,1,.145-.331.475.475,0,0,1,.349-.142.5.5,0,0,1,.406.192.773.773,0,0,1,.161.514,1.548,1.548,0,0,1-.586,1.193,2.265,2.265,0,0,1-1.548.514,11.284,11.284,0,0,1-1.274-.09,24.658,24.658,0,0,0-2.582-.191,22.558,22.558,0,0,0-2.725.191l.127-.44a4.877,4.877,0,0,0,1.094-.389.946.946,0,0,0,.277-.364,19.374,19.374,0,0,0,.978-3.054q.6-2.295,1.225-4.844a3.706,3.706,0,0,0-1.787.457,3.5,3.5,0,0,0-1.314,1.191,2.816,2.816,0,0,0-.473,1.543,2.366,2.366,0,0,0,.067.6,3.81,3.81,0,0,0,.3.72,1.048,1.048,0,0,1,.148.457.422.422,0,0,1-.145.315.51.51,0,0,1-.358.137.553.553,0,0,1-.489-.315,2.465,2.465,0,0,1-.266-1.243,4.314,4.314,0,0,1,1.25-3.021,4.744,4.744,0,0,1,3.646-1.341h2.7a8.448,8.448,0,0,0,2.069-.183C360.088,208.15,359.954,208.782,359.9,209.154Zm-15.879,7.69h-1.174l.551-2.157q.4-1.589.7-3.016a2.968,2.968,0,0,0,.07-.44c0-.129-.056-.192-.172-.192a.793.793,0,0,0-.363.164,7.569,7.569,0,0,0-.881.813l-.245-.279a6.107,6.107,0,0,1,1.508-1.24,2.737,2.737,0,0,1,1.156-.413.349.349,0,0,1,.223.069.221.221,0,0,1,.083.172,3.841,3.841,0,0,1-.1.553l-.339,1.437a10.2,10.2,0,0,1,1.8-2.181,1.337,1.337,0,0,1,.8-.432.537.537,0,0,1,.395.156.506.506,0,0,1,0,.733,2.344,2.344,0,0,1-.766.361,3.376,3.376,0,0,0-.948.479,4.525,4.525,0,0,0-.8.859,4.648,4.648,0,0,0-.61,1.007,16.459,16.459,0,0,0-.527,1.992Zm-4.668-6.141q-.669,0-1.3.974a4.957,4.957,0,0,0-.626,2.691,3.008,3.008,0,0,0,.387,1.642.859.859,0,0,0,.755.44,1.5,1.5,0,0,0,1.2-.832,4.888,4.888,0,0,0,.693-2.687,3.417,3.417,0,0,0-.32-1.716A.926.926,0,0,0,339.351,210.7Zm.669-.6a1.586,1.586,0,0,1,1.282.627,2.668,2.668,0,0,1,.513,1.738,4.744,4.744,0,0,1-1.228,3.2,3.476,3.476,0,0,1-2.6,1.415,1.752,1.752,0,0,1-1.357-.561,2.176,2.176,0,0,1-.516-1.533,5.52,5.52,0,0,1,.943-3.109A3.488,3.488,0,0,1,340.02,210.1Zm-8.8.523h1.884a10.476,10.476,0,0,1,1.061-2.983,4.448,4.448,0,0,1,1.559-1.543,3.588,3.588,0,0,1,1.811-.566,1.159,1.159,0,0,1,.725.194.564.564,0,0,1,.242.457.534.534,0,0,1-.164.4.6.6,0,0,1-.432.161,5.937,5.937,0,0,1-1.04-.169,3.139,3.139,0,0,0-.591-.079,1.147,1.147,0,0,0-.935.654,5.523,5.523,0,0,0-.669,1.768l-.395,1.708h2.08l-.127.569h-2.1l-1.242,5.115a7.1,7.1,0,0,1-1.841,3.536,3.908,3.908,0,0,1-2.743,1.2,1.205,1.205,0,0,1-.75-.2.586.586,0,0,1-.258-.484.492.492,0,0,1,.177-.4.773.773,0,0,1,.508-.148,4.257,4.257,0,0,1,.489.041,8.482,8.482,0,0,0,1.056.071,1.5,1.5,0,0,0,1.131-.372,4.639,4.639,0,0,0,.709-1.826l1.6-6.54h-1.881Zm-13.595,1.322-.236-.32a6.353,6.353,0,0,1,1.481-1.172,2.562,2.562,0,0,1,1.1-.377.357.357,0,0,1,.247.074.245.245,0,0,1,.083.2,3,3,0,0,1-.127.618c-.121.449-.2.8-.252,1.065q1.891-1.954,2.892-1.957a.511.511,0,0,1,.392.145.66.66,0,0,1,.134.457,4.763,4.763,0,0,1-.236,1.147,7.986,7.986,0,0,1,1.559-1.352,2.269,2.269,0,0,1,1.032-.4.665.665,0,0,1,.511.194.838.838,0,0,1,.183.591,2.431,2.431,0,0,1-.081.569c-.051.222-.245.89-.575,2.006a14.717,14.717,0,0,0-.621,2.476c0,.183.072.274.22.274a.517.517,0,0,0,.29-.1,7.5,7.5,0,0,0,.954-.835l.261.287c-.11.093-.32.279-.623.561a7.32,7.32,0,0,1-.865.722,1.577,1.577,0,0,1-.771.274.514.514,0,0,1-.416-.238,1.043,1.043,0,0,1-.183-.652,4.482,4.482,0,0,1,.11-.9c.073-.345.29-1.119.645-2.321a9.226,9.226,0,0,0,.4-1.645c0-.181-.078-.271-.237-.271a1.114,1.114,0,0,0-.527.2,4.061,4.061,0,0,0-1.134,1.018,3.853,3.853,0,0,0-.551,1.322q-.529,1.983-.788,3.232h-1.118l1.171-4.9a5.26,5.26,0,0,0,.126-.61.279.279,0,0,0-.062-.194.234.234,0,0,0-.183-.069,1.375,1.375,0,0,0-.661.337,4.4,4.4,0,0,0-1.121,1.1,5.235,5.235,0,0,0-.588,1.626l-.6,2.71h-1.126l.889-3.823c.263-1.109.393-1.708.393-1.806,0-.123-.046-.183-.14-.183C318.679,211.032,318.259,211.335,317.63,211.946Zm-3.59,4.9h-1.174l.551-2.157q.4-1.589.7-3.016a2.972,2.972,0,0,0,.07-.44c0-.129-.056-.192-.172-.192a.792.792,0,0,0-.363.164,7.582,7.582,0,0,0-.881.813l-.245-.279a6.115,6.115,0,0,1,1.508-1.24,2.737,2.737,0,0,1,1.156-.413.349.349,0,0,1,.223.069.221.221,0,0,1,.083.172,3.839,3.839,0,0,1-.1.553l-.338,1.437a10.17,10.17,0,0,1,1.8-2.181,1.336,1.336,0,0,1,.8-.432.536.536,0,0,1,.395.156.506.506,0,0,1,0,.733,2.34,2.34,0,0,1-.766.361,3.374,3.374,0,0,0-.949.479,4.526,4.526,0,0,0-.8.859,4.662,4.662,0,0,0-.61,1.007,16.479,16.479,0,0,0-.527,1.992Zm-4.668-6.141q-.669,0-1.3.974a4.958,4.958,0,0,0-.626,2.691,3.008,3.008,0,0,0,.387,1.642.859.859,0,0,0,.755.44,1.5,1.5,0,0,0,1.2-.832,4.888,4.888,0,0,0,.693-2.687,3.412,3.412,0,0,0-.32-1.716A.926.926,0,0,0,309.373,210.7Zm.669-.6a1.587,1.587,0,0,1,1.282.627,2.667,2.667,0,0,1,.513,1.738,4.744,4.744,0,0,1-1.228,3.2,3.476,3.476,0,0,1-2.6,1.415,1.751,1.751,0,0,1-1.357-.561,2.176,2.176,0,0,1-.516-1.533,5.519,5.519,0,0,1,.943-3.109A3.488,3.488,0,0,1,310.042,210.1Zm-8.8.523h1.884a10.489,10.489,0,0,1,1.062-2.983,4.445,4.445,0,0,1,1.558-1.543,3.589,3.589,0,0,1,1.811-.566,1.16,1.16,0,0,1,.726.194.565.565,0,0,1,.241.457.534.534,0,0,1-.164.4.6.6,0,0,1-.433.161,5.939,5.939,0,0,1-1.04-.169,3.142,3.142,0,0,0-.591-.079,1.147,1.147,0,0,0-.935.654,5.515,5.515,0,0,0-.669,1.768l-.395,1.708h2.08l-.126.569h-2.1l-1.241,5.115a7.108,7.108,0,0,1-1.841,3.536,3.907,3.907,0,0,1-2.743,1.2,1.206,1.206,0,0,1-.75-.2.586.586,0,0,1-.258-.484.493.493,0,0,1,.177-.4.773.773,0,0,1,.508-.148,4.263,4.263,0,0,1,.489.041,8.476,8.476,0,0,0,1.056.071,1.494,1.494,0,0,0,1.131-.372,4.644,4.644,0,0,0,.71-1.826l1.6-6.54h-1.881Zm-3.219-1.757,1.252-.49-.567,2.247h1.628l-.123.569h-1.631l-.693,2.685a7.853,7.853,0,0,0-.322,1.683.436.436,0,0,0,.091.312.317.317,0,0,0,.247.1,1.711,1.711,0,0,0,.747-.3,9.345,9.345,0,0,0,1.26-.89l.3.37a20.326,20.326,0,0,1-2.308,1.62,2.232,2.232,0,0,1-.935.3.551.551,0,0,1-.462-.217,1.158,1.158,0,0,1-.169-.706,8.029,8.029,0,0,1,.3-1.762l.811-3.191h-1.274l.14-.569h1.268Zm-4.582,2.326a3.564,3.564,0,0,0-.717-.09,2.011,2.011,0,0,0-1.236.4,3.581,3.581,0,0,0-.981,1.429,5.083,5.083,0,0,0-.451,2.055,1.319,1.319,0,0,0,.18.786.563.563,0,0,0,.473.241,1.761,1.761,0,0,0,1.166-.6,3.565,3.565,0,0,0,.911-1.719Zm.976-1.229.518-.112-.591,2.03q-.351,1.207-.669,2.789a7.5,7.5,0,0,0-.172,1.106c0,.167.064.249.2.249a.942.942,0,0,0,.4-.167,5.174,5.174,0,0,0,.935-.739l.253.312c-.6.555-.981.895-1.15,1.013a4.4,4.4,0,0,1-.959.52,1.685,1.685,0,0,1-.583.112.434.434,0,0,1-.306-.1.367.367,0,0,1-.1-.282,1.274,1.274,0,0,1,.062-.328l.314-1.089a6.7,6.7,0,0,1-1.612,1.418,2,2,0,0,1-1.056.37.823.823,0,0,1-.7-.328,1.88,1.88,0,0,1-.331-1.155,4.9,4.9,0,0,1,.446-1.891,6.962,6.962,0,0,1,1.193-1.894,5.085,5.085,0,0,1,1.575-1.251,3.812,3.812,0,0,1,1.637-.3,4.053,4.053,0,0,1,.513.033Zm-5.958,4.948.266.287a7.814,7.814,0,0,1-1.451,1.289,2.662,2.662,0,0,1-1.384.58.5.5,0,0,1-.4-.189.785.785,0,0,1-.159-.517,14.785,14.785,0,0,1,.489-2.66l.849-3.522a15.049,15.049,0,0,1,.782-2.556,3.639,3.639,0,0,1,1.381-1.533,3.547,3.547,0,0,1,1.884-.544.8.8,0,0,1,.532.164.506.506,0,0,1,.194.4.539.539,0,0,1-.188.421.826.826,0,0,1-.554.164,4.117,4.117,0,0,1-.669-.079,4.087,4.087,0,0,0-.7-.066.757.757,0,0,0-.489.137,1.75,1.75,0,0,0-.414.81q-.185.616-.6,2.438l-.779,3.358c-.387,1.683-.583,2.564-.583,2.638,0,.172.062.257.183.257a1.112,1.112,0,0,0,.5-.208A8.119,8.119,0,0,0,288.463,214.912Zm-8.416-5.742.094-.361a12.974,12.974,0,0,0,1.954-.32q-.2.563-.427,1.467l-.58,2.255.723.047a2.315,2.315,0,0,0,1.1-.257,2.943,2.943,0,0,0,1.532-2.51,1.572,1.572,0,0,0-.572-1.281,2.678,2.678,0,0,0-1.744-.474,5.547,5.547,0,0,0-2.62.676,5.236,5.236,0,0,0-1.98,1.732,3.761,3.761,0,0,0-.7,2.08,1.984,1.984,0,0,0,.18.879,2.179,2.179,0,0,0,.645.733c.258.194.387.381.387.561a.4.4,0,0,1-.127.3.419.419,0,0,1-.3.12c-.312,0-.61-.216-.9-.652a2.885,2.885,0,0,1-.433-1.642,4.81,4.81,0,0,1,1.368-3.319,6.2,6.2,0,0,1,4.818-1.973,4.943,4.943,0,0,1,1.887.307,2.4,2.4,0,0,1,1.1.832,1.975,1.975,0,0,1,.366,1.147,2.709,2.709,0,0,1-.516,1.543,3.6,3.6,0,0,1-1.518,1.223,5.26,5.26,0,0,1-2.233.465c-.123,0-.322-.008-.588-.025l-.623,2.493q-.158.636-.355,1.251a4.579,4.579,0,0,0,1.072.153,3.836,3.836,0,0,0,1.236-.224l-.094.449a4.088,4.088,0,0,1-1.04.169,11.3,11.3,0,0,1-1.2-.09,8.84,8.84,0,0,0-1.024-.079,6.965,6.965,0,0,0-1.567.183l.094-.424a2.415,2.415,0,0,0,1.118-.391,2.822,2.822,0,0,0,.693-1.453l1.188-4.8a2.326,2.326,0,0,0,.078-.471.3.3,0,0,0-.1-.23.336.336,0,0,0-.242-.1A1.059,1.059,0,0,0,280.047,209.171Zm-10.061-.3,1.253-.49-.567,2.247H272.3l-.123.569h-1.632l-.693,2.685a7.839,7.839,0,0,0-.323,1.683.434.434,0,0,0,.092.312.317.317,0,0,0,.247.1,1.713,1.713,0,0,0,.747-.3,9.367,9.367,0,0,0,1.26-.89l.3.37a20.364,20.364,0,0,1-2.308,1.62,2.236,2.236,0,0,1-.935.3.552.552,0,0,1-.462-.217,1.158,1.158,0,0,1-.169-.706,8.055,8.055,0,0,1,.3-1.762l.812-3.191h-1.274l.139-.569h1.269Zm-3.9,1.226a1.832,1.832,0,0,1,1.083.277.791.791,0,0,1,.381.638.513.513,0,0,1-.161.377.533.533,0,0,1-.39.159.5.5,0,0,1-.261-.066,1.58,1.58,0,0,1-.314-.342,1.035,1.035,0,0,0-.763-.52.778.778,0,0,0-.572.252.865.865,0,0,0-.247.63,1.389,1.389,0,0,0,.159.638,5.49,5.49,0,0,0,.8,1,2.746,2.746,0,0,1,.874,1.8,1.94,1.94,0,0,1-.71,1.486,2.618,2.618,0,0,1-1.827.638,2.1,2.1,0,0,1-1.392-.389,1.214,1.214,0,0,1-.457-.958.653.653,0,0,1,.172-.465.562.562,0,0,1,.427-.183.532.532,0,0,1,.376.148.462.462,0,0,1,.159.347,1.743,1.743,0,0,1-.016.208c-.005.071-.008.129-.008.178a.563.563,0,0,0,.22.449.859.859,0,0,0,.583.183,1.786,1.786,0,0,0,.747-.148,1.129,1.129,0,0,0,.505-.449,1.147,1.147,0,0,0,.18-.6,1.13,1.13,0,0,0-.169-.577,7.383,7.383,0,0,0-.761-.955,2.762,2.762,0,0,1-.817-1.787,1.837,1.837,0,0,1,.621-1.374A2.205,2.205,0,0,1,266.081,210.093Zm-7.564,3.577a6.241,6.241,0,0,0,1.905-1.242,1.385,1.385,0,0,0,.433-.922.813.813,0,0,0-.178-.55.58.58,0,0,0-.462-.205.906.906,0,0,0-.567.225,2.243,2.243,0,0,0-.621.9A8.1,8.1,0,0,0,258.517,213.67Zm2.754,1.163.261.353q-1.931,1.868-3.308,1.867a1.018,1.018,0,0,1-.854-.383,2.057,2.057,0,0,1-.3-1.237,6.562,6.562,0,0,1,1.024-3.415,3.268,3.268,0,0,1,2.749-1.932,1.193,1.193,0,0,1,.854.285,1.04,1.04,0,0,1,.293.782,1.767,1.767,0,0,1-.352,1.026,4.123,4.123,0,0,1-1.268,1.051q-.456.262-1.954.952a5.274,5.274,0,0,0-.07.826,1.32,1.32,0,0,0,.178.794.616.616,0,0,0,.516.224,1.662,1.662,0,0,0,.709-.183A10.321,10.321,0,0,0,261.271,214.833Zm-9.016-4.209h1.884a10.476,10.476,0,0,1,1.061-2.983,4.446,4.446,0,0,1,1.559-1.543,3.587,3.587,0,0,1,1.811-.566,1.16,1.16,0,0,1,.726.194.565.565,0,0,1,.242.457.534.534,0,0,1-.164.4.6.6,0,0,1-.433.161,5.94,5.94,0,0,1-1.04-.169,3.142,3.142,0,0,0-.591-.079,1.148,1.148,0,0,0-.935.654,5.531,5.531,0,0,0-.669,1.768l-.395,1.708h2.08l-.126.569h-2.1l-1.241,5.115a7.11,7.11,0,0,1-1.841,3.536,3.909,3.909,0,0,1-2.744,1.2,1.206,1.206,0,0,1-.75-.2.587.587,0,0,1-.258-.484.493.493,0,0,1,.177-.4.773.773,0,0,1,.508-.148,4.263,4.263,0,0,1,.489.041,8.477,8.477,0,0,0,1.056.071,1.494,1.494,0,0,0,1.131-.372,4.638,4.638,0,0,0,.71-1.826l1.6-6.54h-1.881Zm-2.644.569a3.571,3.571,0,0,0-.718-.09,2.01,2.01,0,0,0-1.236.4,3.585,3.585,0,0,0-.981,1.429,5.089,5.089,0,0,0-.451,2.055,1.322,1.322,0,0,0,.18.786.565.565,0,0,0,.473.241,1.761,1.761,0,0,0,1.166-.6,3.562,3.562,0,0,0,.911-1.719Zm.975-1.229.519-.112-.591,2.03q-.351,1.207-.669,2.789a7.471,7.471,0,0,0-.172,1.106c0,.167.065.249.2.249a.942.942,0,0,0,.4-.167,5.185,5.185,0,0,0,.935-.739l.252.312c-.6.555-.981.895-1.15,1.013a4.417,4.417,0,0,1-.959.52,1.687,1.687,0,0,1-.583.112.433.433,0,0,1-.306-.1.365.365,0,0,1-.1-.282,1.288,1.288,0,0,1,.062-.328l.314-1.089a6.7,6.7,0,0,1-1.612,1.418,2,2,0,0,1-1.056.37.824.824,0,0,1-.7-.328,1.882,1.882,0,0,1-.33-1.155,4.9,4.9,0,0,1,.446-1.891,6.961,6.961,0,0,1,1.193-1.894,5.086,5.086,0,0,1,1.575-1.251,3.81,3.81,0,0,1,1.636-.3,4.044,4.044,0,0,1,.513.033Zm-6.054.377h-.411c.059-.561.088-.985.088-1.275a1.392,1.392,0,0,0-.328-.974,1.142,1.142,0,0,0-.887-.356,2.087,2.087,0,0,0-1.51.638,1.964,1.964,0,0,0-.645,1.431,1.659,1.659,0,0,0,.178.769,4.619,4.619,0,0,0,.782.963,9.037,9.037,0,0,1,1.457,1.73,2.517,2.517,0,0,1,.347,1.221,3.051,3.051,0,0,1-.524,1.683,3.923,3.923,0,0,1-1.543,1.335,4.632,4.632,0,0,1-2.152.525,3,3,0,0,1-1.887-.594,1.639,1.639,0,0,1-.768-1.251.865.865,0,0,1,.2-.586.594.594,0,0,1,.459-.233.533.533,0,0,1,.441.216,1.583,1.583,0,0,1,.223.578,2.209,2.209,0,0,0,.307.791,1.354,1.354,0,0,0,.5.4,1.556,1.556,0,0,0,.7.156,2.817,2.817,0,0,0,1.97-.775,2.3,2.3,0,0,0,.841-1.71,1.942,1.942,0,0,0-.107-.638,2.749,2.749,0,0,0-.389-.717,9.929,9.929,0,0,0-.874-.964,8.925,8.925,0,0,1-.841-.922,2.822,2.822,0,0,1-.363-.725,2.365,2.365,0,0,1-.118-.725,2.679,2.679,0,0,1,.481-1.467,3.564,3.564,0,0,1,1.247-1.174,3.453,3.453,0,0,1,1.744-.438,5.984,5.984,0,0,1,1.2.153c.274.052.511.093.71.12a8.73,8.73,0,0,0-.269.983Q244.7,208.97,244.533,210.342Z" transform="translate(-120.767 -101.368)" fill="#fff"/>
      <path id="Path_1207" data-name="Path 1207" d="M677.993,215.112a.66.66,0,0,1,.516.238.86.86,0,0,1,.207.6,1.264,1.264,0,0,1-.242.818.767.767,0,0,1-.615.3.689.689,0,0,1-.516-.219.788.788,0,0,1-.207-.566,1.4,1.4,0,0,1,.29-.881.673.673,0,0,1,.567-.282m-3.55,0a.66.66,0,0,1,.516.238.86.86,0,0,1,.207.6,1.263,1.263,0,0,1-.242.818.767.767,0,0,1-.615.3.69.69,0,0,1-.516-.219.79.79,0,0,1-.206-.566,1.406,1.406,0,0,1,.29-.881A.674.674,0,0,1,674.443,215.112Zm-3.55,0a.66.66,0,0,1,.516.238.862.862,0,0,1,.207.6,1.264,1.264,0,0,1-.242.818.767.767,0,0,1-.615.3.689.689,0,0,1-.516-.219.788.788,0,0,1-.207-.566,1.406,1.406,0,0,1,.29-.881A.674.674,0,0,1,670.893,215.112Zm-3.762.49a24.356,24.356,0,0,1-2.064,1.563,8.567,8.567,0,0,0-1.653,1.338,1.469,1.469,0,0,0-.306.884,1.091,1.091,0,0,0,.4.821,1.368,1.368,0,0,0,.965.364,2.162,2.162,0,0,0,1.037-.268,2.608,2.608,0,0,0,.879-.777,3,3,0,0,0,.516-1.15,8.531,8.531,0,0,0,.151-1.7C667.059,216.521,667.083,216.163,667.131,215.6Zm1.069-4.37a3.727,3.727,0,0,0-.669-.071,2.088,2.088,0,0,0-1.282.4,3.059,3.059,0,0,0-.914,1.349,6.37,6.37,0,0,0-.527,2.252.973.973,0,0,0,.207.632.6.6,0,0,0,.47.257,1.525,1.525,0,0,0,.779-.309,2.554,2.554,0,0,0,.758-.775,6.2,6.2,0,0,0,.6-1.6Zm.881-1.185.64-.145q-.577,1.876-1.056,3.76c-.231.9-.39,1.645-.481,2.244a8.442,8.442,0,0,0-.078,1.139,6.258,6.258,0,0,1-.252,1.861,3.016,3.016,0,0,1-1.231,1.587,3.775,3.775,0,0,1-2.136.6,2.534,2.534,0,0,1-1.674-.509,1.5,1.5,0,0,1-.61-1.168,1.8,1.8,0,0,1,.489-1.21,5.46,5.46,0,0,1,1.51-1.026c.39-.208.752-.421,1.094-.64a2.17,2.17,0,0,1-.906.3.66.66,0,0,1-.516-.277,1.14,1.14,0,0,1-.223-.733,5.7,5.7,0,0,1,.863-2.931,6.092,6.092,0,0,1,2.074-2.184,3.566,3.566,0,0,1,1.873-.449c.148,0,.328.005.543.016Zm-12.477,1.932-.269-.282a8.128,8.128,0,0,1,1.607-1.3,2.231,2.231,0,0,1,1.024-.323.4.4,0,0,1,.258.074.2.2,0,0,1,.094.167,1.36,1.36,0,0,1-.038.257l-.355,1.612a9.674,9.674,0,0,1,2.016-1.691,2.141,2.141,0,0,1,1.061-.41.6.6,0,0,1,.481.2.849.849,0,0,1,.175.574,2.521,2.521,0,0,1-.073.564c-.083.345-.3,1.1-.661,2.269a9.52,9.52,0,0,0-.5,2.173.467.467,0,0,0,.046.238.15.15,0,0,0,.134.082c.154,0,.392-.15.718-.449.231-.213.46-.413.691-.594l.2.287a7.208,7.208,0,0,1-1.5,1.316,1.635,1.635,0,0,1-.82.32.543.543,0,0,1-.462-.222,1.209,1.209,0,0,1-.167-.717,17.76,17.76,0,0,1,.874-3.552,8.348,8.348,0,0,0,.269-1.177c0-.167-.1-.249-.293-.249a1.58,1.58,0,0,0-.809.336,4.92,4.92,0,0,0-1.236,1.172,3.845,3.845,0,0,0-.529,1.379l-.637,2.8h-1.172q.33-1.2.572-2.3l.7-3.046a1.408,1.408,0,0,0,.04-.265c0-.142-.054-.216-.159-.216a.729.729,0,0,0-.36.169A4.743,4.743,0,0,0,656.606,211.978Zm-3.848-.016-.347-.274a6.145,6.145,0,0,1,1.435-1.253,2.341,2.341,0,0,1,1.107-.375.586.586,0,0,1,.384.112.375.375,0,0,1,.134.306,15.008,15.008,0,0,1-.51,1.973,20.085,20.085,0,0,0-.836,3.429.3.3,0,0,0,.057.189.144.144,0,0,0,.118.077q.25,0,1.29-.994l.306.3a10.342,10.342,0,0,1-1.572,1.325,1.756,1.756,0,0,1-.812.287.561.561,0,0,1-.438-.175.7.7,0,0,1-.161-.49,24.587,24.587,0,0,1,1.182-4.9,1.242,1.242,0,0,0,.054-.329c0-.106-.046-.161-.142-.161a.693.693,0,0,0-.358.129A7.857,7.857,0,0,0,652.758,211.962Zm3.1-5.309a.532.532,0,0,1,.4.164.589.589,0,0,1,.158.421.9.9,0,0,1-.242.621.7.7,0,0,1-.538.268.517.517,0,0,1-.395-.167.62.62,0,0,1-.156-.44.875.875,0,0,1,.228-.613A.7.7,0,0,1,655.859,206.653Zm-4.128,8.492.2.3a6.922,6.922,0,0,1-1.486,1.3,1.739,1.739,0,0,1-.86.328.527.527,0,0,1-.443-.224,1.164,1.164,0,0,1-.17-.7,4.923,4.923,0,0,1,.129-.933c.086-.411.333-1.286.737-2.636a8.03,8.03,0,0,0,.269-1.16.239.239,0,0,0-.269-.274,1.585,1.585,0,0,0-.825.337,4.925,4.925,0,0,0-1.228,1.188,3.773,3.773,0,0,0-.546,1.379l-.629,2.789H645.44q.379-1.4.583-2.294l1.158-5.148a6.483,6.483,0,0,1,.831-2.184,3.818,3.818,0,0,1,1.346-1.223,3.4,3.4,0,0,1,1.642-.457.8.8,0,0,1,.535.169.53.53,0,0,1,.2.424.492.492,0,0,1-.191.38.783.783,0,0,1-.524.164,4.14,4.14,0,0,1-.489-.039,7.794,7.794,0,0,0-.938-.1.712.712,0,0,0-.588.3,4.14,4.14,0,0,0-.473,1.4l-.881,3.96a10.119,10.119,0,0,1,2.039-1.691,2.132,2.132,0,0,1,1.038-.41.621.621,0,0,1,.481.189.747.747,0,0,1,.172.525,2.355,2.355,0,0,1-.062.544q-.1.472-.481,1.716c-.341,1.144-.54,1.855-.6,2.132a3.648,3.648,0,0,0-.089.747.334.334,0,0,0,.043.191.14.14,0,0,0,.129.066c.126,0,.363-.153.71-.457C651.218,215.572,651.454,215.375,651.731,215.145Zm-9.274-6.278,1.253-.49-.567,2.247h1.628l-.123.569h-1.632l-.693,2.685a7.86,7.86,0,0,0-.323,1.683.436.436,0,0,0,.091.312.317.317,0,0,0,.247.1,1.711,1.711,0,0,0,.747-.3,9.373,9.373,0,0,0,1.26-.89l.3.37a20.351,20.351,0,0,1-2.308,1.62,2.235,2.235,0,0,1-.935.3.552.552,0,0,1-.462-.217,1.158,1.158,0,0,1-.169-.706,8.059,8.059,0,0,1,.3-1.762l.812-3.191h-1.274l.139-.569h1.268Zm-5.581,7.978H635.7l.551-2.157q.4-1.589.7-3.016a2.974,2.974,0,0,0,.07-.44c0-.129-.056-.192-.172-.192a.791.791,0,0,0-.363.164,7.573,7.573,0,0,0-.881.813l-.245-.279a6.116,6.116,0,0,1,1.507-1.24,2.737,2.737,0,0,1,1.156-.413.35.35,0,0,1,.223.069.221.221,0,0,1,.083.172,3.852,3.852,0,0,1-.1.553l-.339,1.437a10.2,10.2,0,0,1,1.8-2.181,1.336,1.336,0,0,1,.8-.432.536.536,0,0,1,.395.156.505.505,0,0,1,0,.733,2.337,2.337,0,0,1-.766.361,3.364,3.364,0,0,0-.948.479,4.514,4.514,0,0,0-.8.859,4.655,4.655,0,0,0-.61,1.007,16.511,16.511,0,0,0-.527,1.992Zm-3.835-5.651a3.565,3.565,0,0,0-.717-.09,2.012,2.012,0,0,0-1.236.4,3.579,3.579,0,0,0-.981,1.429,5.084,5.084,0,0,0-.451,2.055,1.319,1.319,0,0,0,.18.786.564.564,0,0,0,.473.241,1.762,1.762,0,0,0,1.167-.6,3.565,3.565,0,0,0,.911-1.719Zm.976-1.229.519-.112-.591,2.03q-.351,1.207-.669,2.789a7.479,7.479,0,0,0-.172,1.106c0,.167.065.249.2.249a.942.942,0,0,0,.4-.167,5.19,5.19,0,0,0,.935-.739l.252.312c-.6.555-.981.895-1.15,1.013a4.41,4.41,0,0,1-.959.52,1.686,1.686,0,0,1-.584.112.432.432,0,0,1-.306-.1.365.365,0,0,1-.1-.282,1.275,1.275,0,0,1,.062-.328l.314-1.089a6.693,6.693,0,0,1-1.612,1.418,2,2,0,0,1-1.056.37.824.824,0,0,1-.7-.328,1.879,1.879,0,0,1-.331-1.155,4.9,4.9,0,0,1,.446-1.891A6.972,6.972,0,0,1,630.1,211.8a5.089,5.089,0,0,1,1.575-1.251,3.812,3.812,0,0,1,1.637-.3,4.042,4.042,0,0,1,.513.033Zm-6.409-.81h-.419a4.334,4.334,0,0,0,.065-.648.407.407,0,0,0-.264-.421,10.062,10.062,0,0,0-1.988-.1l-1.15.009-.874,3.544h1.632a2.249,2.249,0,0,0,.948-.118.867.867,0,0,0,.256-.58h.449c-.169.646-.317,1.357-.449,2.132h-.4c.027-.252.041-.446.041-.586a.376.376,0,0,0-.11-.216.335.335,0,0,0-.2-.088,3.86,3.86,0,0,0-.661-.041h-1.615a23.246,23.246,0,0,1-1.457,4.274,4.344,4.344,0,0,1,1.3-.233,11.01,11.01,0,0,1,2.313.3,5.442,5.442,0,0,0,.983.17.849.849,0,0,0,.559-.178.513.513,0,0,0,.212-.4,1.391,1.391,0,0,0-.1-.419,1.306,1.306,0,0,1-.062-.375.461.461,0,0,1,.145-.331.476.476,0,0,1,.349-.142.5.5,0,0,1,.406.192.773.773,0,0,1,.161.514,1.548,1.548,0,0,1-.586,1.193,2.265,2.265,0,0,1-1.548.514,11.273,11.273,0,0,1-1.274-.09,24.656,24.656,0,0,0-2.583-.191,22.553,22.553,0,0,0-2.725.191l.126-.44a4.877,4.877,0,0,0,1.094-.389.946.946,0,0,0,.277-.364,19.407,19.407,0,0,0,.978-3.054q.6-2.295,1.225-4.844a3.706,3.706,0,0,0-1.787.457,3.5,3.5,0,0,0-1.314,1.191,2.816,2.816,0,0,0-.473,1.543,2.369,2.369,0,0,0,.067.6,3.8,3.8,0,0,0,.3.72,1.048,1.048,0,0,1,.148.457.422.422,0,0,1-.145.315.509.509,0,0,1-.357.137.553.553,0,0,1-.49-.315,2.464,2.464,0,0,1-.266-1.243,4.313,4.313,0,0,1,1.249-3.021,4.745,4.745,0,0,1,3.647-1.341h2.7a8.444,8.444,0,0,0,2.069-.183C627.8,208.15,627.664,208.782,627.608,209.154Zm-13.089,5.758.266.287a7.793,7.793,0,0,1-1.451,1.289,2.661,2.661,0,0,1-1.384.58.5.5,0,0,1-.4-.189.785.785,0,0,1-.159-.517,14.784,14.784,0,0,1,.489-2.66l.849-3.522a15.081,15.081,0,0,1,.782-2.556,3.641,3.641,0,0,1,1.381-1.533,3.548,3.548,0,0,1,1.884-.544.8.8,0,0,1,.532.164.507.507,0,0,1,.193.4.539.539,0,0,1-.188.421.824.824,0,0,1-.553.164,4.111,4.111,0,0,1-.669-.079,4.092,4.092,0,0,0-.7-.066.759.759,0,0,0-.489.137,1.75,1.75,0,0,0-.414.81c-.123.411-.322,1.223-.6,2.438l-.779,3.358c-.387,1.683-.583,2.564-.583,2.638,0,.172.062.257.183.257a1.112,1.112,0,0,0,.5-.208A8.123,8.123,0,0,0,614.518,214.912Zm-5.654-3.719a3.565,3.565,0,0,0-.717-.09,2.012,2.012,0,0,0-1.236.4,3.589,3.589,0,0,0-.981,1.429,5.09,5.09,0,0,0-.451,2.055,1.322,1.322,0,0,0,.18.786.564.564,0,0,0,.473.241,1.761,1.761,0,0,0,1.166-.6,3.562,3.562,0,0,0,.911-1.719Zm.976-1.229.519-.112-.591,2.03q-.351,1.207-.669,2.789a7.486,7.486,0,0,0-.172,1.106c0,.167.065.249.2.249a.942.942,0,0,0,.4-.167,5.18,5.18,0,0,0,.935-.739l.252.312c-.6.555-.981.895-1.15,1.013a4.406,4.406,0,0,1-.959.52,1.687,1.687,0,0,1-.583.112.433.433,0,0,1-.306-.1.365.365,0,0,1-.1-.282,1.287,1.287,0,0,1,.062-.328l.314-1.089a6.693,6.693,0,0,1-1.612,1.418,2,2,0,0,1-1.056.37.824.824,0,0,1-.7-.328,1.88,1.88,0,0,1-.331-1.155,4.9,4.9,0,0,1,.446-1.891,6.961,6.961,0,0,1,1.193-1.894,5.091,5.091,0,0,1,1.575-1.251,3.813,3.813,0,0,1,1.637-.3,4.045,4.045,0,0,1,.513.033Zm-6.527,5.139.167.465a5.548,5.548,0,0,1-3.166,1.5,1.092,1.092,0,0,1-1-.5,2.336,2.336,0,0,1-.309-1.259,5.866,5.866,0,0,1,.661-2.606,5.658,5.658,0,0,1,1.6-2.053,2.737,2.737,0,0,1,1.669-.553,1.462,1.462,0,0,1,.884.224.665.665,0,0,1,.3.545.546.546,0,0,1-.159.405.6.6,0,0,1-.441.156,1.5,1.5,0,0,1-.706-.255,1.534,1.534,0,0,0-.75-.273,1.141,1.141,0,0,0-.766.356,3.5,3.5,0,0,0-.728,1.385,6.406,6.406,0,0,0-.347,2.061,2.039,2.039,0,0,0,.29,1.177.677.677,0,0,0,.6.323A3.666,3.666,0,0,0,603.313,215.1Zm-7.933-3.142-.347-.274a6.157,6.157,0,0,1,1.435-1.253,2.342,2.342,0,0,1,1.107-.375.587.587,0,0,1,.384.112.376.376,0,0,1,.134.306,15.015,15.015,0,0,1-.511,1.973,20.085,20.085,0,0,0-.836,3.429.3.3,0,0,0,.057.189.145.145,0,0,0,.118.077q.25,0,1.29-.994l.306.3a10.345,10.345,0,0,1-1.572,1.325,1.758,1.758,0,0,1-.812.287.563.563,0,0,1-.438-.175.7.7,0,0,1-.161-.49,24.606,24.606,0,0,1,1.182-4.9,1.229,1.229,0,0,0,.054-.329c0-.106-.046-.161-.143-.161a.693.693,0,0,0-.357.129A7.877,7.877,0,0,0,595.38,211.962Zm3.1-5.309a.531.531,0,0,1,.4.164.587.587,0,0,1,.159.421.9.9,0,0,1-.242.621.7.7,0,0,1-.537.268.518.518,0,0,1-.4-.167.622.622,0,0,1-.156-.44.875.875,0,0,1,.229-.613A.7.7,0,0,1,598.481,206.653Zm-6.732,10.192h-1.174l.551-2.157q.4-1.589.7-3.016a3,3,0,0,0,.07-.44c0-.129-.057-.192-.172-.192a.791.791,0,0,0-.363.164,7.571,7.571,0,0,0-.881.813l-.245-.279a6.113,6.113,0,0,1,1.507-1.24,2.737,2.737,0,0,1,1.156-.413.35.35,0,0,1,.223.069.221.221,0,0,1,.083.172,3.815,3.815,0,0,1-.1.553l-.338,1.437a10.19,10.19,0,0,1,1.8-2.181,1.336,1.336,0,0,1,.8-.432.537.537,0,0,1,.4.156.506.506,0,0,1,0,.733,2.336,2.336,0,0,1-.766.361,3.37,3.37,0,0,0-.948.479,4.514,4.514,0,0,0-.8.859,4.657,4.657,0,0,0-.61,1.007,16.491,16.491,0,0,0-.526,1.992Zm-4.41-7.978,1.252-.49-.567,2.247h1.628l-.123.569H587.9l-.693,2.685a7.855,7.855,0,0,0-.322,1.683.436.436,0,0,0,.091.312.317.317,0,0,0,.247.1,1.711,1.711,0,0,0,.747-.3,9.341,9.341,0,0,0,1.26-.89l.3.37a20.319,20.319,0,0,1-2.308,1.62,2.234,2.234,0,0,1-.935.3.551.551,0,0,1-.462-.217,1.161,1.161,0,0,1-.169-.706,8.028,8.028,0,0,1,.3-1.762l.811-3.191h-1.274l.14-.569H586.9Zm-3.362,6.237.166.465a5.548,5.548,0,0,1-3.166,1.5,1.092,1.092,0,0,1-1-.5,2.335,2.335,0,0,1-.309-1.259,5.867,5.867,0,0,1,.661-2.606,5.65,5.65,0,0,1,1.6-2.053,2.735,2.735,0,0,1,1.669-.553,1.46,1.46,0,0,1,.884.224.665.665,0,0,1,.3.545.547.547,0,0,1-.159.405.6.6,0,0,1-.441.156,1.5,1.5,0,0,1-.707-.255,1.534,1.534,0,0,0-.75-.273,1.141,1.141,0,0,0-.766.356,3.49,3.49,0,0,0-.728,1.385,6.392,6.392,0,0,0-.347,2.061,2.036,2.036,0,0,0,.29,1.177.677.677,0,0,0,.6.323A3.668,3.668,0,0,0,583.978,215.1Z" transform="translate(-330.143 -101.368)" fill="#fff"/>
      <path id="Path_1208" data-name="Path 1208" d="M888.178,111.727h.474a5.905,5.905,0,0,0,1.258-.077.745.745,0,0,0,.384-.273.723.723,0,0,0,.143-.442.7.7,0,0,0-.137-.428.761.761,0,0,0-.394-.271,5.683,5.683,0,0,0-1.253-.08h-.474ZM887.007,115V109.24h1.171c1.1,0,1.71.005,1.841.015a2.234,2.234,0,0,1,.9.23,1.431,1.431,0,0,1,.537.551,1.61,1.61,0,0,1,.218.827,1.512,1.512,0,0,1-.408,1.064,1.853,1.853,0,0,1-1.144.551,1.424,1.424,0,0,1,.4.215,2.768,2.768,0,0,1,.39.442c.044.056.184.29.426.7l.68,1.161H890.58l-.484-.934a3.853,3.853,0,0,0-.808-1.188,1.292,1.292,0,0,0-.808-.245h-.3V115Zm2.46-7.268a4.431,4.431,0,0,0-2.148.559A4.06,4.06,0,0,0,885.7,109.9a4.377,4.377,0,0,0-.015,4.373,4.124,4.124,0,0,0,1.611,1.616,4.348,4.348,0,0,0,4.342,0,4.152,4.152,0,0,0,1.611-1.616,4.378,4.378,0,0,0-.01-4.373,4.055,4.055,0,0,0-1.623-1.608A4.453,4.453,0,0,0,889.467,107.731Zm-.007-1.064a5.5,5.5,0,0,1,2.678.7,5.032,5.032,0,0,1,2.018,2,5.449,5.449,0,0,1,.014,5.433,5.132,5.132,0,0,1-2.007,2.005,5.446,5.446,0,0,1-5.406,0,5.126,5.126,0,0,1-2.005-2.005,5.447,5.447,0,0,1,.014-5.433,5.043,5.043,0,0,1,2.015-2A5.52,5.52,0,0,1,889.46,106.667Z" transform="translate(-515.962 -41.009)" fill="#fff"/>
      <g id="Group_763" data-name="Group 763" transform="translate(168.121 39.498)">
        <circle id="Ellipse_65" data-name="Ellipse 65" cx="8.979" cy="8.979" r="8.979" transform="translate(0 0.907)" fill="url(#radial-gradient)"/>
        <path id="Path_1209" data-name="Path 1209" d="M373.182,49.651,388.868,39.5l-7.5,8.182,6.669.979L371.825,59.27l7.424-8.94Z" transform="translate(-371.367 -39.498)" fill="#ffe500" fill-rule="evenodd"/>
      </g>
    </g>
    <g id="Group_3183" data-name="Group 3183" transform="translate(3460.629 -1605.047)">
      <g id="Group_3187" data-name="Group 3187" transform="translate(-2967.555 1679.441)">
        <path id="Path_3181" data-name="Path 3181" d="M-962.247,2611.915c-24.147,0-43.087-.013-44.009-.044a3.344,3.344,0,0,1-.357-.036l-.171-.022-.311-.036-.037-.311c-.007-.056-.014-.109-.021-.16-.017-.12-.032-.233-.038-.355-.007-.164-.006-.326-.005-.483,0-.057,0-.113,0-.169v-26.547l.331-.056c.06-.01.115-.021.168-.031a2.8,2.8,0,0,1,.368-.054c.164-.01.325-.008.48-.006h25.983c40.033,0,81.1,0,121.553,0a9.6,9.6,0,0,1,2.617.308,7.7,7.7,0,0,1,4.018,2.733,7.526,7.526,0,0,1,1.569,4.5c0,.77,0,1.552,0,2.308v.97q0,8,0,16.005c0,.217-.007.43-.015.656,0,.107-.007.218-.011.333l-.009.341-.339.042c-.614.077-69.381.108-77.22.111C-939.49,2611.912-951.4,2611.915-962.247,2611.915Zm-44.137-.852c.056.007.107.012.155.014.965.032,19.169.046,42.807.046,44.117,0,107.174-.048,112.508-.109.007-.2.013-.4.013-.59q0-8,0-16.005v-.971c0-.755,0-1.536,0-2.3a6.9,6.9,0,0,0-5.006-6.471,8.718,8.718,0,0,0-2.4-.279h0c-40.455,0-81.523,0-121.553,0h-25.993c-.147,0-.287,0-.422,0-.037,0-.077.007-.12.014V2610.3c0,.058,0,.116,0,.175,0,.153,0,.3,0,.442C-1006.4,2610.962-1006.391,2611.011-1006.385,2611.063Z" transform="translate(1007.197 -2583.601)" fill="#fff"/>
      </g>
      <path id="Path_3182" data-name="Path 3182" d="M1207.719,2652.626l-4.546,7.618c.634-.455,8.211-7.884,9.649-9.439a1.211,1.211,0,0,0,.124-.256c-.272-.025-.5-.049-.727-.064s-.476-.023-.713-.033-.476-.019-.714-.027c-.212-.007-.423-.012-.635-.017l-.714-.014c-.238,0-.476,0-.714-.012a1.747,1.747,0,0,1-.73-.087c.154-.27.275-.5.411-.718q2.821-4.549,5.645-9.1c.139-.224.28-.449.409-.679a1.242,1.242,0,0,0,.079-.267c-3.779,4.2-7.464,8.455-11.145,12.71a1.036,1.036,0,0,0-.094.287,8.684,8.684,0,0,0,1.425.066c.476.012.952.01,1.429.014Z" transform="translate(-4082.944 -957.873)"/>
      <path id="Path_3183" data-name="Path 3183" d="M-2541.952,1798.411c-.085.3-.151.614-.257.91q-1.481,4.144-2.973,8.283a1.862,1.862,0,0,0-.19.8c.257.012.491.033.725.034q4.962,0,9.924,0c.185,0,.37,0,.555-.01a4.816,4.816,0,0,0,2.912-.83,22.6,22.6,0,0,1-.3,4.77c-.176,1.6-.307,3.2-.457,4.788-.257.042-.276-.174-.372-.278a1.717,1.717,0,0,0-1.248-.6c-.185-.006-.37-.022-.555-.021q-6.787.006-13.574.017c-.315,0-.629.012-.938.018a2.211,2.211,0,0,0-.189.3q-1.849,4.469-3.691,8.942c-.017.042.007.1.018.21a1.752,1.752,0,0,0,.34.072c.423.011.847.008,1.27.008q6.47,0,12.94,0a18.218,18.218,0,0,0,1.9-.117,3.267,3.267,0,0,0,1.9-.8c.07.011.1.008.117.022a.1.1,0,0,1,.023.074q-.41,4.58-.826,9.161a2.607,2.607,0,0,1-.1.371c-.143-.135-.252-.229-.35-.332a1.779,1.779,0,0,0-1.341-.585l-1.349,0h-8.131c-.469.474-7.181,9.555-7.574,10.233.045.171.191.151.317.156.185.008.37,0,.556,0q7.5,0,15,0a9.285,9.285,0,0,0,2.053-.15,3.094,3.094,0,0,0,1.489-.693,1.1,1.1,0,0,1,.249-.118l-.888,9.653c-.213.081-.247-.081-.316-.167a1.743,1.743,0,0,0-1.445-.7c-.555,0-1.111.006-1.667.006h-20.958a2.479,2.479,0,0,0-2.473.962q-1.379,1.255-2.756,2.514c-.174.159-.352.313-.608.541a.962.962,0,0,1,.284-.62q3.331-4.542,6.669-9.08,6.458-8.743,12.926-17.479a1.594,1.594,0,0,0,.444-.745,2.511,2.511,0,0,0-.951-.111c-1.958-.039-3.916-.064-5.873-.1-1.137-.022-2.275-.059-3.412-.094-.149,0-.3-.032-.511-.057.134-.318.235-.585.355-.843q4.04-8.7,8.085-17.4,2.376-5.1,4.782-10.192c.117-.247.142-.571.453-.7Z" transform="translate(-464.245 -150.154)" fill="#fff"/>
      <path id="Path_3184" data-name="Path 3184" d="M-997.164,1797.541c5.8,0,11.562,0,17.326,0a3,3,0,0,1,.369.043,27.9,27.9,0,0,1,.061,4.53c-.213.214-.491.139-.745.139-1.825.006-3.65,0-5.476,0q-2.659,0-5.317,0c-.288,0-.575.011-.894.018a2.13,2.13,0,0,0-.085.4q-.008,2.776,0,5.552a1.938,1.938,0,0,0,.048.3,1.376,1.376,0,0,0,.859.108q4.4.01,8.809.005c.287,0,.574.009.894.015a12.783,12.783,0,0,1,.07,2.316,19.1,19.1,0,0,1-.034,2.269,1.567,1.567,0,0,1-.887.114q-4.4.008-8.809,0c-.285,0-.57.019-.8.027a1.153,1.153,0,0,0-.105.114.153.153,0,0,0-.024.073q-.014,2.934-.024,5.867c0,.129.022.259.033.39a1.471,1.471,0,0,0,.863.1q5.357.01,10.713.005c.286,0,.572.014.893.022a15.41,15.41,0,0,1,.061,2.32c.009.761.028,1.523-.021,2.336-.278.021-.507.053-.736.053q-2.738.006-5.476,0-5.357,0-10.713,0a2.284,2.284,0,0,1-.894-.078c-.016-.162-.042-.313-.046-.466C-997.353,1820.144-997.295,1798.453-997.164,1797.541Z" transform="translate(-1969.859 -149.318)" fill="#fff"/>
      <path id="Path_3185" data-name="Path 3185" d="M735.275,1808.535a35.672,35.672,0,0,1,.031,4.606,1.362,1.362,0,0,1-.844.108q-4.365.008-8.729,0c-.313,0-.627.012-.96.019a1.444,1.444,0,0,0-.089.328q-.006,2.974,0,5.948a.907.907,0,0,0,.033.167c.25.2.553.106.832.107q5.357.011,10.713.005h.883a5.09,5.09,0,0,1,.095,1.527c.015.528,0,1.057,0,1.586,0,.5-.006,1-.009,1.532-.193.035-.34.074-.49.085-.184.014-.37,0-.555,0H720.4c-.312,0-.624-.013-.973-.02-.028-.2-.059-.35-.068-.5-.011-.185,0-.37,0-.555v-25.966c.194-.036.339-.075.488-.088s.317,0,.476,0h15.951c.288,0,.575.008.88.013a5.051,5.051,0,0,1,.094,1.522c.015.528.01,1.057,0,1.586a12.009,12.009,0,0,1-.03,1.467,1.481,1.481,0,0,1-.895.127q-4.325.008-8.65,0h-2.879a1.732,1.732,0,0,0-.106.4q-.008,2.815,0,5.631a1.361,1.361,0,0,0,.044.239c.254.213.558.117.836.117q4.4.012,8.809.005Z" transform="translate(-3618.335 -149.206)" fill="#fff"/>
      <path id="Path_3186" data-name="Path 3186" d="M-487.23,1810.574c-.886-1.49-1.749-2.942-2.614-4.394s-1.737-2.9-2.6-4.359-1.733-2.879-2.59-4.367a58.128,58.128,0,0,1,5.983-.023c1.546,2.826,3.062,5.695,4.638,8.578a1.748,1.748,0,0,0,.485-.691q1.975-3.62,3.942-7.245c.125-.23.259-.454.375-.657.879-.082,5.227-.067,5.82.015a.431.431,0,0,1,.022.076.173.173,0,0,1-.006.076,1.253,1.253,0,0,1-.063.144c-.024.047-.053.092-.08.137l-7.466,12.538a.29.29,0,0,0-.027.075c-.007.025-.01.052-.026.14.371.76.881,1.5,1.337,2.267s.932,1.537,1.4,2.305.936,1.535,1.4,2.3q.68,1.118,1.357,2.238l1.4,2.305,1.372,2.264c-.068.23-.216.2-.339.2q-2.619,0-5.239,0c-.1,0-.208-.021-.369-.037l-5.168-9.277c-.29.1-.341.35-.446.538q-2.214,3.987-4.415,7.98c-.14.253-.285.5-.451.794-1.957.01-3.906,0-5.837,0-.122-.3.069-.455.17-.623q1.8-2.991,3.609-5.974,1.992-3.291,3.983-6.582C-487.535,1811.1-487.4,1810.871-487.23,1810.574Z" transform="translate(-2451.758 -149.146)" fill="#fff"/>
      <path id="Path_3187" data-name="Path 3187" d="M125.413,1810.272a40.539,40.539,0,0,1,5.264.026,1.653,1.653,0,0,1,0,.3,10,10,0,0,1-3.072,5.77,8.926,8.926,0,0,1-4.116,2.111,11.371,11.371,0,0,1-6.106-.212,9.69,9.69,0,0,1-4.564-3.164,7.965,7.965,0,0,1-1.7-4.121,37.249,37.249,0,0,1-.312-4.347,56.685,56.685,0,0,1,.154-6.18,24.474,24.474,0,0,1,.341-2.431,6.986,6.986,0,0,1,1.489-3.117,9.817,9.817,0,0,1,6.713-3.653,11.533,11.533,0,0,1,4.477.362,8.836,8.836,0,0,1,5.579,4.5,10.547,10.547,0,0,1,1.161,3.542,6.434,6.434,0,0,1-1.751.088c-.581.02-1.164,0-1.746,0h-1.763c-.085-.2-.157-.361-.225-.526-.11-.269-.2-.546-.326-.808a4.191,4.191,0,0,0-3.518-2.489,4.965,4.965,0,0,0-2.119.193,4.146,4.146,0,0,0-2.884,3.286,9.887,9.887,0,0,0-.189,1.493,67.476,67.476,0,0,0,0,8.163,10.027,10.027,0,0,0,.267,1.8,4.041,4.041,0,0,0,3.643,3.15,7.292,7.292,0,0,0,1.5-.012,3.922,3.922,0,0,0,2.849-1.675,5.976,5.976,0,0,0,.748-1.481C125.277,1810.648,125.348,1810.452,125.413,1810.272Z" transform="translate(-3033.942 -143.212)" fill="#fff"/>
      <path id="Path_3188" data-name="Path 3188" d="M-2634.948,1642.047a1.538,1.538,0,0,1-.388.763q-3.821,5.985-7.652,11.963-8.851,13.833-17.7,27.668a2.447,2.447,0,0,0-.455.871c1.1.079,2.149.084,3.2.094,1.032.01,2.064.029,3.1.048s2.095-.036,3.221.063c-.119.254-.2.443-.292.623-3.244,6.056-6.354,12.183-9.692,18.189-.007.012-.05,0-.136.01.177-1.417.4-2.816.606-4.217s.413-2.825.619-4.237c.2-1.386.419-2.771.6-4.159.186-1.408.457-2.806.578-4.236a7.526,7.526,0,0,0-1.88-.12c-.635-.021-1.27-.018-1.905-.025l-1.78-.019a.289.289,0,0,1,0-.4c.116-.177.234-.352.352-.528,1.931-2.877,3.855-5.758,5.8-8.626a2.848,2.848,0,0,0,.5-1.468c.168-2.427.376-4.85.565-7.275.128-1.634.248-3.269.375-4.9.1-1.237.2-2.474.3-3.672.272-.245.548-.162.8-.163,2.435-.006,4.869,0,7.3,0,.264,0,.53,0,.793-.014a2.242,2.242,0,0,0,1.7-.885c.129-.168.252-.34.379-.51q5.26-7.114,10.525-14.224c.161-.218.24-.542.583-.588Z" transform="translate(-368.404 0)" fill="#fff"/>
      <path id="Path_3189" data-name="Path 3189" d="M1308.032,1824.8q-8.525,0-17.058,0a1.6,1.6,0,0,1-.274-.042.716.716,0,0,1-.078-.091.171.171,0,0,1-.02-.076q-.013-13.247-.023-26.494a3.221,3.221,0,0,1,.037-.338,1.185,1.185,0,0,1,.3-.081q2.341,0,4.682.005a.9.9,0,0,1,.2.063,3.665,3.665,0,0,1,.062.419c.011.264,0,.529,0,.793q0,10.035,0,20.07c0,.313.015.626.023.958a2.139,2.139,0,0,0,.887.082q5.239.005,10.478,0c.284,0,.568.019.838.029a39.125,39.125,0,0,1,.071,4.474C1308.151,1824.641,1308.087,1824.7,1308.032,1824.8Z" transform="translate(-4166.878 -149.445)" fill="#fff"/>
      <path id="Path_3190" data-name="Path 3190" d="M-3006.206,1786.021l.3-.6c.324-.1.556.069.793.159a31.962,31.962,0,0,1,12.554,8.516,31.778,31.778,0,0,1,7.744,15.313,31.219,31.219,0,0,1,.556,8.208,31.537,31.537,0,0,1-8.565,20.005,31.642,31.642,0,0,1-17.849,9.77,31.3,31.3,0,0,1-9.25.325,32.238,32.238,0,0,1-27.161-22.146,31.869,31.869,0,0,1-1.494-11.657,32.2,32.2,0,0,1,23.181-29.1,33.287,33.287,0,0,1,7.26-1.223,32.793,32.793,0,0,1,8.672.7.776.776,0,0,1,.145.061c-.006.314,0,.316-.326.691-.154-.02-.335-.034-.511-.069a32.125,32.125,0,0,0-9.636-.43,31.39,31.39,0,0,0-25.887,19.806,30.772,30.772,0,0,0-2.1,12.822,31.378,31.378,0,0,0,23.51,28.921,31.142,31.142,0,0,0,9.041.977,31.414,31.414,0,0,0,29.3-23.766,31.472,31.472,0,0,0,.728-11.025,31.381,31.381,0,0,0-20.33-25.989C-3005.729,1786.222-3005.92,1786.137-3006.206,1786.021Z" transform="translate(0 -135.872)" fill="#fff"/>
      <path id="Path_3191" data-name="Path 3191" d="M-1217.271,1842.53h-.508a.685.685,0,0,1-.088-.208c-.015-.264-.019-.528-.019-.792q0-29.04,0-58.081c0-.314.011-.627.016-.889a.444.444,0,0,1,.533-.089,1.872,1.872,0,0,1,.077.335c.014.237.007.476.007.714q0,28.961,0,57.923C-1217.254,1841.781-1217.265,1842.121-1217.271,1842.53Z" transform="translate(-1758.035 -134.799)" fill="#fff"/>
      <path id="Path_3192" data-name="Path 3192" d="M-1976.408,1788.333l.014-.067-.037.046Z" transform="translate(-1029.616 -140.412)"/>
      <path id="Path_3193" data-name="Path 3193" d="M-1980.176,1789.8c-.022-.15-.027-.292.154-.353l-.023-.021c-.05.118-.1.237-.149.356Z" transform="translate(-1026.003 -141.528)"/>
      <path id="Path_3194" data-name="Path 3194" d="M1207.719,2652.626l-1.562-.014c-.476,0-.953,0-1.429-.014a8.684,8.684,0,0,1-1.425-.066,1.036,1.036,0,0,1,.094-.287c3.681-4.255,7.366-8.509,11.145-12.71a1.242,1.242,0,0,1-.079.267c-.129.23-.269.455-.409.679q-2.823,4.548-5.645,9.1c-.136.219-.257.448-.411.718a1.747,1.747,0,0,0,.73.087c.238.011.476.008.714.012l.714.014c.212.005.423.01.635.017q.357.011.714.027c.238.01.476.017.713.033s.455.04.727.064a1.211,1.211,0,0,1-.124.256c-1.438,1.555-9.015,8.985-9.649,9.439Z" transform="translate(-4082.944 -957.873)" fill="#fff"/>
      <path id="Path_3195" data-name="Path 3195" d="M1529.661,2726.033c-.259.128-.245.358-.291.556q-.951,4.009-1.9,8.018c-.134.566-.265,1.132-.413,1.694-.08.3-.125.338-.442.341-.873.007-1.746,0-2.619,0a.329.329,0,0,1-.364-.325c-.142-.94-.294-1.879-.436-2.819q-.441-2.939-.875-5.879-.442-2.979-.885-5.957c-.144-.967-.3-1.931-.441-2.9-.1-.7-.088-.715.613-.719.476,0,.952,0,1.428,0a.292.292,0,0,1,.325.271c.083.522.177,1.042.253,1.565q.512,3.529,1.017,7.059.4,2.784.816,5.567c.034.233.1.46.158.709a1.038,1.038,0,0,0,.251-.594c.761-3.267,1.507-6.537,2.278-9.8.216-.915.041-.83,1-.835.529,0,1.058,0,1.587,0,.326.005.354.023.433.337q.3,1.191.577,2.388.9,3.859,1.787,7.719a.978.978,0,0,0,.27.6c.115-.673.231-1.315.333-1.96q.631-3.991,1.253-7.985c.232-1.487.456-2.977.686-4.465a2.831,2.831,0,0,1,.085-.385.269.269,0,0,1,.229-.19.426.426,0,0,1,.079-.005c2.307.052,1.909-.434,1.592,1.748-.308,2.117-.693,4.222-1.042,6.333q-.608,3.674-1.215,7.348c-.133.808-.258,1.617-.389,2.426-.025.156-.056.312-.09.466a.31.31,0,0,1-.334.27c-.212,0-.423,0-.635.005-.582,0-1.164.006-1.746,0-.406-.007-.435-.029-.53-.427q-.634-2.659-1.259-5.321Z" transform="translate(-4388.101 -1033.258)" fill="#fff"/>
      <path id="Path_3196" data-name="Path 3196" d="M2401.931,2728.423c.369.491.73.979,1.1,1.462q2.3,3.034,4.6,6.067c.143.189.279.384.412.581a.153.153,0,0,1-.114.23c-.158.012-.316.02-.474.021-.661,0-1.326-.035-1.984.012a1.158,1.158,0,0,1-1.115-.572c-.842-1.153-1.72-2.28-2.583-3.418-.831-1.1-1.669-2.187-2.484-3.294a.924.924,0,0,0-.86-.435c-.581.026-1.164,0-1.746.014-.255,0-.323.081-.334.338-.01.211-.005.423-.005.635v5.712c0,.185,0,.371,0,.555-.014.412-.038.443-.465.449q-.953.012-1.905,0c-.437-.006-.47-.05-.482-.519,0-.158,0-.317,0-.476q0-8.33,0-16.66c0-1.039-.1-.94.931-.942q2.262,0,4.525,0a17.936,17.936,0,0,1,3.393.288,4.912,4.912,0,0,1,2.013.892,3.632,3.632,0,0,1,1.518,2.757,6.571,6.571,0,0,1-.154,2.2,4.838,4.838,0,0,1-1.24,2.179,9.431,9.431,0,0,1-1.89,1.437A1.767,1.767,0,0,0,2401.931,2728.423Zm-5.586-4.817c0,.291,0,.582,0,.873,0,.687,0,1.375.005,2.063,0,.307.062.364.384.366.635,0,1.271.019,1.9-.02a5.455,5.455,0,0,0,2.282-.613,3.4,3.4,0,0,0,1.9-3.756,2.031,2.031,0,0,0-1.533-1.826c-.152-.044-.3-.1-.458-.13a20.291,20.291,0,0,0-4.192-.2.271.271,0,0,0-.286.3q0,.238-.005.476Q2396.344,2722.376,2396.345,2723.606Z" transform="translate(-5225.985 -1033.398)" fill="#fff"/>
      <path id="Path_3197" data-name="Path 3197" d="M1998.115,2727.5v-8.327c0-.185,0-.37,0-.555.014-.4.05-.441.47-.448.476-.008.952,0,1.428,0q5,0,10,0c.721,0,.723.005.726.75,0,.37,0,.74-.006,1.11a.276.276,0,0,1-.29.3c-.211.007-.423.006-.635.006h-7.935c-.921,0-.871-.038-.871.855q0,1.983,0,3.966c0,.185,0,.37.019.554a.249.249,0,0,0,.259.243c.237.012.475.017.713.017h6.427c.837,0,.808-.044.8.836,0,.344,0,.687-.008,1.031a.27.27,0,0,1-.291.3c-.211,0-.423.007-.635.007q-3.293,0-6.586,0c-.692,0-.7.008-.7.7,0,1.692,0,3.383,0,5.075,0,.079,0,.159,0,.238.017.409.069.468.45.482.211.008.423,0,.635,0h8.411c.212,0,.423,0,.634.011a.239.239,0,0,1,.252.246c.006.528.006,1.057.006,1.585,0,.2-.126.277-.3.289s-.37.012-.555.012h-11.586c-.106,0-.212,0-.317,0-.471-.016-.5-.047-.517-.49-.005-.185,0-.37,0-.555Z" transform="translate(-4846.314 -1033.381)" fill="#fff"/>
      <path id="Path_3198" data-name="Path 3198" d="M373.31,2727.462q0-4.283,0-8.566c0-.72.009-.7.7-.7H385.2c.106,0,.212,0,.317,0,.3.017.376.068.358.389a4.851,4.851,0,0,1-.1,1.709,5.579,5.579,0,0,1-1.571.064c-2.434.012-4.868.006-7.3.005-.758,0-.728-.015-.728.746q0,2.062,0,4.125c0,.159,0,.317.008.476.006.2.122.278.3.282q.317.007.635.007,3.294,0,6.587,0c.705,0,.708.006.712.686,0,.4,0,.793-.006,1.19a.273.273,0,0,1-.3.288c-.212.006-.423.006-.635.006H377.2c-.212,0-.423,0-.635,0-.332.012-.376.055-.394.356,0,.079,0,.159,0,.238q0,2.658,0,5.315c0,.079,0,.158,0,.238.016.265.077.337.322.349.211.01.423.006.635.006h8.413c.212,0,.424,0,.635,0,.273.012.349.071.354.312.009.5,0,1,0,1.507a.269.269,0,0,1-.3.288q-.278.007-.555.007-5.754,0-11.508,0c-.936,0-.86.063-.86-.851Q373.309,2731.705,373.31,2727.462Z" transform="translate(-3286.038 -1033.413)" fill="#fff"/>
      <path id="Path_3199" data-name="Path 3199" d="M784.852,2727.49q0-4.245,0-8.49c0-.839-.028-.8.755-.8,2.117,0,4.234,0,6.351.022a13.363,13.363,0,0,1,2.6.284,4.949,4.949,0,0,1,1.883.8,3.994,3.994,0,0,1,1.459,1.837,6.25,6.25,0,0,1,.047,4.5,5.132,5.132,0,0,1-1.8,2.368,8.911,8.911,0,0,1-4.254,1.611,25.165,25.165,0,0,1-3.486.142c-.706,0-.7-.026-.7.691q0,2.817,0,5.634c0,.7-.006.707-.691.71-.609,0-1.218,0-1.826-.007-.254,0-.318-.078-.331-.337-.01-.211-.006-.423-.006-.635Q784.851,2731.656,784.852,2727.49Zm2.857-3.541c0,1.082,0,2.164,0,3.245,0,.329.057.388.355.392a24.881,24.881,0,0,0,2.929-.054,6.172,6.172,0,0,0,2.628-.8,3.257,3.257,0,0,0,1.606-2.5,5.6,5.6,0,0,0,.008-1.263,2.459,2.459,0,0,0-1.758-2.216,5.716,5.716,0,0,0-1.781-.342c-1.188-.019-2.376-.026-3.564-.028-.369,0-.42.052-.423.406C787.7,2721.838,787.709,2722.894,787.709,2723.949Z" transform="translate(-3681.235 -1033.414)" fill="#fff"/>
      <path id="Path_3200" data-name="Path 3200" d="M-493.389,2736.553a3.2,3.2,0,0,1-1.032.065c-.5.01-1-.01-1.507.006a.486.486,0,0,1-.521-.378c-.4-1.089-.817-2.175-1.228-3.262-.093-.247-.189-.493-.286-.739a.366.366,0,0,0-.363-.252c-.159,0-.317,0-.476,0h-7.059c-.106,0-.212.008-.317,0a.474.474,0,0,0-.527.368c-.448,1.186-.911,2.365-1.369,3.547-.057.147-.119.293-.17.443a.349.349,0,0,1-.348.268c-.634,0-1.268,0-1.9-.011a.2.2,0,0,1-.174-.282c.044-.151.1-.3.156-.448q3.386-8.584,6.775-17.167c.314-.794.2-.676,1.02-.686.529-.007,1.058.018,1.586-.008a.623.623,0,0,1,.707.469c.418,1.112.872,2.21,1.308,3.316q2.745,6.963,5.487,13.928A1.892,1.892,0,0,1-493.389,2736.553Zm-8.887-15.488c-.36.608-2.446,5.947-3.281,8.368a.434.434,0,0,0-.026.389,1.1,1.1,0,0,0,.218.042q3.048,0,6.1,0a.241.241,0,0,0,.287-.2Z" transform="translate(-2437.155 -1033.232)" fill="#fff"/>
      <path id="Path_3201" data-name="Path 3201" d="M-865.737,2722.873a2.6,2.6,0,0,1,.917.309,18.643,18.643,0,0,0,3.628,1.124,8.611,8.611,0,0,0,3.852-.088,4.04,4.04,0,0,0,1.67-.878,2.511,2.511,0,0,0,.813-2.44,1.956,1.956,0,0,0-.916-1.337,9.912,9.912,0,0,0-1.042-.571,29.706,29.706,0,0,0-2.8-1.1,28.43,28.43,0,0,1-2.794-1.121,10.759,10.759,0,0,1-1.568-.926,3.778,3.778,0,0,1-1.6-2.634,5.666,5.666,0,0,1,.23-2.66,4.492,4.492,0,0,1,2.1-2.486,7.065,7.065,0,0,1,2.473-.8,13.611,13.611,0,0,1,3.874.044,22.341,22.341,0,0,1,2.949.6c.44.118.468.152.475.59q.012.753,0,1.507c-.007.436-.064.469-.46.344-.705-.221-1.407-.461-2.121-.648a12.033,12.033,0,0,0-3.613-.39,5.6,5.6,0,0,0-1.705.331,2.188,2.188,0,0,0-1.562,1.91,2.272,2.272,0,0,0,1.113,2.361,9.164,9.164,0,0,0,1.791.84q1.983.693,3.967,1.382a8.261,8.261,0,0,1,2.128,1.044,4.28,4.28,0,0,1,1.891,2.736,4.924,4.924,0,0,1-1.768,5.035,7.531,7.531,0,0,1-3.534,1.508,14.538,14.538,0,0,1-4.893-.065,28.5,28.5,0,0,1-3.1-.677c-.423-.119-.436-.125-.434-.527C-865.767,2724.42-865.81,2723.658-865.737,2722.873Z" transform="translate(-2096.159 -1022.788)" fill="#fff"/>
      <path id="Path_3202" data-name="Path 3202" d="M-22.258,2727.483q0-4.243,0-8.484c0-.831-.035-.8.755-.8H-9.761c.159,0,.317,0,.476.008a.241.241,0,0,1,.262.237q.016.831.005,1.662a.247.247,0,0,1-.253.252c-.211.011-.423.011-.634.011h-8.41c-.185,0-.37,0-.555,0-.516.013-.528.017-.53.545q-.007,2.656,0,5.313c0,.105.007.211.017.316a.2.2,0,0,0,.2.2c.237.013.475.021.713.021q3.61,0,7.22,0c.752,0,.732,0,.727.75,0,.37,0,.74-.006,1.11a.277.277,0,0,1-.288.305c-.211.009-.423.007-.635.007h-7.061c-.211,0-.423,0-.634.015a.241.241,0,0,0-.243.254c-.008.211-.012.423-.012.634q0,2.974,0,5.947c0,.185,0,.37,0,.555-.014.4-.048.446-.466.451q-.992.012-1.983,0c-.342,0-.39-.066-.4-.433-.007-.211,0-.423,0-.634Q-22.258,2731.606-22.258,2727.483Z" transform="translate(-2906.179 -1033.413)" fill="#fff"/>
      <path id="Path_3203" data-name="Path 3203" d="M1225.091,2737.131a6.419,6.419,0,0,1,2.233,2.2,8.918,8.918,0,0,1,1.341,3.277,14.871,14.871,0,0,1-.121,6.671,8.933,8.933,0,0,1-1.56,3.264,7.033,7.033,0,0,1-5.023,2.838,8.28,8.28,0,0,1-3.977-.452,4.381,4.381,0,0,1-1.687-1,20.267,20.267,0,0,1,1.706-1.692,3.912,3.912,0,0,0,2.665,1.052,4.208,4.208,0,0,0,3.743-1.671,6.623,6.623,0,0,0,1.126-2.423,16.032,16.032,0,0,0,.249-5.739,8.2,8.2,0,0,0-.4-1.772,5.478,5.478,0,0,0-1.564-2.523A18.116,18.116,0,0,1,1225.091,2737.131Z" transform="translate(-4095.548 -1051.594)" fill="#fff"/>
      <path id="Path_3204" data-name="Path 3204" d="M1132.61,2725.2a9.342,9.342,0,0,1-3.051-6.085,15.01,15.01,0,0,1,.192-5.2,8.8,8.8,0,0,1,2.536-4.657,6.969,6.969,0,0,1,3.953-1.84,8.309,8.309,0,0,1,4.645.622,10.473,10.473,0,0,1-1.575,1.812,4.6,4.6,0,0,0-3.462-.1,3.8,3.8,0,0,0-1.666,1.159,5.467,5.467,0,0,0-1,1.693,11.878,11.878,0,0,0-.669,5.12.145.145,0,0,1,0,.108,10.46,10.46,0,0,0,.479,3.167,5.246,5.246,0,0,0,.99,1.945A14.2,14.2,0,0,1,1132.61,2725.2Z" transform="translate(-4012.119 -1022.974)" fill="#fff"/>
      <g id="Group_3188" data-name="Group 3188" transform="translate(-2990.663 1702.173)">
        <path id="Path_3205" data-name="Path 3205" d="M-1585.583,3162.834a3.447,3.447,0,0,1-3.47-3.416,3.447,3.447,0,0,1,3.47-3.415,3.447,3.447,0,0,1,3.47,3.415A3.447,3.447,0,0,1-1585.583,3162.834Zm0-6.752a3.367,3.367,0,0,0-3.391,3.336,3.368,3.368,0,0,0,3.391,3.336,3.368,3.368,0,0,0,3.39-3.336A3.367,3.367,0,0,0-1585.583,3156.082Z" transform="translate(1589.053 -3156.003)" fill="#fff"/>
      </g>
      <g id="Group_3189" data-name="Group 3189" transform="translate(-2989.684 1704.269)">
        <path id="Path_3206" data-name="Path 3206" d="M-1563.625,3211.421v-2.193h-.783v-.446h2.1v.446h-.781v2.193Z" transform="translate(1564.408 -3208.783)" fill="#fff"/>
        <path id="Path_3207" data-name="Path 3207" d="M-1503.134,3211.421v-2.639h.8l.479,1.8.473-1.8h.8v2.639h-.495v-2.077l-.524,2.077h-.513l-.522-2.077v2.077Z" transform="translate(1505.567 -3208.783)" fill="#fff"/>
      </g>
    </g>
  </g>
</svg>
