<svg xmlns="http://www.w3.org/2000/svg" width="238.167" height="70.001" viewBox="0 0 238.167 70.001">
  <g id="Group_3183" data-name="Group 3183" transform="translate(3048.629 -1642.047)">
    <g id="Group_3187" data-name="Group 3187" transform="translate(-2967.555 1679.441)">
      <path id="Path_3181" data-name="Path 3181" d="M-962.247,2611.915c-24.147,0-43.087-.013-44.009-.044a3.344,3.344,0,0,1-.357-.036l-.171-.022-.311-.036-.037-.311c-.007-.056-.014-.109-.021-.16-.017-.12-.032-.233-.038-.355-.007-.164-.006-.326-.005-.483,0-.057,0-.113,0-.169v-26.547l.331-.056c.06-.01.115-.021.168-.031a2.8,2.8,0,0,1,.368-.054c.164-.01.325-.008.48-.006h25.983c40.033,0,81.1,0,121.553,0a9.6,9.6,0,0,1,2.617.308,7.7,7.7,0,0,1,4.018,2.733,7.526,7.526,0,0,1,1.569,4.5c0,.77,0,1.552,0,2.308v.97q0,8,0,16.005c0,.217-.007.43-.015.656,0,.107-.007.218-.011.333l-.009.341-.339.042c-.614.077-69.381.108-77.22.111C-939.49,2611.912-951.4,2611.915-962.247,2611.915Zm-44.137-.852c.056.007.107.012.155.014.965.032,19.169.046,42.807.046,44.117,0,107.174-.048,112.508-.109.007-.2.013-.4.013-.59q0-8,0-16.005v-.971c0-.755,0-1.536,0-2.3a6.9,6.9,0,0,0-5.006-6.471,8.718,8.718,0,0,0-2.4-.279h0c-40.455,0-81.523,0-121.553,0h-25.993c-.147,0-.287,0-.422,0-.037,0-.077.007-.12.014V2610.3c0,.058,0,.116,0,.175,0,.153,0,.3,0,.442C-1006.4,2610.962-1006.391,2611.011-1006.385,2611.063Z" transform="translate(1007.197 -2583.601)" fill="#fff"/>
    </g>
    <path id="Path_3182" data-name="Path 3182" d="M1207.719,2652.626l-4.546,7.618c.634-.455,8.211-7.884,9.649-9.439a1.211,1.211,0,0,0,.124-.256c-.272-.025-.5-.049-.727-.064s-.476-.023-.713-.033-.476-.019-.714-.027c-.212-.007-.423-.012-.635-.017l-.714-.014c-.238,0-.476,0-.714-.012a1.747,1.747,0,0,1-.73-.087c.154-.27.275-.5.411-.718q2.821-4.549,5.645-9.1c.139-.224.28-.449.409-.679a1.242,1.242,0,0,0,.079-.267c-3.779,4.2-7.464,8.455-11.145,12.71a1.036,1.036,0,0,0-.094.287,8.684,8.684,0,0,0,1.425.066c.476.012.952.01,1.429.014Z" transform="translate(-4082.944 -957.873)"/>
    <path id="Path_3183" data-name="Path 3183" d="M-2541.952,1798.411c-.085.3-.151.614-.257.91q-1.481,4.144-2.973,8.283a1.862,1.862,0,0,0-.19.8c.257.012.491.033.725.034q4.962,0,9.924,0c.185,0,.37,0,.555-.01a4.816,4.816,0,0,0,2.912-.83,22.6,22.6,0,0,1-.3,4.77c-.176,1.6-.307,3.2-.457,4.788-.257.042-.276-.174-.372-.278a1.717,1.717,0,0,0-1.248-.6c-.185-.006-.37-.022-.555-.021q-6.787.006-13.574.017c-.315,0-.629.012-.938.018a2.211,2.211,0,0,0-.189.3q-1.849,4.469-3.691,8.942c-.017.042.007.1.018.21a1.752,1.752,0,0,0,.34.072c.423.011.847.008,1.27.008q6.47,0,12.94,0a18.218,18.218,0,0,0,1.9-.117,3.267,3.267,0,0,0,1.9-.8c.07.011.1.008.117.022a.1.1,0,0,1,.023.074q-.41,4.58-.826,9.161a2.607,2.607,0,0,1-.1.371c-.143-.135-.252-.229-.35-.332a1.779,1.779,0,0,0-1.341-.585l-1.349,0h-8.131c-.469.474-7.181,9.555-7.574,10.233.045.171.191.151.317.156.185.008.37,0,.556,0q7.5,0,15,0a9.285,9.285,0,0,0,2.053-.15,3.094,3.094,0,0,0,1.489-.693,1.1,1.1,0,0,1,.249-.118l-.888,9.653c-.213.081-.247-.081-.316-.167a1.743,1.743,0,0,0-1.445-.7c-.555,0-1.111.006-1.667.006h-20.958a2.479,2.479,0,0,0-2.473.962q-1.379,1.255-2.756,2.514c-.174.159-.352.313-.608.541a.962.962,0,0,1,.284-.62q3.331-4.542,6.669-9.08,6.458-8.743,12.926-17.479a1.594,1.594,0,0,0,.444-.745,2.511,2.511,0,0,0-.951-.111c-1.958-.039-3.916-.064-5.873-.1-1.137-.022-2.275-.059-3.412-.094-.149,0-.3-.032-.511-.057.134-.318.235-.585.355-.843q4.04-8.7,8.085-17.4,2.376-5.1,4.782-10.192c.117-.247.142-.571.453-.7Z" transform="translate(-464.245 -150.154)" fill="#fff"/>
    <path id="Path_3184" data-name="Path 3184" d="M-997.164,1797.541c5.8,0,11.562,0,17.326,0a3,3,0,0,1,.369.043,27.9,27.9,0,0,1,.061,4.53c-.213.214-.491.139-.745.139-1.825.006-3.65,0-5.476,0q-2.659,0-5.317,0c-.288,0-.575.011-.894.018a2.13,2.13,0,0,0-.085.4q-.008,2.776,0,5.552a1.938,1.938,0,0,0,.048.3,1.376,1.376,0,0,0,.859.108q4.4.01,8.809.005c.287,0,.574.009.894.015a12.783,12.783,0,0,1,.07,2.316,19.1,19.1,0,0,1-.034,2.269,1.567,1.567,0,0,1-.887.114q-4.4.008-8.809,0c-.285,0-.57.019-.8.027a1.153,1.153,0,0,0-.105.114.153.153,0,0,0-.024.073q-.014,2.934-.024,5.867c0,.129.022.259.033.39a1.471,1.471,0,0,0,.863.1q5.357.01,10.713.005c.286,0,.572.014.893.022a15.41,15.41,0,0,1,.061,2.32c.009.761.028,1.523-.021,2.336-.278.021-.507.053-.736.053q-2.738.006-5.476,0-5.357,0-10.713,0a2.284,2.284,0,0,1-.894-.078c-.016-.162-.042-.313-.046-.466C-997.353,1820.144-997.295,1798.453-997.164,1797.541Z" transform="translate(-1969.859 -149.318)" fill="#fff"/>
    <path id="Path_3185" data-name="Path 3185" d="M735.275,1808.535a35.672,35.672,0,0,1,.031,4.606,1.362,1.362,0,0,1-.844.108q-4.365.008-8.729,0c-.313,0-.627.012-.96.019a1.444,1.444,0,0,0-.089.328q-.006,2.974,0,5.948a.907.907,0,0,0,.033.167c.25.2.553.106.832.107q5.357.011,10.713.005h.883a5.09,5.09,0,0,1,.095,1.527c.015.528,0,1.057,0,1.586,0,.5-.006,1-.009,1.532-.193.035-.34.074-.49.085-.184.014-.37,0-.555,0H720.4c-.312,0-.624-.013-.973-.02-.028-.2-.059-.35-.068-.5-.011-.185,0-.37,0-.555v-25.966c.194-.036.339-.075.488-.088s.317,0,.476,0h15.951c.288,0,.575.008.88.013a5.051,5.051,0,0,1,.094,1.522c.015.528.01,1.057,0,1.586a12.009,12.009,0,0,1-.03,1.467,1.481,1.481,0,0,1-.895.127q-4.325.008-8.65,0h-2.879a1.732,1.732,0,0,0-.106.4q-.008,2.815,0,5.631a1.361,1.361,0,0,0,.044.239c.254.213.558.117.836.117q4.4.012,8.809.005Z" transform="translate(-3618.335 -149.206)" fill="#fff"/>
    <path id="Path_3186" data-name="Path 3186" d="M-487.23,1810.574c-.886-1.49-1.749-2.942-2.614-4.394s-1.737-2.9-2.6-4.359-1.733-2.879-2.59-4.367a58.128,58.128,0,0,1,5.983-.023c1.546,2.826,3.062,5.695,4.638,8.578a1.748,1.748,0,0,0,.485-.691q1.975-3.62,3.942-7.245c.125-.23.259-.454.375-.657.879-.082,5.227-.067,5.82.015a.431.431,0,0,1,.022.076.173.173,0,0,1-.006.076,1.253,1.253,0,0,1-.063.144c-.024.047-.053.092-.08.137l-7.466,12.538a.29.29,0,0,0-.027.075c-.007.025-.01.052-.026.14.371.76.881,1.5,1.337,2.267s.932,1.537,1.4,2.305.936,1.535,1.4,2.3q.68,1.118,1.357,2.238l1.4,2.305,1.372,2.264c-.068.23-.216.2-.339.2q-2.619,0-5.239,0c-.1,0-.208-.021-.369-.037l-5.168-9.277c-.29.1-.341.35-.446.538q-2.214,3.987-4.415,7.98c-.14.253-.285.5-.451.794-1.957.01-3.906,0-5.837,0-.122-.3.069-.455.17-.623q1.8-2.991,3.609-5.974,1.992-3.291,3.983-6.582C-487.535,1811.1-487.4,1810.871-487.23,1810.574Z" transform="translate(-2451.758 -149.146)" fill="#fff"/>
    <path id="Path_3187" data-name="Path 3187" d="M125.413,1810.272a40.539,40.539,0,0,1,5.264.026,1.653,1.653,0,0,1,0,.3,10,10,0,0,1-3.072,5.77,8.926,8.926,0,0,1-4.116,2.111,11.371,11.371,0,0,1-6.106-.212,9.69,9.69,0,0,1-4.564-3.164,7.965,7.965,0,0,1-1.7-4.121,37.249,37.249,0,0,1-.312-4.347,56.685,56.685,0,0,1,.154-6.18,24.474,24.474,0,0,1,.341-2.431,6.986,6.986,0,0,1,1.489-3.117,9.817,9.817,0,0,1,6.713-3.653,11.533,11.533,0,0,1,4.477.362,8.836,8.836,0,0,1,5.579,4.5,10.547,10.547,0,0,1,1.161,3.542,6.434,6.434,0,0,1-1.751.088c-.581.02-1.164,0-1.746,0h-1.763c-.085-.2-.157-.361-.225-.526-.11-.269-.2-.546-.326-.808a4.191,4.191,0,0,0-3.518-2.489,4.965,4.965,0,0,0-2.119.193,4.146,4.146,0,0,0-2.884,3.286,9.887,9.887,0,0,0-.189,1.493,67.476,67.476,0,0,0,0,8.163,10.027,10.027,0,0,0,.267,1.8,4.041,4.041,0,0,0,3.643,3.15,7.292,7.292,0,0,0,1.5-.012,3.922,3.922,0,0,0,2.849-1.675,5.976,5.976,0,0,0,.748-1.481C125.277,1810.648,125.348,1810.452,125.413,1810.272Z" transform="translate(-3033.942 -143.212)" fill="#fff"/>
    <path id="Path_3188" data-name="Path 3188" d="M-2634.948,1642.047a1.538,1.538,0,0,1-.388.763q-3.821,5.985-7.652,11.963-8.851,13.833-17.7,27.668a2.447,2.447,0,0,0-.455.871c1.1.079,2.149.084,3.2.094,1.032.01,2.064.029,3.1.048s2.095-.036,3.221.063c-.119.254-.2.443-.292.623-3.244,6.056-6.354,12.183-9.692,18.189-.007.012-.05,0-.136.01.177-1.417.4-2.816.606-4.217s.413-2.825.619-4.237c.2-1.386.419-2.771.6-4.159.186-1.408.457-2.806.578-4.236a7.526,7.526,0,0,0-1.88-.12c-.635-.021-1.27-.018-1.905-.025l-1.78-.019a.289.289,0,0,1,0-.4c.116-.177.234-.352.352-.528,1.931-2.877,3.855-5.758,5.8-8.626a2.848,2.848,0,0,0,.5-1.468c.168-2.427.376-4.85.565-7.275.128-1.634.248-3.269.375-4.9.1-1.237.2-2.474.3-3.672.272-.245.548-.162.8-.163,2.435-.006,4.869,0,7.3,0,.264,0,.53,0,.793-.014a2.242,2.242,0,0,0,1.7-.885c.129-.168.252-.34.379-.51q5.26-7.114,10.525-14.224c.161-.218.24-.542.583-.588Z" transform="translate(-368.404 0)" fill="#fff"/>
    <path id="Path_3189" data-name="Path 3189" d="M1308.032,1824.8q-8.525,0-17.058,0a1.6,1.6,0,0,1-.274-.042.716.716,0,0,1-.078-.091.171.171,0,0,1-.02-.076q-.013-13.247-.023-26.494a3.221,3.221,0,0,1,.037-.338,1.185,1.185,0,0,1,.3-.081q2.341,0,4.682.005a.9.9,0,0,1,.2.063,3.665,3.665,0,0,1,.062.419c.011.264,0,.529,0,.793q0,10.035,0,20.07c0,.313.015.626.023.958a2.139,2.139,0,0,0,.887.082q5.239.005,10.478,0c.284,0,.568.019.838.029a39.125,39.125,0,0,1,.071,4.474C1308.151,1824.641,1308.087,1824.7,1308.032,1824.8Z" transform="translate(-4166.878 -149.445)" fill="#fff"/>
    <path id="Path_3190" data-name="Path 3190" d="M-3006.206,1786.021l.3-.6c.324-.1.556.069.793.159a31.962,31.962,0,0,1,12.554,8.516,31.778,31.778,0,0,1,7.744,15.313,31.219,31.219,0,0,1,.556,8.208,31.537,31.537,0,0,1-8.565,20.005,31.642,31.642,0,0,1-17.849,9.77,31.3,31.3,0,0,1-9.25.325,32.238,32.238,0,0,1-27.161-22.146,31.869,31.869,0,0,1-1.494-11.657,32.2,32.2,0,0,1,23.181-29.1,33.287,33.287,0,0,1,7.26-1.223,32.793,32.793,0,0,1,8.672.7.776.776,0,0,1,.145.061c-.006.314,0,.316-.326.691-.154-.02-.335-.034-.511-.069a32.125,32.125,0,0,0-9.636-.43,31.39,31.39,0,0,0-25.887,19.806,30.772,30.772,0,0,0-2.1,12.822,31.378,31.378,0,0,0,23.51,28.921,31.142,31.142,0,0,0,9.041.977,31.414,31.414,0,0,0,29.3-23.766,31.472,31.472,0,0,0,.728-11.025,31.381,31.381,0,0,0-20.33-25.989C-3005.729,1786.222-3005.92,1786.137-3006.206,1786.021Z" transform="translate(0 -135.872)" fill="#fff"/>
    <path id="Path_3191" data-name="Path 3191" d="M-1217.271,1842.53h-.508a.685.685,0,0,1-.088-.208c-.015-.264-.019-.528-.019-.792q0-29.04,0-58.081c0-.314.011-.627.016-.889a.444.444,0,0,1,.533-.089,1.872,1.872,0,0,1,.077.335c.014.237.007.476.007.714q0,28.961,0,57.923C-1217.254,1841.781-1217.265,1842.121-1217.271,1842.53Z" transform="translate(-1758.035 -134.799)" fill="#fff"/>
    <path id="Path_3192" data-name="Path 3192" d="M-1976.408,1788.333l.014-.067-.037.046Z" transform="translate(-1029.616 -140.412)"/>
    <path id="Path_3193" data-name="Path 3193" d="M-1980.176,1789.8c-.022-.15-.027-.292.154-.353l-.023-.021c-.05.118-.1.237-.149.356Z" transform="translate(-1026.003 -141.528)"/>
    <path id="Path_3194" data-name="Path 3194" d="M1207.719,2652.626l-1.562-.014c-.476,0-.953,0-1.429-.014a8.684,8.684,0,0,1-1.425-.066,1.036,1.036,0,0,1,.094-.287c3.681-4.255,7.366-8.509,11.145-12.71a1.242,1.242,0,0,1-.079.267c-.129.23-.269.455-.409.679q-2.823,4.548-5.645,9.1c-.136.219-.257.448-.411.718a1.747,1.747,0,0,0,.73.087c.238.011.476.008.714.012l.714.014c.212.005.423.01.635.017q.357.011.714.027c.238.01.476.017.713.033s.455.04.727.064a1.211,1.211,0,0,1-.124.256c-1.438,1.555-9.015,8.985-9.649,9.439Z" transform="translate(-4082.944 -957.873)" fill="#fff"/>
    <path id="Path_3195" data-name="Path 3195" d="M1529.661,2726.033c-.259.128-.245.358-.291.556q-.951,4.009-1.9,8.018c-.134.566-.265,1.132-.413,1.694-.08.3-.125.338-.442.341-.873.007-1.746,0-2.619,0a.329.329,0,0,1-.364-.325c-.142-.94-.294-1.879-.436-2.819q-.441-2.939-.875-5.879-.442-2.979-.885-5.957c-.144-.967-.3-1.931-.441-2.9-.1-.7-.088-.715.613-.719.476,0,.952,0,1.428,0a.292.292,0,0,1,.325.271c.083.522.177,1.042.253,1.565q.512,3.529,1.017,7.059.4,2.784.816,5.567c.034.233.1.46.158.709a1.038,1.038,0,0,0,.251-.594c.761-3.267,1.507-6.537,2.278-9.8.216-.915.041-.83,1-.835.529,0,1.058,0,1.587,0,.326.005.354.023.433.337q.3,1.191.577,2.388.9,3.859,1.787,7.719a.978.978,0,0,0,.27.6c.115-.673.231-1.315.333-1.96q.631-3.991,1.253-7.985c.232-1.487.456-2.977.686-4.465a2.831,2.831,0,0,1,.085-.385.269.269,0,0,1,.229-.19.426.426,0,0,1,.079-.005c2.307.052,1.909-.434,1.592,1.748-.308,2.117-.693,4.222-1.042,6.333q-.608,3.674-1.215,7.348c-.133.808-.258,1.617-.389,2.426-.025.156-.056.312-.09.466a.31.31,0,0,1-.334.27c-.212,0-.423,0-.635.005-.582,0-1.164.006-1.746,0-.406-.007-.435-.029-.53-.427q-.634-2.659-1.259-5.321Z" transform="translate(-4388.101 -1033.258)" fill="#fff"/>
    <path id="Path_3196" data-name="Path 3196" d="M2401.931,2728.423c.369.491.73.979,1.1,1.462q2.3,3.034,4.6,6.067c.143.189.279.384.412.581a.153.153,0,0,1-.114.23c-.158.012-.316.02-.474.021-.661,0-1.326-.035-1.984.012a1.158,1.158,0,0,1-1.115-.572c-.842-1.153-1.72-2.28-2.583-3.418-.831-1.1-1.669-2.187-2.484-3.294a.924.924,0,0,0-.86-.435c-.581.026-1.164,0-1.746.014-.255,0-.323.081-.334.338-.01.211-.005.423-.005.635v5.712c0,.185,0,.371,0,.555-.014.412-.038.443-.465.449q-.953.012-1.905,0c-.437-.006-.47-.05-.482-.519,0-.158,0-.317,0-.476q0-8.33,0-16.66c0-1.039-.1-.94.931-.942q2.262,0,4.525,0a17.936,17.936,0,0,1,3.393.288,4.912,4.912,0,0,1,2.013.892,3.632,3.632,0,0,1,1.518,2.757,6.571,6.571,0,0,1-.154,2.2,4.838,4.838,0,0,1-1.24,2.179,9.431,9.431,0,0,1-1.89,1.437A1.767,1.767,0,0,0,2401.931,2728.423Zm-5.586-4.817c0,.291,0,.582,0,.873,0,.687,0,1.375.005,2.063,0,.307.062.364.384.366.635,0,1.271.019,1.9-.02a5.455,5.455,0,0,0,2.282-.613,3.4,3.4,0,0,0,1.9-3.756,2.031,2.031,0,0,0-1.533-1.826c-.152-.044-.3-.1-.458-.13a20.291,20.291,0,0,0-4.192-.2.271.271,0,0,0-.286.3q0,.238-.005.476Q2396.344,2722.376,2396.345,2723.606Z" transform="translate(-5225.985 -1033.398)" fill="#fff"/>
    <path id="Path_3197" data-name="Path 3197" d="M1998.115,2727.5v-8.327c0-.185,0-.37,0-.555.014-.4.05-.441.47-.448.476-.008.952,0,1.428,0q5,0,10,0c.721,0,.723.005.726.75,0,.37,0,.74-.006,1.11a.276.276,0,0,1-.29.3c-.211.007-.423.006-.635.006h-7.935c-.921,0-.871-.038-.871.855q0,1.983,0,3.966c0,.185,0,.37.019.554a.249.249,0,0,0,.259.243c.237.012.475.017.713.017h6.427c.837,0,.808-.044.8.836,0,.344,0,.687-.008,1.031a.27.27,0,0,1-.291.3c-.211,0-.423.007-.635.007q-3.293,0-6.586,0c-.692,0-.7.008-.7.7,0,1.692,0,3.383,0,5.075,0,.079,0,.159,0,.238.017.409.069.468.45.482.211.008.423,0,.635,0h8.411c.212,0,.423,0,.634.011a.239.239,0,0,1,.252.246c.006.528.006,1.057.006,1.585,0,.2-.126.277-.3.289s-.37.012-.555.012h-11.586c-.106,0-.212,0-.317,0-.471-.016-.5-.047-.517-.49-.005-.185,0-.37,0-.555Z" transform="translate(-4846.314 -1033.381)" fill="#fff"/>
    <path id="Path_3198" data-name="Path 3198" d="M373.31,2727.462q0-4.283,0-8.566c0-.72.009-.7.7-.7H385.2c.106,0,.212,0,.317,0,.3.017.376.068.358.389a4.851,4.851,0,0,1-.1,1.709,5.579,5.579,0,0,1-1.571.064c-2.434.012-4.868.006-7.3.005-.758,0-.728-.015-.728.746q0,2.062,0,4.125c0,.159,0,.317.008.476.006.2.122.278.3.282q.317.007.635.007,3.294,0,6.587,0c.705,0,.708.006.712.686,0,.4,0,.793-.006,1.19a.273.273,0,0,1-.3.288c-.212.006-.423.006-.635.006H377.2c-.212,0-.423,0-.635,0-.332.012-.376.055-.394.356,0,.079,0,.159,0,.238q0,2.658,0,5.315c0,.079,0,.158,0,.238.016.265.077.337.322.349.211.01.423.006.635.006h8.413c.212,0,.424,0,.635,0,.273.012.349.071.354.312.009.5,0,1,0,1.507a.269.269,0,0,1-.3.288q-.278.007-.555.007-5.754,0-11.508,0c-.936,0-.86.063-.86-.851Q373.309,2731.705,373.31,2727.462Z" transform="translate(-3286.038 -1033.413)" fill="#fff"/>
    <path id="Path_3199" data-name="Path 3199" d="M784.852,2727.49q0-4.245,0-8.49c0-.839-.028-.8.755-.8,2.117,0,4.234,0,6.351.022a13.363,13.363,0,0,1,2.6.284,4.949,4.949,0,0,1,1.883.8,3.994,3.994,0,0,1,1.459,1.837,6.25,6.25,0,0,1,.047,4.5,5.132,5.132,0,0,1-1.8,2.368,8.911,8.911,0,0,1-4.254,1.611,25.165,25.165,0,0,1-3.486.142c-.706,0-.7-.026-.7.691q0,2.817,0,5.634c0,.7-.006.707-.691.71-.609,0-1.218,0-1.826-.007-.254,0-.318-.078-.331-.337-.01-.211-.006-.423-.006-.635Q784.851,2731.656,784.852,2727.49Zm2.857-3.541c0,1.082,0,2.164,0,3.245,0,.329.057.388.355.392a24.881,24.881,0,0,0,2.929-.054,6.172,6.172,0,0,0,2.628-.8,3.257,3.257,0,0,0,1.606-2.5,5.6,5.6,0,0,0,.008-1.263,2.459,2.459,0,0,0-1.758-2.216,5.716,5.716,0,0,0-1.781-.342c-1.188-.019-2.376-.026-3.564-.028-.369,0-.42.052-.423.406C787.7,2721.838,787.709,2722.894,787.709,2723.949Z" transform="translate(-3681.235 -1033.414)" fill="#fff"/>
    <path id="Path_3200" data-name="Path 3200" d="M-493.389,2736.553a3.2,3.2,0,0,1-1.032.065c-.5.01-1-.01-1.507.006a.486.486,0,0,1-.521-.378c-.4-1.089-.817-2.175-1.228-3.262-.093-.247-.189-.493-.286-.739a.366.366,0,0,0-.363-.252c-.159,0-.317,0-.476,0h-7.059c-.106,0-.212.008-.317,0a.474.474,0,0,0-.527.368c-.448,1.186-.911,2.365-1.369,3.547-.057.147-.119.293-.17.443a.349.349,0,0,1-.348.268c-.634,0-1.268,0-1.9-.011a.2.2,0,0,1-.174-.282c.044-.151.1-.3.156-.448q3.386-8.584,6.775-17.167c.314-.794.2-.676,1.02-.686.529-.007,1.058.018,1.586-.008a.623.623,0,0,1,.707.469c.418,1.112.872,2.21,1.308,3.316q2.745,6.963,5.487,13.928A1.892,1.892,0,0,1-493.389,2736.553Zm-8.887-15.488c-.36.608-2.446,5.947-3.281,8.368a.434.434,0,0,0-.026.389,1.1,1.1,0,0,0,.218.042q3.048,0,6.1,0a.241.241,0,0,0,.287-.2Z" transform="translate(-2437.155 -1033.232)" fill="#fff"/>
    <path id="Path_3201" data-name="Path 3201" d="M-865.737,2722.873a2.6,2.6,0,0,1,.917.309,18.643,18.643,0,0,0,3.628,1.124,8.611,8.611,0,0,0,3.852-.088,4.04,4.04,0,0,0,1.67-.878,2.511,2.511,0,0,0,.813-2.44,1.956,1.956,0,0,0-.916-1.337,9.912,9.912,0,0,0-1.042-.571,29.706,29.706,0,0,0-2.8-1.1,28.43,28.43,0,0,1-2.794-1.121,10.759,10.759,0,0,1-1.568-.926,3.778,3.778,0,0,1-1.6-2.634,5.666,5.666,0,0,1,.23-2.66,4.492,4.492,0,0,1,2.1-2.486,7.065,7.065,0,0,1,2.473-.8,13.611,13.611,0,0,1,3.874.044,22.341,22.341,0,0,1,2.949.6c.44.118.468.152.475.59q.012.753,0,1.507c-.007.436-.064.469-.46.344-.705-.221-1.407-.461-2.121-.648a12.033,12.033,0,0,0-3.613-.39,5.6,5.6,0,0,0-1.705.331,2.188,2.188,0,0,0-1.562,1.91,2.272,2.272,0,0,0,1.113,2.361,9.164,9.164,0,0,0,1.791.84q1.983.693,3.967,1.382a8.261,8.261,0,0,1,2.128,1.044,4.28,4.28,0,0,1,1.891,2.736,4.924,4.924,0,0,1-1.768,5.035,7.531,7.531,0,0,1-3.534,1.508,14.538,14.538,0,0,1-4.893-.065,28.5,28.5,0,0,1-3.1-.677c-.423-.119-.436-.125-.434-.527C-865.767,2724.42-865.81,2723.658-865.737,2722.873Z" transform="translate(-2096.159 -1022.788)" fill="#fff"/>
    <path id="Path_3202" data-name="Path 3202" d="M-22.258,2727.483q0-4.243,0-8.484c0-.831-.035-.8.755-.8H-9.761c.159,0,.317,0,.476.008a.241.241,0,0,1,.262.237q.016.831.005,1.662a.247.247,0,0,1-.253.252c-.211.011-.423.011-.634.011h-8.41c-.185,0-.37,0-.555,0-.516.013-.528.017-.53.545q-.007,2.656,0,5.313c0,.105.007.211.017.316a.2.2,0,0,0,.2.2c.237.013.475.021.713.021q3.61,0,7.22,0c.752,0,.732,0,.727.75,0,.37,0,.74-.006,1.11a.277.277,0,0,1-.288.305c-.211.009-.423.007-.635.007h-7.061c-.211,0-.423,0-.634.015a.241.241,0,0,0-.243.254c-.008.211-.012.423-.012.634q0,2.974,0,5.947c0,.185,0,.37,0,.555-.014.4-.048.446-.466.451q-.992.012-1.983,0c-.342,0-.39-.066-.4-.433-.007-.211,0-.423,0-.634Q-22.258,2731.606-22.258,2727.483Z" transform="translate(-2906.179 -1033.413)" fill="#fff"/>
    <path id="Path_3203" data-name="Path 3203" d="M1225.091,2737.131a6.419,6.419,0,0,1,2.233,2.2,8.918,8.918,0,0,1,1.341,3.277,14.871,14.871,0,0,1-.121,6.671,8.933,8.933,0,0,1-1.56,3.264,7.033,7.033,0,0,1-5.023,2.838,8.28,8.28,0,0,1-3.977-.452,4.381,4.381,0,0,1-1.687-1,20.267,20.267,0,0,1,1.706-1.692,3.912,3.912,0,0,0,2.665,1.052,4.208,4.208,0,0,0,3.743-1.671,6.623,6.623,0,0,0,1.126-2.423,16.032,16.032,0,0,0,.249-5.739,8.2,8.2,0,0,0-.4-1.772,5.478,5.478,0,0,0-1.564-2.523A18.116,18.116,0,0,1,1225.091,2737.131Z" transform="translate(-4095.548 -1051.594)" fill="#fff"/>
    <path id="Path_3204" data-name="Path 3204" d="M1132.61,2725.2a9.342,9.342,0,0,1-3.051-6.085,15.01,15.01,0,0,1,.192-5.2,8.8,8.8,0,0,1,2.536-4.657,6.969,6.969,0,0,1,3.953-1.84,8.309,8.309,0,0,1,4.645.622,10.473,10.473,0,0,1-1.575,1.812,4.6,4.6,0,0,0-3.462-.1,3.8,3.8,0,0,0-1.666,1.159,5.467,5.467,0,0,0-1,1.693,11.878,11.878,0,0,0-.669,5.12.145.145,0,0,1,0,.108,10.46,10.46,0,0,0,.479,3.167,5.246,5.246,0,0,0,.99,1.945A14.2,14.2,0,0,1,1132.61,2725.2Z" transform="translate(-4012.119 -1022.974)" fill="#fff"/>
    <g id="Group_3188" data-name="Group 3188" transform="translate(-2990.663 1702.173)">
      <path id="Path_3205" data-name="Path 3205" d="M-1585.583,3162.834a3.447,3.447,0,0,1-3.47-3.416,3.447,3.447,0,0,1,3.47-3.415,3.447,3.447,0,0,1,3.47,3.415A3.447,3.447,0,0,1-1585.583,3162.834Zm0-6.752a3.367,3.367,0,0,0-3.391,3.336,3.368,3.368,0,0,0,3.391,3.336,3.368,3.368,0,0,0,3.39-3.336A3.367,3.367,0,0,0-1585.583,3156.082Z" transform="translate(1589.053 -3156.003)" fill="#fff"/>
    </g>
    <g id="Group_3189" data-name="Group 3189" transform="translate(-2989.684 1704.269)">
      <path id="Path_3206" data-name="Path 3206" d="M-1563.625,3211.421v-2.193h-.783v-.446h2.1v.446h-.781v2.193Z" transform="translate(1564.408 -3208.783)" fill="#fff"/>
      <path id="Path_3207" data-name="Path 3207" d="M-1503.134,3211.421v-2.639h.8l.479,1.8.473-1.8h.8v2.639h-.495v-2.077l-.524,2.077h-.513l-.522-2.077v2.077Z" transform="translate(1505.567 -3208.783)" fill="#fff"/>
    </g>
  </g>
</svg>
