<svg xmlns="http://www.w3.org/2000/svg" xmlns:xlink="http://www.w3.org/1999/xlink" width="97.419" height="94" viewBox="0 0 97.419 94">
  <defs>
    <linearGradient id="linear-gradient" y1="0.5" x2="1" y2="0.5" gradientUnits="objectBoundingBox">
      <stop offset="0" stop-color="#ffbe55"/>
      <stop offset="0.46" stop-color="#ffbe55"/>
      <stop offset="0.6" stop-color="#ffbe55"/>
      <stop offset="0.68" stop-color="#ffe278"/>
      <stop offset="0.76" stop-color="#ffbe55"/>
      <stop offset="0.79" stop-color="#ffbe55"/>
      <stop offset="1" stop-color="#c86d1b"/>
    </linearGradient>
    <linearGradient id="linear-gradient-17" x1="5.249" y1="0.5" x2="6.249" y2="0.5" xlink:href="#linear-gradient"/>
    <linearGradient id="linear-gradient-18" x1="2.141" y1="0.5" x2="3.141" y2="0.5" xlink:href="#linear-gradient"/>
    <linearGradient id="linear-gradient-19" x1="4.492" y1="0.5" x2="5.492" y2="0.5" xlink:href="#linear-gradient"/>
    <linearGradient id="linear-gradient-20" x1="17.086" y1="0.5" x2="18.086" y2="0.5" xlink:href="#linear-gradient"/>
    <linearGradient id="linear-gradient-21" x1="4.089" y1="0.5" x2="5.089" y2="0.5" xlink:href="#linear-gradient"/>
    <linearGradient id="linear-gradient-22" x1="4.032" y1="0.5" x2="5.032" y2="0.5" xlink:href="#linear-gradient"/>
    <linearGradient id="linear-gradient-23" x1="9.094" y1="0.5" x2="10.094" y2="0.5" xlink:href="#linear-gradient"/>
    <linearGradient id="linear-gradient-24" x1="4.39" y1="0.5" x2="5.39" y2="0.5" xlink:href="#linear-gradient"/>
    <linearGradient id="linear-gradient-25" x1="6.375" y1="0.5" x2="7.375" y2="0.5" xlink:href="#linear-gradient"/>
    <linearGradient id="linear-gradient-26" x1="6.059" y1="0.5" x2="7.059" y2="0.5" xlink:href="#linear-gradient"/>
    <linearGradient id="linear-gradient-27" x1="9.841" y1="0.5" x2="10.841" y2="0.5" xlink:href="#linear-gradient"/>
    <linearGradient id="linear-gradient-28" x1="13.426" y1="0.5" x2="14.426" y2="0.5" xlink:href="#linear-gradient"/>
    <linearGradient id="linear-gradient-29" x1="6.119" y1="0.5" x2="7.119" y2="0.5" xlink:href="#linear-gradient"/>
    <linearGradient id="linear-gradient-30" x1="7.143" y1="0.5" x2="8.143" y2="0.5" xlink:href="#linear-gradient"/>
    <linearGradient id="linear-gradient-31" x1="6.482" y1="0.5" x2="7.482" y2="0.5" xlink:href="#linear-gradient"/>
    <linearGradient id="linear-gradient-32" x1="8.606" y1="0.5" x2="9.606" y2="0.5" xlink:href="#linear-gradient"/>
    <radialGradient id="radial-gradient" cx="0.5" cy="0.5" r="0.5" gradientTransform="translate(0)" gradientUnits="objectBoundingBox">
      <stop offset="0" stop-color="#ffd071"/>
      <stop offset="1" stop-color="#ffaa4c"/>
    </radialGradient>
    <linearGradient id="linear-gradient-33" y1="0.5" x2="1" y2="0.5" gradientUnits="objectBoundingBox">
      <stop offset="0" stop-color="#ffb639"/>
      <stop offset="0.526" stop-color="#ffcc73"/>
      <stop offset="1" stop-color="#ffbe55"/>
    </linearGradient>
    <linearGradient id="linear-gradient-34" y1="0.5" x2="1" y2="0.5" gradientUnits="objectBoundingBox">
      <stop offset="0" stop-color="#b96c1b"/>
      <stop offset="0.5" stop-color="#f4ad21"/>
      <stop offset="1" stop-color="#b96c1b"/>
    </linearGradient>
    <linearGradient id="linear-gradient-39" y1="0.5" x2="1" y2="0.5" gradientUnits="objectBoundingBox">
      <stop offset="0" stop-color="#b86b1b"/>
      <stop offset="0.511" stop-color="#f2a41f"/>
      <stop offset="1" stop-color="#af5e1b"/>
    </linearGradient>
    <linearGradient id="linear-gradient-41" y1="0.5" x2="1" y2="0.5" gradientUnits="objectBoundingBox">
      <stop offset="0" stop-color="#ffbe55"/>
      <stop offset="0.465" stop-color="#ffd770"/>
      <stop offset="1" stop-color="#ffbe55"/>
    </linearGradient>
    <linearGradient id="linear-gradient-42" y1="0.5" x2="1" y2="0.5" gradientUnits="objectBoundingBox">
      <stop offset="0" stop-color="#a45c1b"/>
      <stop offset="1" stop-color="#7c4318"/>
    </linearGradient>
    <radialGradient id="radial-gradient-2" cx="0.5" cy="0.5" r="0.5" gradientUnits="objectBoundingBox">
      <stop offset="0" stop-color="#e4001d"/>
      <stop offset="1" stop-color="#850f17"/>
    </radialGradient>
  </defs>
  <g id="Group_890" data-name="Group 890" transform="translate(-285.075 -166.536)">
    <g id="Group_891" data-name="Group 891" transform="translate(291.62 180.083)">
      <g id="Group_890-2" data-name="Group 890" transform="translate(0 0.928)">
        <path id="Path_1327" data-name="Path 1327" d="M330.786,355.087a5.521,5.521,0,0,0,1.736-.92,8.175,8.175,0,0,0-1.351-.68A7.831,7.831,0,0,0,329.7,353c-.371-.088-.76-.141-1.138-.2a7.449,7.449,0,0,0-4.043.575,7.55,7.55,0,0,0,1.395,1.049,7.889,7.889,0,0,0,.755.4,6.416,6.416,0,0,0,.807.277,6.645,6.645,0,0,0,1.191.219A5.247,5.247,0,0,0,330.786,355.087Z" transform="translate(-316.927 -300.459)" fill="url(#linear-gradient)"/>
        <path id="Path_1328" data-name="Path 1328" d="M320.645,260a7.547,7.547,0,0,0,.773-1.787,9.255,9.255,0,0,0,.322-1.941,6.806,6.806,0,0,0-.012-1.019c-.017-.226-.052-.44-.086-.656a5.77,5.77,0,0,0-.122-.637,6.049,6.049,0,0,0-.43-1.143,5.711,5.711,0,0,0-1.617,3.473,4.279,4.279,0,0,0,.032,1.063A5.09,5.09,0,0,0,320.645,260c-.5-.457-1.021-.894-1.362-1.273l-.591-.608-.162-.167a6.043,6.043,0,0,1-.414-.453c-.324-.391-.778-.9-1.2-1.43-.4-.548-.815-1.084-1.1-1.505l-.457-.713-.457-.713-.9-1.631a7.865,7.865,0,0,0,2.388-3.068,7.167,7.167,0,0,0,.373-.962,7.523,7.523,0,0,0,.266-1.287,4.985,4.985,0,0,0,.014-1.241,5.806,5.806,0,0,0-2.764,2.667,5.421,5.421,0,0,0-.278,3.89l-.8-1.685-.314-.787-.314-.788c-.179-.476-.376-1.126-.593-1.769-.191-.651-.352-1.311-.487-1.8-.066-.246-.1-.456-.13-.6l-.047-.229-.169-.832c-.106-.5-.18-1.174-.286-1.845a7.737,7.737,0,0,0,3.282-2.1,9.036,9.036,0,0,0,.661-.8,6.143,6.143,0,0,0,.668-1.159,5.31,5.31,0,0,0,.422-1.207,6.277,6.277,0,0,0-1.851.528,5.388,5.388,0,0,0-1.625,1.142,5.7,5.7,0,0,0-.671.838,5.572,5.572,0,0,0-.367.643,6.109,6.109,0,0,0-.256.681,5.554,5.554,0,0,0-.263,1.435h0c-.091-.673-.13-1.353-.183-1.859-.028-.253-.03-.466-.036-.614l-.009-.233-.031-.849-.015-.412c0-.146,0-.3.007-.459.005-.319.01-.659.015-1s.024-.679.046-1,.041-.615.058-.869.031-.466.052-.614l.027-.232s.039-.338.1-.845.172-1.177.282-1.848l.083-.5.1-.481.186-.851c.056-.249.1-.458.135-.6l.061-.226.222-.821c.07-.245.137-.536.234-.839l.307-.951c.2-.652.451-1.283.628-1.762l.218-.577c.052-.139.09-.216.09-.216l.338-.78.348-.8.442-.9c.154-.3.293-.614.45-.892l.424-.761.3-.538c.072-.13.116-.2.116-.2l.451-.72.462-.738c.177-.265.376-.54.57-.82s.386-.56.576-.815l.537-.685.523-.669.559-.639.573-.655c.214-.236,1.848-1.84,2.036-2.012l.627-.571-.539-.627-.644.586-.66.6c-.235.226-.474.48-.719.727s-.492.494-.711.736l-.587.671-.572.656-.536.685-.549.7c-.2.261-.389.55-.59.834a8.951,8.951,0,0,0,.817-2.931,8.17,8.17,0,0,0,.065-1.137,7.464,7.464,0,0,0-1.115-3.911,7.154,7.154,0,0,0-1.308,3.1,6.752,6.752,0,0,0-.052,1.2,5.518,5.518,0,0,0,1.594,3.678c-.2.286-.4.568-.583.839l-.473.755-.461.737s-.045.074-.118.208l-.307.55-.434.778c-.16.284-.3.6-.46.911l-.452.916-.356.816-.346.8s-.038.079-.091.221l-.223.589c-.181.489-.441,1.134-.641,1.8l-.313.972c-.1.31-.169.607-.24.857l-.227.839-.062.231c-.039.147-.081.36-.138.614l-.19.87-.105.491-.086.512h0a10.741,10.741,0,0,0-.114-1.5,9.659,9.659,0,0,0-.386-1.493,7.8,7.8,0,0,0-1-1.976,7.322,7.322,0,0,0-.633-.812,6.484,6.484,0,0,0-1.532-1.259,7.211,7.211,0,0,0-.1,1.673,7.547,7.547,0,0,0,.3,1.626,5.5,5.5,0,0,0,.461,1.1,5.861,5.861,0,0,0,1.308,1.645,5.7,5.7,0,0,0,1.7,1c-.113.686-.241,1.369-.288,1.889s-.1.863-.1.863-.01.086-.028.237-.037.367-.053.628-.038.564-.059.889-.049.672-.047,1.02h0a10.221,10.221,0,0,0-.328-1.466,10.38,10.38,0,0,0-.594-1.423,8.031,8.031,0,0,0-.589-.977,8.429,8.429,0,0,0-1.421-1.555,6.523,6.523,0,0,0-1.7-1.031,7.923,7.923,0,0,0,.135,1.673,7.6,7.6,0,0,0,.528,1.573c.084.179.175.355.273.525s.218.337.337.5a5.593,5.593,0,0,0,3.356,2.185c-.005.348-.011.7-.016,1.021l-.007.47c.006.149.011.29.015.421l.032.869.009.239c.006.152.009.37.037.629.053.519.094,1.214.187,1.9s.185,1.38.293,1.891l.174.853.048.235c.034.148.066.364.134.616.137.5.3,1.181.5,1.849.222.66.426,1.327.609,1.816l.322.81.324.809.82,1.733.929,1.677.47.734.471.733c.292.434.72.986,1.13,1.549.429.55.9,1.069,1.23,1.471.165.2.32.357.426.466l.167.172.607.625c.351.389.885.839,1.4,1.309s1.071.891,1.479,1.218l.686.537.488-.668-.667-.523C321.687,260.868,321.136,260.469,320.645,260Z" transform="translate(-304.503 -206.913)" fill="url(#linear-gradient)"/>
        <path id="Path_1329" data-name="Path 1329" d="M320.517,339.672q-.334-.191-.695-.353a8.729,8.729,0,0,0-1.088-.4,7.311,7.311,0,0,0-4.076-.194,7.227,7.227,0,0,0,2.584,2.244,6.56,6.56,0,0,0,1.121.446,5.488,5.488,0,0,0,4-.408,7.525,7.525,0,0,0-1.189-.93C320.952,339.938,320.738,339.8,320.517,339.672Z" transform="translate(-310.598 -291.337)" fill="url(#linear-gradient)"/>
        <path id="Path_1330" data-name="Path 1330" d="M338.814,327.087a6.4,6.4,0,0,0-.176-2.511,5.8,5.8,0,0,0-2.242,3.111,5.375,5.375,0,0,0-.162,1.045,5.9,5.9,0,0,0,0,.734,3.585,3.585,0,0,0,.109.721,6.59,6.59,0,0,0,.5,1.363,7.968,7.968,0,0,0,1.775-3.456A6.9,6.9,0,0,0,338.814,327.087Z" transform="translate(-324.433 -282.394)" fill="url(#linear-gradient)"/>
        <path id="Path_1331" data-name="Path 1331" d="M315.011,325.814a9.253,9.253,0,0,0-2.179-2.126,8.488,8.488,0,0,0-.989-.6,7.3,7.3,0,0,0-3.969-.916,8.793,8.793,0,0,0,.907,1.468,6.52,6.52,0,0,0,1.212,1.186,6.4,6.4,0,0,0,1.014.642A5.528,5.528,0,0,0,315.011,325.814Z" transform="translate(-306.246 -280.842)" fill="url(#linear-gradient)"/>
        <path id="Path_1332" data-name="Path 1332" d="M309.3,307.488a7.7,7.7,0,0,0-.519-.574,8.277,8.277,0,0,0-.867-.756,7.27,7.27,0,0,0-3.754-1.557,8.649,8.649,0,0,0,.638,1.582,6.989,6.989,0,0,0,.988,1.362,5.736,5.736,0,0,0,.889.8,5.536,5.536,0,0,0,3.876,1.04,8.6,8.6,0,0,0-.77-1.294C309.634,307.884,309.466,307.684,309.3,307.488Z" transform="translate(-303.863 -269.58)" fill="url(#linear-gradient)"/>
        <path id="Path_1333" data-name="Path 1333" d="M327.031,303.991a8.347,8.347,0,0,0,.528-.889,6.713,6.713,0,0,0,.48-1.237,5.182,5.182,0,0,0,.226-1.24,5.836,5.836,0,0,0-3.173,2.178,5.57,5.57,0,0,0-.526.931,6.034,6.034,0,0,0-.26.692,5.036,5.036,0,0,0-.143.712,5.9,5.9,0,0,0-.025,1.457A7.817,7.817,0,0,0,327.031,303.991Z" transform="translate(-316.657 -267.029)" fill="url(#linear-gradient)"/>
        <path id="Path_1334" data-name="Path 1334" d="M304.471,289.959a5.439,5.439,0,0,0,.752.924,5.563,5.563,0,0,0,3.651,1.654,9.464,9.464,0,0,0-.547-1.4q-.171-.341-.379-.672c-.132-.22-.268-.437-.421-.648a8.087,8.087,0,0,0-.731-.881,8.386,8.386,0,0,0-1.631-1.334,6.553,6.553,0,0,0-1.833-.776,8.542,8.542,0,0,0,.379,1.646A7.439,7.439,0,0,0,304.471,289.959Z" transform="translate(-303.332 -258.177)" fill="url(#linear-gradient)"/>
        <path id="Path_1335" data-name="Path 1335" d="M324.338,277.4q.2-.175.375-.357a6.022,6.022,0,0,0,.838-1.057,5.811,5.811,0,0,0,.6-1.142,6.315,6.315,0,0,0-1.912.255,5.374,5.374,0,0,0-1.773.9,5.776,5.776,0,0,0-.792.731,5.037,5.037,0,0,0-.814,1.218,5.3,5.3,0,0,0-.478,1.379,7.661,7.661,0,0,0,3.565-1.582C324.082,277.628,324.212,277.514,324.338,277.4Z" transform="translate(-314.267 -250.488)" fill="url(#linear-gradient)"/>
        <path id="Path_1336" data-name="Path 1336" d="M325.709,264.582a8.877,8.877,0,0,0,.859-.584,6.093,6.093,0,0,0,.987-.93,6.6,6.6,0,0,0,.751-1.049,6.327,6.327,0,0,0-1.931-.018,5.821,5.821,0,0,0-.965.227,5.644,5.644,0,0,0-.915.41,5.813,5.813,0,0,0-.892.611,5.248,5.248,0,0,0-.979,1.09,5.152,5.152,0,0,0-.671,1.3,7.248,7.248,0,0,0,1.922-.277A7.6,7.6,0,0,0,325.709,264.582Z" transform="translate(-315.277 -242.209)" fill="url(#linear-gradient)"/>
        <path id="Path_1337" data-name="Path 1337" d="M318.23,241.928a8.578,8.578,0,0,0-.173-1.533,7.888,7.888,0,0,0-.284-1.1,7.3,7.3,0,0,0-2.265-3.359,7.084,7.084,0,0,0-.282,3.3,5.926,5.926,0,0,0,.305,1.152,5.571,5.571,0,0,0,2.6,3.042c.036-.246.059-.5.07-.747A7.179,7.179,0,0,0,318.23,241.928Z" transform="translate(-310.912 -225.531)" fill="url(#linear-gradient)"/>
        <path id="Path_1338" data-name="Path 1338" d="M325.6,227.047a9.9,9.9,0,0,0-.067-2.675A7.366,7.366,0,0,0,323.8,220.7a7.126,7.126,0,0,0-.779,3.238,6.45,6.45,0,0,0,.136,1.189,5.61,5.61,0,0,0,.789,1.95,5.74,5.74,0,0,0,1.347,1.437,7.331,7.331,0,0,0,.178-.729C325.518,227.541,325.571,227.3,325.6,227.047Z" transform="translate(-315.962 -215.76)" fill="url(#linear-gradient)"/>
        <path id="Path_1339" data-name="Path 1339" d="M328.6,249.629a5.846,5.846,0,0,0-.972.477,5.649,5.649,0,0,0-1.121.942,6.651,6.651,0,0,0-.471.565,6.506,6.506,0,0,0-.375.624,7.147,7.147,0,0,0,1.94,0,7.742,7.742,0,0,0,1.929-.509,7.823,7.823,0,0,0,.929-.458,6.669,6.669,0,0,0,2-1.705A5.82,5.82,0,0,0,328.6,249.629Z" transform="translate(-317.659 -234.082)" fill="url(#linear-gradient)"/>
        <path id="Path_1340" data-name="Path 1340" d="M343,228.234a6.522,6.522,0,0,0,1.012-.157,6.6,6.6,0,0,0,2.387-.975,5.632,5.632,0,0,0-4.745-.975,5.622,5.622,0,0,0-2.5,1.458A7.838,7.838,0,0,0,343,228.234Z" transform="translate(-326.314 -219.132)" fill="url(#linear-gradient)"/>
        <path id="Path_1341" data-name="Path 1341" d="M338.525,237.809a5.7,5.7,0,0,0-4.852-.189,5.931,5.931,0,0,0-1.243.769,5,5,0,0,0-.544.493,6.707,6.707,0,0,0-.462.564,7.2,7.2,0,0,0,1.922.275,8.065,8.065,0,0,0,1.978-.224,6.837,6.837,0,0,0,.981-.317A6.63,6.63,0,0,0,338.525,237.809Z" transform="translate(-321.353 -226.32)" fill="url(#linear-gradient)"/>
      </g>
      <path id="Path_1342" data-name="Path 1342" d="M349.439,207.98a7.846,7.846,0,0,0,.83-.919,7.986,7.986,0,0,0,1.5-2.736,6.813,6.813,0,0,0-5.2,2.705,6.807,6.807,0,0,0-1.231,3.274A9.483,9.483,0,0,0,349.439,207.98Z" transform="translate(-330.278 -204.325)" fill="url(#linear-gradient)"/>
    </g>
    <g id="Group_893" data-name="Group 893" transform="translate(354.46 180.083)">
      <g id="Group_892" data-name="Group 892" transform="translate(1.405 0.928)">
        <path id="Path_1343" data-name="Path 1343" d="M496.791,355.087a5.52,5.52,0,0,1-1.736-.92,8.173,8.173,0,0,1,1.351-.68,7.832,7.832,0,0,1,1.467-.488c.371-.088.76-.141,1.138-.2a7.449,7.449,0,0,1,4.043.575,7.552,7.552,0,0,1-1.395,1.049,7.89,7.89,0,0,1-.755.4,6.409,6.409,0,0,1-.807.277,6.645,6.645,0,0,1-1.191.219A5.246,5.246,0,0,1,496.791,355.087Z" transform="translate(-490.567 -300.459)" fill="url(#linear-gradient-17)"/>
        <path id="Path_1344" data-name="Path 1344" d="M489.717,260a7.547,7.547,0,0,1-.773-1.787,9.255,9.255,0,0,1-.322-1.941,6.806,6.806,0,0,1,.012-1.019c.017-.226.052-.44.086-.656a5.756,5.756,0,0,1,.122-.637,6.045,6.045,0,0,1,.43-1.143,5.711,5.711,0,0,1,1.617,3.473,4.279,4.279,0,0,1-.032,1.063A5.09,5.09,0,0,1,489.717,260c.5-.457,1.021-.894,1.362-1.273l.591-.608.162-.167a6.069,6.069,0,0,0,.414-.453c.324-.391.778-.9,1.2-1.43.4-.548.815-1.084,1.1-1.505l.457-.713.457-.713.9-1.631a7.865,7.865,0,0,1-2.388-3.068,7.167,7.167,0,0,1-.373-.962,7.523,7.523,0,0,1-.266-1.287,4.985,4.985,0,0,1-.014-1.241,5.806,5.806,0,0,1,2.764,2.667,5.422,5.422,0,0,1,.278,3.89l.8-1.685.314-.787.314-.788c.179-.476.376-1.126.593-1.769.191-.651.352-1.311.487-1.8.066-.246.1-.456.13-.6l.047-.229.169-.832c.106-.5.18-1.174.286-1.845a7.737,7.737,0,0,1-3.282-2.1,9.015,9.015,0,0,1-.661-.8,6.143,6.143,0,0,1-.668-1.159,5.31,5.31,0,0,1-.422-1.207,6.278,6.278,0,0,1,1.851.528,5.387,5.387,0,0,1,1.625,1.142,5.712,5.712,0,0,1,.671.838,5.581,5.581,0,0,1,.367.643,6.121,6.121,0,0,1,.256.681,5.552,5.552,0,0,1,.263,1.435h0c.091-.673.13-1.353.183-1.859.028-.253.03-.466.036-.614l.009-.233.031-.849.015-.412c0-.146,0-.3-.007-.459-.005-.319-.01-.659-.015-1s-.024-.679-.046-1-.041-.615-.058-.869-.031-.466-.052-.614l-.027-.232s-.039-.338-.1-.845-.172-1.177-.282-1.848l-.083-.5-.1-.481-.186-.851c-.056-.249-.1-.458-.135-.6l-.061-.226-.222-.821c-.07-.245-.137-.536-.234-.839l-.307-.951c-.2-.652-.451-1.283-.628-1.762l-.218-.577c-.052-.139-.09-.216-.09-.216l-.338-.78-.348-.8-.442-.9c-.154-.3-.293-.614-.45-.892l-.424-.761-.3-.538c-.072-.13-.116-.2-.116-.2l-.451-.72-.462-.738c-.177-.265-.376-.54-.57-.82s-.386-.56-.576-.815l-.537-.685-.523-.669-.559-.639-.573-.655c-.214-.236-1.848-1.84-2.036-2.012l-.627-.571.539-.627.644.586.66.6c.235.226.474.48.719.727s.492.494.711.736l.587.671.572.656.536.685.549.7c.2.261.389.55.59.834a8.951,8.951,0,0,1-.817-2.931,8.17,8.17,0,0,1-.065-1.137,7.464,7.464,0,0,1,1.115-3.911,7.154,7.154,0,0,1,1.308,3.1,6.746,6.746,0,0,1,.052,1.2,5.517,5.517,0,0,1-1.594,3.678c.2.286.4.568.583.839l.473.755.461.737s.045.074.118.208l.307.55.434.778c.16.284.3.6.46.911l.452.916.356.816.346.8s.038.079.091.221l.223.589c.181.489.441,1.134.641,1.8l.313.972c.1.31.169.607.24.857l.227.839.062.231c.039.147.081.36.138.614l.19.87.105.491.086.512h0a10.75,10.75,0,0,1,.114-1.5,9.666,9.666,0,0,1,.386-1.493,7.8,7.8,0,0,1,1-1.976,7.322,7.322,0,0,1,.633-.812,6.484,6.484,0,0,1,1.532-1.259,7.206,7.206,0,0,1,.1,1.673,7.548,7.548,0,0,1-.3,1.626,5.5,5.5,0,0,1-.461,1.1A5.862,5.862,0,0,1,501.7,229.2a5.7,5.7,0,0,1-1.7,1c.113.686.241,1.369.288,1.889l.1.863.028.237c.022.151.037.367.053.628s.038.564.059.889.049.672.047,1.02h0a10.229,10.229,0,0,1,.328-1.466,10.373,10.373,0,0,1,.594-1.423,8.023,8.023,0,0,1,.589-.977,8.428,8.428,0,0,1,1.421-1.555,6.522,6.522,0,0,1,1.7-1.031,7.927,7.927,0,0,1-.135,1.673,7.6,7.6,0,0,1-.528,1.573c-.084.179-.175.355-.273.525s-.218.337-.337.5a5.593,5.593,0,0,1-3.356,2.185c.005.348.011.7.016,1.021l.007.47c-.006.149-.011.29-.015.421l-.032.869-.009.239c-.006.152-.009.37-.037.629-.053.519-.094,1.214-.187,1.9s-.185,1.38-.293,1.891l-.174.853-.048.235c-.034.148-.066.364-.134.616-.137.5-.3,1.181-.5,1.849-.222.66-.426,1.327-.609,1.816l-.322.81-.324.809-.82,1.733-.929,1.677-.47.734-.471.733c-.292.434-.72.986-1.13,1.549-.429.55-.9,1.069-1.23,1.471-.165.2-.32.357-.426.466l-.167.172-.607.625c-.351.389-.885.839-1.4,1.309s-1.071.891-1.479,1.218l-.686.537-.488-.668.667-.523C488.675,260.868,489.226,260.469,489.717,260Z" transform="translate(-485.775 -206.913)" fill="url(#linear-gradient-18)"/>
        <path id="Path_1345" data-name="Path 1345" d="M507.586,339.672q.334-.191.695-.353a8.729,8.729,0,0,1,1.088-.4,7.311,7.311,0,0,1,4.076-.194,7.227,7.227,0,0,1-2.584,2.244,6.561,6.561,0,0,1-1.121.446,5.488,5.488,0,0,1-4-.408,7.523,7.523,0,0,1,1.189-.93C507.15,339.938,507.364,339.8,507.586,339.672Z" transform="translate(-497.421 -291.337)" fill="url(#linear-gradient-19)"/>
        <path id="Path_1346" data-name="Path 1346" d="M498.362,327.087a6.4,6.4,0,0,1,.176-2.511,5.8,5.8,0,0,1,2.242,3.111,5.382,5.382,0,0,1,.162,1.045,5.9,5.9,0,0,1,0,.734,3.589,3.589,0,0,1-.109.721,6.592,6.592,0,0,1-.5,1.363,7.968,7.968,0,0,1-1.775-3.456A6.892,6.892,0,0,1,498.362,327.087Z" transform="translate(-492.66 -282.394)" fill="url(#linear-gradient-20)"/>
        <path id="Path_1347" data-name="Path 1347" d="M514.109,325.814a9.255,9.255,0,0,1,2.179-2.126,8.491,8.491,0,0,1,.989-.6,7.3,7.3,0,0,1,3.969-.916,8.789,8.789,0,0,1-.907,1.468,6.521,6.521,0,0,1-1.212,1.186,6.4,6.4,0,0,1-1.014.642A5.528,5.528,0,0,1,514.109,325.814Z" transform="translate(-502.79 -280.842)" fill="url(#linear-gradient-21)"/>
        <path id="Path_1348" data-name="Path 1348" d="M521.151,307.488a7.7,7.7,0,0,1,.519-.574,8.271,8.271,0,0,1,.867-.756,7.27,7.27,0,0,1,3.754-1.557,8.648,8.648,0,0,1-.638,1.582,6.991,6.991,0,0,1-.988,1.362,5.736,5.736,0,0,1-.889.8,5.536,5.536,0,0,1-3.876,1.04,8.6,8.6,0,0,1,.77-1.294C520.817,307.884,520.985,307.684,521.151,307.488Z" transform="translate(-506.504 -269.58)" fill="url(#linear-gradient-22)"/>
        <path id="Path_1349" data-name="Path 1349" d="M507.412,303.991a8.358,8.358,0,0,1-.528-.889,6.715,6.715,0,0,1-.48-1.237,5.182,5.182,0,0,1-.226-1.24,5.836,5.836,0,0,1,3.173,2.178,5.572,5.572,0,0,1,.526.931,6.04,6.04,0,0,1,.26.692,5.027,5.027,0,0,1,.143.712,5.9,5.9,0,0,1,.025,1.457A7.817,7.817,0,0,1,507.412,303.991Z" transform="translate(-497.702 -267.029)" fill="url(#linear-gradient-23)"/>
        <path id="Path_1350" data-name="Path 1350" d="M527.5,289.959a5.434,5.434,0,0,1-.752.924,5.563,5.563,0,0,1-3.651,1.654,9.46,9.46,0,0,1,.547-1.4q.171-.341.379-.672c.132-.22.268-.437.421-.648a8.083,8.083,0,0,1,.731-.881,8.387,8.387,0,0,1,1.631-1.334,6.555,6.555,0,0,1,1.833-.776,8.542,8.542,0,0,1-.379,1.646A7.436,7.436,0,0,1,527.5,289.959Z" transform="translate(-508.557 -258.177)" fill="url(#linear-gradient-24)"/>
        <path id="Path_1351" data-name="Path 1351" d="M507.228,277.4q-.2-.175-.375-.357a6.021,6.021,0,0,1-.838-1.057,5.809,5.809,0,0,1-.6-1.142,6.315,6.315,0,0,1,1.912.255,5.374,5.374,0,0,1,1.773.9,5.778,5.778,0,0,1,.792.731,5.036,5.036,0,0,1,.814,1.218,5.3,5.3,0,0,1,.478,1.379,7.661,7.661,0,0,1-3.565-1.582C507.484,277.628,507.354,277.514,507.228,277.4Z" transform="translate(-497.215 -250.488)" fill="url(#linear-gradient-25)"/>
        <path id="Path_1352" data-name="Path 1352" d="M504.812,264.582a8.873,8.873,0,0,1-.859-.584,6.092,6.092,0,0,1-.987-.93,6.6,6.6,0,0,1-.751-1.049,6.327,6.327,0,0,1,1.931-.018,5.82,5.82,0,0,1,.965.227,5.642,5.642,0,0,1,.915.41,5.812,5.812,0,0,1,.892.611,5.247,5.247,0,0,1,.979,1.09,5.151,5.151,0,0,1,.671,1.3,7.248,7.248,0,0,1-1.922-.277A7.6,7.6,0,0,1,504.812,264.582Z" transform="translate(-495.161 -242.209)" fill="url(#linear-gradient-26)"/>
        <path id="Path_1353" data-name="Path 1353" d="M518.142,241.928a8.581,8.581,0,0,1,.173-1.533,7.884,7.884,0,0,1,.284-1.1,7.3,7.3,0,0,1,2.265-3.359,7.085,7.085,0,0,1,.282,3.3,5.924,5.924,0,0,1-.305,1.152,5.571,5.571,0,0,1-2.6,3.042c-.036-.246-.059-.5-.07-.747A7.2,7.2,0,0,1,518.142,241.928Z" transform="translate(-505.377 -225.531)" fill="url(#linear-gradient-27)"/>
        <path id="Path_1354" data-name="Path 1354" d="M511.549,227.047a9.9,9.9,0,0,1,.067-2.675,7.367,7.367,0,0,1,1.735-3.667,7.127,7.127,0,0,1,.779,3.238,6.45,6.45,0,0,1-.136,1.189,5.609,5.609,0,0,1-.789,1.95,5.738,5.738,0,0,1-1.347,1.437,7.34,7.34,0,0,1-.178-.729C511.633,227.541,511.58,227.3,511.549,227.047Z" transform="translate(-501.106 -215.76)" fill="url(#linear-gradient-28)"/>
        <path id="Path_1355" data-name="Path 1355" d="M501.12,249.629a5.846,5.846,0,0,1,.972.477,5.653,5.653,0,0,1,1.121.942,6.65,6.65,0,0,1,.471.565,6.5,6.5,0,0,1,.375.624,7.147,7.147,0,0,1-1.94,0,7.742,7.742,0,0,1-1.929-.509,7.821,7.821,0,0,1-.929-.458,6.669,6.669,0,0,1-2-1.705A5.82,5.82,0,0,1,501.12,249.629Z" transform="translate(-491.982 -234.082)" fill="url(#linear-gradient-29)"/>
        <path id="Path_1356" data-name="Path 1356" d="M485.934,228.234a6.523,6.523,0,0,1-1.012-.157,6.6,6.6,0,0,1-2.387-.975,5.632,5.632,0,0,1,4.745-.975,5.622,5.622,0,0,1,2.5,1.458A7.839,7.839,0,0,1,485.934,228.234Z" transform="translate(-482.536 -219.132)" fill="url(#linear-gradient-30)"/>
        <path id="Path_1357" data-name="Path 1357" d="M490.658,237.809a5.7,5.7,0,0,1,4.852-.189,5.931,5.931,0,0,1,1.243.769,5,5,0,0,1,.544.493,6.707,6.707,0,0,1,.462.564,7.2,7.2,0,0,1-1.922.275,8.065,8.065,0,0,1-1.978-.224,6.835,6.835,0,0,1-.981-.317A6.629,6.629,0,0,1,490.658,237.809Z" transform="translate(-487.746 -226.32)" fill="url(#linear-gradient-31)"/>
      </g>
      <path id="Path_1358" data-name="Path 1358" d="M480.945,207.98a7.843,7.843,0,0,1-.83-.919,7.987,7.987,0,0,1-1.5-2.736,6.814,6.814,0,0,1,5.2,2.705,6.807,6.807,0,0,1,1.231,3.274A9.483,9.483,0,0,1,480.945,207.98Z" transform="translate(-478.618 -204.325)" fill="url(#linear-gradient-32)"/>
    </g>
    <circle id="Ellipse_76" data-name="Ellipse 76" cx="29.48" cy="29.48" r="29.48" transform="translate(304.305 181.372)" fill="url(#radial-gradient)"/>
    <g id="Group_894" data-name="Group 894" transform="translate(289.469 166.536)">
      <path id="Path_1359" data-name="Path 1359" d="M341.648,255.167a44.315,44.315,0,1,1,44.315-44.315A44.365,44.365,0,0,1,341.648,255.167Zm0-87.914a43.6,43.6,0,1,0,43.6,43.6A43.647,43.647,0,0,0,341.648,167.253Z" transform="translate(-297.333 -166.536)" fill="url(#linear-gradient-33)"/>
    </g>
    <g id="Group_895" data-name="Group 895" transform="translate(320.835 171.793)">
      <path id="Path_1360" data-name="Path 1360" d="M388.974,187.531l-2.123.642.435,1.438,2.492-.754.269.889-3.6,1.088-1.624-5.367,3.591-1.086.271.9-2.485.751.387,1.279,2.124-.642Z" transform="translate(-384.825 -183.24)" fill="url(#linear-gradient-34)"/>
      <path id="Path_1361" data-name="Path 1361" d="M401.966,183.741l.776-2.059,1.316-.182-1.235,2.978,2.047,2.57-1.331.184-1.338-1.8-.8,2.093-1.331.185,1.272-3.03-2-2.53,1.316-.182Z" transform="translate(-394.139 -181.393)" fill="url(#linear-gradient-34)"/>
      <path id="Path_1362" data-name="Path 1362" d="M421.906,185.076a1.985,1.985,0,0,1-.706,1.407,2.345,2.345,0,0,1-1.6.479,2.11,2.11,0,0,1-1.677-.77,2.974,2.974,0,0,1-.566-2.009l.009-.342a3.368,3.368,0,0,1,.322-1.417,2.134,2.134,0,0,1,.839-.924,2.545,2.545,0,0,1,2.788.263,2.135,2.135,0,0,1,.647,1.476l-1.155-.03a1.17,1.17,0,0,0-.282-.795,1.118,1.118,0,0,0-.784-.265.982.982,0,0,0-.875.391,2.319,2.319,0,0,0-.328,1.276l-.011.423a2.485,2.485,0,0,0,.241,1.336.964.964,0,0,0,.858.442,1.14,1.14,0,0,0,.8-.224,1.1,1.1,0,0,0,.322-.749Z" transform="translate(-405.692 -181.201)" fill="url(#linear-gradient-34)"/>
      <path id="Path_1363" data-name="Path 1363" d="M437.073,186.066l-2.181-.4-.274,1.477,2.56.474-.169.913-3.7-.685,1.022-5.513,3.688.684-.17.92-2.552-.473-.244,1.314,2.181.4Z" transform="translate(-415.93 -181.923)" fill="url(#linear-gradient-34)"/>
      <path id="Path_1364" data-name="Path 1364" d="M448.094,190.505l2.322.792-.3.879-3.415-1.165,1.81-5.307,1.093.372Z" transform="translate(-424.518 -184.09)" fill="url(#linear-gradient-34)"/>
    </g>
    <g id="Group_897" data-name="Group 897" transform="translate(285.075 240.091)">
      <g id="Group_896" data-name="Group 896">
        <path id="Path_1365" data-name="Path 1365" d="M305.307,392.156H285.075l6.015-10.222-6.015-10.222h20.232Z" transform="translate(-285.075 -371.711)" fill="url(#linear-gradient-39)"/>
      </g>
    </g>
    <g id="Group_899" data-name="Group 899" transform="translate(362.262 240.091)">
      <g id="Group_898" data-name="Group 898" transform="translate(0)">
        <path id="Path_1366" data-name="Path 1366" d="M500.381,392.156h20.232L514.6,381.934l6.015-10.222H500.381Z" transform="translate(-500.381 -371.711)" fill="url(#linear-gradient-39)"/>
      </g>
    </g>
    <g id="Group_901" data-name="Group 901" transform="translate(298.85 235.619)">
      <g id="Group_900" data-name="Group 900" transform="translate(0)">
        <rect id="Rectangle_480" data-name="Rectangle 480" width="69.853" height="20.445" fill="url(#linear-gradient-41)"/>
      </g>
    </g>
    <g id="Group_904" data-name="Group 904" transform="translate(301.711 242.612)">
      <g id="Group_903" data-name="Group 903" transform="translate(0)">
        <g id="Group_902" data-name="Group 902">
          <path id="Path_1367" data-name="Path 1367" d="M336.288,380.573a1.843,1.843,0,0,0-.715-.467,2.445,2.445,0,0,0-.841-.151,1.573,1.573,0,0,0-.9.208.629.629,0,0,0-.3.535.62.62,0,0,0,.238.5,2.028,2.028,0,0,0,.632.326q.394.133.863.258t.941.3a3.791,3.791,0,0,1,.866.442,2.066,2.066,0,0,1,.632.69,2.1,2.1,0,0,1,.238,1.051,2.378,2.378,0,0,1-.387,1.42,2.156,2.156,0,0,1-1.074.778,4.769,4.769,0,0,1-1.581.241,3.039,3.039,0,0,1-1.116-.185,2.548,2.548,0,0,1-.78-.467c-.1-.09-.164-.118-.2-.083a1.121,1.121,0,0,0-.156.234l-.105.231a.23.23,0,0,1-.113.113.66.66,0,0,1-.2.022h-.5a.352.352,0,0,1-.193-.04.2.2,0,0,1-.058-.171V383.9a.342.342,0,0,1,.035-.191q.035-.045.181-.045h.592c.1,0,.161.015.171.045a1.066,1.066,0,0,1,.03.181,1.859,1.859,0,0,0,.326.843,2.012,2.012,0,0,0,.723.633,2.2,2.2,0,0,0,1.049.241,2.412,2.412,0,0,0,.823-.12,1.017,1.017,0,0,0,.484-.337.8.8,0,0,0,.158-.487.725.725,0,0,0-.236-.565,1.835,1.835,0,0,0-.627-.352q-.392-.138-.858-.256t-.936-.271a3.614,3.614,0,0,1-.858-.406,1.851,1.851,0,0,1-.866-1.674,2.187,2.187,0,0,1,.231-1.044,2.054,2.054,0,0,1,.612-.708,2.593,2.593,0,0,1,.859-.4,3.733,3.733,0,0,1,.969-.128,3,3,0,0,1,1,.158,2.7,2.7,0,0,1,.778.414.364.364,0,0,0,.2.1c.048,0,.1-.058.168-.168l.131-.251a.684.684,0,0,1,.065-.088c.017-.019.062-.028.135-.028h.647a.254.254,0,0,1,.171.043.241.241,0,0,1,.045.173v2.229c0,.1-.015.169-.045.2a.358.358,0,0,1-.211.04h-.457c-.144,0-.225-.02-.243-.06a1.138,1.138,0,0,1-.058-.236A1.481,1.481,0,0,0,336.288,380.573Z" transform="translate(-331.48 -378.816)" fill="#132463"/>
          <path id="Path_1368" data-name="Path 1368" d="M353.4,385.478c0,.1.016.162.048.185a.368.368,0,0,0,.2.036h.823a.33.33,0,0,1,.158.028c.032.018.047.065.047.138v.673c0,.1-.014.163-.043.188a.32.32,0,0,1-.193.038h-3.965a.268.268,0,0,1-.194-.048.327.327,0,0,1-.043-.2v-.6c0-.1.018-.157.055-.181a.434.434,0,0,1,.211-.035h.647a.388.388,0,0,0,.2-.041q.062-.04.062-.2v-4.914a.421.421,0,0,0-.03-.2q-.03-.051-.176-.051h-.732a.361.361,0,0,1-.191-.035q-.05-.035-.05-.181v-.6a.369.369,0,0,1,.035-.2c.023-.028.087-.043.19-.043h3.965c.11,0,.179.015.206.047a.349.349,0,0,1,.04.2v.562c0,.111-.016.18-.047.208a.326.326,0,0,1-.2.043h-.793a.269.269,0,0,0-.19.045.322.322,0,0,0-.04.2Z" transform="translate(-343.515 -379.058)" fill="#132463"/>
          <path id="Path_1369" data-name="Path 1369" d="M364.045,380.373a.3.3,0,0,1-.168-.033c-.029-.022-.043-.071-.043-.148v-.662a.385.385,0,0,1,.05-.246.363.363,0,0,1,.236-.05h2.143a1.281,1.281,0,0,1,.4.043.6.6,0,0,1,.236.183l3.383,3.89c.077.087.138.123.183.108s.068-.131.068-.349v-2.53a.283.283,0,0,0-.033-.165c-.022-.027-.073-.04-.153-.04h-.657a.337.337,0,0,1-.206-.045.251.251,0,0,1-.055-.2V379.5c0-.117.019-.191.057-.221a.387.387,0,0,1,.223-.045h2.841a.32.32,0,0,1,.151.028c.033.018.05.064.05.138v.683a.373.373,0,0,1-.05.243.414.414,0,0,1-.251.048h-.522c-.1,0-.16.018-.188.053a.327.327,0,0,0-.043.2v6.068a.251.251,0,0,1-.038.166.24.24,0,0,1-.168.04h-.537a.529.529,0,0,1-.276-.052.8.8,0,0,1-.166-.153l-4.206-4.968c-.08-.1-.142-.13-.183-.1s-.063.167-.063.4v3.333a.365.365,0,0,0,.041.214c.027.032.1.048.206.048h.733a.187.187,0,0,1,.141.04.248.248,0,0,1,.035.156v.707q0,.171-.083.2a.686.686,0,0,1-.239.033h-2.755a.436.436,0,0,1-.246-.045q-.055-.045-.055-.241v-.617c0-.117.02-.186.06-.206a.56.56,0,0,1,.226-.03h.507q.176,0,.218-.051a.386.386,0,0,0,.043-.226v-4.718c0-.127-.013-.2-.038-.223a.437.437,0,0,0-.223-.033Z" transform="translate(-352.235 -379.058)" fill="#132463"/>
          <path id="Path_1370" data-name="Path 1370" d="M389.051,381.127a3.825,3.825,0,0,1,.868-1.252,4.017,4.017,0,0,1,1.305-.834,4.34,4.34,0,0,1,1.621-.3,2.809,2.809,0,0,1,1.039.181,2.749,2.749,0,0,1,.793.472c.09.07.155.1.2.1s.094-.062.161-.166l.181-.351a.271.271,0,0,1,.082-.085.4.4,0,0,1,.158-.02h.587c.1,0,.161.014.181.042a.4.4,0,0,1,.03.2V381.5a.247.247,0,0,1-.035.161.27.27,0,0,1-.171.035h-.863c-.107,0-.173-.015-.2-.045a.441.441,0,0,1-.067-.166,2.5,2.5,0,0,0-.344-.836,1.773,1.773,0,0,0-.64-.592,1.978,1.978,0,0,0-.964-.218,1.706,1.706,0,0,0-1.069.346,2.195,2.195,0,0,0-.7.981,4.19,4.19,0,0,0-.246,1.513,4.142,4.142,0,0,0,.243,1.5,2.079,2.079,0,0,0,.7.959,1.838,1.838,0,0,0,1.112.333,2.171,2.171,0,0,0,.994-.221,1.952,1.952,0,0,0,.718-.612,2.169,2.169,0,0,0,.371-.888.531.531,0,0,1,.082-.216.255.255,0,0,1,.193-.055h.818q.161,0,.2.04a.207.207,0,0,1,.02.156,3.4,3.4,0,0,1-.522,1.518,2.96,2.96,0,0,1-1.192,1.044,4.113,4.113,0,0,1-1.85.379,4.762,4.762,0,0,1-1.667-.279,3.75,3.75,0,0,1-1.3-.8,3.532,3.532,0,0,1-.843-1.245,4.241,4.241,0,0,1-.3-1.618A3.867,3.867,0,0,1,389.051,381.127Z" transform="translate(-368.212 -378.743)" fill="#132463"/>
          <path id="Path_1371" data-name="Path 1371" d="M411.44,380.373q-.146,0-.181-.045a.331.331,0,0,1-.035-.185v-.688c0-.1.018-.167.053-.189a.418.418,0,0,1,.2-.032h6.876q.155,0,.191.045a.356.356,0,0,1,.035.2v2.364a.44.44,0,0,1-.018.166c-.012.02-.065.03-.158.03h-.753c-.073,0-.118-.018-.133-.052a.452.452,0,0,1-.028-.148,2.606,2.606,0,0,0-.14-.858.814.814,0,0,0-.432-.462,2.1,2.1,0,0,0-.858-.141h-1.476a.421.421,0,0,0-.208.038c-.042.025-.063.09-.063.193v1.631a.473.473,0,0,0,.033.215c.021.037.073.055.153.055h.2a.884.884,0,0,0,.69-.273,1.206,1.206,0,0,0,.3-.65.589.589,0,0,1,.04-.163c.017-.035.058-.052.125-.052h.452a.167.167,0,0,1,.216.215v2.776a.3.3,0,0,1-.033.171c-.022.027-.076.04-.163.04h-.442c-.084,0-.135-.019-.153-.058a.7.7,0,0,1-.048-.183,1.194,1.194,0,0,0-.168-.462,1.1,1.1,0,0,0-.336-.349.813.813,0,0,0-.454-.133h-.2a.214.214,0,0,0-.166.06.313.313,0,0,0-.055.211v1.762c0,.11.015.172.045.185a.653.653,0,0,0,.211.02h1.39a2.394,2.394,0,0,0,.989-.163.932.932,0,0,0,.487-.532,3.027,3.027,0,0,0,.156-.981.632.632,0,0,1,.028-.214q.023-.042.188-.043h.678c.1,0,.158.013.173.038a.445.445,0,0,1,.023.183v2.66c0,.094-.01.149-.03.166a.333.333,0,0,1-.171.025H411.46a.748.748,0,0,1-.188-.015c-.032-.01-.048-.065-.048-.166v-.8c0-.084.01-.13.03-.14a.432.432,0,0,1,.151-.015h.688a.36.36,0,0,0,.2-.033c.023-.022.035-.088.035-.2v-4.823c0-.09-.015-.145-.045-.166a.382.382,0,0,0-.186-.03Z" transform="translate(-382.636 -379.058)" fill="#132463"/>
          <path id="Path_1372" data-name="Path 1372" d="M447.042,385.656a1.586,1.586,0,0,1-.668.78,2.08,2.08,0,0,1-1.041.246,3.119,3.119,0,0,1-.781-.09,5.015,5.015,0,0,1-.642-.211q-.294-.121-.564-.211a1.721,1.721,0,0,0-.547-.09.622.622,0,0,0-.354.093.708.708,0,0,0-.223.243c-.033.06-.058.1-.075.128s-.077.038-.181.038h-.582a.257.257,0,0,1-.166-.035.246.246,0,0,1-.035-.161,3.893,3.893,0,0,1,.54-1.945,5.211,5.211,0,0,1,1.563-1.619q.281-.2.607-.4a6.3,6.3,0,0,0,.62-.449,2.329,2.329,0,0,0,.484-.535,1.166,1.166,0,0,0,.191-.65,1.044,1.044,0,0,0-.291-.821,1.593,1.593,0,0,0-1.044-.258,2.188,2.188,0,0,0-.62.082,1.474,1.474,0,0,0-.447.206q-.168.123-.168.238c0,.047.037.088.11.123s.158.079.253.131a.728.728,0,0,1,.251.233.767.767,0,0,1,.108.441.815.815,0,0,1-.3.678,1.041,1.041,0,0,1-.667.236,1.14,1.14,0,0,1-.494-.113.946.946,0,0,1-.389-.339,1.02,1.02,0,0,1-.151-.577,1.734,1.734,0,0,1,.369-1.1,2.391,2.391,0,0,1,1.016-.733,3.975,3.975,0,0,1,1.5-.261,3.918,3.918,0,0,1,2.048.464,1.57,1.57,0,0,1,.763,1.443,1.6,1.6,0,0,1-.226.868,2.2,2.2,0,0,1-.617.635,6.122,6.122,0,0,1-.9.512l-1.062.5a5.193,5.193,0,0,0-1.059.64,3.037,3.037,0,0,0-.627.675,2.331,2.331,0,0,0-.178.264,1.531,1.531,0,0,0-.118.243c-.023.067-.018.1.015.1.054,0,.1-.051.126-.153a.82.82,0,0,1,.246-.339.963.963,0,0,1,.432-.238,2.014,2.014,0,0,1,.517-.067,2.112,2.112,0,0,1,.718.11q.306.11.6.221a1.891,1.891,0,0,0,.673.11.9.9,0,0,0,.617-.181.788.788,0,0,0,.246-.492.515.515,0,0,1,.04-.168c.013-.019.072-.028.176-.028h.447c.1,0,.152.009.166.028a.41.41,0,0,1,.02.173A3.585,3.585,0,0,1,447.042,385.656Z" transform="translate(-401.854 -378.878)" fill="#132463"/>
          <path id="Path_1373" data-name="Path 1373" d="M459.765,381.013a3.172,3.172,0,0,1,.635-1.195,2.431,2.431,0,0,1,.936-.66,3.088,3.088,0,0,1,1.127-.206,3.261,3.261,0,0,1,1.174.206,2.32,2.32,0,0,1,.931.66,3.147,3.147,0,0,1,.61,1.195,6.542,6.542,0,0,1,.215,1.8,5.823,5.823,0,0,1-.243,1.8,3.237,3.237,0,0,1-.66,1.195,2.528,2.528,0,0,1-.941.66,2.954,2.954,0,0,1-1.087.206,3.088,3.088,0,0,1-1.127-.206,2.431,2.431,0,0,1-.936-.66,3.169,3.169,0,0,1-.635-1.195,7.244,7.244,0,0,1,0-3.609ZM461.5,384.6a1.883,1.883,0,0,0,.369.908.773.773,0,0,0,.59.264.8.8,0,0,0,.622-.264,1.829,1.829,0,0,0,.354-.908,14.151,14.151,0,0,0,0-3.568,1.831,1.831,0,0,0-.354-.908.805.805,0,0,0-.622-.264.774.774,0,0,0-.59.264,1.884,1.884,0,0,0-.369.908,12.712,12.712,0,0,0,0,3.568Z" transform="translate(-413.629 -378.878)" fill="#132463"/>
          <path id="Path_1374" data-name="Path 1374" d="M477.474,381.013a3.172,3.172,0,0,1,.635-1.195,2.431,2.431,0,0,1,.936-.66,3.087,3.087,0,0,1,1.127-.206,3.26,3.26,0,0,1,1.174.206,2.32,2.32,0,0,1,.931.66,3.148,3.148,0,0,1,.61,1.195,6.544,6.544,0,0,1,.215,1.8,5.822,5.822,0,0,1-.243,1.8,3.237,3.237,0,0,1-.66,1.195,2.527,2.527,0,0,1-.941.66,2.954,2.954,0,0,1-1.087.206,3.087,3.087,0,0,1-1.127-.206,2.431,2.431,0,0,1-.936-.66,3.169,3.169,0,0,1-.635-1.195,7.243,7.243,0,0,1,0-3.609Zm1.739,3.589a1.886,1.886,0,0,0,.369.908.773.773,0,0,0,.59.264.8.8,0,0,0,.622-.264,1.829,1.829,0,0,0,.354-.908,14.144,14.144,0,0,0,0-3.568,1.831,1.831,0,0,0-.354-.908.805.805,0,0,0-.622-.264.774.774,0,0,0-.59.264,1.888,1.888,0,0,0-.369.908,12.745,12.745,0,0,0,0,3.568Z" transform="translate(-424.989 -378.878)" fill="#132463"/>
          <path id="Path_1375" data-name="Path 1375" d="M498.621,379.716a.6.6,0,0,0-.369-.085.912.912,0,0,0-.668.3,2.213,2.213,0,0,0-.482.888,5.943,5.943,0,0,0-.236,1.428c0,.087-.008.15-.013.189s0,.063.018.073.039,0,.058-.028a.669.669,0,0,1,.1-.123,1.828,1.828,0,0,1,.665-.437,2.4,2.4,0,0,1,.891-.161,2.237,2.237,0,0,1,1.051.259,2,2,0,0,1,.8.778,2.553,2.553,0,0,1,.306,1.312,2.715,2.715,0,0,1-.226,1.157,2.2,2.2,0,0,1-.615.8,2.585,2.585,0,0,1-.893.464,3.7,3.7,0,0,1-1.062.151,3.156,3.156,0,0,1-1.124-.2,2.23,2.23,0,0,1-.9-.637,3.1,3.1,0,0,1-.6-1.175,6.484,6.484,0,0,1-.216-1.807,5,5,0,0,1,.4-2.083,3.192,3.192,0,0,1,1.1-1.355,2.763,2.763,0,0,1,1.6-.477,3.4,3.4,0,0,1,1.169.184,1.86,1.86,0,0,1,.78.5,1.077,1.077,0,0,1,.279.73,1.042,1.042,0,0,1-.266.75.932.932,0,0,1-.708.279,1.065,1.065,0,0,1-.7-.226.75.75,0,0,1-.276-.612.671.671,0,0,1,.06-.3,1.561,1.561,0,0,1,.12-.206.275.275,0,0,0,.06-.151A.243.243,0,0,0,498.621,379.716Zm.1,3.405a.933.933,0,0,0-.75-.353.962.962,0,0,0-.56.175,1.231,1.231,0,0,0-.4.485,1.6,1.6,0,0,0-.151.71,2.031,2.031,0,0,0,.289,1.157.953.953,0,0,0,.841.424.888.888,0,0,0,.565-.178,1.087,1.087,0,0,0,.346-.512,2.434,2.434,0,0,0,.118-.806A1.708,1.708,0,0,0,498.716,383.121Z" transform="translate(-436.449 -378.878)" fill="#132463"/>
        </g>
      </g>
    </g>
    <g id="Group_909" data-name="Group 909" transform="translate(298.85 256.064)">
      <g id="Group_906" data-name="Group 906" transform="translate(0 0)">
        <g id="Group_905" data-name="Group 905">
          <path id="Path_1376" data-name="Path 1376" d="M323.5,416.265l6.456,4.472v-4.472Z" transform="translate(-323.5 -416.265)" fill="url(#linear-gradient-42)"/>
        </g>
      </g>
      <g id="Group_908" data-name="Group 908" transform="translate(63.412 0)">
        <g id="Group_907" data-name="Group 907">
          <path id="Path_1377" data-name="Path 1377" d="M506.837,416.265l-6.456,4.472v-4.472Z" transform="translate(-500.381 -416.265)" fill="url(#linear-gradient-42)"/>
        </g>
      </g>
    </g>
    <g id="Group_914" data-name="Group 914" transform="translate(312.247 191.523)">
      <g id="Group_910" data-name="Group 910" transform="translate(38.471)">
        <circle id="Ellipse_77" data-name="Ellipse 77" cx="1.798" cy="1.798" r="1.798" transform="translate(0 0.182)" fill="url(#radial-gradient-2)"/>
        <path id="Path_1378" data-name="Path 1378" d="M468.708,238.267l3.141-2.033-1.5,1.638,1.335.2-3.245,2.125,1.487-1.79Z" transform="translate(-468.345 -236.234)" fill="#ffe500" fill-rule="evenodd"/>
      </g>
      <g id="Group_913" data-name="Group 913" transform="translate(33.395 28.626)">
        <g id="Group_911" data-name="Group 911" transform="translate(0.831 0.765)">
          <path id="Path_1379" data-name="Path 1379" d="M456.339,319.523v-1.306h.555a.944.944,0,0,1,.3.035.3.3,0,0,1,.152.125.377.377,0,0,1,.057.205.345.345,0,0,1-.087.243.413.413,0,0,1-.258.121.614.614,0,0,1,.141.109,1.56,1.56,0,0,1,.15.212l.159.255H457.2l-.191-.284a1.9,1.9,0,0,0-.139-.192.2.2,0,0,0-.079-.054.427.427,0,0,0-.133-.015H456.6v.545Zm.263-.754h.2a1.033,1.033,0,0,0,.237-.016.145.145,0,0,0,.074-.056.168.168,0,0,0,.027-.1.157.157,0,0,0-.035-.106.162.162,0,0,0-.1-.051q-.032,0-.193,0H456.6Z" transform="translate(-456.339 -318.217)" fill="#002581"/>
        </g>
        <g id="Group_912" data-name="Group 912">
          <path id="Path_1380" data-name="Path 1380" d="M455.439,318.919a1.418,1.418,0,1,1,1.418-1.418A1.42,1.42,0,0,1,455.439,318.919Zm0-2.578a1.16,1.16,0,1,0,1.16,1.16A1.161,1.161,0,0,0,455.439,316.341Z" transform="translate(-454.021 -316.083)" fill="#002581"/>
        </g>
      </g>
      <rect id="Rectangle_481" data-name="Rectangle 481" width="36.231" height="0.937" rx="0.468" transform="translate(0 32.29)" fill="#002581"/>
      <rect id="Rectangle_482" data-name="Rectangle 482" width="30.406" height="0.87" rx="0.435" transform="translate(2.913 33.725)" fill="#002581"/>
      <rect id="Rectangle_483" data-name="Rectangle 483" width="26.397" height="0.803" rx="0.401" transform="translate(4.917 35.092)" fill="#002581"/>
      <rect id="Rectangle_484" data-name="Rectangle 484" width="21.143" height="0.736" rx="0.368" transform="translate(7.544 36.393)" fill="#002581"/>
      <rect id="Rectangle_485" data-name="Rectangle 485" width="16.027" height="0.669" rx="0.335" transform="translate(10.102 37.626)" fill="#002581"/>
      <rect id="Rectangle_486" data-name="Rectangle 486" width="12.364" height="0.602" rx="0.301" transform="translate(11.934 38.793)" fill="#002581"/>
      <rect id="Rectangle_487" data-name="Rectangle 487" width="8.148" height="0.535" rx="0.268" transform="translate(14.042 39.893)" fill="#002581"/>
      <path id="Path_1381" data-name="Path 1381" d="M412.307,244.628a.381.381,0,0,0-.167.036q-1.048.4-2.079.838c-.989.422-1.966.874-2.922,1.367q-.785.4-1.546.853a8.582,8.582,0,0,0-2.974-1.055,16.292,16.292,0,0,0-8.746,1,9.292,9.292,0,0,0-2.88,1.746c-4.513,4.334.545,8.233.545,8.233-4.021,1.054-10.5,3.656-9.518,9.984.708,4.563,5.948,5.232,8.815,5.25.008.074.017.148.026.223q.2.963.41,1.923.084.38.171.759a10.552,10.552,0,0,1,.354,1.494c.354,1.452.73,2.9,1.093,4.349.063.252.118.764.458.8.193.02.252-.124.261-.282,0,0-.278-1.875-.633-4.642-.034-.266-.061-.532-.082-.8a33.865,33.865,0,0,1-.067-3.63c0-.1.005-.193.008-.289a22.512,22.512,0,0,0,5.137-.9,12.921,12.921,0,0,0,3.432-1.6,8.642,8.642,0,0,0,1.984-1.828,6.66,6.66,0,0,0,.929-1.6,5.079,5.079,0,0,0-.738-5.073q-.093-.1-.192-.188a6.093,6.093,0,0,0-4.7-1.271,8.521,8.521,0,0,0-3.122,1.068,8.867,8.867,0,0,0-3.384,3.731h0l-.033.065h0l-.02.035h0v0c-.084.161-.165.322-.242.485-.081.179-.176.4-.276.671l0,0,0,.009c-.069.187-.141.395-.213.623l-.01.033q-.03.1-.06.2l-.015.051c-.019.064-.037.129-.055.2l-.015.057q-.027.1-.054.207l-.015.058c-.019.074-.037.15-.055.227l-.011.047c-.02.089-.04.179-.06.272l0,.012h0c-.04.193-.079.394-.115.6a14.509,14.509,0,0,0-.175,2.315c-.205,0-.32-.01-.32-.01-7.032-.259-7.518-6.681-3.977-9.569,2.135-1.741,5.153-2.313,7.818-2.629.581-.069,1.162-.141,1.746-.177.271-.016.542-.014.814-.02a4.812,4.812,0,0,0,.817-.073c.122-.023.265-.078.283-.2a.26.26,0,0,0-.154-.239c-.945-.545-1.884-1.107-2.824-1.663a5.8,5.8,0,0,1-2.72-3.414,3.037,3.037,0,0,1,1.165-3.034,10.707,10.707,0,0,1,4.965-2.053,8.829,8.829,0,0,1,5.438.6l.045.023c-.226.161-.449.327-.667.5-.349.276-.687.567-1.008.876-.061.06-.125.127-.191.2h0l-.01.011c-.045.048-.091.1-.137.15l-.014.016q-.062.07-.125.145l-.045.055c-.033.04-.066.08-.1.122l-.048.061q-.056.073-.112.148l-.025.033,0,0c-.042.058-.084.117-.125.178a5.969,5.969,0,0,0-.674,1.293h0l-.013.043c-.016.053-.03.1-.041.155a3.165,3.165,0,0,0-.067.345c0,.018,0,.035,0,.051a2.194,2.194,0,0,0-.018.408,2.948,2.948,0,0,0,.959,1.947l.014.014a4.4,4.4,0,0,0,4.336.621c2.977-1.31,3.3-5.545,1.011-7.662-.033-.03-.068-.06-.1-.089q.46-.327.929-.641c.693-.463,1.4-.907,2.113-1.338.564-.341,1.133-.673,1.7-1,.194-.113.388-.225.58-.339a1.246,1.246,0,0,0,.446-.329.152.152,0,0,0,.026-.091A.13.13,0,0,0,412.307,244.628Zm-14.2,17.8a3.854,3.854,0,0,1,3.306.1c1.632.908,1.373,4.182-1.7,6.643-1.819,1.454-4.731,1.934-6.809,2.082a12.178,12.178,0,0,1,1.272-5.133A9.008,9.008,0,0,1,398.109,262.429Zm6.7-8.039a2.366,2.366,0,0,1-.694.2,2.231,2.231,0,0,1-.249.017,1.949,1.949,0,0,1-.247-.012,1.424,1.424,0,0,1-.672-.243c-.941-.672-.339-2.025.163-2.7a7.89,7.89,0,0,1,.5-.611,14.05,14.05,0,0,1,1.461-1.372l.038.03C406.44,250.781,406.5,253.6,404.808,254.39Z" transform="translate(-374.373 -241.619)" fill="#002581" fill-rule="evenodd"/>
    </g>
  </g>
</svg>
