<svg xmlns="http://www.w3.org/2000/svg" width="44" height="44" viewBox="0 0 44 44">
  <g id="Group_3209" data-name="Group 3209" transform="translate(-1846 -823)">
    <circle id="Ellipse_80" data-name="Ellipse 80" cx="22" cy="22" r="22" transform="translate(1846 823)" fill="#0c9d9d"/>
    <g id="phone" transform="translate(1858.332 834.672)">
      <path id="Path_3223" data-name="Path 3223" d="M19.793,15.144c-1.162-1.166-2.332-2.336-3.483-3.483a1.553,1.553,0,0,0-2.312,0l-.595.595c-.278.278-.567.567-.853.849a.606.606,0,0,1-.877.079c-.4-.282-.809-.579-1.2-.869l-.23-.171a.719.719,0,0,0-1.067.087.694.694,0,0,0-.143.52.824.824,0,0,0,.345.539l.163.123c.428.317.869.651,1.321.956a2.042,2.042,0,0,0,2.729-.266l.762-.762.654-.654c.143-.143.175-.123.282-.016,1.111,1.107,2.289,2.285,3.5,3.5.115.115.115.151,0,.266l-.111.111c-.286.294-.583.595-.885.877a4.125,4.125,0,0,1-4.629.722,23.682,23.682,0,0,1-5.553-3.725A24.63,24.63,0,0,1,1.888,6.862,3.959,3.959,0,0,1,2.3,2.5a7.419,7.419,0,0,1,.837-.908c.123-.119.25-.242.373-.369s.163-.123.163-.123.048,0,.175.131C4.986,2.368,6.136,3.519,7.267,4.653c.167.167.167.178,0,.345l-.52.52c-.305.3-.619.619-.928.932a2.046,2.046,0,0,0-.27,2.582c.242.373.5.734.754,1.083l.012.016a.72.72,0,1,0,1.158-.845c-.063-.087-.123-.175-.186-.262-.151-.214-.309-.432-.456-.65a.667.667,0,0,1,.111-1.019l.476-.476c.305-.3.619-.615.924-.928a1.535,1.535,0,0,0,0-2.245C7.231,2.587,6.073,1.428,4.8.159A1.532,1.532,0,0,0,2.55.143c-.369.361-.694.686-.992,1a5.6,5.6,0,0,0-1.4,2.554c-.044.182-.079.365-.111.543C.032,4.316.02,4.4,0,4.475L0,4.5V5.557l.012.04a.275.275,0,0,0,.02.052.082.082,0,0,1,.008.024A5.293,5.293,0,0,0,.567,7.449a27.394,27.394,0,0,0,4.466,6.473,25.772,25.772,0,0,0,6.2,4.843l.127.071a8.493,8.493,0,0,0,2.249.992c.2.048.4.079.6.115l.266.048.024,0h.869l.032-.008c.02,0,.04-.012.059-.016a.506.506,0,0,0,.056-.016,5.5,5.5,0,0,0,3.161-1.4c.325-.294.635-.607.932-.908.063-.063.123-.127.186-.186A1.564,1.564,0,0,0,19.793,15.144Z" transform="translate(0 0)" fill="#fff"/>
      <path id="Path_3224" data-name="Path 3224" d="M190.618,275.1h0a.71.71,0,0,0-.722.7.725.725,0,0,0,.214.524.715.715,0,0,0,.5.21h.016a.718.718,0,0,0-.012-1.436Z" transform="translate(-182.364 -264.513)" fill="#fff"/>
    </g>
  </g>
</svg>
