<svg xmlns="http://www.w3.org/2000/svg" width="44" height="45" viewBox="0 0 44 45">
  <g id="Group_3180" data-name="Group 3180" transform="translate(-0.5 0.5)">
    <ellipse id="Ellipse_79" data-name="Ellipse 79" cx="22" cy="22.5" rx="22" ry="22.5" transform="translate(0.5 -0.5)" fill="#25d366"/>
    <g id="whatsapp" transform="translate(10.497 10.5)">
      <path id="Path_3153" data-name="Path 3153" d="M21.635,3.493a11.91,11.91,0,0,0-18.74,14.37L1.2,24.035l6.314-1.657a11.906,11.906,0,0,0,5.69,1.451h0A11.917,11.917,0,0,0,21.635,3.493M13.213,21.815h0a9.891,9.891,0,0,1-5.042-1.38l-.361-.216L4.064,21.2l1-3.652-.235-.376a9.9,9.9,0,1,1,8.384,4.643M18.64,14.4c-.3-.15-1.76-.868-2.033-.967s-.469-.15-.671.15-.77.967-.944,1.169-.347.225-.643.075a8.192,8.192,0,0,1-2.394-1.479A8.958,8.958,0,0,1,10.3,11.29c-.174-.3-.019-.46.131-.606s.3-.347.446-.521a1.991,1.991,0,0,0,.3-.5.548.548,0,0,0-.023-.521c-.075-.15-.671-1.615-.915-2.211s-.488-.5-.671-.512-.371-.009-.573-.009a1.1,1.1,0,0,0-.793.371A3.337,3.337,0,0,0,7.153,9.267a5.794,5.794,0,0,0,1.216,3.08,13.267,13.267,0,0,0,5.084,4.493c.709.305,1.263.488,1.695.629a4.111,4.111,0,0,0,1.873.117,3.06,3.06,0,0,0,2.009-1.413,2.467,2.467,0,0,0,.174-1.413c-.066-.131-.263-.207-.563-.357" transform="translate(-1.2 0)" fill="#fff"/>
    </g>
  </g>
</svg>
