<svg xmlns="http://www.w3.org/2000/svg" width="22.49" height="22.601" viewBox="0 0 22.49 22.601">
  <path id="Path_3335" data-name="Path 3335" d="M20.415,3.284A11.2,11.2,0,0,0,2.794,16.8L1.2,22.6l5.937-1.558a11.2,11.2,0,0,0,5.35,1.364h0A11.206,11.206,0,0,0,20.415,3.284M12.5,20.513h0a9.3,9.3,0,0,1-4.741-1.3l-.34-.2-3.523.923.94-3.434-.221-.353A9.309,9.309,0,1,1,12.5,20.513m5.1-6.97c-.278-.141-1.655-.817-1.911-.909s-.441-.141-.631.141-.724.909-.887,1.1-.327.212-.6.071a7.7,7.7,0,0,1-2.251-1.39,8.423,8.423,0,0,1-1.558-1.938c-.163-.278-.018-.433.124-.569s.278-.327.419-.49a1.873,1.873,0,0,0,.278-.468.515.515,0,0,0-.022-.49c-.071-.141-.631-1.518-.861-2.079s-.459-.472-.631-.481-.349-.009-.539-.009a1.034,1.034,0,0,0-.746.349A3.138,3.138,0,0,0,6.8,8.714a5.448,5.448,0,0,0,1.143,2.9,12.475,12.475,0,0,0,4.781,4.224c.667.287,1.187.459,1.594.592a3.865,3.865,0,0,0,1.761.11,2.878,2.878,0,0,0,1.889-1.329,2.32,2.32,0,0,0,.163-1.329c-.062-.124-.247-.194-.53-.335" transform="translate(-1.2)" fill="#25d366"/>
</svg>
