<svg xmlns="http://www.w3.org/2000/svg" width="66.637" height="60" viewBox="0 0 66.637 60">
  <path id="mark_email_unread_FILL0_wght400_GRAD0_opsz24" d="M6.636,85.491a6.449,6.449,0,0,1-4.685-1.952A6.5,6.5,0,0,1,0,78.841V38.859a6.449,6.449,0,0,1,1.952-4.685,6.419,6.419,0,0,1,4.685-1.952H40.292a16.572,16.572,0,0,0,0,6.664H6.636L33.29,55.544,45.446,47.97a13.75,13.75,0,0,0,2.538,1.874,21.605,21.605,0,0,0,2.876,1.38l-17.57,11L6.636,45.562V78.88H59.945V51.874A18,18,0,0,0,63.524,50.7a15.693,15.693,0,0,0,3.084-1.835V78.854a6.665,6.665,0,0,1-6.638,6.638Zm0-46.658Zm49.99,6.677A10,10,0,0,1,46.618,35.5a10.013,10.013,0,0,1,17.088-7.08,10.023,10.023,0,0,1,0,14.16,9.68,9.68,0,0,1-7.08,2.928Z" transform="translate(0.001 -25.492)" fill="#ee3e51"/>
</svg>
