<svg xmlns="http://www.w3.org/2000/svg" width="60.267" height="60.244" viewBox="0 0 60.267 60.244">
  <path id="phone_in_talk_FILL0_wght400_GRAD0_opsz24" d="M53.962,30.118a22.618,22.618,0,0,0-6.814-16.611A22.617,22.617,0,0,0,30.537,6.693V0A29.213,29.213,0,0,1,42.29,2.4,30.194,30.194,0,0,1,58.265,18.376a29.091,29.091,0,0,1,2.393,11.73h-6.7Zm-13.381,0A9.983,9.983,0,0,0,30.548,20.085v-6.7a16.127,16.127,0,0,1,11.836,4.893,16.082,16.082,0,0,1,4.892,11.836ZM57.145,60.239a50.228,50.228,0,0,1-20.666-4.562A61.808,61.808,0,0,1,17.887,42.767,61.988,61.988,0,0,1,4.954,24.2,50.283,50.283,0,0,1,.392,3.521,3.444,3.444,0,0,1,3.917.008H17.474A3.147,3.147,0,0,1,19.561.8a3.057,3.057,0,0,1,1.085,1.886l2.169,11.707a5.853,5.853,0,0,1-.083,2.264,3.608,3.608,0,0,1-.92,1.592L13.7,26.439a39.864,39.864,0,0,0,3.973,5.977,59.476,59.476,0,0,0,5.058,5.564A58.455,58.455,0,0,0,28.155,42.8a53.288,53.288,0,0,0,6.024,4.055l7.863-7.863a4.716,4.716,0,0,1,1.969-1.132,5.549,5.549,0,0,1,2.4-.212L57.97,40a3.934,3.934,0,0,1,1.922,1.2,2.953,2.953,0,0,1,.755,1.969V56.726a3.432,3.432,0,0,1-1,2.511A3.378,3.378,0,0,1,57.145,60.239Zm-46.6-40.166,5.529-5.529L14.645,6.681H7.194c.283,2.287.672,4.539,1.167,6.779A37.146,37.146,0,0,0,10.542,20.073ZM40.487,50.03a41.43,41.43,0,0,0,6.625,2.264,41.655,41.655,0,0,0,6.814,1.1V46.033l-7.863-1.592Z" transform="translate(-0.391 0.004)" fill="#ee3e51"/>
</svg>
