<svg xmlns="http://www.w3.org/2000/svg" width="64.926" height="65.244" viewBox="0 0 64.926 65.244">
  <g id="whatsapp" transform="translate(-1.2)">
    <path id="Path_3215" data-name="Path 3215" d="M56.67,9.481A32.33,32.33,0,0,0,5.8,48.487L1.2,65.244l17.139-4.5a32.319,32.319,0,0,0,15.445,3.938H33.8A32.348,32.348,0,0,0,56.67,9.481M33.809,59.217h0A26.849,26.849,0,0,1,20.123,55.47l-.981-.586L8.973,57.547l2.714-9.914-.637-1.019a26.875,26.875,0,1,1,22.759,12.6M48.54,39.1c-.8-.408-4.779-2.357-5.518-2.625s-1.274-.408-1.822.408-2.09,2.625-2.561,3.173-.943.612-1.746.2a22.238,22.238,0,0,1-6.5-4.014,24.316,24.316,0,0,1-4.5-5.594c-.471-.8-.051-1.249.357-1.644.37-.357.8-.943,1.211-1.414a5.406,5.406,0,0,0,.8-1.351,1.487,1.487,0,0,0-.064-1.414c-.2-.408-1.822-4.384-2.485-6-.663-1.58-1.325-1.364-1.822-1.389-.471-.025-1.007-.025-1.555-.025a2.985,2.985,0,0,0-2.154,1.007,9.058,9.058,0,0,0-2.829,6.741c0,3.976,2.893,7.811,3.3,8.359s5.7,8.7,13.8,12.2c1.924.828,3.428,1.325,4.6,1.708a11.158,11.158,0,0,0,5.084.319c1.555-.229,4.779-1.95,5.454-3.836a6.7,6.7,0,0,0,.471-3.836c-.178-.357-.714-.561-1.529-.968" transform="translate(0)" fill="#ee3e51"/>
  </g>
</svg>
