<?xml version="1.0" encoding="utf-8"?>
<!-- Generator: Adobe Illustrator 25.4.1, SVG Export Plug-In . SVG Version: 6.00 Build 0)  -->
<svg version="1.1" id="Layer_1" xmlns="http://www.w3.org/2000/svg" xmlns:xlink="http://www.w3.org/1999/xlink" x="0px" y="0px"
	 viewBox="0 0 512 512" style="enable-background:new 0 0 512 512;" xml:space="preserve">
<style type="text/css">
	.st0{fill:#666666;}
</style>
<g>
	<path class="st0" d="M29,512c-1.9-2.4-4.6-4.5-5.6-7.2c-1.6-4.7,2.5-9.5,7.8-9.8c4.6-0.3,9.3-0.1,14.7-0.1c0-2.5,0-4.5,0-6.6
		c0-104.7,0-209.4,0-314c0-10.9,2.4-13.3,13.2-13.3c20.5,0,41,0,61.5,0c1.8,0,3.6,0,5.9,0c0-2.3,0-4.1,0-5.9c0-20.8,0-41.7,0-62.5
		c0-9.5,2.6-12.1,12.2-12.1c7.1,0,14.3,0,22.2,0c0-3.9,0-7.5,0-11.1c0-7.7,0-15.3,0-23c0-9.1,2.8-11.8,12-11.9c9.3,0,18.7,0,28,0
		c1.8,0,3.6,0,6,0c0-7.1,0-13.7,0-20.3c0-2-0.1-4,0.1-6c0.6-4.8,4.3-8.2,8.6-8.2c4.7,0,8.2,3.5,8.4,8.7c0.2,6.5,0.1,13,0.1,19.5
		c0,1.8,0,3.6,0,6c2.1,0.1,3.9,0.3,5.7,0.3c10,0,20-0.1,30,0.1c7.4,0.1,10.2,3.1,10.3,10.4c0.1,9.8,0,19.7,0,29.5c0,1.8,0,3.6,0,5.7
		c6,0,11.4,0,17.4,0c0-5.3,0-10.4,0-15.5c0-7-0.1-14,0.1-21c0.2-5.7,3-8.5,8.6-9c1.7-0.2,3.3-0.1,5-0.1c50.3,0,100.7,0,151,0
		c11.5,0,13.6,2.1,13.6,13.8c0,146.5,0,293,0,439.5c0,2.1,0,4.3,0,7c4,0,7.6,0.1,11.2,0c5-0.2,9.4,0.6,11.2,6.1
		c1.7,5.4-1.7,8.3-5.5,11.1C331.7,512,180.3,512,29,512z M448.5,494.6c0-147.9,0-295.1,0-442.4c-47.9,0-95.5,0-143.2,0
		c0,70.9,0,141.5,0,212.2c9.5,0,18.8,0,27.9,0c1.8-8,4.2-11,8.9-11.2c4.8-0.2,7.3,2.7,9.7,11.3c5.3,0,10.6,0,16,0
		c0.3-1.5,0.4-2.8,0.7-4.1c1.1-4.6,4.8-7.5,8.9-7.2c4.3,0.3,7.4,3.5,7.9,8.2c0.2,2,0.2,4,0.2,6c0,73.7,0,147.3,0,221
		c0,2.1,0.2,4.1,0.3,6.2C407,494.6,427.6,494.6,448.5,494.6z M103.6,494.5c0-2,0-3.8,0-5.6c0-10.2-0.1-20.3,0.1-30.5
		c0.1-6.1,3-9.4,8.6-9.5c15.3-0.2,30.7-0.2,46,0c5.4,0.1,8.4,3.6,8.6,9.6c0.2,5.5,0,11,0,16.5c0,6.4,0,12.9,0,19.5
		c13.7,0,26.7,0,39.7,0c0-105.5,0-210.7,0-315.9c-48,0-95.5,0-143.2,0c0,105.5,0,210.6,0,315.9C76.7,494.5,89.6,494.5,103.6,494.5z
		 M224.6,282.1c0,71.1,0,141.7,0,212.5c47.9,0,95.4,0,143.1,0c0-71,0-141.7,0-212.5C320,282.1,272.5,282.1,224.6,282.1z M225,172.6
		c8.2,0,16.2-0.1,24.2,0c5.9,0.1,9.7,3.6,9.7,8.6c-0.1,4.9-3.9,8.3-9.8,8.6c-3.3,0.1-6.7,0-10,0c-4.8,0-9.5,0-14.7,0
		c0,8.5,0.2,16.3-0.1,24.1c-0.1,3.9,1.2,4.9,4.9,4.7c7-0.2,14-0.2,21,0.1c5.2,0.2,8.7,3.8,8.7,8.4c0,4.3-3.4,8-8.2,8.6
		c-2,0.2-4,0.1-6,0.1c-6.6,0-13.2,0-20.3,0c0,8.2,0.2,15.9-0.1,23.5c-0.2,4.1,1,5.4,5.3,5.4c17.5-0.2,35-0.2,52.5,0
		c4.6,0.1,5.9-1.2,5.8-5.8c-0.2-51.8-0.1-103.7-0.1-155.5c0-1.8,0-3.5,0-5.3c-48.3,0-95.9,0-143.5,0c0,21.1,0,41.8,0,62.8
		c2.2,0,4,0,5.8,0c20.2,0,40.3,0,60.5,0C221.2,161,222.6,162,225,172.6z M178.5,80.1c24.9,0,49.6,0,74.2,0c0-9.6,0-18.8,0-28
		c-24.9,0-49.5,0-74.2,0C178.5,61.6,178.5,70.7,178.5,80.1z M125.9,494.6c0.3-0.8,0.5-1.1,0.5-1.4c0.1-3.7,0.1-7.3,0.2-11
		c0.2-6.7,3.4-10.5,8.8-10.3c5.1,0.1,8.3,3.9,8.4,10.3c0.1,4.1,0,8.2,0,12.7c2.3-0.2,3.8-0.3,5.4-0.5c0-9.7,0-18.9,0-28.1
		c-9.6,0-18.8,0-28.1,0c0,9.6,0,18.8,0,28.3C122.9,494.6,124.3,494.6,125.9,494.6z"/>
	<path class="st0" d="M420.2,267.7c-0.2,2.5-0.1,5-0.6,7.4c-0.9,4.2-4.8,7.1-8.8,6.6c-4.4-0.6-7.5-3-7.8-7.7
		c-0.3-4.1-0.3-8.3-0.1-12.5c0.3-4.9,3.8-8.3,8.2-8.4c4.4-0.1,8.1,3.2,8.7,8c0.3,2.1,0,4.3,0,6.5C420,267.7,420.1,267.7,420.2,267.7
		z"/>
	<path class="st0" d="M385.5,153c-0.1,2-0.1,4.4-0.5,6.7c-0.7,4.4-3.7,6.7-7.9,7c-4,0.2-7.6-1.8-8.2-5.9c-0.7-5.4-0.7-10.9-0.1-16.3
		c0.5-4.3,4.1-6.5,8.4-6.3c4.4,0.3,7.4,2.8,7.9,7.5C385.4,148,385.4,150.4,385.5,153z"/>
	<path class="st0" d="M420.1,382.9c-0.2,2.3-0.1,4.8-0.6,7.2c-0.9,4.2-4.8,7.2-8.7,6.7c-4.4-0.5-7.5-3-7.8-7.6
		c-0.3-4.3-0.3-8.7,0-13c0.3-4.6,3.9-8,8.1-7.9c4.5,0.1,7.6,2.4,8.5,6.9C420.1,377.6,420,380.2,420.1,382.9z"/>
	<path class="st0" d="M403,151.8c0-2-0.2-4,0-6c0.5-4.7,3.5-7.1,7.9-7.7c3.9-0.5,8.2,2.5,8.7,6.7c0.6,4.9,0.6,10,0.1,14.9
		c-0.5,4.5-4,6.8-8.5,7c-4.3,0.1-7.7-3.3-8.2-7.9C402.7,156.5,402.9,154.1,403,151.8C402.9,151.8,402.9,151.8,403,151.8z"/>
	<path class="st0" d="M333.7,152.4c0.1-2.3,0-4.7,0.3-7c0.6-4.4,3.5-6.9,7.7-7.2s7.9,1.8,8.5,6.1c0.7,5.2,0.7,10.6,0.1,15.8
		c-0.5,4.2-4.8,7.1-8.7,6.5c-4.4-0.7-7.3-3.1-7.7-7.8c-0.2-2.1,0-4.3,0-6.5C333.8,152.4,333.7,152.4,333.7,152.4z"/>
	<path class="st0" d="M351.1,95c-0.2,2.5,0,5-0.6,7.4c-1,4.4-4,6.9-8.7,6.6c-4.6-0.3-7.5-2.9-7.8-7.5c-0.3-4.3-0.3-8.7,0-13
		c0.3-4.7,3.6-7.7,8.1-7.8c4.4-0.1,7.9,2.6,8.6,7.3c0.4,2.3,0.1,4.6,0.1,7C350.9,95,351,95,351.1,95z"/>
	<path class="st0" d="M402.9,95c0-2.2-0.2-4.3,0-6.5c0.5-4.6,3.1-7.3,7.7-7.7c4.5-0.4,8.4,2.2,9,6.8c0.6,4.7,0.6,9.7,0.1,14.4
		c-0.5,4.6-4.4,7.3-8.8,7.1c-4.4-0.2-7.5-3.3-7.9-8.1C402.7,99,402.9,97,402.9,95L402.9,95z"/>
	<path class="st0" d="M420.1,210.3c-0.2,2.3,0,4.8-0.6,7.2c-1.1,4.4-4.1,6.8-8.7,6.5s-7.5-3-7.8-7.5c-0.3-4.3-0.3-8.7,0-13
		c0.3-4.6,3-7.3,7.7-7.7c4.5-0.4,8.1,2.3,9,6.8C420.1,205.1,420,207.6,420.1,210.3z"/>
	<path class="st0" d="M402.9,325.1c0-2.2-0.2-4.3,0-6.5c0.5-4.6,3.1-7.3,7.7-7.7c4.4-0.4,8.4,2.3,8.9,6.8c0.5,4.8,0.5,9.7,0,14.4
		c-0.5,4.6-4.3,7.2-8.8,7c-4.4-0.2-7.5-3.3-7.9-8.1C402.7,329.1,402.9,327.1,402.9,325.1L402.9,325.1z"/>
	<path class="st0" d="M402.9,439.5c0-2-0.2-4,0-6c0.5-4.6,3.2-7.2,7.8-7.6c4.4-0.4,8.4,2.4,8.8,7c0.5,4.8,0.5,9.7,0,14.4
		c-0.5,4.6-4.5,7.3-8.9,6.9c-4.6-0.4-7.3-3.1-7.7-7.7C402.7,444.2,402.9,441.8,402.9,439.5z"/>
	<path class="st0" d="M351.1,209.7c-0.1,2.5,0,5-0.5,7.4c-0.9,4.6-4.5,7.3-9,6.9c-4.6-0.4-7.4-3.1-7.7-7.7
		c-0.3-4.1-0.3-8.3-0.1-12.5c0.3-4.8,3.4-7.9,7.8-8.1c4.6-0.3,8.3,2.6,9,7.5c0.3,2.1,0.1,4.3,0.1,6.5
		C350.9,209.7,351,209.7,351.1,209.7z"/>
	<path class="st0" d="M385.5,95.5c-0.1,2-0.1,4.3-0.5,6.6c-0.7,4.1-3.3,6.5-7.4,6.8c-4.4,0.4-8-1.6-8.6-5.8
		c-0.8-5.3-0.8-10.9-0.1-16.3c0.6-4.5,4.3-6.6,8.9-6.1c4.4,0.4,6.9,3.1,7.4,7.4C385.4,90.5,385.4,92.9,385.5,95.5z"/>
	<path class="st0" d="M385.5,210.4c-0.1,2.2-0.1,4.3-0.4,6.5c-0.6,4.3-3.3,6.9-7.7,7.2c-4.6,0.3-8.1-1.9-8.7-6.4
		c-0.6-5-0.6-10.3,0-15.3c0.6-4.5,4.1-6.8,8.7-6.5s7.3,3,7.7,7.6c0.2,2.3,0,4.6,0,7C385.3,210.4,385.4,210.4,385.5,210.4z"/>
	<path class="st0" d="M109.1,290.6c0,2.2,0.2,4.3,0,6.5c-0.5,4.7-3.5,7.3-7.9,7.6c-4.2,0.3-7.9-1.9-8.5-6.2
		c-0.7-5.2-0.7-10.6-0.1-15.9c0.5-4.2,4.9-7,8.8-6.4c4.4,0.7,7.3,3.2,7.7,7.9C109.2,286.3,109.1,288.4,109.1,290.6L109.1,290.6z"/>
	<path class="st0" d="M178.1,290.4c0,2.3,0.2,4.7,0,7c-0.5,4.4-3.4,6.9-7.6,7.3c-4.2,0.4-8-1.6-8.6-5.9c-0.7-5.4-0.7-10.9-0.1-16.3
		c0.5-4.3,4.3-6.4,8.5-6.1c4.4,0.3,7.4,2.9,7.8,7.6C178.3,286,178.1,288.2,178.1,290.4L178.1,290.4z"/>
	<path class="st0" d="M109,405.3c0,2.3,0.2,4.7,0,7c-0.5,4.3-3.9,7.5-8,7.5c-4.3,0-7.8-2.1-8.4-6.3c-0.7-5.2-0.7-10.6,0-15.9
		c0.5-4.3,4.2-6.3,8.4-6.3c4.1,0,7.5,3.3,8,7.5C109.2,401,109,403.2,109,405.3z"/>
	<path class="st0" d="M126.5,290.2c0.1-2.3,0.1-4.6,0.5-6.9c0.7-4.4,3.7-6.8,7.9-7c4-0.2,7.7,1.7,8.2,5.8c0.7,5.5,0.7,11.3,0,16.8
		c-0.5,4.1-4.2,6-8.2,5.8c-4.2-0.2-7.2-2.6-7.9-7C126.6,295.2,126.6,292.7,126.5,290.2z"/>
	<path class="st0" d="M126.5,405.8c0.1-2.4,0.1-4.6,0.3-6.7c0.5-4.7,3.4-7.1,7.8-7.8c3.9-0.6,8.2,2.3,8.7,6.6
		c0.6,5.1,0.6,10.3,0,15.4c-0.5,4.4-3.9,6.4-8.2,6.6c-4.1,0.1-7.5-3-8.1-7.3C126.6,410.2,126.6,407.9,126.5,405.8z"/>
	<path class="st0" d="M178.1,405.4c0,2.3,0.2,4.7,0,7c-0.5,4.3-4,7.5-8,7.4c-4.3-0.1-7.8-2.1-8.3-6.4c-0.6-5.2-0.6-10.6,0.1-15.8
		c0.6-4.3,4.2-6.5,8.4-6.2c4.4,0.3,7.4,2.9,7.9,7.6C178.3,401.1,178.1,403.3,178.1,405.4L178.1,405.4z"/>
	<path class="st0" d="M109.1,233.1c0,2.2,0.2,4.3,0,6.5c-0.5,4.6-3.3,7.2-7.9,7.5s-8-2.1-8.6-6.6c-0.7-4.9-0.6-10-0.1-14.9
		c0.5-4.6,4.5-7.2,9-6.8c4.6,0.5,7.2,3.2,7.7,7.8C109.3,228.7,109.1,230.9,109.1,233.1L109.1,233.1z"/>
	<path class="st0" d="M109.1,348.6c0,2,0.2,4,0,6c-0.5,4.6-3.2,7.3-7.8,7.6c-4.6,0.3-8-2-8.7-6.5c-0.7-4.9-0.6-10-0.1-14.9
		c0.5-4.6,4.5-7.3,8.9-6.8c4.6,0.5,7.2,3.1,7.7,7.7C109.3,343.9,109.1,346.3,109.1,348.6L109.1,348.6z"/>
	<path class="st0" d="M178.1,348c0,2.2,0.2,4.3,0,6.5c-0.5,4.6-3.1,7.3-7.7,7.6c-4.6,0.3-8.1-1.9-8.7-6.4c-0.7-5-0.7-10.3,0-15.4
		c0.6-4.5,4.1-6.8,8.7-6.5c4.6,0.3,7.3,3,7.8,7.6C178.3,343.7,178.1,345.8,178.1,348z"/>
	<path class="st0" d="M178.1,233c0,2.2,0.2,4.3,0,6.5c-0.5,4.6-3.2,7.3-7.8,7.5c-4.6,0.3-8.1-2.1-8.6-6.5c-0.6-5-0.6-10.3,0.1-15.4
		c0.6-4.5,4.1-6.7,8.8-6.3c4.4,0.3,7,2.9,7.6,7.2C178.3,228.4,178,230.7,178.1,233L178.1,233z"/>
	<path class="st0" d="M126.5,347.7c0.1-2.2,0.1-4.5,0.4-6.8c0.7-4.3,3.4-6.8,7.8-7s7.9,1.9,8.4,6.1c0.7,5.2,0.7,10.6,0.1,15.8
		c-0.6,4.5-4.2,6.7-8.8,6.3c-4.4-0.4-7-2.9-7.6-7.3C126.6,352.5,126.6,350.2,126.5,347.7z"/>
	<path class="st0" d="M144.1,233.7c-0.2,2.1-0.2,4.8-0.9,7.3c-1.1,4.2-4.2,6.3-8.6,6c-4.4-0.3-7.3-2.7-7.7-7.1
		c-0.4-4.4-0.4-9-0.1-13.4c0.3-4.6,3.1-7.3,7.7-7.7c4.5-0.4,8,2.2,8.9,6.9C143.9,228.1,143.8,230.7,144.1,233.7z"/>
	<path class="st0" d="M339.4,388c0,25.5,0,50.9,0,76.4c0,2,0,4-0.3,6c-0.7,4.1-3.3,6.4-7.4,6.8s-7.2-1.4-8.6-5.3
		c-0.7-2-0.9-4.2-0.9-6.4c0-51.4,0-102.9,0-154.3c0-2,0.1-4,0.7-5.9c1.2-4.2,4.4-6.3,8.7-6c4.2,0.4,7.1,2.8,7.6,7.3
		c0.2,2,0.3,4,0.3,6C339.4,337.7,339.4,362.8,339.4,388z"/>
	<path class="st0" d="M270.3,388c0,25.5,0,50.9,0,76.4c0,2,0,4-0.3,6c-0.7,4.1-3.3,6.4-7.4,6.8s-7.2-1.4-8.6-5.3
		c-0.7-2-0.9-4.2-0.9-6.4c0-51.4,0-102.9,0-154.3c0-2,0.1-4,0.7-5.9c1.2-4.2,4.4-6.3,8.7-6c4.2,0.4,7.1,2.8,7.6,7.3
		c0.2,2,0.2,4,0.2,6C270.3,337.7,270.3,362.8,270.3,388z"/>
	<path class="st0" d="M287.7,388.2c0-25.3,0-50.6,0-75.9c0-1.8,0-3.7,0.2-5.5c0.5-4.4,3.3-6.9,7.5-7.4c4.3-0.5,7.4,1.6,8.8,5.8
		c0.5,1.7,0.7,3.6,0.7,5.4c0,51.8,0,103.6,0,155.3c0,2.1-0.2,4.4-1,6.3c-1.5,3.8-4.7,5.5-8.8,5c-4.1-0.5-6.6-3-7.2-7.1
		c-0.3-1.8-0.2-3.7-0.2-5.5C287.7,439.1,287.7,413.6,287.7,388.2z"/>
	<path class="st0" d="M216,143.8c-10.5,0-21,0-31.5,0c-2,0-4-0.1-5.9-0.7c-4.2-1.3-6.1-4.4-5.7-8.8c0.4-4.2,2.8-6.7,6.9-7.4
		c2-0.3,4-0.3,6-0.3c20,0,40,0,60,0c1.2,0,2.3,0,3.5,0c5.9,0.3,9.7,3.7,9.6,8.7c-0.1,4.9-3.9,8.4-9.8,8.5c-5.3,0.2-10.7,0-16,0
		C227.3,143.8,221.7,143.8,216,143.8z"/>
</g>
</svg>
