<?xml version="1.0" encoding="utf-8"?>
<!-- Generator: Adobe Illustrator 25.4.1, SVG Export Plug-In . SVG Version: 6.00 Build 0)  -->
<svg version="1.1" id="Layer_1" xmlns="http://www.w3.org/2000/svg" xmlns:xlink="http://www.w3.org/1999/xlink" x="0px" y="0px"
	 viewBox="0 0 512 512" style="enable-background:new 0 0 512 512;" xml:space="preserve">
<style type="text/css">
	.st0{fill:#FFFFFF;}
</style>
<g>
	<g>
		<path class="st0" d="M320.3,53.7c17.2,7.4,26.8-2,36.3-12.6c15.4-17,32.2-32.1,56.2-36c33.8-5.5,61.7,5,82,32.3
			c19.5,26.3,22.8,55.7,5.8,84.2c-9.9,16.7-24.3,30.6-36.3,46.2c-2.9,3.8-6,9.2-5.5,13.5c9.5,86.5-62.8,159.8-146.4,154.4
			c-11.8-0.8-19.5,2.8-27.6,11.1c-44.9,45.7-90.2,91-135.8,136C104.3,526.9,32.1,511.9,11.4,454c-11.8-33-4.5-62.9,20.1-87.8
			c45-45.6,90.3-90.9,136-135.7c8.7-8.5,11.7-16.9,11.2-28.8c-2.9-64.1,36.9-120.9,98.1-139.8C291.2,57.5,306.4,56.2,320.3,53.7z
			 M123.2,334.9c0-10.6,0-20,0-26.8c-11.4,11.3-23.3,23.2-34.5,34.4c21.9,0.6,42.8,8.1,59.5,25.3c16.6,16.9,23.8,37.7,23.8,62.7
			c3.4-3.1,5.3-4.9,7.1-6.7c57.3-57.3,114.6-114.6,171.9-171.9c2.9-2.9,5.8-5.9,8.5-9.2c21.2-26.1,18.9-62.6-5.3-85.2
			c-24.6-22.9-61.7-22.6-86.1,1.2c-19.8,19.3-39.3,38.9-58.1,59.1c-4.3,4.6-6.9,12.4-7.3,18.9c-1,17.6-0.3,35.4-0.3,53.5
			c-6.2,0-11.2,0-17,0c0-15.2,0-29.5,0-44c-12.4,4.7-14,6.7-14.1,17.9c-0.1,16.1,0,32.2,0,48.4c-6.1,0-10.5,0-16.3,0
			c0-13.1,0-25.6,0-39.1c-11.6,7.1-16.7,15.2-15.4,27.9c1.2,11.1,0.2,22.3,0.2,33.5C133.7,334.9,129.6,334.9,123.2,334.9z
			 M320,315.4c66.2,1.5,123.3-57.9,119.5-124.4C435.4,120,372,67.2,301.8,76.5c-58.5,7.8-111.5,70.2-101.9,117.2
			c16.6-16.6,34-34.1,51-51.2c-5-3-12.3-6.8-7.7-15.6c2-3.8,8.7-8.6,11.5-7.7c5.1,1.7,8.9,7.3,14.3,12.2
			c43.2-17.6,76.5-13.4,102.6,14.4c25.8,27.4,29.3,62.1,11.4,99.9c4.9,5,10.7,8.8,12.8,14c1,2.5-3.8,9.5-7.6,11.6
			c-9.2,5-13.2-3.2-16.4-7.6C354.6,280.8,337.3,298.1,320,315.4z M151.4,426.6c0.8-33.8-26.9-62.7-60.8-63.4
			c-34.4-0.8-63.3,26.9-64.2,61.4c-0.8,33,27,62.4,59.9,63.3C122,488.9,150.6,461.9,151.4,426.6z M453.2,152.7
			c11-14.9,21.5-26.5,29-39.7c22.4-39.8-6.4-88-52.1-89.1c-29.7-0.7-47,18.4-65.2,38.6C407,78.9,436,107.4,453.2,152.7z"/>
		<path class="st0" d="M71,7.9c37.6,53,70.2,106.3,74.4,171.8c1.8,27.8-5.5,53.1-29.5,70c-23.1,16.2-48.6,21.1-75.1,8.5
			C15,245.9,3.8,223.5,1,196.3c-2.5-23.9,2.8-46.7,10.5-69C25.8,85.4,46.6,46.9,71,7.9z M72.3,45.1c-20.9,38.1-40,74.2-48.4,114.7
			c-2.5,12-3,24.8-2.1,37.1c1.7,23.6,15.4,40.1,36,46c18.5,5.3,42.7-2.6,55.2-18.3c10.7-13.5,13.9-29.5,12.4-46.1
			C121.1,129.5,99,87.5,72.3,45.1z"/>
		<path class="st0" d="M411.3,207c-8.9,0.7-12.1-5.7-11.9-11.9c0.2-5.5,3.5-10.9,11.5-11.1c8.7-0.2,12.3,5.9,12.3,11.6
			C423.2,201.3,419.8,208.4,411.3,207z"/>
		<path class="st0" d="M330.3,103.2c0.8,9.4-6.3,12.3-12,12.1c-5.1-0.1-11-3.4-10.9-11.7c0-8.7,5.8-12.2,11.7-12
			C324.7,91.8,331.9,94.9,330.3,103.2z"/>
		<path class="st0" d="M387.1,142c-12.9-0.4-15.7-7.5-14.5-14c0.7-3.7,7.4-8.1,11.9-8.7c8.7-1.3,12.4,6.3,11.3,12.9
			C395,136.6,388.9,140.1,387.1,142z"/>
	</g>
</g>
</svg>
