<svg xmlns="http://www.w3.org/2000/svg" xmlns:xlink="http://www.w3.org/1999/xlink" width="100" height="100" viewBox="0 0 100 100">
  <defs>
    <clipPath id="clip-path">
      <circle id="Ellipse_16" data-name="Ellipse 16" cx="50" cy="50" r="50" transform="translate(209.817 11996)" fill="#fff"/>
    </clipPath>
  </defs>
  <g id="Group_3416" data-name="Group 3416" transform="translate(-2683.817 -9486)">
    <path id="Ellipse_85" data-name="Ellipse 85" d="M50,1A49.013,49.013,0,0,0,30.927,95.15,49.013,49.013,0,0,0,69.073,4.85,48.692,48.692,0,0,0,50,1m0-1A50,50,0,1,1,0,50,50,50,0,0,1,50,0Z" transform="translate(2683.817 9486)" fill="#707070"/>
    <g id="Mask_Group_3" data-name="Mask Group 3" transform="translate(2474 -2510)" clip-path="url(#clip-path)">
      <path id="Path_2244" data-name="Path 2244" d="M-422.169,93.642c.57-1.584,1.44-2.1,2.587-2.065l-.756-.5c-.41-5.128.792-14.025-4.777-15.709,10.536-13.021,22.68-20.1,31.8-8.519,10.985.577,15.392,18.033,6.63,25.382l-.051.433a4.8,4.8,0,0,1,1.015-.2,3.274,3.274,0,0,1,1.794.336,2.545,2.545,0,0,1,1.248,1.517,4.6,4.6,0,0,1-.06,2.606l-1.37,3.888a2.841,2.841,0,0,1-.867,1.427,2.562,2.562,0,0,1-1.86.449,3.151,3.151,0,0,1-.422-.048,9.5,9.5,0,0,1-.628,2.785,14.314,14.314,0,0,1-1.78,3.121,24.319,24.319,0,0,1-2.321,2.807,14.526,14.526,0,0,0,2.422,5.092c4.956,3.563,18.3,4.4,22.95,6.992,6.709,3.754,6.524,11.011,7.994,17.728H-446c1.456-6.657,1.306-14.033,7.994-17.728,5.891-3.28,18.392-3.07,23.373-7.321a15.552,15.552,0,0,0,1.787-4.072,21.62,21.62,0,0,1-2.968-3.946l-.061-.1a13.546,13.546,0,0,1-2.12-5.342l-.266.005a3.273,3.273,0,0,1-1.6-.42,4.356,4.356,0,0,1-1.758-2.132l-.034-.089a9.877,9.877,0,0,1-.672-3.12c-.017-.334-.017-1,0-1.633v-.009c.014-.544.043-1.072.084-1.367a1.046,1.046,0,0,1,.07-.256Zm31.218,24.52-.108-.128a15.315,15.315,0,0,1-2.669-5,16.035,16.035,0,0,1-3.883,2.348l-.073.032h0a13.184,13.184,0,0,1-5.591,1.142,12.274,12.274,0,0,1-3.016-.445l-.038-.01a13.478,13.478,0,0,1-4.778-2.4,16.1,16.1,0,0,1-2.423,4.6l5.789,14.137,3.4-7.843L-406,122.78c-1.247-1.824-.522-3.942,1.493-4.268a25.629,25.629,0,0,1,5.26.056c1.826.488,2.37,2.555,1.3,4.212l-1.66,1.814,3.372,7.843,5.285-14.276Zm-20.032-7.2.068.058a11.15,11.15,0,0,0,8.279,3.34,13.145,13.145,0,0,0,8.678-4.036,1.032,1.032,0,0,1,.241-.186,22.014,22.014,0,0,0,2.348-2.8,12.462,12.462,0,0,0,1.534-2.664,7.653,7.653,0,0,0,.474-3.5,1.071,1.071,0,0,1,.172-.659,1.043,1.043,0,0,1,1.444-.3,2.769,2.769,0,0,0,.555.287,1.6,1.6,0,0,0,.457.1,1.748,1.748,0,0,0,.452,0,2.193,2.193,0,0,0,.2-.485l1.329-3.765a2.608,2.608,0,0,0,.084-1.4.521.521,0,0,0-.242-.314,1.24,1.24,0,0,0-.655-.092,3.733,3.733,0,0,0-1.872.787,1.041,1.041,0,0,1-.805.2,1.047,1.047,0,0,1-.855-1.207c.985-5.746.534-9.49-.689-12.043a10.268,10.268,0,0,0-4.637-4.6,17.485,17.485,0,0,1-9.905,3.869,15.47,15.47,0,0,0-7.937,2.777,7.636,7.636,0,0,0-3,3.732,9.433,9.433,0,0,0-.142,5.188,1.015,1.015,0,0,1-.027.623,1.045,1.045,0,0,1-1.336.626l-.957-.346c-1.236-.432-2.111-.633-2.449.143-.027.251-.046.635-.056,1.031v.009c-.015.572-.015,1.169,0,1.469a7.662,7.662,0,0,0,.507,2.411l.038.077a2.342,2.342,0,0,0,.864,1.14,1.211,1.211,0,0,0,.594.152,2.959,2.959,0,0,0,.855-.142.981.981,0,0,1,.311-.055A1.043,1.043,0,0,1-416,101.4h0a10.857,10.857,0,0,0,1.92,5.531l.058.1a19.107,19.107,0,0,0,3.043,3.932Z" transform="translate(662.128 11955.678)" fill="#7b7b7b"/>
    </g>
  </g>
</svg>
