<?xml version="1.0" encoding="utf-8"?>
<!-- Generator: Adobe Illustrator 25.4.1, SVG Export Plug-In . SVG Version: 6.00 Build 0)  -->
<svg version="1.1" id="Layer_1" xmlns="http://www.w3.org/2000/svg" xmlns:xlink="http://www.w3.org/1999/xlink" x="0px" y="0px"
	 viewBox="0 0 512 512" style="enable-background:new 0 0 512 512;" xml:space="preserve">
<style type="text/css">
	.st0{fill:#666666;}
</style>
<g>
	<path class="st0" d="M385.9,239.3c9.3,0,17.9,0,27.2,0c0-2.4,0-4.6,0-6.8c0-71.7,0-143.3,0-215c0-2.4,0-4.9,0.3-7.2
		c0.8-6,5.1-10.1,11.2-10.2c12.6-0.2,25.2-0.1,37.8,0c6.2,0.1,10.3,3.7,11.5,9.9c0.4,2.4,0.5,4.8,0.5,7.2c0,71.7,0,143.3,0,215
		c0,2.2,0,4.4,0,6.9c1.7,0.1,3,0.3,4.4,0.4c12,0.2,16.4,4.6,16.4,16.8c0,53.9,0,107.7,0,161.6c0,14.5,0,29,0,43.5c0,1.9,0,3.7,0,5.8
		c2.4,0.2,4.3,0.2,6.1,0.5c6.1,1,10.4,5.5,10.7,11.6c0.3,6.9,0.3,13.8,0,20.7c-0.3,6.7-5.3,11.4-12,11.9c-1.5,0.1-3.1,0-4.7,0
		c-159.4,0-318.8,0-478.2,0c-13,0-16.9-3.9-16.9-17c0-4.3,0-8.6,0-12.9c0.1-9.6,4.6-14.2,14.3-14.5c1.2,0,2.4-0.2,4.1-0.3
		c0-2.2,0-4.2,0-6.2c0-37.1,0-74.2,0-111.4c0-8.9,1.8-10.7,10.5-10.7c7.9,0,15.9,0,24.2,0c0-49.8,0-99.2,0-149.1
		c-5,0.8-9.9,1.6-14.8,2.3c-8.8,1.2-14.9-3.7-15.3-12.5c-0.2-5.7-0.1-11.4,0-17.1c0.2-8,4-12.5,11.9-13.9c28-4.9,56.1-9.8,84.1-14.7
		c58.3-10.2,116.5-20.5,174.8-30.8c13.5-2.4,19,2.2,19.1,16.1c0,4.3,0.1,8.6,0,12.9c-0.1,8-3.8,12.5-11.7,14
		c-4.9,0.9-9.9,1.4-14.8,2.6c-1.5,0.4-3.7,2.3-3.7,3.6c-0.2,28.8-0.2,57.6-0.2,86.9c14,0,27.7,0,42.2,0c0-2.1,0-4.2,0-6.4
		c0-58,0-116,0-174c0-2.4,0-4.9,0.5-7.2c1.1-6.1,5.3-9.8,11.5-9.9c12.4-0.1,24.9-0.1,37.3,0c6.6,0.1,11,4.1,11.8,10.7
		c0.3,2.2,0.2,4.5,0.2,6.7c0,57.7,0,115.3,0,173C385.9,234.2,385.9,236.5,385.9,239.3z M480.1,467.3c0-71.4,0-142.2,0-212.9
		c-90.5,0-180.5,0-270.4,0c0,71.2,0,142,0,212.9C300,467.3,389.9,467.3,480.1,467.3z M68.3,186.9c0,50.7,0,101,0,151.5
		c42.3,0,84.3,0,126.5,0c0-2.3,0-4.2,0-6.1c0-25.7,0-51.5,0-77.2c0-11.8,3.7-15.6,15.4-15.6c17.3,0,34.5,0,51.8,0c1.8,0,3.7,0,5.5,0
		c0-29.4,0-58.2,0-87.6C201,163.6,134.9,175.2,68.3,186.9z M53.5,467.2c0-2.3,0-4.3,0-6.4c0-23.1,0-46.3,0-69.4
		c0-10.1,4.4-14.5,14.6-14.5c30.4,0,60.8,0,91.2,0c10.3,0,14.8,4.5,14.8,14.8c0,23.3,0,46.6,0,69.9c0,1.8,0,3.7,0,5.5
		c7.2,0,13.7,0,20.4,0c0-38,0-75.7,0-113.6c-53.9,0-107.5,0-161.3,0c0,38,0,75.7,0,113.6C40,467.2,46.5,467.2,53.5,467.2z
		 M14.8,497.1c161.1,0,321.7,0,482.3,0c0-5.1,0-9.9,0-14.8c-160.9,0-321.5,0-482.3,0C14.8,487.3,14.8,492,14.8,497.1z M428,43
		c0,65.6,0,130.9,0,196.2c10.7,0,21,0,31.4,0c0-65.6,0-130.9,0-196.2C448.7,43,438.4,43,428,43z M371.1,239.2
		c0-51.7,0-103.1,0-154.7c-10.7,0-21.1,0-31.7,0c0,51.7,0,103.1,0,154.7C350,239.2,360.3,239.2,371.1,239.2z M37.7,177.5
		c87.2-15.3,173.7-30.5,260.4-45.7c0-5,0-9.6,0-14.7c-87,15.3-173.6,30.5-260.4,45.7C37.7,167.8,37.7,172.3,37.7,177.5z M68.4,391.7
		c0,25.6,0,50.5,0,75.4c12.9,0,25.4,0,37.8,0c0-25.4,0-50.3,0-75.4C93.4,391.7,81.1,391.7,68.4,391.7z M121.4,467.1
		c13,0,25.4,0,37.9,0c0-25.3,0-50.2,0-75.4c-12.7,0-25.2,0-37.9,0C121.4,416.9,121.4,441.8,121.4,467.1z M459.6,14.9
		c-10.9,0-21.1,0-31.6,0c0,4.4,0,8.6,0,12.9c10.7,0,21.1,0,31.6,0C459.6,23.4,459.6,19.3,459.6,14.9z M339.4,69.2
		c10.9,0,21.3,0,31.7,0c0-4.5,0-8.5,0-12.9c-10.7,0-21.1,0-31.7,0C339.4,60.7,339.4,64.8,339.4,69.2z"/>
	<path class="st0" d="M457,314.5c0,5.2,0.1,10.4,0,15.5c-0.2,7-4.5,12.1-11.4,12.3c-11.2,0.4-22.4,0.4-33.6,0
		c-6.8-0.3-11.1-5-11.3-11.9c-0.3-10.7-0.3-21.4,0-32.1c0.2-7.5,5.2-12.1,12.7-12.3c10.4-0.2,20.7-0.2,31.1,0
		c7.6,0.1,12.4,5.2,12.6,12.9c0,0.3,0,0.7,0,1C457,304.9,457,309.7,457,314.5L457,314.5z M442.3,300.7c-9.2,0-17.9,0-26.8,0
		c0,9.2,0,18.1,0,27.1c9.2,0,17.9,0,26.8,0C442.3,318.8,442.3,310,442.3,300.7z"/>
	<path class="st0" d="M428.7,433.3c-5.2,0-10.4,0.1-15.5,0c-7.2-0.2-12.2-4.6-12.5-11.8c-0.4-10.9-0.4-21.7,0-32.6
		c0.2-7.3,5-11.7,12.4-11.8c10.5-0.2,21.1-0.2,31.6,0c7.5,0.2,12.2,5.1,12.3,12.5c0.2,10.3,0.2,20.7,0,31
		c-0.1,7.7-5.1,12.4-12.8,12.7c-0.3,0-0.7,0-1,0C438.3,433.3,433.5,433.3,428.7,433.3z M442.2,418.5c0-9.1,0-17.9,0-26.8
		c-9.1,0-17.8,0-26.8,0c0,9.1,0,17.9,0,26.8C424.5,418.5,433.2,418.5,442.2,418.5z"/>
	<path class="st0" d="M289.2,314.5c0,5.2,0.1,10.4,0,15.5c-0.2,7-4.4,12.1-11.4,12.4c-11.2,0.5-22.4,0.5-33.6,0
		c-6.8-0.3-11.1-5-11.3-11.9c-0.3-10.9-0.3-21.7,0-32.6c0.2-6.9,5.1-11.6,12-11.8c10.7-0.2,21.4-0.2,32.1,0
		c7.1,0.2,11.9,5.2,12.1,12.3C289.3,303.8,289.1,309.1,289.2,314.5z M247.6,300.9c0,9.1,0,18,0,26.9c9.2,0,18,0,26.6,0
		c0-9.3,0-18.1,0-26.9C265.1,300.9,256.4,300.9,247.6,300.9z"/>
	<path class="st0" d="M373.1,314.8c0,5,0.1,10,0,15c-0.2,7.2-4.5,12.4-11.7,12.6c-11,0.4-22.1,0.4-33.1,0
		c-6.8-0.3-11.2-4.9-11.4-11.7c-0.3-10.9-0.3-21.7,0-32.6c0.2-7.2,5.2-11.8,12.4-12c10.5-0.2,21.1-0.2,31.6,0
		c7.3,0.2,12.1,5.3,12.3,12.6C373.2,304.1,373.1,309.5,373.1,314.8z M331.4,327.6c9.2,0,18.1,0,26.8,0c0-9.3,0-18,0-26.7
		c-9.1,0-17.8,0-26.8,0C331.4,309.9,331.4,318.8,331.4,327.6z"/>
	<path class="st0" d="M260.7,433.3c-5,0-10,0.1-15,0c-7.6-0.1-12.6-4.5-12.8-11.9c-0.3-10.9-0.3-21.7,0-32.6
		c0.2-7.1,4.9-11.5,12-11.7c10.7-0.2,21.4-0.2,32.1,0c7.4,0.2,12.1,5.1,12.2,12.6c0.1,10.3,0.2,20.7,0,31
		c-0.1,7.6-5.1,12.3-12.9,12.6c-0.3,0-0.7,0-1,0C270.4,433.3,265.6,433.3,260.7,433.3z M274.4,391.7c-9.3,0-18,0-26.8,0
		c0,9.1,0,17.9,0,26.7c9.2,0,17.8,0,26.8,0C274.4,409.5,274.4,400.8,274.4,391.7z"/>
	<path class="st0" d="M344.7,433.3c-5,0-10,0.1-15,0c-7.6-0.1-12.6-4.5-12.9-11.9c-0.3-10.9-0.3-21.7,0-32.6
		c0.2-7.1,4.9-11.5,12-11.7c10.7-0.2,21.4-0.2,32.1,0c7.4,0.2,12.1,5.1,12.2,12.6c0.1,10.3,0.2,20.7,0,31
		c-0.1,7.6-5.1,12.4-12.9,12.6C355,433.3,349.8,433.3,344.7,433.3z M331.4,418.4c9.1,0,17.9,0,26.8,0c0-9.1,0-18,0-26.7
		c-9.1,0-17.8,0-26.8,0C331.4,400.8,331.4,409.5,331.4,418.4z"/>
	<path class="st0" d="M142,294.1c0,5,0.1,10,0,15c-0.2,7.7-4.9,12.9-12.4,13.1c-10.5,0.3-21.1,0.2-31.6,0
		c-7.2-0.2-12.1-4.9-12.3-12.1c-0.3-10.7-0.3-21.4,0-32.1c0.2-7.3,4.8-12,12.1-12.3c10.7-0.3,21.4-0.4,32.1,0
		c7.5,0.3,11.9,5.4,12.1,12.8c0,0.3,0,0.7,0,1C142,284.5,142,289.3,142,294.1z M100.4,307.4c9.1,0,18,0,26.8,0c0-9.2,0-18,0-27
		c-9.1,0-17.8,0-26.8,0C100.4,289.6,100.4,298.4,100.4,307.4z"/>
	<path class="st0" d="M142,222.4c0,5,0.1,10,0,15c-0.2,7.5-4.7,12.4-12.2,12.7c-10.7,0.3-21.4,0.3-32.1,0c-7.3-0.2-11.8-4.8-12-12.2
		c-0.3-10.5-0.3-21,0-31.6c0.2-7.8,5.1-12.4,12.9-12.5c10.2-0.1,20.4-0.1,30.5,0c7.9,0.1,12.7,5.1,12.9,13.1
		C142.1,212.1,142,217.3,142,222.4z M100.4,208.5c0,9.2,0,17.9,0,26.8c9.2,0,18,0,26.9,0c0-9.1,0-17.8,0-26.8
		C118.2,208.5,109.5,208.5,100.4,208.5z"/>
</g>
</svg>
