<?xml version="1.0" encoding="utf-8"?>
<!-- Generator: Adobe Illustrator 25.4.1, SVG Export Plug-In . SVG Version: 6.00 Build 0)  -->
<svg version="1.1" id="Layer_1" xmlns="http://www.w3.org/2000/svg" xmlns:xlink="http://www.w3.org/1999/xlink" x="0px" y="0px"
	 viewBox="0 0 512 512" style="enable-background:new 0 0 512 512;" xml:space="preserve">
<style type="text/css">
	.st0{fill:#FFFFFF;}
</style>
<path class="st0" d="M199.2,57.1l11.9-3.4l13.8,48.8l-11.9,3.4L199.2,57.1z M259.3,57.7L240.7,59l0.7,10.2l16.5-1.2l0.7,9.5
	L242,78.7l0.8,11.1l18.7-1.3l0.7,9.9l-31,2.2L227.6,50l31-2.2L259.3,57.7z M302.1,53.8c11.7,3,18.8,11.9,18.9,23.2l-13.2-3.4
	c-0.9-4.7-4.1-7.8-8.7-8.9c-7.3-1.9-13.8,2.3-16,10.9c-2.2,8.7,1.4,15.4,8.7,17.3c4.5,1.2,8.8,0,11.9-3.6l13.2,3.4
	c-5.5,9.9-16,14.2-27.7,11.1c-14.5-3.7-22.1-16.7-18.3-31.4C274.7,57.8,287.6,50.1,302.1,53.8z M463.9,124.5
	c-4.8,3.6-7.7,5.7-11.4,8.5c4.4,2.1,8.6,3.9,12.6,6.1c1.9,1,3.4,2.6,5.1,4c-1.7,1.6-3.3,3.3-5.1,4.8c-1.1,0.9-2.5,1.4-3.1,1.7
	c5.5,5.1,10.8,10.2,16.5,15c1.3,1.1,3.9,0.8,5.9,0.7c18.1-1.7,28.2,8.9,27.7,28.1c-0.8,28.3-0.7,56.7-0.1,85.1
	c0.4,18.1-9.4,28.7-27.1,27.1c-5-0.5-10.1-0.1-16-0.1c1.2,3.9,2.4,6.9,3.1,10c0.5,2.1,0.4,4.3,0.6,6.4c-2.1-0.1-4.2,0-6.3-0.2
	c-1.4-0.2-2.8-0.9-5.4-1.7c1.3,5.4,2.5,9.8,3.4,14.4c0.4,2,0,4.2,0,6.3c-2.1-0.3-4.2-0.4-6.2-0.9c-1.6-0.4-3.2-1.3-5.3-2.2
	c1,7.2,2,13.8,3.2,22.2c-5.3-2-8.9-3.4-12.9-4.9c0.5,6.7,1,13.1,1.7,21.7c-4.9-2.1-8.2-3.6-12.2-5.3c-0.4,6.8-0.8,13.5-1.3,22.1
	c-5-3.5-8-5.6-11.7-8.1c-0.8,7.1-1.5,13.7-2.4,22.2c-4.6-3.4-7.8-5.7-11.2-8.1c-1.5,6.9-3,13.5-4.4,20.1c-1,0.5-2.1,1-3.1,1.5
	c-1.9-3.5-3.8-7-5.7-10.5c-0.6,0.5-1.2,1-1.8,1.5c-2,6.5-3.9,13-6.4,21.3c-3.9-4.5-6.3-7.3-9.2-10.7c-1.8,4.6-3.3,8.9-5.2,13.1
	c-0.9,1.9-2.4,3.6-3.6,5.4c-1.7-1.6-3.6-3.1-5.2-4.8c-1-1.1-1.6-2.5-2.7-4.3c-2.4,4.9-4.4,9.5-6.8,13.8c-0.9,1.6-2.5,2.9-3.7,4.3
	c-1.3-1.3-2.8-2.5-3.9-4c-1.3-1.8-2.1-3.9-3.2-5.9c-3.7,6.3-7.1,12.1-11.7,19.9c-2.9-5.8-4.8-9.4-6.6-13
	c-4.1,5.7-8.1,11.2-13.3,18.4c-2.3-5.8-3.8-9.6-5.3-13.6c-3.2,3.9-6.4,7.8-9.7,11.5c-1.3,1.4-3.1,2.1-4.7,3.2
	c-1-1.8-2.1-3.6-2.9-5.5c-0.7-1.5-1-3.2-2.1-7.2c-4,4.7-6.7,8.3-9.8,11.5c-1.4,1.5-3.7,2.2-5.6,3.2c-0.8-2-1.7-3.9-2.2-5.9
	c-0.4-1.6-0.4-3.3-0.6-5.8c-5.9,4.7-11.2,8.9-17.9,14.2c-0.8-5.5-1.4-9.4-2-13.8c-5.7,3.8-11.3,7.5-18.2,12.1
	c-0.5-5.3-0.8-9.1-1.3-13.7c-5.9,3.2-11.5,6.3-18.4,10.2c0-5.3,0-9.5,0-13.8c-6.5,2.8-12.8,5.5-20.8,9c0.6-5.7,1.1-9.4,1.6-13.8
	c-4.7,1.6-8.8,3.3-13.1,4.4c-2.2,0.6-4.6,0.2-7,0.3c0.3-2.1,0.4-4.3,0.8-6.4c0.2-1.2,0.8-2.3,1.7-5c-5.2,1.3-9.4,2.5-13.6,3.3
	c-2.3,0.4-4.7,0.2-7.1,0.3c0.4-2.3,0.6-4.6,1.1-6.9c0.3-1.5,1.1-2.8,1.9-4.7c-7.2,1-13.9,1.8-22.3,3c2.2-5.3,3.6-8.9,5.3-13.1
	c-4.9,0.5-9.4,1.2-13.9,1.4c-2.1,0.1-4.3-0.6-6.5-0.9c0.6-2.3,1.2-4.6,2-6.8c0.4-1.1,1.3-2.1,2.5-4c-7.5-0.4-14.2-0.8-22.7-1.3
	c3.3-4.8,5.4-7.8,8-11.6c-6.9-0.7-13.5-1.4-22.1-2.4c3.3-4.6,5.6-7.8,8.1-11.3c-6.8-1.4-13.4-2.8-20.1-4.2c-0.4-0.9-0.9-1.8-1.3-2.7
	c3.3-2.1,6.6-4.2,11.2-7.1c-9-2.9-15.6-5-23.9-7.7c4.6-3.8,7.5-6.2,10.8-8.9c-6.7-2.7-13-5.2-21.1-8.5c4.8-3.6,7.8-5.7,11.3-8.3
	c-4.3-2.1-8.5-3.9-12.4-6.2c-2-1.1-3.4-3.1-5.1-4.7c1.7-1.4,3.3-2.8,5-4.1c1.2-0.9,2.6-1.4,4.2-2.2c-6.4-4.5-12.6-8.8-18.7-13.1
	c0.4-0.7,0.8-1.4,1.2-2.1c-4,0-8.1,0.1-12.1,0c-11.7-0.4-20.1-8.2-20.9-19.9c-0.6-8.8-0.2-17.7-0.2-26.6c0-23-0.1-46.1,0.1-69.1
	c0.1-16.8,7.9-24.4,24.8-24.5c5.7,0,11.4,0,18,0c-1.2-4.1-2.3-6.9-2.9-9.8c-0.5-2.3-0.3-4.7-0.4-7c2.1,0.2,4.3,0.4,6.4,0.7
	c1.4,0.2,2.7,0.8,5.1,1.4c-1.3-5.2-2.6-9.4-3.4-13.8c-0.4-2.2,0-4.6,0.1-7c2.1,0.4,4.3,0.8,6.4,1.2c1.2,0.3,2.3,0.8,4.5,1.5
	c-0.8-7.1-1.5-13.4-2.3-21.3c4.9,1.8,8.4,3.1,12.5,4.5c-0.4-6.7-0.9-13.1-1.4-21.3c4.8,2,8.2,3.5,12,5c0.5-6.8,0.9-13.5,1.5-22.1
	c4.9,3.4,7.8,5.5,11.7,8.3c0.4-5.2,0.5-9.7,1.1-14.1c0.3-2.1,1.4-4.1,2.1-6.2c2.1,1.1,4.3,2,6.3,3.2c1.2,0.7,2.2,1.9,3.8,3.3
	c1.5-7.2,2.8-13.7,4.6-22.1c4.1,3.7,6.9,6.2,10.2,9.2c2.1-6.6,4.1-13.1,6.6-21.4c3.9,4.3,6.5,7.2,9.3,10.3c2.6-6.5,5-12.9,8.2-21
	c3.7,5,6,8.1,8.5,11.5c2-4.2,3.8-8.3,6-12.3c1.1-2,3-3.6,4.6-5.3c1.4,1.7,2.8,3.2,4.1,5c1,1.4,1.7,2.9,2.8,4.8
	c2.6-4.6,4.8-8.8,7.4-12.7c1.1-1.7,3-2.9,4.6-4.4c1.3,1.7,2.7,3.4,3.8,5.2c0.9,1.4,1.5,3.1,2.4,5.1c4.3-5.9,8.2-11.3,13.3-18.4
	c2.2,5.3,3.7,8.8,5.5,13.1c2.8-3.2,5.3-6.5,8.1-9.4c1.8-1.9,4.2-3.2,6.3-4.8c1,2.3,2.1,4.7,3.1,7.1c0.4,0.9,0.6,1.9,1.4,4.2
	c3.7-3.7,6.6-6.9,9.8-9.8c1.8-1.6,4-2.6,6.1-3.9c0.8,2.2,1.7,4.4,2.4,6.7c0.4,1.4,0.3,2.8,0.6,5.1c5.9-4.6,11.2-8.6,17.9-13.9
	c0.7,5.4,1.2,9.2,1.8,13.8c5.8-3.8,11.4-7.5,18.5-12.1c0.5,5.3,0.8,9.1,1.2,13.4c5.9-3.1,11.6-6.1,18.5-9.8c0,5.2,0,9.2,0,13.8
	c4.4-2.1,8.8-4.3,13.2-6.1c1.9-0.8,4.1-0.8,6.2-1.1c0.2,2.1,0.5,4.3,0.4,6.4c-0.1,1.5-0.7,2.9-1.3,5.6c4.9-1.6,8.9-3.2,13.1-4.3
	c2.3-0.6,4.8-0.5,7.1-0.7c-0.2,2.3-0.3,4.7-0.5,7c-0.2,1.2-0.7,2.3-1.4,4.6c5.1-1.2,9.3-2.4,13.7-3.2c2.3-0.4,4.7,0,7,0
	c-0.5,2.3-0.9,4.6-1.6,6.9c-0.3,1.2-0.9,2.3-1.8,4.4c7.2-1,13.9-1.8,22.3-2.9c-2.1,5.2-3.5,8.8-5,12.8c6.8-0.4,13.5-0.9,21.9-1.4
	c-2.2,4.8-3.7,8-5.8,12.5c4.9,0,9.5-0.2,14.1,0.1c2.1,0.1,4.1,1.2,6.2,1.9c-0.9,2-1.7,4-2.7,5.9c-0.8,1.4-1.9,2.7-3.5,4.9
	c5.2,0.3,9.5,0.4,13.6,0.9c2.4,0.3,4.6,1.4,6.9,2.2c-1.1,2.1-2.1,4.2-3.3,6.2c-0.8,1.2-1.9,2.2-3.5,3.9c7.3,1.5,14,2.9,22.5,4.6
	c-3.8,4.1-6.3,6.7-9.5,10.1c6.7,2.1,13.2,4.1,21.3,6.6c-4.2,3.8-7.1,6.4-10.3,9.3C449.5,118.7,455.8,121.2,463.9,124.5z
	 M255.1,294.9c77,0,153.9,0,230.9,0c11.6,0,14.9-3.2,15-14.7c0-29.9,0-59.7,0-89.6c0-11.6-3.1-14.7-14.9-14.7
	c-153.4,0-306.8,0-460.2,0c-11.7,0-15,3.1-15,14.6c0,29.6,0,59.2,0,88.9c0,12.5,3.1,15.5,15.7,15.5
	C102.7,294.9,178.9,294.9,255.1,294.9z M441.2,165.2c-20.5-62.7-92.5-133.9-195.8-128.6c-49.9,2.6-93.1,21.9-128.9,56.9
	c-20.6,20.2-36.3,43.6-46.5,71.7c25.3,0,49.3-0.2,73.3,0.1c5.4,0.1,8.5-1.8,11.8-6c31.1-39.1,71.5-55.7,121.1-48.6
	c33.7,4.9,60.3,22.1,81.1,48.8c1.8,2.3,4.8,5.4,7.3,5.4C389.8,165.3,415.1,165.2,441.2,165.2z M70.3,305.4
	c21.8,64.5,97.4,138.6,208.4,127.9c68.5-6.6,155.9-73.9,162.1-127.9c-24.1,0-48.1,0.2-72.1-0.1c-5.4-0.1-8.6,1.6-11.9,5.9
	c-23.1,30.1-53.6,47.6-91.5,50c-46.4,3-83.7-14.9-112-51.7c-1.4-1.8-3.8-3.8-5.8-3.9C122.1,305.3,96.6,305.4,70.3,305.4z
	 M163.7,305.7c27.7,32.9,61.2,48.1,102.1,44.9c33.2-2.6,60.1-17.8,82.1-44.9C285.9,305.7,225.8,305.7,163.7,305.7z M347.9,164.9
	c-27.6-33-61.4-48.1-102.5-44.8c-32.9,2.7-59.5,17.9-81.5,44.8C226,164.9,286,164.9,347.9,164.9z M444.5,404.3
	c-5.8-6-11.1-11-20-6.5c-2.8,13.4-4.3,14.7-14.7,13.7c-4.1,13.5-4.5,13.8-16.3,13.1c-3.9,12.1-6.1,13.5-16.1,10.9
	c-2.6,3.6-4.3,8.3-7.6,10.1c-3.1,1.7-7.8,0.4-10,0.4c21.3,21.3,43.4,43.4,64.5,64.6c1.4-15.4,3.1-32.9,4.5-50.6c0.3-4,1.6-5.7,5.8-6
	c17.6-1.4,35.2-3,54.7-4.8C473.7,433.5,458.9,419.2,444.5,404.3z M74.5,453.8c5.9,0.4,8.2,1.8,8.6,8.2c1,17,3,34,4.5,50
	c20.6-20.4,41.4-40.9,61.6-60.9c-2.3-3.4-4.7-7-7.1-10.8c-12.9,0.8-13.3,0.6-16.8-11c-12.2,0.9-14.2-0.5-16.3-11.9
	c-13.7-1.8-14.9-2.9-15.2-13.3c-12.4-3.3-12.4-3.3-14.9-10.1c-18.1,18.1-36.4,36.3-55.4,55.2C40.8,450.8,57.6,452.7,74.5,453.8z
	 M248.7,132.7l1.6,9.5l-6.9,6.7l9.5,1.4l4.3,8.6l4.3-8.6l9.5-1.4l-6.9-6.7l1.6-9.5l-8.5,4.5L248.7,132.7z M290.8,137.5l1.2,6.7
	l-4.9,4.8l6.8,1l3,6.1l3-6.1l6.8-1l-4.9-4.8l1.2-6.7l-6.1,3.2L290.8,137.5z M211.5,137.5l1.2,6.7l-4.9,4.8l6.8,1l3,6.1l3-6.1l6.8-1
	l-4.9-4.8l1.2-6.7l-6.1,3.2L211.5,137.5z M250.3,313.5l1.6,9.5l-6.9,6.7l9.5,1.4l4.3,8.6l4.3-8.6l9.5-1.4l-6.9-6.7l1.6-9.5l-8.5,4.5
	L250.3,313.5z M292.4,318.4l1.2,6.7l-4.9,4.8l6.8,1l3,6.1l3-6.1l6.8-1l-4.9-4.8l1.2-6.7l-6.1,3.2L292.4,318.4z M213.1,318.4l1.2,6.7
	l-4.9,4.8l6.8,1l3,6.1l3-6.1l6.8-1l-4.9-4.8l1.2-6.7l-6.1,3.2L213.1,318.4z M71.7,205c14.1,0,25.6,7.6,29.9,20.6H86.9
	c-3-6.1-8.5-9.1-15.3-9.1c-11.1,0-19,8.1-19,21c0,12.8,7.9,21,19,21c6.8,0,12.3-3,15.3-9.2h14.7c-4.3,13.1-15.7,20.6-29.9,20.6
	c-18.3,0-32.2-13.4-32.2-32.4C39.5,218.5,53.4,205,71.7,205z M149.4,216.1h-24.1V232h21.4v10.1h-21.4V259h24.1v10.4h-36.9v-63.6
	h36.9V216.1z M184.8,205.8c15.3,0,22.9,8.8,22.9,19.5c0,7.7-4.3,15.6-14.5,18.3l15.2,25.8h-14.7l-14-24.8h-6v24.8H161v-63.5
	L184.8,205.8L184.8,205.8z M184.3,216.4h-10.6v18.7h10.6c7.1,0,10.3-3.7,10.3-9.5C194.6,219.9,191.4,216.4,184.3,216.4z
	 M215.9,205.8h46.6v10.3h-16.9v53.2h-12.7v-53.2H216v-10.3H215.9z M271.8,205.8h12.7v63.5h-12.7V205.8z M297.1,205.8h39.2v10.3
	h-26.5v16.3h20.3v10.1h-20.3v26.9h-12.7V205.8z M345.3,205.8H358v63.5h-12.7V205.8z M407.5,216.1h-24.1V232h21.4v10.1h-21.4V259
	h24.1v10.4h-36.9v-63.6h36.9V216.1z M474.8,237.7c0,19.2-13.2,31.7-33.5,31.7h-22.2v-63.5h22.2C461.6,205.8,474.8,218.4,474.8,237.7
	z M440.8,258.5c13.4,0,20.9-7.6,20.9-20.8s-7.6-21.1-20.9-21.1h-9v42L440.8,258.5L440.8,258.5z M183,369.6c1.1-3.2,0.6-5.6-2.4-7.4
	c-4.5-2.7-8.6,0-13.7,8.3c3.4-1.7,7.8-1.3,11.8,1.1c7.5,4.5,9.8,12.6,4.4,21.6c-5.2,8.5-14.1,11.1-23.4,5.5
	c-12.9-7.9-10.5-18.9-2.8-31.8c8.9-14.7,18-19.3,29.1-12.5c9.2,5.6,9.6,14.2,6.3,20.9L183,369.6z M162.1,380.3
	c-2.3,3.8-1.5,7.3,2.4,9.6c3.4,2.1,6.9,1.2,9.1-2.4c2.2-3.6,1.7-7.1-2.1-9.4C168.3,376.2,164.4,376.4,162.1,380.3z M192.9,404.9
	c12.6-5.7,25.8-11.2,28-19.4c1-3.5,0-6.2-3.5-7.1c-3.4-0.9-6.1,1.2-7.3,5.8l-11-3c3.5-11.7,12.5-14.6,21.3-12.3
	c11,3,14.2,10.7,12,18.9c-2.9,10.6-14.7,16.6-24,20.4l17.9,4.8l-2.5,9.2l-33.3-9L192.9,404.9z M274.2,374.3l0.2,10.3L253,385
	l0.2,9.5c1.7-2,5.2-3.5,9.1-3.6c10.9-0.2,15.3,8,15.4,16.1c0.2,10.6-5.9,17.6-17,17.8c-11.3,0.2-17.9-5.9-18.5-14.6l11.5-0.2
	c0.5,2.6,2.6,4.9,6.4,4.8c4.5-0.1,6.3-3.4,6.2-7.7c-0.1-4.5-2.4-6.9-6.6-6.8c-3.3,0.1-5.2,1.9-5.8,4.2l-11.3,0.2l-0.6-29.9
	L274.2,374.3z M308.1,378.8c-1.7-2.9-3.8-4.1-7.1-3c-5,1.7-5.6,6.5-2.6,15.8c0.9-3.7,4.1-6.8,8.5-8.2c8.3-2.7,16,0.8,19.2,10.7
	c3.1,9.5-0.7,18-11,21.4c-14.4,4.7-21.2-4.3-25.9-18.5c-5.4-16.3-3-26.2,9.4-30.2c10.3-3.4,17.1,1.9,20,8.8L308.1,378.8z
	 M302.7,401.6c1.4,4.2,4.6,5.9,8.9,4.5c3.8-1.2,5.4-4.5,4.1-8.5s-4.3-5.9-8.5-4.5C303.6,394.2,301.2,397.3,302.7,401.6z
	 M329.3,365.9l-5.8,3.6l-5.8-9.3l16.2-10l26.4,42.7l-10.4,6.4L329.3,365.9z"/>
</svg>
