<?xml version="1.0" encoding="utf-8"?>
<!-- Generator: Adobe Illustrator 25.4.1, SVG Export Plug-In . SVG Version: 6.00 Build 0)  -->
<svg version="1.1" id="Layer_1" xmlns="http://www.w3.org/2000/svg" xmlns:xlink="http://www.w3.org/1999/xlink" x="0px" y="0px"
	 viewBox="0 0 512 512" style="enable-background:new 0 0 512 512;" xml:space="preserve">
<style type="text/css">
	.st0{fill:#FFFFFF;}
</style>
<g>
	<path class="st0" d="M153,213.5H96.6c-4.8,0-8.7,3.9-8.7,8.7v56.4c0,4.8,3.9,8.7,8.7,8.7H153c4.8,0,8.7-3.9,8.7-8.7v-56.4
		C161.6,217.3,157.8,213.5,153,213.5z M144.3,269.8h-39v-39h39V269.8z"/>
	<path class="st0" d="M284.5,213.5h-56.4c-4.8,0-8.7,3.9-8.7,8.7v56.4c0,4.8,3.9,8.7,8.7,8.7h56.4c4.8,0,8.7-3.9,8.7-8.7v-56.4
		C293.1,217.3,289.2,213.5,284.5,213.5z M275.8,269.8h-39v-39h39V269.8z"/>
	<path class="st0" d="M411.9,213.5h-56.4c-4.8,0-8.7,3.9-8.7,8.7v56.4c0,4.8,3.9,8.7,8.7,8.7h56.4c4.8,0,8.7-3.9,8.7-8.7v-56.4
		C420.5,217.3,416.7,213.5,411.9,213.5z M403.2,269.8h-39v-39h39V269.8z"/>
	<path class="st0" d="M153,341.9H96.6c-4.8,0-8.7,3.9-8.7,8.7V407c0,4.8,3.9,8.7,8.7,8.7H153c4.8,0,8.7-3.9,8.7-8.7v-56.4
		C161.6,345.7,157.8,341.9,153,341.9z M144.3,398.2h-39v-39h39V398.2z"/>
	<path class="st0" d="M284.5,341.9h-56.4c-4.8,0-8.7,3.9-8.7,8.7V407c0,4.8,3.9,8.7,8.7,8.7h56.4c4.8,0,8.7-3.9,8.7-8.7v-56.4
		C293.1,345.7,289.2,341.9,284.5,341.9z M275.8,398.2h-39v-39h39V398.2z"/>
	<path class="st0" d="M411.9,341.9h-56.4c-4.8,0-8.7,3.9-8.7,8.7V407c0,4.8,3.9,8.7,8.7,8.7h56.4c4.8,0,8.7-3.9,8.7-8.7v-56.4
		C420.5,345.7,416.7,341.9,411.9,341.9z M403.2,398.2h-39v-39h39V398.2z"/>
	<path class="st0" d="M480.5,45.7h-57.2c-0.1,0-0.1,0-0.2,0V34.2c0-18.9-15.3-34.2-34.2-34.2s-34.2,15.4-34.2,34.2v11.5h-64.5V34.2
		C290.2,15.3,274.9,0,256,0s-34.2,15.4-34.2,34.2v11.5h-64.5V34.2C157.2,15.3,141.9,0,123,0S88.8,15.4,88.8,34.2v11.5h-0.1H31.5
		c-4.8,0-8.7,3.9-8.7,8.7v448.9c0,4.8,3.9,8.7,8.7,8.7h448.9c4.8,0,8.7-3.9,8.7-8.7V54.4C489.1,49.6,485.3,45.7,480.5,45.7z
		 M371.9,34.2c0-9.3,7.6-16.9,16.9-16.9s16.9,7.6,16.9,16.9V82c0,9.3-7.6,16.9-16.9,16.9s-16.9-7.6-16.9-16.9V34.2z M255.9,17.3
		c9.3,0,16.9,7.6,16.9,16.9V82c0,9.3-7.6,16.9-16.9,16.9c-9.3,0-16.9-7.6-16.9-16.9V55.2c0-0.3,0.1-0.5,0.1-0.8s-0.1-0.5-0.1-0.8
		V34.2C239,24.9,246.6,17.3,255.9,17.3z M106.1,34.2c0-9.3,7.6-16.9,16.9-16.9s16.9,7.6,16.9,16.9V82c0,9.3-7.6,16.9-16.9,16.9
		s-16.9-7.6-16.9-16.9C106.1,82,106.1,34.2,106.1,34.2z M471.8,494.7H40.2V63.1h48.5h0.1v19c0,18.9,15.4,34.2,34.2,34.2
		s34.2-15.3,34.2-34.2v-19h64.5v19c0,18.9,15.4,34.2,34.2,34.2c18.9,0,34.2-15.3,34.2-34.2v-19h64.5v19c0,18.9,15.3,34.2,34.2,34.2
		S423,101,423,82.1V63c0.1,0,0.1,0,0.2,0h48.5L471.8,494.7L471.8,494.7z"/>
</g>
</svg>
