<?xml version="1.0" encoding="utf-8"?>
<!-- Generator: Adobe Illustrator 25.4.1, SVG Export Plug-In . SVG Version: 6.00 Build 0)  -->
<svg version="1.1" id="Layer_1" xmlns="http://www.w3.org/2000/svg" xmlns:xlink="http://www.w3.org/1999/xlink" x="0px" y="0px"
	 viewBox="0 0 512 512" style="enable-background:new 0 0 512 512;" xml:space="preserve">
<style type="text/css">
	.st0{fill:#FFFFFF;}
</style>
<g>
	<path class="st0" d="M0.2,241.2c1.3-9.7,2.1-19.5,3.9-29.1C20.9,124.7,69.7,61.5,149.9,23.6c57-26.9,116.6-30.2,177.3-13.3
		c6.6,1.8,11.5,5.4,12.7,12.5c1.9,11.4-8,19.9-19.5,16.7c-22.3-6.3-44.9-9.6-68-9.3c-104.7,1.3-196.6,76.3-217,179.2
		c-16.1,81.3,6.3,151.7,65,210.3c1.5,1.5,3.1,2.8,5.6,5.2c0-9.8-0.1-18.3,0-26.9c0.1-8.2,5.3-14.3,12.9-15.3
		c8.8-1.2,16.8,5.2,16.9,14.2c0.3,21.8,0.2,43.6,0,65.5c-0.1,8-6.4,14.1-14.6,14.2c-21.6,0.3-43.3,0.3-64.9,0
		c-8.6-0.1-14.6-7.1-14.4-15.4c0.2-8.2,6.5-14.3,15.3-14.4c4.5-0.1,9,0,13.5,0c4.3,0,8.7,0,13.9,0c-1.2-1.5-1.9-2.5-2.7-3.2
		c-42.5-39.8-68.7-88.4-78.4-145.9C2,288.9,1.2,280,0.1,271.1C0.2,261.2,0.2,251.2,0.2,241.2z"/>
	<path class="st0" d="M241,512c-9.9-1.3-19.8-2.3-29.6-4.1c-9.5-1.7-18.8-4.1-28.1-6.6c-8.7-2.4-13.2-10.4-10.9-18.5
		c2.2-8.2,10.5-12.6,19.4-10.1c28.3,8.1,57.1,11.2,86.4,8.1c46.3-4.8,87.6-21.9,123.1-52c40.2-34,66.4-76.8,75.8-128.6
		c15-82-8.2-152.2-68.1-210.3c-0.7-0.6-1.5-1.2-3.1-2.4c0,9.6,0.1,18.3,0,27.1c-0.2,8.5-6.7,14.9-14.9,14.9c-8,0-14.8-6.2-14.9-14.4
		c-0.2-21.6-0.2-43.3,0-64.9c0.1-8.3,6.1-14.5,14.7-14.7c21.6-0.3,43.3-0.3,64.9,0c8.6,0.1,14.6,7.1,14.4,15.4s-6.5,14.3-15.4,14.4
		c-8.8,0.1-17.6,0-27.4,0c1.2,1.5,1.9,2.5,2.8,3.3c44.4,41.8,71.4,92.8,79.4,153.3c17.9,135.2-70.5,253.6-194.3,282.8
		c-12.9,3-26.2,4.2-39.4,6.3c-1.3,0.2-2.5,0.6-3.8,0.9C261.7,512,251.4,512,241,512z"/>
	<path class="st0" d="M271.4,377.5c-0.1-5.1-0.4-10.3-0.4-15.4c0-21.8-0.1-43.6,0.1-65.4c0-2.1,0.7-4.8,2.1-6.2
		c25.8-26,51.7-51.9,77.6-77.7c0.6-0.6,1.2-1,2.8-2.3c2.4,11.1,5,21.3,6.8,31.8c3.7,22.3,4.2,44.5-4.4,65.9
		c-14.8,37.2-41.9,59.8-81.1,68c-1.2,0.3-2.4,0.9-3.6,1.3C271.3,377.4,271.4,377.5,271.4,377.5z"/>
	<path class="st0" d="M240.8,377.3c-4.6-1.2-9.3-2.3-13.9-3.6c-48.7-13.9-81-60-77.5-110.7c1.2-17.2,3.9-34,9.3-51.1
		c1.3,1.1,2.4,1.9,3.4,2.9c25.4,25.4,50.9,50.8,76.3,76.4c1.4,1.4,2.6,3.6,2.6,5.4c0.2,26,0.1,52,0.1,77.9c0,1-0.2,2-0.3,3
		C240.7,377.5,240.8,377.3,240.8,377.3z"/>
	<path class="st0" d="M240.8,81.3c0,57,0,112.9,0,169.5c-1.4-1.3-2.4-2.1-3.3-3c-21.3-21.3-42.6-42.6-64-63.9
		c-1.9-1.8-3.2-3.2-1.7-6.3C188.9,141.7,212.2,110.4,240.8,81.3z"/>
	<path class="st0" d="M271.2,249.6c0-56.3,0-111.7,0-167.5c0.7,0.4,1.3,0.6,1.7,1c27.1,27.4,49.6,58.2,66.5,92.9
		c1.4,2.8,1.3,4.5-1,6.8c-21.4,21.2-42.7,42.5-64,63.8C273.6,247.4,272.8,248.2,271.2,249.6z"/>
	<path class="st0" d="M240.7,377.5c10.3,0,20.5,0,30.8,0l-0.1-0.1c-0.1,9.8-0.2,19.6-0.3,29.4c-0.1,10-6.3,16.9-15,16.9
		c-8.8,0-14.9-7-15-17c-0.1-9.8-0.1-19.6-0.2-29.4C240.8,377.3,240.7,377.5,240.7,377.5z"/>
</g>
</svg>
