<?xml version="1.0" encoding="utf-8"?>
<!-- Generator: Adobe Illustrator 25.4.1, SVG Export Plug-In . SVG Version: 6.00 Build 0)  -->
<svg version="1.1" id="Layer_1" xmlns="http://www.w3.org/2000/svg" xmlns:xlink="http://www.w3.org/1999/xlink" x="0px" y="0px"
	 viewBox="0 0 512 512" style="enable-background:new 0 0 512 512;" xml:space="preserve">
<style type="text/css">
	.st0{fill:#666666;}
</style>
<g>
	<path class="st0" d="M251,512c-14.3-6.6-29-12.5-42.8-20c-58.5-31.7-100-79.3-128.2-139c-21.4-45.3-33.1-93.3-39.1-142.9
		c-4.9-40.8-5.7-81.8-2.8-122.8c0.4-5.8,0.8-11.7,1.8-17.4c1.9-10.4,10.4-17.3,21-18.2C82,49.8,103,47.6,124,45.4
		c5.2-0.5,9,1.7,9.7,6.2c0.6,4.1-2,7.8-7.2,8.4c-20.7,2.4-41.4,4.5-62.1,6.5c-7.7,0.7-9.7,2.6-10.4,10.4
		c-2.6,28.9-3.4,57.9-1.9,86.9c3.5,68.9,16.3,135.5,48.8,197.2c33.4,63.4,83.4,108.6,150.4,134.5c3,1.2,7.3,0.9,10.4-0.3
		c69.7-27,120.3-74.9,153.5-141.5c20.4-40.9,32.4-84.4,39.1-129.5c5.9-39.2,7.7-78.6,5.9-118.2c-0.5-10.3-1.3-20.6-2.1-30.9
		c-0.5-5.9-3.1-8.3-9.5-8.5c-41-1.6-81.2-8-120.2-20.7c-22.7-7.4-44.7-16.5-65.3-28.5c-4.9-2.9-8.9-2.8-13.9,0.1
		c-27,15.5-55.7,26.5-85.6,34.4c-6.8,1.8-12.1-2.6-10.5-8.7c1-4,4.4-5,7.8-6.1c15.5-5.2,31.1-9.8,46.2-15.9
		c12.5-5,24.4-11.5,36.3-17.8c8.6-4.5,16.7-4.8,25.1,0.1c39.9,23,83.1,36.5,128.4,43.1c17.3,2.5,34.8,3.6,52.2,4.9
		c14,1,22.6,9.1,23.8,23.3c3.9,45,3.6,89.9-1.8,134.7c-5.6,46.4-16.2,91.4-35,134.3c-34.6,78.7-90.7,135.4-171.7,166.4
		c-1.2,0.5-2.3,1.1-3.5,1.7C257.7,512,254.4,512,251,512z"/>
	<path class="st0" d="M79.3,157.2c1-18.1,1.8-34.2,2.8-50.3c0.8-11.4,8-18.7,19.6-19.3c32.6-1.5,64.7-5.9,95.5-16.9
		c15.7-5.7,31-12.8,46-20.3c9-4.5,16.7-4.9,25.4,0.1c33.9,19.3,70.7,29.8,109.2,34.4c10.9,1.3,21.9,1.8,32.9,2.7
		c10.8,0.9,18.2,7.6,19.1,18.3c5.8,71,1,140.8-23.8,208.3c-16.7,45.6-42.5,85.1-81.1,115.4c-18.5,14.5-38.8,25.7-60.7,34.2
		c-5.7,2.2-11.2,2-17-0.2C181.8,438.1,138,391,111,327.2c-15.6-36.8-24.3-75.3-28.1-115C81.2,193.3,80.4,174.3,79.3,157.2z
		 M417.7,155.5c-0.9-15.5-1.8-30.9-2.5-46.4c-0.2-4.6-2.3-6.4-6.8-6.7c-10.6-0.7-21.3-1.2-31.9-2.5c-40.5-4.9-79.2-16-114.9-36.2
		c-4-2.3-7.1-2.2-11,0.1c-33.6,19-69.9,30-108,35.2c-12.8,1.8-25.9,2.5-38.8,3.4c-4.5,0.3-6.6,2.2-6.7,6.8
		c-0.1,3.8-0.6,7.6-0.9,11.5c-2.3,36-1.2,71.9,3.9,107.7c5.7,39.5,15.9,77.6,34.2,113.2c26,50.4,64.6,87.1,117.9,107.6
		c2.4,0.9,5.6,0.9,8,0c20.1-7.5,38.6-17.9,55.5-31.2c38.1-29.8,62.5-69.1,78.4-114.1C410.9,255.9,416.9,206.1,417.7,155.5z"/>
	<path class="st0" d="M150.7,247.7c-0.1-55.6,41.4-101.8,94.5-106.7c55.4-5.2,105.2,32.4,114.6,86.5c2.5,14.1,2.1,28.2-1.1,42.2
		c-1.5,6.6-4.7,9.3-9.6,8.3c-4.8-0.9-6.5-4.8-5.1-11.6c8.9-42.6-10.5-83.3-48.6-101.9c-60.3-29.5-131.1,15.7-129.8,82.8
		c0.7,39,25.4,72.3,62.6,84.6c36.1,11.9,76.1-0.6,99.7-31.3c0.6-0.8,1.2-1.6,1.8-2.4c3.2-3.7,7.1-4.4,10.6-1.9s4.1,7,1.2,11.1
		c-8.9,12.3-19.9,22.3-33.2,29.9c-65.9,37.6-148.6-4.5-157.2-79.9C150.8,253.7,150.8,249.9,150.7,247.7z"/>
	<path class="st0" d="M240.7,242.4c13.5-14.6,25.7-28,38.2-41.2c6.9-7.4,15.5-9.7,25.1-6.4c9.4,3.2,14.6,10.2,15.6,20.1
		c0.7,6.6-1.3,12.6-5.8,17.5c-18.2,19.8-36.2,39.6-54.7,59.1c-9,9.6-23.1,9.6-32.8,0.6c-9-8.4-17.9-17-26.6-25.7
		c-9.4-9.4-9.6-23.5-0.8-32.8c9-9.5,23.3-10,33.2-0.9C235,235.4,237.5,238.7,240.7,242.4z M305,217.6c-0.4-1.5-0.5-2.3-0.8-3.1
		c-2.3-6.5-9.8-8.1-14.8-2.8c-13.5,14.5-26.9,29.1-40.4,43.6c-5.4,5.8-8.9,5.8-14.7,0.2c-3.8-3.7-7.6-7.5-11.5-11.1
		c-4.7-4.4-9.6-4.6-13.2-0.8c-3.5,3.7-3.1,8.4,1.3,12.8c8.2,8,16.5,16,24.8,24c4.6,4.3,9.2,4.2,13.5-0.4
		c17.6-18.9,35.1-37.9,52.5-56.9C303.3,221.5,304.1,219.2,305,217.6z"/>
</g>
</svg>
