<svg xmlns="http://www.w3.org/2000/svg" width="44" height="44" viewBox="0 0 44 44">
  <g id="Group_3152" data-name="Group 3152" transform="translate(-1741 -3672)">
    <path id="Path_62" data-name="Path 62" d="M22,1a21.006,21.006,0,0,0-8.174,40.35A21.006,21.006,0,0,0,30.174,2.65,20.868,20.868,0,0,0,22,1m0-1A22,22,0,1,1,0,22,22,22,0,0,1,22,0Z" transform="translate(1741 3672)" fill="#fff"/>
    <g id="Layer_2" data-name="Layer 2" transform="translate(1753 3689)">
      <path id="Path_31" data-name="Path 31" d="M7.788,8.915a.712.712,0,0,1,0,1.012L4.511,13.2H21.28a.712.712,0,1,1,0,1.425H4.525l3.263,3.256a.71.71,0,0,1-1,1L2.253,14.357a.627.627,0,0,1,0-.9L6.776,8.915a.712.712,0,0,1,1.012,0Z" transform="translate(-2.06 -8.704)" fill="#fff"/>
    </g>
  </g>
</svg>
