<?xml version="1.0" encoding="utf-8"?>
<!-- Generator: Adobe Illustrator 25.4.1, SVG Export Plug-In . SVG Version: 6.00 Build 0)  -->
<svg version="1.1" id="Layer_1" xmlns="http://www.w3.org/2000/svg" xmlns:xlink="http://www.w3.org/1999/xlink" x="0px" y="0px"
	 viewBox="0 0 115.8 90" style="enable-background:new 0 0 115.8 90;" xml:space="preserve">
<style type="text/css">
	.st0{fill-rule:evenodd;clip-rule:evenodd;fill:#002581;}
</style>
<path id="Path_3343" class="st0" d="M63.7,41.2h5.6c2.7,0,5.3,1.1,7.2,3l0,0c1.9,1.9,3,4.5,3,7.2v14.3c0,2.7-1.1,5.3-3,7.2l0,0
	c-1.9,1.9-4.5,3-7.2,3H22.1c-5.6,0-10.2-4.6-10.2-10.2v-9.4h7.6v9.4c0,0.7,0.3,1.3,0.7,1.8c0.5,0.5,1.1,0.8,1.8,0.8h47.3
	c0.7,0,1.3-0.3,1.8-0.7v0c0.5-0.5,0.8-1.1,0.7-1.8V51.4c0-0.7-0.3-1.3-0.7-1.8v0c-0.5-0.5-1.1-0.7-1.8-0.7H46.5
	c-2.7,0-5.3-1.1-7.2-3c-1.9-1.9-3-4.5-3-7.2V24.4c0-5.6,4.6-10.2,10.2-10.2h47.3c5.6,0,10.2,4.6,10.2,10.2v9.4h-7.6v-9.4
	c0-0.7-0.3-1.3-0.7-1.8h0c-0.5-0.5-1.1-0.8-1.8-0.8H46.5c-0.7,0-1.3,0.3-1.8,0.7l0,0c-0.5,0.5-0.7,1.1-0.7,1.8v14.3
	c0,0.7,0.3,1.3,0.8,1.8c0.5,0.5,1.1,0.7,1.8,0.7L63.7,41.2z M83.1,77.2V28.1h7.6v49.1H83.1z M25.1,61.9V12.8h7.6v49.1H25.1z
	 M99.9,6.3H15.8c-5.2,0-9.5,4.3-9.5,9.5v58.3c0,2.5,1,5,2.8,6.7v0c1.8,1.8,4.2,2.8,6.7,2.8h84.1c2.5,0,4.9-1,6.7-2.8v0
	c1.8-1.8,2.8-4.2,2.8-6.7V15.9C109.4,10.6,105.2,6.4,99.9,6.3L99.9,6.3z M15.8,0h84.1c8.7,0,15.8,7.1,15.9,15.8v58.3
	c0,4.2-1.7,8.2-4.7,11.2v0c-3,3-7,4.7-11.2,4.7H15.8c-4.2,0-8.2-1.7-11.2-4.7v0c-3-3-4.7-7-4.7-11.2V15.9c0-4.2,1.7-8.2,4.7-11.2h0
	C7.6,1.7,11.7,0,15.8,0L15.8,0z"/>
</svg>
