<svg xmlns="http://www.w3.org/2000/svg" width="44" height="44" viewBox="0 0 44 44">
  <g id="Group_3151" data-name="Group 3151" transform="translate(-1800 -3672)">
    <g id="Path_68" data-name="Path 68" transform="translate(1800 3672)" fill="none">
      <path d="M22,0A22,22,0,1,1,0,22,22,22,0,0,1,22,0Z" stroke="none"/>
      <path d="M 22 1 C 19.16457939147949 1 16.41449928283691 1.555099487304688 13.8261604309082 2.649871826171875 C 11.32561111450195 3.707511901855469 9.079681396484375 5.221828460693359 7.150760650634766 7.150760650634766 C 5.221828460693359 9.079681396484375 3.707511901855469 11.32561111450195 2.649871826171875 13.8261604309082 C 1.555099487304688 16.41449928283691 1 19.16457939147949 1 22 C 1 24.83542060852051 1.555099487304688 27.58550071716309 2.649871826171875 30.1738395690918 C 3.707511901855469 32.67438125610352 5.221828460693359 34.92031097412109 7.150760650634766 36.84923934936523 C 9.079681396484375 38.77817153930664 11.32561111450195 40.29248046875 13.8261604309082 41.35012817382812 C 16.41449928283691 42.44490051269531 19.16457939147949 43 22 43 C 24.83542060852051 43 27.58550071716309 42.44490051269531 30.1738395690918 41.35012817382812 C 32.67438125610352 40.29248046875 34.92031097412109 38.77817153930664 36.84923934936523 36.84923934936523 C 38.77817153930664 34.92031097412109 40.29248046875 32.67438125610352 41.35012817382812 30.1738395690918 C 42.44490051269531 27.58550071716309 43 24.83542060852051 43 22 C 43 19.16457939147949 42.44490051269531 16.41449928283691 41.35012817382812 13.8261604309082 C 40.29248046875 11.32561111450195 38.77817153930664 9.079681396484375 36.84923934936523 7.150760650634766 C 34.92031097412109 5.221828460693359 32.67438125610352 3.707511901855469 30.1738395690918 2.649871826171875 C 27.58550071716309 1.555099487304688 24.83542060852051 1 22 1 M 22 0 C 34.15026092529297 0 44 9.8497314453125 44 22 C 44 34.15026092529297 34.15026092529297 44 22 44 C 9.8497314453125 44 0 34.15026092529297 0 22 C 0 9.8497314453125 9.8497314453125 0 22 0 Z" stroke="none" fill="#002581"/>
    </g>
    <g id="Layer_2" data-name="Layer 2" transform="translate(1812 3689)">
      <path id="Path_31" data-name="Path 31" d="M16.265,8.915a.712.712,0,0,0,0,1.012L19.542,13.2H2.772a.712.712,0,0,0,0,1.425H19.527l-3.263,3.256a.71.71,0,0,0,1,1L21.8,14.357a.627.627,0,0,0,0-.9L17.276,8.915a.712.712,0,0,0-1.012,0Z" transform="translate(-2.06 -8.704)" fill="#002581"/>
    </g>
  </g>
</svg>
