<svg xmlns="http://www.w3.org/2000/svg" width="382.423" height="280.235" viewBox="0 0 382.423 280.235">
  <g id="Group_9" data-name="Group 9" transform="translate(-848 -1889.309)">
    <text id="Years_of_" data-name="Years of " transform="translate(848 2093.813)" font-size="39" font-family="NeueHaasDisplay-Bold, Neue Haas Grotesk Display Pro" font-weight="700"><tspan x="0" y="0">Years of </tspan></text>
    <g id="Group_8" data-name="Group 8" transform="translate(848 1870)">
      <path id="_" data-name="+" d="M20.621-4h-8.98V-14.548H1.78v-8.467h9.861V-33.5h8.98v10.488h9.861v8.467H20.621Zm-7.98-1h6.98V-15.548h9.861v-6.467H19.621V-32.5h-6.98v10.488H2.78v6.467h9.861Z" transform="translate(189 52.813)"/>
      <path id="_19" data-name="19" d="M133.1,3.508a68.412,68.412,0,0,1-18.7-2.393,45.938,45.938,0,0,1-14.872-7.2A40.206,40.206,0,0,1,89.109-17.34a41.455,41.455,0,0,1-5.377-14.533l-.1-.587h31.051l.105.36c2.333,7.981,8.079,11.86,17.568,11.86,7.2,0,12.693-2.4,16.336-7.137l.013-.016c4.3-5.136,6.714-13.324,7.182-24.35a39.449,39.449,0,0,1-12.661,9.007,39.335,39.335,0,0,1-15.445,3.188v0l-1,0a52.157,52.157,0,0,1-18.006-3.179,46.388,46.388,0,0,1-15.3-9.549A41.652,41.652,0,0,1,83.2-66.973,48.6,48.6,0,0,1,79.776-85.54a46.348,46.348,0,0,1,3.685-18.743A42.029,42.029,0,0,1,94.518-119.1a49.83,49.83,0,0,1,16.782-9.614,64.8,64.8,0,0,1,20.864-3.2,63.3,63.3,0,0,1,22.171,3.651,47.012,47.012,0,0,1,9.121,4.573,45.407,45.407,0,0,1,7.788,6.4,46.416,46.416,0,0,1,7.478,9.462,58,58,0,0,1,5.334,11.84,81.919,81.919,0,0,1,3.193,14.2,121.678,121.678,0,0,1,1.062,16.554,112.976,112.976,0,0,1-3.354,28.893,69.355,69.355,0,0,1-4.2,11.646,54.16,54.16,0,0,1-5.895,9.772A46.208,46.208,0,0,1,166.9-6.857a44.818,44.818,0,0,1-9.625,5.763A52.1,52.1,0,0,1,146,2.359,69.34,69.34,0,0,1,133.1,3.508ZM84.824-31.46a38.646,38.646,0,0,0,15.3,24.573c8.395,6.234,19.49,9.4,32.978,9.4,17.926,0,31.708-6.07,40.964-18.042,8.787-11.51,13.244-28.233,13.244-49.7,0-23.312-5.641-40.585-16.768-51.34l-.011-.011c-9.258-9.505-22.168-14.325-38.37-14.325-14.97,0-27.415,4.228-36.99,12.567-9.554,8.321-14.4,19.358-14.4,32.8,0,13.328,4.5,24.274,13.377,32.534s20.031,12.462,33.123,12.462h0a37.315,37.315,0,0,0,28.4-12.436l.148-.16h1.111l-.017.516a63.451,63.451,0,0,1-2.134,15.256,28.744,28.744,0,0,1-5.308,10.609,18.219,18.219,0,0,1-7.192,5.644,24.665,24.665,0,0,1-9.93,1.875c-4.9,0-8.952-1.057-12.03-3.141a16.438,16.438,0,0,1-6.389-9.079ZM64.8.5H32.024V-81.844H4.388v-22.418l.486-.014c8.881-.247,16.441-2.556,22.471-6.863,6-4.288,9.793-10.632,11.266-18.857l.074-.412H64.8ZM33.024-.5H63.8V-129.408H39.52a33.039,33.039,0,0,1-3.982,10.849,27.277,27.277,0,0,1-7.611,8.234,36.016,36.016,0,0,1-10.437,5.1,47.327,47.327,0,0,1-12.1,1.933v20.448H33.024Zm99.892-62.356a26.42,26.42,0,0,1-9.461-1.608,20.249,20.249,0,0,1-7.348-4.842,21.427,21.427,0,0,1-4.691-7.338,25.5,25.5,0,0,1-1.56-9.084,24.191,24.191,0,0,1,1.61-8.95,21.474,21.474,0,0,1,4.835-7.29,21.255,21.255,0,0,1,7.387-4.836,25.48,25.48,0,0,1,9.228-1.608,25.861,25.861,0,0,1,9.273,1.608,22.109,22.109,0,0,1,7.525,4.832,21.32,21.32,0,0,1,4.98,7.339,24.2,24.2,0,0,1,1.658,9.094,24.023,24.023,0,0,1-1.658,9.071,20.909,20.909,0,0,1-4.982,7.27,22.15,22.15,0,0,1-7.525,4.759A26.2,26.2,0,0,1,132.916-62.856Zm0-44.556c-6.474,0-11.827,2.07-15.908,6.152a21.145,21.145,0,0,0-6.152,15.532c0,6.352,2.008,11.643,5.969,15.726s9.37,6.146,16.091,6.146c6.479,0,11.9-2.041,16.1-6.065s6.332-9.274,6.332-15.619a21.047,21.047,0,0,0-6.334-15.715C144.81-105.341,139.393-107.412,132.916-107.412Z" transform="translate(0 175.813)"/>
    </g>
    <path id="Excellence" d="M320.32,1.732A23.755,23.755,0,0,1,311.649.215a19.354,19.354,0,0,1-6.856-4.564,20.3,20.3,0,0,1-4.439-6.868,23.272,23.272,0,0,1-1.477-8.419,23.548,23.548,0,0,1,1.457-8.417,20.336,20.336,0,0,1,4.38-6.867,19.1,19.1,0,0,1,6.76-4.565A23.074,23.074,0,0,1,320.012-41a23.734,23.734,0,0,1,7.3,1.064,17.647,17.647,0,0,1,5.883,3.21,16.855,16.855,0,0,1,6.029,11.257l.07.562H326.233l-.087-.391c-.822-3.675-2.778-5.461-5.98-5.461a6.258,6.258,0,0,0-5.628,2.856c-1.3,1.961-1.957,4.743-1.957,8.271,0,3.474.67,6.216,1.992,8.149a6.3,6.3,0,0,0,5.593,2.824c3.744,0,5.824-2.073,6.357-6.338l.055-.438h12.97l-.017.516a16.163,16.163,0,0,1-5.518,11.945A17.612,17.612,0,0,1,327.942.56,23.5,23.5,0,0,1,320.32,1.732ZM320.012-40c-5.99,0-10.895,1.943-14.578,5.775a20.3,20.3,0,0,0-5.558,14.592,20.146,20.146,0,0,0,5.633,14.589C309.243-1.212,314.227.732,320.32.732c5.34,0,9.723-1.5,13.026-4.454a15.139,15.139,0,0,0,5.161-10.716H327.454a8.608,8.608,0,0,1-2.22,4.938,6.922,6.922,0,0,1-5.068,1.838,7.33,7.33,0,0,1-6.419-3.259c-1.437-2.1-2.166-5.035-2.166-8.714,0-3.728.715-6.7,2.124-8.823a7.281,7.281,0,0,1,6.461-3.3A6.524,6.524,0,0,1,324.7-30.17a8.376,8.376,0,0,1,2.331,4.26h11.12a15.793,15.793,0,0,0-5.6-10.049C329.323-38.642,325.1-40,320.012-40ZM110.572,1.732A23.756,23.756,0,0,1,101.9.215a19.354,19.354,0,0,1-6.856-4.564,20.3,20.3,0,0,1-4.439-6.868,23.272,23.272,0,0,1-1.477-8.419,23.547,23.547,0,0,1,1.457-8.417,20.335,20.335,0,0,1,4.38-6.867,19.1,19.1,0,0,1,6.76-4.565A23.074,23.074,0,0,1,110.264-41a23.734,23.734,0,0,1,7.3,1.064,17.646,17.646,0,0,1,5.883,3.21,16.855,16.855,0,0,1,6.029,11.257l.07.562H116.485L116.4-25.3c-.822-3.675-2.778-5.461-5.98-5.461a6.258,6.258,0,0,0-5.628,2.856c-1.3,1.96-1.957,4.743-1.957,8.271,0,3.474.67,6.216,1.992,8.149a6.3,6.3,0,0,0,5.593,2.824c3.744,0,5.824-2.073,6.357-6.338l.055-.438H129.8l-.017.516a16.163,16.163,0,0,1-5.518,11.945A17.612,17.612,0,0,1,118.194.56,23.5,23.5,0,0,1,110.572,1.732ZM110.264-40c-5.99,0-10.894,1.943-14.577,5.775a20.3,20.3,0,0,0-5.559,14.592A20.146,20.146,0,0,0,95.761-5.046C99.5-1.212,104.479.732,110.572.732c5.34,0,9.723-1.5,13.026-4.454a15.139,15.139,0,0,0,5.161-10.716H117.706a8.608,8.608,0,0,1-2.22,4.938,6.922,6.922,0,0,1-5.068,1.838A7.33,7.33,0,0,1,104-10.921c-1.437-2.1-2.166-5.035-2.166-8.714,0-3.728.715-6.7,2.124-8.823a7.281,7.281,0,0,1,6.461-3.3,6.524,6.524,0,0,1,4.532,1.592,8.376,8.376,0,0,1,2.331,4.26H128.4a15.793,15.793,0,0,0-5.6-10.049C119.575-38.642,115.356-40,110.264-40ZM362.285,1.655A24.353,24.353,0,0,1,353.51.149a19.121,19.121,0,0,1-6.868-4.536,20.052,20.052,0,0,1-4.411-6.879,23.871,23.871,0,0,1-1.467-8.523,23.418,23.418,0,0,1,1.448-8.359A20.4,20.4,0,0,1,346.562-35a19.109,19.109,0,0,1,6.651-4.565,21.965,21.965,0,0,1,8.3-1.519,22.03,22.03,0,0,1,7.583,1.262,18.732,18.732,0,0,1,6.229,3.8,20.351,20.351,0,0,1,5.407,8.226,32.236,32.236,0,0,1,1.685,11.322l-.006.494H354.175a10.374,10.374,0,0,0,2.614,5.5,7.594,7.594,0,0,0,5.649,2.122c3.043,0,5.034-1.186,6.086-3.625l.13-.3h13.208l-.15.618a16.133,16.133,0,0,1-6.824,9.61A21.485,21.485,0,0,1,362.285,1.655Zm-.77-41.734a18.875,18.875,0,0,0-14.23,5.774,20.276,20.276,0,0,0-5.521,14.516c0,5.945,1.882,10.893,5.595,14.7S356.089.655,362.285.655a20.508,20.508,0,0,0,12.033-3.528,15.241,15.241,0,0,0,6.259-8.408H369.306c-1.247,2.606-3.555,3.927-6.867,3.927a8.555,8.555,0,0,1-6.363-2.421A11.7,11.7,0,0,1,353.09-16.4L353-16.978h28.42c.005-8.04-2.271-14.2-6.77-18.3A18.812,18.812,0,0,0,361.515-40.079ZM233.387,1.655A24.352,24.352,0,0,1,224.612.149a19.122,19.122,0,0,1-6.868-4.536,20.054,20.054,0,0,1-4.411-6.879,23.871,23.871,0,0,1-1.467-8.523,23.417,23.417,0,0,1,1.448-8.359A20.4,20.4,0,0,1,217.664-35a19.109,19.109,0,0,1,6.651-4.565,21.965,21.965,0,0,1,8.3-1.519,22.03,22.03,0,0,1,7.583,1.262,18.732,18.732,0,0,1,6.229,3.8,20.351,20.351,0,0,1,5.407,8.226,32.237,32.237,0,0,1,1.685,11.322l-.006.494H225.277a10.375,10.375,0,0,0,2.614,5.5,7.594,7.594,0,0,0,5.649,2.122c3.043,0,5.034-1.186,6.086-3.625l.13-.3h13.208l-.15.618a16.133,16.133,0,0,1-6.824,9.61A21.485,21.485,0,0,1,233.387,1.655Zm-.77-41.734a18.875,18.875,0,0,0-14.23,5.774,20.276,20.276,0,0,0-5.521,14.516c0,5.945,1.882,10.893,5.595,14.7S227.191.655,233.387.655A20.508,20.508,0,0,0,245.42-2.873a15.241,15.241,0,0,0,6.259-8.408H240.408c-1.247,2.606-3.555,3.927-6.867,3.927a8.555,8.555,0,0,1-6.363-2.421,11.7,11.7,0,0,1-2.987-6.628l-.087-.575h28.42c.005-8.04-2.271-14.2-6.77-18.3A18.812,18.812,0,0,0,232.617-40.079ZM152.537,1.655A24.353,24.353,0,0,1,143.762.149a19.122,19.122,0,0,1-6.868-4.536,20.052,20.052,0,0,1-4.411-6.879,23.871,23.871,0,0,1-1.467-8.523,23.417,23.417,0,0,1,1.448-8.359A20.4,20.4,0,0,1,136.814-35a19.109,19.109,0,0,1,6.651-4.565,21.965,21.965,0,0,1,8.3-1.519,22.03,22.03,0,0,1,7.583,1.262,18.732,18.732,0,0,1,6.229,3.8,20.351,20.351,0,0,1,5.407,8.226,32.236,32.236,0,0,1,1.685,11.322l-.006.494H144.427a10.375,10.375,0,0,0,2.614,5.5,7.594,7.594,0,0,0,5.649,2.122c3.043,0,5.034-1.186,6.086-3.625l.13-.3h13.208l-.15.618a16.133,16.133,0,0,1-6.824,9.61A21.485,21.485,0,0,1,152.537,1.655Zm-.77-41.734a18.875,18.875,0,0,0-14.23,5.774,20.276,20.276,0,0,0-5.521,14.516c0,5.945,1.882,10.893,5.595,14.7S146.341.655,152.537.655A20.508,20.508,0,0,0,164.57-2.873a15.241,15.241,0,0,0,6.259-8.408H159.558c-1.247,2.606-3.555,3.927-6.867,3.927a8.554,8.554,0,0,1-6.363-2.421,11.7,11.7,0,0,1-2.987-6.628l-.087-.575h28.42c.005-8.04-2.271-14.2-6.77-18.3A18.812,18.812,0,0,0,151.767-40.079ZM295.949.5H282.4V-23.1a7.286,7.286,0,0,0-1.462-4.8,5.12,5.12,0,0,0-4.2-1.707,5.683,5.683,0,0,0-4.621,2.13,8.627,8.627,0,0,0-1.809,5.686V.5H256.757V-39.924h13.089v4.683a15.437,15.437,0,0,1,4.807-4.143,14.791,14.791,0,0,1,7.09-1.7c4.39,0,7.9,1.443,10.422,4.288,2.511,2.828,3.784,6.579,3.784,11.15ZM283.4-.5h11.551V-25.641c0-4.319-1.188-7.847-3.531-10.487-2.328-2.622-5.583-3.951-9.675-3.951a13.694,13.694,0,0,0-11.755,6.33l-.149.215h-.993v-5.39H257.757V-.5h11.551V-21.791a9.593,9.593,0,0,1,2.041-6.326,6.714,6.714,0,0,1,5.389-2.49,6.136,6.136,0,0,1,4.965,2.066,8.245,8.245,0,0,1,1.7,5.441ZM208.554.5h-13.7V-55.555h13.7Zm-12.7-1h11.7V-54.555h-11.7Zm-6.16,1H175.984V-55.555h13.705Zm-12.705-1h11.705V-54.555H176.984ZM91.852.5H76.088L69.821-10.915,62.882.5H47.965L62-20.713,49.273-39.924H64.815l5.63,9.779,5.334-9.779h14.37L78.132-20.869ZM76.68-.5H90.022L76.946-20.865l11.39-18.059H76.373L70.829-28.76h-.74L64.237-38.924h-13.1L63.2-20.713l-.183.276L49.825-.5H62.32l7.161-11.781h.731ZM46.469.5H3.273V-55.555H46.007v12.242H17.9v8.856H42v11.626H17.9V-12.05H46.469Zm-42.2-1h41.2V-11.05H16.9V-23.831H41v-9.626H16.9V-44.313h28.1V-54.555H4.273ZM369.76-23.447h-16.7l.106-.589a10.771,10.771,0,0,1,2.862-6.049,7.979,7.979,0,0,1,5.716-2.063,7.391,7.391,0,0,1,5.477,2.229,9.349,9.349,0,0,1,2.49,5.928Zm-15.491-1h14.388a8.13,8.13,0,0,0-2.148-4.771,6.342,6.342,0,0,0-4.764-1.929C357.692-31.147,355.242-28.954,354.269-24.447Zm-113.407,1h-16.7l.106-.589a10.771,10.771,0,0,1,2.861-6.049,7.979,7.979,0,0,1,5.716-2.063,7.391,7.391,0,0,1,5.477,2.229,9.348,9.348,0,0,1,2.49,5.928Zm-15.491-1H239.76a8.13,8.13,0,0,0-2.148-4.771,6.342,6.342,0,0,0-4.764-1.929C228.794-31.147,226.344-28.954,225.371-24.447Zm-65.359,1h-16.7l.106-.589a10.77,10.77,0,0,1,2.861-6.049A7.979,7.979,0,0,1,152-32.147a7.391,7.391,0,0,1,5.477,2.229,9.348,9.348,0,0,1,2.49,5.928Zm-15.491-1H158.91a8.129,8.129,0,0,0-2.148-4.771A6.343,6.343,0,0,0,152-31.147C147.944-31.147,145.494-28.954,144.521-24.447Z" transform="translate(848 2166.813)"/>
    <path id="Excel" d="M110.572,2.732c-6.653,0-12.118-2.147-16.244-6.382a22.08,22.08,0,0,1-6.2-15.985,22.234,22.234,0,0,1,6.116-15.977c4.075-4.24,9.464-6.39,16.02-6.39,5.571,0,10.22,1.515,13.818,4.5a17.825,17.825,0,0,1,6.382,11.9l.068.547a21.377,21.377,0,0,1,5.559-10.636,20.8,20.8,0,0,1,15.677-6.393,20.751,20.751,0,0,1,14.487,5.321,21.341,21.341,0,0,1,5.673,8.624,33.225,33.225,0,0,1,1.745,11.674l-.018,1.482h-27.97a8.647,8.647,0,0,0,2.07,3.8,6.55,6.55,0,0,0,4.936,1.823c2.637,0,4.279-.96,5.168-3.021l.391-.906h15.138l-.451,1.855a17.1,17.1,0,0,1-7.225,10.2,22.467,22.467,0,0,1-13.175,3.886c-6.756,0-12.26-2.134-16.359-6.344a21.09,21.09,0,0,1-5.472-9.975,17.009,17.009,0,0,1-5.774,11.432C121.251,1.062,116.419,2.732,110.572,2.732ZM110.264-39c-5.788,0-10.32,1.789-13.856,5.468a19.083,19.083,0,0,0-5.28,13.9,18.933,18.933,0,0,0,5.35,13.891c3.589,3.685,8.2,5.476,14.094,5.476,5.087,0,9.245-1.413,12.359-4.2a13.88,13.88,0,0,0,4.734-8.971h-9.127a9.059,9.059,0,0,1-2.349,4.649,7.883,7.883,0,0,1-5.771,2.127,9.084,9.084,0,0,1-4.143-.922,8.285,8.285,0,0,1-3.1-2.773c-1.553-2.272-2.341-5.394-2.341-9.278,0-3.927.77-7.082,2.29-9.375a8.147,8.147,0,0,1,3.1-2.818,9.152,9.152,0,0,1,4.194-.933c2.695,0,6.105,1.052,7.618,5.852H127.2a14.447,14.447,0,0,0-5.034-8.28C119.12-37.72,115.116-39,110.264-39Zm41.5-.077c-5.578,0-10,1.788-13.506,5.465a19.061,19.061,0,0,0-5.245,13.825c0,5.755,1.737,10.337,5.311,14.007s8.211,5.437,14.21,5.437A19.53,19.53,0,0,0,164-3.692L164-3.7a14.312,14.312,0,0,0,5.432-6.583h-9.274a7.411,7.411,0,0,1-2.638,2.732,9.274,9.274,0,0,1-4.833,1.2,9.517,9.517,0,0,1-7.076-2.72,12.664,12.664,0,0,1-3.263-7.18l-.26-1.724h28.571c-.176-7.257-2.336-12.825-6.433-16.565A17.613,17.613,0,0,0,151.767-39.079Zm-41.349,9.317a5.323,5.323,0,0,0-4.794,2.408c-1.188,1.794-1.791,4.391-1.791,7.719,0,3.269.611,5.821,1.817,7.585a5.367,5.367,0,0,0,4.768,2.388c3.238,0,4.892-1.685,5.365-5.462l.164-1.314h14.265a28.036,28.036,0,0,1-.2-3.351,26.708,26.708,0,0,1,.31-4.121H115.684l-.262-1.173C114.494-29.23,112.261-29.762,110.418-29.762ZM190.689,1.5H174.984V-56.555h15.705Zm-12.705-3h9.705V-53.555h-9.705Zm-84.3,3H75.5L69.777-8.918,63.445,1.5H2.273V-56.555H47.007v14.242H18.9v6.856H43v13.626H18.9v8.781H47.469V-.563L60.8-20.712,47.411-40.924H65.393l5.029,8.734,4.764-8.734H91.962L79.317-20.874Zm-16.411-3h10.92L75.761-20.86,86.524-37.924H76.966L71.422-27.76H69.511L63.659-37.924H53l11.4,17.21L51.686-1.5H61.757l7.161-11.781H70.8Zm-72,0h39.2v-8.55H15.9V-24.831H40v-7.626H15.9V-45.313H44.007v-8.242H5.273ZM161.1-22.447H142.119l.318-1.766c1.329-7.384,5.933-8.934,9.561-8.934a8.357,8.357,0,0,1,6.191,2.528,10.318,10.318,0,0,1,2.772,6.542Zm-15.284-3h11.887a6.54,6.54,0,0,0-1.659-3.07,5.389,5.389,0,0,0-4.05-1.63C149.923-30.147,147.147-29.619,145.819-25.447Z" transform="translate(848 2166.813)"/>
  </g>
</svg>
