<svg id="International_Electrotechnical_Commission_Logo" xmlns="http://www.w3.org/2000/svg" width="90" height="90" viewBox="0 0 90 90">
  <path id="Path_3147" data-name="Path 3147" d="M0,90H90V0H0Z" fill="#0060aa"/>
  <g id="Group_3175" data-name="Group 3175" transform="translate(9.744 17.85)">
    <path id="Path_3148" data-name="Path 3148" d="M50.716,86.521h-7.4v36.457h7.4Z" transform="translate(-43.315 -84.904)" fill="#fff"/>
    <path id="Path_3149" data-name="Path 3149" d="M141.675,82.719H123.656a4.866,4.866,0,0,0-4.3,4.7v26.728c0,2.179,1.979,5.831,5.37,5.831h17.3V116.9H129.75c-2.173,0-3.209-1.049-3.209-2.373v-9.971c0-1.043-.443-2.753.862-2.753h10.8V99.045H127.665c-1.392,0-1.124-1-1.124-1.848v-8.4c0-.949-.031-2.585,1.8-2.585h13.337Z" transform="translate(-102.244 -81.958)" fill="#fff"/>
    <path id="Path_3150" data-name="Path 3150" d="M256.035,86.172a15.466,15.466,0,0,0-13.062-6.837c-7.392,0-17.058,6.93-17.058,19.748,0,13.954,10.964,19.08,17.582,19.08,10.1,0,13.755-9.4,13.755-9.4l-1.742-1.617s-4.639,8.31-11.557,8.31c-4.264,0-11.076-4.227-11.076-16.377,0-13.486,5.769-16.9,11.076-16.9,6.531,0,10.252,5.888,10.252,5.888Z" transform="translate(-184.829 -79.335)" fill="#fff"/>
    <path id="Path_3151" data-name="Path 3151" d="M321.259,297.728a5.34,5.34,0,1,0-5.1-5.332,5.22,5.22,0,0,0,5.1,5.332" transform="translate(-254.767 -240.32)" fill="#fff"/>
    <path id="Path_3152" data-name="Path 3152" d="M43.311,296.672v1.542l61.094.025a8.034,8.034,0,0,1-1.118-1.542Zm59.117-4.558H43.311v1.754H102.4a7.611,7.611,0,0,1-.074-.762,7.415,7.415,0,0,1,.1-.993m-59.117-4.14v1.567h59.933s.037-.05.1-.125a7.505,7.505,0,0,1,1.055-1.442Z" transform="translate(-43.309 -241.031)" fill="#fff"/>
  </g>
</svg>
