<svg xmlns="http://www.w3.org/2000/svg" width="97.333" height="75.668" viewBox="0 0 97.333 75.668">
  <path id="Path_3399" data-name="Path 3399" d="M431.022,72.284H435.7a8.531,8.531,0,0,1,6.04,2.529l.016-.016a8.51,8.51,0,0,1,2.5,6.041v12a8.507,8.507,0,0,1-2.5,6.025l-.016.015a8.582,8.582,0,0,1-6.04,2.514H395.97a8.581,8.581,0,0,1-8.553-8.554V84.908h6.4v7.926a2.1,2.1,0,0,0,.623,1.515,2.174,2.174,0,0,0,1.53.638H435.7a2.117,2.117,0,0,0,1.53-.623v-.015a2.085,2.085,0,0,0,.623-1.515v-12a2.14,2.14,0,0,0-.623-1.515v-.015a2.189,2.189,0,0,0-1.53-.627H416.492a8.6,8.6,0,0,1-6.04-2.509,8.464,8.464,0,0,1-2.513-6.041V58.146a8.579,8.579,0,0,1,8.553-8.553h39.729a8.579,8.579,0,0,1,8.553,8.553v7.91h-6.383v-7.91a2.193,2.193,0,0,0-.624-1.53h-.015a2.169,2.169,0,0,0-1.53-.639H416.492a2.153,2.153,0,0,0-1.514.623l-.016.015a2.128,2.128,0,0,0-.623,1.53V70.131a2.2,2.2,0,0,0,.64,1.53,2.1,2.1,0,0,0,1.514.623Zm16.243,30.29V61.25h6.4v41.324Zm-48.734-12.86V48.39h6.4V89.715Zm62.9-46.738H390.756a8.021,8.021,0,0,0-7.99,8.006v49a8,8,0,0,0,2.341,5.666v-.013a8.006,8.006,0,0,0,5.648,2.353h70.679a7.973,7.973,0,0,0,5.649-2.353v.013a8.014,8.014,0,0,0,2.357-5.666v-49a8.048,8.048,0,0,0-8.006-8.006Zm-70.679-5.321h70.679a13.375,13.375,0,0,1,13.328,13.327v49a13.27,13.27,0,0,1-3.92,9.412v.016a13.308,13.308,0,0,1-9.408,3.915H390.756a13.337,13.337,0,0,1-9.408-3.915v-.016a13.274,13.274,0,0,1-3.919-9.412v-49a13.3,13.3,0,0,1,3.919-9.412h.016a13.243,13.243,0,0,1,9.408-3.915Z" transform="translate(-377.429 -37.656)" fill="#002581" fill-rule="evenodd"/>
</svg>
