<svg xmlns="http://www.w3.org/2000/svg" width="79.741" height="72.5" viewBox="0 0 79.741 72.5">
  <g id="mission" transform="translate(0 -23.2)">
    <g id="Group_3225" data-name="Group 3225" transform="translate(0 23.2)">
      <g id="Group_3224" data-name="Group 3224">
        <path id="Path_3225" data-name="Path 3225" d="M108.46,117.845V110.48a4.094,4.094,0,0,0-4.08-4.08H84.48a4.084,4.084,0,0,0-4.08,4.08v7.365a4.094,4.094,0,0,0,4.08,4.08h19.9A4.084,4.084,0,0,0,108.46,117.845Zm-25.537,0V110.48a1.562,1.562,0,0,1,1.557-1.557h19.9a1.562,1.562,0,0,1,1.557,1.557v7.365a1.562,1.562,0,0,1-1.557,1.557H84.48A1.562,1.562,0,0,1,82.923,117.845Z" transform="translate(-67.881 -93.445)" fill="#fff"/>
        <path id="Path_3226" data-name="Path 3226" d="M145.515,326.6h-7.054a1.261,1.261,0,1,0,0,2.523h7.054a1.261,1.261,0,1,0,0-2.523Z" transform="translate(-115.836 -279.357)" fill="#fff"/>
        <path id="Path_3227" data-name="Path 3227" d="M145.515,361.4h-7.054a1.261,1.261,0,1,0,0,2.523h7.054a1.261,1.261,0,1,0,0-2.523Z" transform="translate(-115.836 -308.738)" fill="#fff"/>
        <path id="Path_3228" data-name="Path 3228" d="M75.646,38.382H54.609a4.028,4.028,0,0,0-1.557.311V37.417a1.261,1.261,0,0,0-2.523,0V67.391a3.654,3.654,0,0,0-.7.343,1.641,1.641,0,0,1-.841.187c-1.573,0-3.955-1.183-6.353-3.161a4.176,4.176,0,0,0-2.663-.965,4.073,4.073,0,0,0-1.682.358,7,7,0,0,0-2.647-1.666,20.718,20.718,0,1,0-18.172-.016,6.964,6.964,0,0,0-1.837.981,4.438,4.438,0,0,0-1.37-.234,4.238,4.238,0,0,0-1.246.187C4.874,65.943,0,70.77,0,76.329a4.2,4.2,0,0,0,8.409,0c0-1.012,1.557-2.523,4.267-3.8V91.62a4.084,4.084,0,0,0,4.08,4.08h2.04a4.084,4.084,0,0,0,4.08-4.08V86.762H30.24V91.62a4.084,4.084,0,0,0,4.08,4.08h2.04a4.084,4.084,0,0,0,4.08-4.08V73.5A16.549,16.549,0,0,0,49,76.3a9.92,9.92,0,0,0,1.526-.109v18.25a1.261,1.261,0,1,0,2.523,0V75.489a8.777,8.777,0,0,0,1.137-.592,4.19,4.19,0,0,0-1.121-7.646V56.943a4.028,4.028,0,0,0,1.557.311H58.86a1.261,1.261,0,1,0,0-2.523H54.624a1.562,1.562,0,0,1-1.557-1.557v-10.7a1.562,1.562,0,0,1,1.557-1.557H75.661a1.562,1.562,0,0,1,1.557,1.557v10.7a1.562,1.562,0,0,1-1.557,1.557H62.971a1.261,1.261,0,1,0,0,2.523H75.661a4.084,4.084,0,0,0,4.08-4.08v-10.7A4.12,4.12,0,0,0,75.646,38.382Zm-67.268,5.5A18.172,18.172,0,1,1,26.549,62.051,18.192,18.192,0,0,1,8.377,43.879Zm6.384,25.148h0c-.218.062-.42.14-.607.2-.016,0-.031.016-.047.016-5.092,1.713-8.222,4.391-8.222,7.085a1.682,1.682,0,0,1-3.363,0c0-4.391,4.2-8.315,11.243-10.5a1.755,1.755,0,0,1,.5-.078,1.554,1.554,0,0,1,.841.234c.016.016.031.016.047.031a1.6,1.6,0,0,1,.483.452h0a.87.87,0,0,1,.078.125c.016.016.016.031.031.047l.047.093c0,.016.016.031.016.047a1.616,1.616,0,0,1,.062.156,1.845,1.845,0,0,1,.078.5.758.758,0,0,1-.016.187,1.68,1.68,0,0,1-.856,1.277A1.856,1.856,0,0,1,14.762,69.026Zm5.59,22.594a1.562,1.562,0,0,1-1.557,1.557h-2.04A1.562,1.562,0,0,1,15.2,91.62V86.762h5.154Zm17.564,0a1.562,1.562,0,0,1-1.557,1.557h-2.04a1.562,1.562,0,0,1-1.557-1.557V86.762h5.154Zm0-7.365H15.182V71.533a2.683,2.683,0,0,0,.327-.109,4.2,4.2,0,0,0,2.959-4,4.316,4.316,0,0,0-.187-1.246h0a2.271,2.271,0,0,0-.109-.3.487.487,0,0,0-.078-.156c-.016-.047-.031-.078-.047-.125-.031-.078-.078-.14-.109-.218-.016-.016-.016-.031-.031-.047a2.181,2.181,0,0,0-.156-.249,4.651,4.651,0,0,1,2.149-.514H33.183a4.694,4.694,0,0,1,3.177,1.23v.016c-.047.078-.093.171-.14.265-.016.016-.016.031-.031.062-.047.093-.078.171-.125.265,0,.016-.016.031-.016.047-.031.078-.062.171-.093.265,0,.016-.016.031-.016.047-.031.093-.047.187-.078.28,0,.016-.016.047-.016.062a1.68,1.68,0,0,0-.047.3v.031c-.016.093-.016.187-.031.28v.062a1.876,1.876,0,0,0,0,.3v.062a2.087,2.087,0,0,0,.016.311,4.142,4.142,0,0,0,1.51,2.834c.187.156.374.311.561.452.016.016.047.031.062.047V84.255ZM53.441,70.428a1.673,1.673,0,0,1-.561,2.3,7.4,7.4,0,0,1-3.862,1.043c-2.818,0-6.011-1.324-9.3-3.862-.078-.062-.14-.109-.218-.171-.2-.156-.4-.311-.592-.483a1.684,1.684,0,0,1-.607-1.137c0-.062-.016-.109-.016-.171h0a1.676,1.676,0,0,1,.389-1.059l.093-.093.093-.093.016-.016a1.652,1.652,0,0,1,2.149-.016c2.912,2.414,5.746,3.737,7.957,3.737a4.018,4.018,0,0,0,2.149-.561,1.781,1.781,0,0,1,.607-.218h.047c.078,0,.156-.016.234-.016A1.716,1.716,0,0,1,53.441,70.428Z" transform="translate(0 -23.2)" fill="#fff"/>
      </g>
    </g>
  </g>
</svg>
