<svg xmlns="http://www.w3.org/2000/svg" width="76" height="76" viewBox="0 0 76 76">
  <g id="values" transform="translate(-0.1 0.1)">
    <g id="Group_3229" data-name="Group 3229" transform="translate(0.1 -0.1)">
      <g id="Group_3228" data-name="Group 3228" transform="translate(0 0)">
        <path id="Path_3233" data-name="Path 3233" d="M203.559,194.2a9.159,9.159,0,1,0,6.709,15.393,1.2,1.2,0,1,0-1.752-1.633,6.682,6.682,0,0,1-4.958,2.152,6.754,6.754,0,1,1,6.754-6.754,7.109,7.109,0,0,1-.208,1.677,1.2,1.2,0,0,0,2.316.594,8.982,8.982,0,0,0,.282-2.271A9.151,9.151,0,0,0,203.559,194.2Z" transform="translate(-165.559 -165.359)" fill="#fff"/>
        <path id="Path_3234" data-name="Path 3234" d="M76.1,37.9c0-4.409-3.533-8.491-9.99-11.608,2.36-6.769,1.974-12.157-1.143-15.259A10.014,10.014,0,0,0,57.59,8.361,24.26,24.26,0,0,0,49.708,9.89C46.591,3.433,42.509-.1,38.1-.1S29.609,3.433,26.492,9.89A24.405,24.405,0,0,0,18.61,8.361a9.954,9.954,0,0,0-7.377,2.672c-3.117,3.117-3.5,8.505-1.143,15.259C3.633,29.409.1,33.491.1,37.9s3.533,8.491,9.99,11.608c-2.36,6.769-1.974,12.157,1.143,15.259a10.014,10.014,0,0,0,7.377,2.672h0a24.26,24.26,0,0,0,7.882-1.529c3.117,6.457,7.2,9.99,11.608,9.99s8.491-3.533,11.608-9.99a24.405,24.405,0,0,0,7.882,1.529,9.954,9.954,0,0,0,7.377-2.672c3.117-3.117,3.5-8.505,1.143-15.259C72.567,46.391,76.1,42.309,76.1,37.9ZM57.59,10.766a7.731,7.731,0,0,1,5.685,1.959c2.479,2.479,2.538,7.066.623,12.588a55.228,55.228,0,0,0-10.227-2.984,55.207,55.207,0,0,0-3-10.257A21.55,21.55,0,0,1,57.59,10.766Zm-2.509,24.27c.742.95,1.44,1.9,2.123,2.85-.668.95-1.38,1.9-2.108,2.865.03-.935.045-1.885.045-2.835C55.126,36.935,55.111,35.985,55.081,35.035Zm3.563,4.973a52.434,52.434,0,0,1,4.409,8.209A54.211,54.211,0,0,1,54.131,50.9c.312-1.959.549-3.993.727-6.071C56.209,43.244,57.471,41.626,58.644,40.008Zm-.015-4.245c-1.173-1.618-2.434-3.221-3.785-4.795-.163-2.078-.416-4.1-.727-6.071a52.657,52.657,0,0,1,8.906,2.672A52.5,52.5,0,0,1,58.629,35.763ZM48.446,48.246c-1.425,1.425-2.895,2.791-4.364,4.067-1.945.148-3.948.223-5.982.223s-4.038-.074-5.982-.223c-1.47-1.277-2.939-2.642-4.364-4.067s-2.791-2.895-4.067-4.379c-.148-1.945-.223-3.948-.223-5.967s.074-4.023.223-5.967c1.277-1.484,2.627-2.939,4.067-4.379s2.895-2.791,4.364-4.067c1.945-.148,3.948-.223,5.982-.223s4.038.074,5.982.223c1.47,1.277,2.939,2.642,4.364,4.067s2.791,2.88,4.067,4.364c.148,1.945.223,3.948.223,5.982s-.074,4.023-.223,5.967C51.237,45.352,49.871,46.806,48.446,48.246Zm3.666-.341c-.148,1.188-.327,2.36-.52,3.488-1.143.193-2.3.371-3.488.52.683-.638,1.366-1.306,2.034-1.974S51.474,48.588,52.113,47.9ZM40.965,54.881c-.95.742-1.915,1.455-2.865,2.138-.95-.668-1.915-1.38-2.865-2.138.95.03,1.9.045,2.865.045S40.015,54.911,40.965,54.881ZM28.1,51.913c-1.188-.148-2.36-.327-3.488-.52-.193-1.143-.371-2.3-.52-3.488.638.683,1.306,1.366,1.974,2.034S27.4,51.274,28.1,51.913ZM24.073,27.9c.148-1.188.327-2.36.52-3.488,1.143-.193,2.3-.371,3.488-.52-.683.638-1.366,1.306-2.034,1.974S24.726,27.213,24.073,27.9Zm11.163-6.977c.95-.742,1.915-1.455,2.865-2.138.95.668,1.915,1.38,2.865,2.138-.95-.03-1.9-.045-2.865-.045S36.17,20.874,35.235,20.919ZM48.1,23.873c1.188.148,2.36.327,3.488.52.193,1.143.371,2.3.52,3.488-.638-.683-1.306-1.366-1.974-2.034S48.788,24.526,48.1,23.873Zm3-2c-1.959-.312-3.993-.549-6.071-.727-1.6-1.351-3.206-2.627-4.824-3.785a52.166,52.166,0,0,1,8.209-4.423A53.536,53.536,0,0,1,51.1,21.869ZM38.1,2.3c3.518,0,6.8,3.206,9.352,8.461A56.627,56.627,0,0,0,38.1,15.887a54.982,54.982,0,0,0-9.352-5.121C31.3,5.511,34.582,2.3,38.1,2.3ZM27.784,12.933a52.166,52.166,0,0,1,8.209,4.423c-1.618,1.173-3.236,2.434-4.824,3.785-2.078.163-4.112.416-6.071.727A50.881,50.881,0,0,1,27.784,12.933Zm-14.859-.208a7.707,7.707,0,0,1,5.685-1.959,22.037,22.037,0,0,1,6.917,1.306,56.365,56.365,0,0,0-3,10.257A56.393,56.393,0,0,0,12.3,25.313C10.387,19.791,10.431,15.2,12.925,12.725ZM21.1,40.735c-.742-.95-1.44-1.9-2.108-2.835.668-.95,1.366-1.885,2.108-2.835-.03.935-.045,1.885-.045,2.835S21.074,39.8,21.1,40.735Zm.238,4.1c.163,2.078.416,4.1.727,6.071a52.656,52.656,0,0,1-8.906-2.672,53.244,53.244,0,0,1,4.409-8.194C18.729,41.656,19.991,43.259,21.341,44.832Zm0-13.879c-1.351,1.588-2.613,3.191-3.785,4.795a53.244,53.244,0,0,1-4.409-8.194,52.656,52.656,0,0,1,8.906-2.672C21.742,26.856,21.5,28.89,21.341,30.953ZM2.49,37.9c0-3.518,3.206-6.784,8.446-9.352A56.439,56.439,0,0,0,16.057,37.9a55.853,55.853,0,0,0-5.121,9.352C5.7,44.684,2.49,41.418,2.49,37.9ZM18.6,65.034a7.731,7.731,0,0,1-5.685-1.959c-2.479-2.479-2.538-7.066-.638-12.588A55.228,55.228,0,0,0,22.5,53.471a55.207,55.207,0,0,0,3,10.257A21.8,21.8,0,0,1,18.6,65.034Zm6.487-11.1c1.959.312,3.993.549,6.071.727,1.6,1.351,3.206,2.627,4.824,3.785a52.166,52.166,0,0,1-8.209,4.423A54.4,54.4,0,0,1,25.082,53.931ZM38.1,73.5c-3.518,0-6.8-3.206-9.352-8.461A56.627,56.627,0,0,0,38.1,59.913a54.982,54.982,0,0,0,9.352,5.121C44.884,70.289,41.618,73.5,38.1,73.5ZM48.416,62.867a52.165,52.165,0,0,1-8.209-4.423c1.618-1.173,3.236-2.434,4.824-3.785,2.078-.163,4.112-.416,6.071-.727A54.4,54.4,0,0,1,48.416,62.867Zm14.844.208a7.707,7.707,0,0,1-5.685,1.959,22.038,22.038,0,0,1-6.917-1.306,55.207,55.207,0,0,0,3-10.257,55.381,55.381,0,0,0,10.242-3C65.843,56.173,65.635,60.7,63.26,63.075Zm1.974-15.838a56.438,56.438,0,0,0-5.121-9.352,55.852,55.852,0,0,0,5.121-9.352c5.255,2.553,8.446,5.834,8.446,9.352S70.489,44.684,65.234,47.237Z" transform="translate(-0.1 0.1)" fill="#fff"/>
      </g>
    </g>
  </g>
</svg>
