<svg xmlns="http://www.w3.org/2000/svg" width="76" height="73.108" viewBox="0 0 76 73.108">
  <g id="vision" transform="translate(-0.1 -9.775)">
    <g id="Group_3227" data-name="Group 3227" transform="translate(0.1 9.775)">
      <g id="Group_3226" data-name="Group 3226" transform="translate(0)">
        <path id="Path_3229" data-name="Path 3229" d="M222.892,125.8a6.192,6.192,0,1,0,6.192,6.192A6.2,6.2,0,0,0,222.892,125.8Zm0,9.979a3.787,3.787,0,1,1,3.787-3.787A3.783,3.783,0,0,1,222.892,135.779Z" transform="translate(-184.536 -108.571)" fill="#fff"/>
        <path id="Path_3230" data-name="Path 3230" d="M141.841,62.064V44.289a1.191,1.191,0,0,0-.356-.846L129.932,31.934V29.395A21.689,21.689,0,0,0,117.755,9.9a1.2,1.2,0,0,0-1.054,0,21.689,21.689,0,0,0-12.177,19.5v2.539L92.956,43.428a1.217,1.217,0,0,0-.356.846V62.049a1.2,1.2,0,0,0,1.2,1.2h10.721V63.3a4.246,4.246,0,0,0,4.247,4.247h1.782a11,11,0,0,0-1.084,4.782A11.2,11.2,0,0,0,116.8,82.809a1.288,1.288,0,0,0,.416.074,1.364,1.364,0,0,0,.416-.074,11.166,11.166,0,0,0,7.336-10.484,11,11,0,0,0-1.084-4.782h1.782a4.246,4.246,0,0,0,4.247-4.247v-.03h10.721A1.207,1.207,0,0,0,141.841,62.064Zm-37.332-3.386v2.183H94.991V44.794l9.519-9.459Zm4.247,6.474a1.851,1.851,0,0,1-1.841-1.841v-3.43H116v5.272Zm8.464,15.25a8.78,8.78,0,0,1-5.346-8.048,8.575,8.575,0,0,1,1.4-4.722h2.747V69.86a1.2,1.2,0,1,0,2.406,0V67.633h2.747a8.7,8.7,0,0,1,1.4,4.722A8.8,8.8,0,0,1,117.221,80.4Zm10.291-17.092h0a1.851,1.851,0,0,1-1.841,1.841h-7.247V59.881h9.1v3.43Zm11.924-2.465h-9.5V51.239a1.2,1.2,0,1,0-2.406,0v6.237h-9.1V54.283a1.2,1.2,0,1,0-2.406,0v3.193h-9.1V29.395a19.159,19.159,0,0,1,10.306-17.062,19.159,19.159,0,0,1,10.306,17.062v17.76a1.2,1.2,0,1,0,2.406,0V35.335l9.519,9.459V60.846Z" transform="translate(-78.864 -9.775)" fill="#fff"/>
        <path id="Path_3231" data-name="Path 3231" d="M361.841,395.411a10.1,10.1,0,0,0-3.92.787,5.282,5.282,0,0,0-10.32,1.589,1.2,1.2,0,0,0,2.406,0,2.881,2.881,0,1,1,5.762,0,2.837,2.837,0,0,1-.683,1.856,1.2,1.2,0,0,0,.921,1.975,1.205,1.205,0,0,0,.921-.431,5.193,5.193,0,0,0,1.143-2.391,7.751,7.751,0,0,1,11.523,6.771,1.2,1.2,0,0,0,2.406,0A10.153,10.153,0,0,0,361.841,395.411Z" transform="translate(-295.998 -335.667)" fill="#fff"/>
        <path id="Path_3232" data-name="Path 3232" d="M23.132,416a6.19,6.19,0,0,0-1.4.163,1.2,1.2,0,0,0,.1-1.01,6.648,6.648,0,0,0-11.583-1.812A8.094,8.094,0,0,0,.1,421.154a1.2,1.2,0,1,0,2.406,0,5.667,5.667,0,0,1,10.469-3.014,1.2,1.2,0,0,0,2.034-1.292,7.911,7.911,0,0,0-2.465-2.495,4.253,4.253,0,0,1,7.024,1.6,1.212,1.212,0,0,0,.757.742,6.106,6.106,0,0,0-3.267,5.39,1.2,1.2,0,1,0,2.406,0,3.668,3.668,0,1,1,7.336,0,1.2,1.2,0,1,0,2.406,0A6.074,6.074,0,0,0,23.132,416Z" transform="translate(-0.1 -351.164)" fill="#fff"/>
      </g>
    </g>
  </g>
</svg>
