<?xml version="1.0" encoding="utf-8"?>
<!-- Generator: Adobe Illustrator 25.4.1, SVG Export Plug-In . SVG Version: 6.00 Build 0)  -->
<svg version="1.1" id="Layer_1" xmlns="http://www.w3.org/2000/svg" xmlns:xlink="http://www.w3.org/1999/xlink" x="0px" y="0px"
	 width="512px" height="512px" viewBox="0 0 512 512" style="enable-background:new 0 0 512 512;" xml:space="preserve">
<path d="M502.6,390.6c-12.4,12.5-32.6,12.5-45.1,0L256,189.1L54.5,390.6c-12.4,12.5-32.6,12.5-45.1,0C3.1,384.3,0,376.2,0,368
	c0-8.1,3.1-16.3,9.4-22.5l222.6-222.6c0.4-0.5,0.9-1,1.4-1.5c6.2-6.3,14.4-9.4,22.6-9.4c8.2,0,16.4,3.1,22.6,9.4
	c0.5,0.5,1,1,1.5,1.6l222.5,222.5C515.1,357.9,515,378.1,502.6,390.6z"/>
</svg>
