<?xml version="1.0" encoding="utf-8"?>
<!-- Generator: Adobe Illustrator 24.3.0, SVG Export Plug-In . SVG Version: 6.00 Build 0)  -->
<svg version="1.1" id="Layer_1" xmlns="http://www.w3.org/2000/svg" xmlns:xlink="http://www.w3.org/1999/xlink" x="0px" y="0px"
	 width="512px" height="512px" viewBox="0 0 512 512" style="enable-background:new 0 0 512 512;" xml:space="preserve">
<path d="M512,35.4v158.9c0,19.5-15.8,35.3-35.3,35.3H317.8c-19.5,0-35.3-15.8-35.3-35.3s15.8-35.3,35.3-35.3h69.9
	c-33.1-43.8-85.2-70.4-140.8-70.4c-97.2,0-176.3,79.1-176.3,176.3S149.7,441.2,247,441.2c38.5,0,75.1-12.2,105.8-35.2
	c15.7-11.6,37.8-8.6,49.4,7c11.7,15.6,8.6,37.8-7,49.4c-43.1,32.3-94.2,49.5-148.1,49.5C110.9,511.9,0,401,0,264.9
	S110.9,17.8,247.1,17.8c76.3,0,147.9,35.8,194.3,95V35.4c0-19.5,15.8-35.3,35.3-35.3C496.2,0.1,512,15.8,512,35.4z"/>
</svg>
