<?xml version="1.0" encoding="utf-8"?>
<!-- Generator: Adobe Illustrator 25.4.1, SVG Export Plug-In . SVG Version: 6.00 Build 0)  -->
<svg version="1.1" id="Layer_1" xmlns="http://www.w3.org/2000/svg" xmlns:xlink="http://www.w3.org/1999/xlink" x="0px" y="0px"
	 width="512px" height="512px" viewBox="0 0 512 512" style="enable-background:new 0 0 512 512;" xml:space="preserve">
<g id="_9026191_arrow_up_right_thin_icon" transform="translate(-60 -59.9)">
	<g id="Group_1722" transform="translate(60 59.9)">
		<path id="Path_2244" d="M14.9,512c-8.4-0.2-15.1-7.1-14.9-15.6c0.1-3.9,1.7-7.6,4.4-10.4L486,4.4c5.9-5.9,15.5-5.9,21.4,0
			c5.9,5.9,5.9,15.5,0,21.4L25.8,507.5C22.9,510.3,19,511.9,14.9,512z"/>
	</g>
	<g id="Group_1723" transform="translate(66.231 59.926)">
		<path id="Path_2245" d="M490.3,421.7c-8.3,0-15-6.8-15-15.1V30.4H99c-8.3,0-15.1-6.7-15.1-15.1C84,7,90.7,0.3,99,0.3h391.3
			c8.3,0,15,6.7,15,15v391.3C505.3,414.9,498.6,421.7,490.3,421.7z"/>
	</g>
</g>
</svg>
