<svg xmlns="http://www.w3.org/2000/svg" width="82" height="82" viewBox="0 0 82 82">
  <g id="_1814112_audio_play_player_video_icon" data-name="1814112_audio_play_player_video_icon" transform="translate(-8.2 -8.2)">
    <g id="Icon-Play" transform="translate(8.2 8.2)">
      <path id="Fill-124" d="M-78.8-187.8a41,41,0,0,1-41-41,41,41,0,0,1,41-41,41,41,0,0,1,41,41,41,41,0,0,1-41,41Zm0-77.54a36.681,36.681,0,0,0-36.54,36.54A36.681,36.681,0,0,0-78.8-192.26,36.681,36.681,0,0,0-42.26-228.8,36.57,36.57,0,0,0-78.8-265.34Z" transform="translate(119.8 269.8)" fill="#fff"/>
      <path id="Fill-125" d="M-103-215.928V-258.3l36.368,21.272L-103-215.928Zm4.8-33.967v25.561l21.787-12.695L-98.2-249.894Z" transform="translate(131.82 278.028)" fill="#fff"/>
    </g>
  </g>
</svg>
