<?xml version="1.0" encoding="utf-8"?>
<!-- Generator: Adobe Illustrator 25.4.1, SVG Export Plug-In . SVG Version: 6.00 Build 0)  -->
<svg version="1.1" id="Layer_1" xmlns="http://www.w3.org/2000/svg" xmlns:xlink="http://www.w3.org/1999/xlink" x="0px" y="0px"
	 width="512px" height="512px" viewBox="0 0 512 512" style="enable-background:new 0 0 512 512;" xml:space="preserve">
<g id="Layer_3">
	<path d="M437.4,223.2c0.7-3,4.5-32.1,4.5-41C439.6,79.9,354.5-1.5,252.3,0C153,2.3,72.4,82.9,70.2,182.1c0,9,3.7,38.1,4.5,40.3
		c26.1,134.3,167.9,256.7,173.9,262l6,5.2h-73.1V512h150v-22.4h-74.6l6-5.2C269.4,479.9,410.5,356.8,437.4,223.2z M97,218.7
		c-0.7-3-4.5-29.9-4.5-35.8c2.2-91.1,76.9-162,167.2-160.5c87.3,2.2,158.2,72.4,159.7,159.7c0,6.7-3.7,32.8-4.5,36.6
		c-21.6,109.7-129.9,215.7-159,242.6C226.9,434.4,118.7,328.4,97,218.7z"/>
	<path d="M354.5,167.2c0-54.5-44-98.5-98.5-98.5s-98.5,44-98.5,98.5s44,98.5,98.5,98.5l0,0C310.5,265.7,354.5,221.7,354.5,167.2z
		 M179.9,167.2c0-41.8,34.3-76.1,76.1-76.1s76.1,34.3,76.1,76.1s-34.3,76.1-76.1,76.1S179.9,209,179.9,167.2z"/>
</g>
</svg>
