<?xml version="1.0" encoding="utf-8"?>
<!-- Generator: Adobe Illustrator 25.4.1, SVG Export Plug-In . SVG Version: 6.00 Build 0)  -->
<svg version="1.1" id="Layer_1" xmlns="http://www.w3.org/2000/svg" xmlns:xlink="http://www.w3.org/1999/xlink" x="0px" y="0px"
	 width="512px" height="512px" viewBox="0 0 512 512" style="enable-background:new 0 0 512 512;" xml:space="preserve">
<g>
	<g>
		<path d="M456.6,512c-72.8,0-140.1-13.5-199.4-37.7l0,0c-97-40.4-172.5-118.6-215.6-221l0,0C14.7,191.3-1.5,118.6-1.5,53.9
			c0-16.2,10.8-26.9,26.9-26.9h107.8c13.5,0,24.3,8.1,26.9,21.6l26.9,107.8c2.7,10.8,0,21.6-8.1,26.9l-78.1,67.4
			c26.9,56.6,75.5,124,161.7,167.1l67.4-83.5c5.4-8.1,16.2-10.8,26.9-8.1L464.7,353c10.8,2.7,21.6,13.5,21.6,26.9v107.8
			C483.6,501.2,472.8,512,456.6,512z M313.8,436.5c35,10.8,75.5,18.9,115.9,21.6v-59.3L359.6,380L313.8,436.5z M52.4,80.8
			c2.7,37.7,10.8,78.1,24.3,115.9l53.9-45.8l-18.9-70.1H52.4z"/>
	</g>
	<g>
		<path d="M321.9,53.9c-16.2,0-26.9-10.8-26.9-26.9S305.7,0,321.9,0l0,0c16.2,0,26.9,10.8,26.9,26.9S338,53.9,321.9,53.9z"/>
	</g>
	<g>
		<path d="M402.7,53.9c-16.2,0-26.9-10.8-26.9-26.9S386.5,0,402.7,0l0,0c16.2,0,26.9,10.8,26.9,26.9S418.9,53.9,402.7,53.9z"/>
	</g>
	<g>
		<path d="M483.6,53.9c-16.2,0-26.9-10.8-26.9-26.9S467.4,0,483.6,0l0,0c16.2,0,26.9,10.8,26.9,26.9S499.7,53.9,483.6,53.9z"/>
	</g>
	<g>
		<path d="M321.9,134.7c-16.2,0-26.9-10.8-26.9-26.9s10.8-26.9,26.9-26.9l0,0c16.2,0,26.9,10.8,26.9,26.9S338,134.7,321.9,134.7z"/>
	</g>
	<g>
		<path d="M402.7,134.7c-16.2,0-26.9-10.8-26.9-26.9s10.8-26.9,26.9-26.9l0,0c16.2,0,26.9,10.8,26.9,26.9S418.9,134.7,402.7,134.7z"
			/>
	</g>
	<g>
		<path d="M483.6,134.7c-16.2,0-26.9-10.8-26.9-26.9s10.8-26.9,26.9-26.9l0,0c16.2,0,26.9,10.8,26.9,26.9S499.7,134.7,483.6,134.7z"
			/>
	</g>
	<g>
		<path d="M321.9,215.6c-16.2,0-26.9-10.8-26.9-26.9s10.8-26.9,26.9-26.9l0,0c16.2,0,26.9,10.8,26.9,26.9S338,215.6,321.9,215.6z"/>
	</g>
	<g>
		<path d="M402.7,215.6c-16.2,0-26.9-10.8-26.9-26.9s10.8-26.9,26.9-26.9l0,0c16.2,0,26.9,10.8,26.9,26.9S418.9,215.6,402.7,215.6z"
			/>
	</g>
	<g>
		<path d="M483.6,215.6c-16.2,0-26.9-10.8-26.9-26.9s10.8-26.9,26.9-26.9l0,0c16.2,0,26.9,10.8,26.9,26.9S499.7,215.6,483.6,215.6z"
			/>
	</g>
</g>
</svg>
