<?xml version="1.0" encoding="utf-8"?>
<!-- Generator: Adobe Illustrator 25.4.1, SVG Export Plug-In . SVG Version: 6.00 Build 0)  -->
<svg version="1.1" id="Layer_1" xmlns="http://www.w3.org/2000/svg" xmlns:xlink="http://www.w3.org/1999/xlink" x="0px" y="0px"
	 width="512px" height="512px" viewBox="0 0 512 512" style="enable-background:new 0 0 512 512;" xml:space="preserve">
<g>
	<path d="M463.8,309.2l-72.1-45.6l71.6-53c3.5-2.6,4.3-7.6,1.7-11.1c-2.6-3.5-7.6-4.3-11.1-1.7L352.3,273l0,0l0,0l-101.6-75.1
		c-3.5-2.6-8.5-1.9-11.1,1.7c-2.6,3.5-1.9,8.5,1.7,11.1l71.6,53l-72.1,45.6c-3.7,2.3-4.8,7.2-2.5,10.9c1.5,2.4,4.1,3.7,6.7,3.7
		c1.5,0,2.9-0.4,4.2-1.2l77.3-48.9l21,15.6c1.4,1,3,1.6,4.7,1.6c1.7,0,3.3-0.5,4.7-1.6l21-15.6l77.3,48.9c1.3,0.8,2.8,1.2,4.2,1.2
		c2.6,0,5.2-1.3,6.7-3.7C468.6,316.4,467.5,311.5,463.8,309.2z"/>
	<path d="M456.5,150.9H248c-30.6,0-55.5,27.1-55.5,60.5v89.3c0,33.4,24.9,60.5,55.5,60.5h208.5c30.6,0,55.5-27.1,55.5-60.5v-89.3
		C512,178,487.1,150.9,456.5,150.9z M493.8,300.6c0,22.5-16.7,40.7-37.3,40.7H248c-20.6,0-37.3-18.2-37.3-40.7v-89.3
		c0-22.5,16.7-40.7,37.3-40.7h208.5c20.6,0,37.3,18.2,37.3,40.7L493.8,300.6L493.8,300.6z"/>
	<path d="M152.5,199.3H9c-5,0-9,4-9,9c0,5,4,9,9,9h143.6c4.9,0,9-4,9-9C161.5,203.3,157.5,199.3,152.5,199.3z"/>
	<path d="M154.5,244.8H41.9c-3.9,0-7,4-7,9c0,5,3.2,9,7,9h112.6c3.9,0,7-4,7-9C161.5,248.8,158.3,244.8,154.5,244.8z"/>
	<path d="M156,290.3H67.7c-3.1,0-5.5,4-5.5,9c0,5,2.5,9,5.5,9H156c3,0,5.5-4,5.5-9C161.5,294.3,159,290.3,156,290.3z"/>
</g>
</svg>
