<?xml version="1.0" encoding="utf-8"?>
<!-- Generator: Adobe Illustrator 25.4.1, SVG Export Plug-In . SVG Version: 6.00 Build 0)  -->
<svg version="1.1" id="Layer_1" xmlns="http://www.w3.org/2000/svg" xmlns:xlink="http://www.w3.org/1999/xlink" x="0px" y="0px"
	 width="512px" height="512px" viewBox="0 0 512 512" style="enable-background:new 0 0 512 512;" xml:space="preserve">
<g>
	<path d="M237.7,338.2c0-2.1,0-4.1,0-6.2c0-103.4,0-206.8,0-310.2c0-3,0.1-6.1,0.9-9c2.5-8.5,10.6-13.7,19.2-12.8
		c8.5,0.9,15.4,8,16.2,16.6c0.2,2.1,0.1,4.2,0.1,6.3c0,103,0,206,0,309c0,2.1,0,4.1,0,7.6c2.2-2.1,3.7-3.4,5-4.8
		c30-30,60-60,89.9-90.1c5-5.1,10.7-8,17.9-6.7c13.5,2.4,19.5,18.5,11,29.3c-1.3,1.6-2.8,3.1-4.3,4.5
		c-40.6,40.7-81.2,81.3-121.8,122c-11.3,11.3-20.5,11.3-31.8,0.1c-41-41.1-82-82.2-123-123.2c-5.7-5.7-8.7-12-6.3-20
		c3.7-12.4,18.4-17.1,28.5-9.2c1.6,1.3,3.1,2.8,4.6,4.3c29.4,29.5,58.9,59,88.3,88.5c1.5,1.5,2.7,3.2,4,4.7
		C236.7,338.8,237.2,338.5,237.7,338.2z"/>
	<path d="M37,475.2c146.2,0,291.7,0,438.1,0c0-2.1,0-4.1,0-6.1c0-21.5,0-43,0-64.5c0-12.2,7.4-20.4,18.1-20.5
		c10.8-0.1,18.3,8.3,18.3,20.3c0,23.2,0.1,46.5,0,69.7c-0.1,22.1-15.7,37.9-37.6,37.9c-145.2,0-290.4,0-435.6,0
		c-22,0-37.7-15.8-37.8-37.8c-0.1-23.4-0.1-46.8,0-70.3c0-11.7,7.6-19.9,18.2-19.9c10.6,0,18.3,8.2,18.3,19.8
		C37,427.4,37,451,37,475.2z"/>
</g>
</svg>
