<?xml version="1.0" encoding="iso-8859-1"?>
<!-- Generator: Adobe Illustrator 22.0.1, SVG Export Plug-In . SVG Version: 6.00 Build 0)  -->
<svg version="1.1" id="Capa_1" xmlns="http://www.w3.org/2000/svg" xmlns:xlink="http://www.w3.org/1999/xlink" x="0px" y="0px"
	 width="512px" height="512px" viewBox="-49 141 512 512" style="enable-background:new -49 141 512 512;" xml:space="preserve">
<path d="M206,435.789l51.389-49.387c0,0,0.004-0.005,0.005-0.007c0.001-0.002,0.005-0.004,0.005-0.004l179.887-179.877
	C431.418,203.705,424.929,202,418,202H-4c-6.927,0-13.412,1.703-19.279,4.51L206,435.789z"/>
<path d="M458.49,566.279c2.807-5.867,4.51-12.352,4.51-19.279V247c0-6.923-1.699-13.407-4.504-19.272L289.213,397.002
	L458.49,566.279z"/>
<path d="M-44.49,227.721C-47.297,233.588-49,240.073-49,247v300c0,6.923,1.701,13.409,4.506,19.274L124.789,397L-44.49,227.721z"/>
<path d="M268.002,418.213l-51.396,49.393c-2.93,2.93-6.768,4.395-10.605,4.395s-7.676-1.465-10.605-4.395L146,418.211
	L-23.286,587.486C-17.418,590.295-10.929,592-4,592h422c6.927,0,13.412-1.703,19.279-4.51L268.002,418.213z"/>
</svg>
