<?xml version="1.0" encoding="utf-8"?>
<!-- Generator: Adobe Illustrator 25.4.1, SVG Export Plug-In . SVG Version: 6.00 Build 0)  -->
<svg version="1.1" id="Layer_1" xmlns="http://www.w3.org/2000/svg" xmlns:xlink="http://www.w3.org/1999/xlink" x="0px" y="0px"
	 width="512px" height="512px" viewBox="0 0 512 512" style="enable-background:new 0 0 512 512;" xml:space="preserve">
<path id="mark_email_unread_FILL0_wght400_GRAD0_opsz24" d="M51,486.5c-13.6,0.1-26.6-5.3-36-15C5.3,462-0.1,449,0,435.4V128.2
	c-0.1-13.6,5.3-26.6,15-36c9.4-9.7,22.5-15.2,36-15h258.6c-1.7,8.4-2.6,17-2.6,25.6c0,8.6,0.9,17.2,2.6,25.6H51l204.8,128l93.4-58.2
	c5.9,5.5,12.5,10.4,19.5,14.4c7.1,4.1,14.5,7.6,22.1,10.6l-135,84.5l-204.8-128v256h409.6V228.2c9.5-2,18.7-5.1,27.5-9
	c8.4-3.8,16.4-8.5,23.7-14.1v230.4c0.1,13.6-5.3,26.6-15,36c-9.4,9.7-22.5,15.2-36,15L51,486.5z M51,128L51,128z M435.1,179.3
	c-20.5,0.3-40.2-7.8-54.4-22.5c-14.7-14.2-22.8-33.9-22.5-54.4c-0.3-20.5,7.8-40.2,22.5-54.4c14.3-14.7,33.9-22.8,54.4-22.5
	c20.5-0.3,40.2,7.8,54.4,22.5c14.7,14.2,22.8,33.9,22.5,54.4c0.3,20.5-7.8,40.2-22.5,54.4C475.2,171.5,455.5,179.6,435.1,179.3
	L435.1,179.3z"/>
</svg>
