<?xml version="1.0" encoding="utf-8"?>
<!-- Generator: Adobe Illustrator 22.0.1, SVG Export Plug-In . SVG Version: 6.00 Build 0)  -->
<svg version="1.1" id="Layer_1" xmlns="http://www.w3.org/2000/svg" xmlns:xlink="http://www.w3.org/1999/xlink" x="0px" y="0px"
	 width="512px" height="512px" viewBox="0 0 512 512" style="enable-background:new 0 0 512 512;" xml:space="preserve">
<g id="fax">
	<path d="M127.5,399v87.5c0,5.5,3.6,9.1,9.1,9.1h238.7c5.5,0,9.1-3.6,9.1-9.1V399v-54.7c0-5.5-3.6-9.1-9.1-9.1H136.7
		c-5.5,0-9.1,3.6-9.1,9.1V399z M160.3,366.2h191.3v31H160.3V366.2z M160.3,430h191.3v31H160.3V430z"/>
	<polygon points="382.6,111.1 382.6,16.4 127.5,16.4 127.5,111.1 127.5,174.9 382.6,174.9 	"/>
	<path d="M446.4,111.1h-32.8v63.8v32.8h-317v-32.8v-63.8H63.8C29.2,111.1,0,140.3,0,174.9v160.3C0,369.9,29.2,399,63.8,399h32.8
		v-63.8v-32.8h318.9v32.8V399h32.8c34.6,0,63.8-29.2,63.8-63.8V176.7C510.2,140.3,481,111.1,446.4,111.1z"/>
</g>
</svg>
