<?xml version="1.0" encoding="utf-8"?>
<!-- Generator: Adobe Illustrator 25.4.1, SVG Export Plug-In . SVG Version: 6.00 Build 0)  -->
<svg version="1.1" id="Layer_1" xmlns="http://www.w3.org/2000/svg" xmlns:xlink="http://www.w3.org/1999/xlink" x="0px" y="0px"
	 width="512px" height="512px" viewBox="0 0 512 512" style="enable-background:new 0 0 512 512;" xml:space="preserve">
<g>
	<path d="M436.9,126.4h-22.7V63.7c0-35.1-27.9-63.7-62.3-63.7H152.2c-34.3,0-62.3,28.6-62.3,63.7v62.7H75.1
		c-31,0-56.3,25.9-56.3,57.6v145.6c0,31.7,25.4,57.6,56.3,57.6H88v-91h-1c-9.2,0-16.8-7.7-16.8-17.2c0-9.5,7.6-17.2,16.8-17.2h336.1
		c9.2,0,16.8,7.7,16.8,17.2c0,9.5-7.6,17.2-16.8,17.2h-6.9v91h20.8c31,0,56.3-25.9,56.3-57.6V184
		C493.2,152.3,467.9,126.4,436.9,126.4z M89.9,193.6c-10.9,0-19.8-8.7-19.8-19.5c0-10.7,8.9-19.5,19.8-19.5
		c10.9,0,19.8,8.7,19.8,19.5C109.7,184.9,100.9,193.6,89.9,193.6z M148.3,193.6c-10.4,0-18.8-8.7-18.8-19.5
		c0-10.7,8.4-19.5,18.8-19.5c10.4,0,18.8,8.7,18.8,19.5C167,184.9,158.6,193.6,148.3,193.6z M394.4,126.4H109.7V63.7
		c0-24,19.1-43.5,42.5-43.5h199.7c23.4,0,42.5,19.5,42.5,43.5V126.4z"/>
	<path d="M377.9,291H124.2c-12.4,0-22.5,10.4-22.5,23.1v174.9c0,12.7,10.1,23.1,22.5,23.1h253.7c12.4,0,22.5-10.4,22.5-23.1V314
		C400.4,301.4,390.3,291,377.9,291z M361.9,481.2H140.2c-4.7,0-8.5-5.4-8.5-12.1c0-6.7,3.8-12.1,8.5-12.1h221.7
		c4.7,0,8.5,5.4,8.5,12.1C370.4,475.8,366.6,481.2,361.9,481.2z M361.9,436.6H140.2c-4.7,0-8.5-5.4-8.5-12.1
		c0-6.7,3.8-12.1,8.5-12.1h221.7c4.7,0,8.5,5.4,8.5,12.1C370.4,431.1,366.6,436.6,361.9,436.6z M361.9,391.7H140.2
		c-4.7,0-8.5-5.4-8.5-12.1c0-6.7,3.8-12.1,8.5-12.1h221.7c4.7,0,8.5,5.4,8.5,12.1C370.4,386.3,366.6,391.7,361.9,391.7z M361.9,347
		H140.2c-4.7,0-8.5-5.4-8.5-12.1c0-6.7,3.8-12.1,8.5-12.1h221.7c4.7,0,8.5,5.4,8.5,12.1C370.4,341.6,366.6,347,361.9,347z"/>
</g>
</svg>
