<svg id="instagram" xmlns="http://www.w3.org/2000/svg" width="19.377" height="19.389" viewBox="0 0 19.377 19.389">
  <path id="Path_226" data-name="Path 226" d="M19.339,5.782h0a7.168,7.168,0,0,0-.454-2.367,5.074,5.074,0,0,0-2.9-2.9A7.25,7.25,0,0,0,13.614.064C12.6.011,12.266,0,9.7,0,7.15,0,6.809.011,5.786.057A7.168,7.168,0,0,0,3.42.511,4.812,4.812,0,0,0,1.659,1.659,4.87,4.87,0,0,0,.515,3.408,7.247,7.247,0,0,0,.061,5.775C.011,6.79,0,7.127,0,9.7c0,2.549.011,2.889.057,3.912a7.168,7.168,0,0,0,.454,2.367,4.834,4.834,0,0,0,1.144,1.757,4.935,4.935,0,0,0,1.753,1.144,7.247,7.247,0,0,0,2.367.454c1.026.045,1.363.057,3.912.057s2.889-.011,3.912-.057a7.168,7.168,0,0,0,2.367-.454,5.075,5.075,0,0,0,2.9-2.9,7.247,7.247,0,0,0,.454-2.367c.045-1.026.057-1.363.057-3.912V9.149C19.381,7.089,19.381,6.718,19.339,5.782ZM17.245,9.706c0,2.567-.011,2.833-.057,3.813h0a4.986,4.986,0,0,1-.311,1.689,2.924,2.924,0,0,1-1.67,1.67,4.936,4.936,0,0,1-1.685.311c-.981.045-1.242.057-3.817.057-2.484,0-2.814-.011-3.817-.057A4.936,4.936,0,0,1,4.2,16.878h0a2.677,2.677,0,0,1-1-.651l0,0a2.745,2.745,0,0,1-.655-1.007v0a4.936,4.936,0,0,1-.311-1.685c-.045-.981-.057-1.242-.057-3.817,0-2.484.011-2.814.057-3.817a4.936,4.936,0,0,1,.311-1.685v0a2.64,2.64,0,0,1,.655-1l0,0A2.646,2.646,0,0,1,4.2,2.537h0a4.936,4.936,0,0,1,1.685-.311c.981-.045,1.242-.057,3.817-.057s2.84.011,3.817.057a4.936,4.936,0,0,1,1.685.311h0a2.677,2.677,0,0,1,1,.651l0,0A2.745,2.745,0,0,1,16.878,4.2v0a4.936,4.936,0,0,1,.311,1.685C17.234,6.869,17.245,7.134,17.245,9.706Z" transform="translate(0 0)" fill="#fff"/>
  <path id="Path_227" data-name="Path 227" d="M126.79,121.6a5.089,5.089,0,1,0,5.089,5.09A5.1,5.1,0,0,0,126.79,121.6Zm2.935,5.093a2.935,2.935,0,1,1-2.935-2.935A2.94,2.94,0,0,1,129.724,126.693Z" transform="translate(-117.091 -116.995)" fill="#fff"/>
  <path id="Path_228" data-name="Path 228" d="M355.26,86.6a1.359,1.359,0,1,0,1.359,1.359A1.361,1.361,0,0,0,355.26,86.6Z" transform="translate(-340.499 -83.321)" fill="#fff"/>
</svg>
