<?xml version="1.0" encoding="utf-8"?>
<!-- Generator: Adobe Illustrator 22.0.1, SVG Export Plug-In . SVG Version: 6.00 Build 0)  -->
<svg version="1.1" id="Layer_1" xmlns="http://www.w3.org/2000/svg" xmlns:xlink="http://www.w3.org/1999/xlink" x="0px" y="0px"
	 viewBox="0 0 512 512" style="enable-background:new 0 0 512 512;" xml:space="preserve">
<g>
	<path d="M510.7,152.7L510.7,152.7c-1.1-24.7-4.8-44-12-62.5c-6.7-17.7-16.9-33.3-30.3-46.4c-13-13.2-29.1-23.7-46.3-30.1
		c-18.7-7.2-38-10.9-62.6-12C332.8,0.3,323.9,0,256.1,0c-67.3,0-76.3,0.3-103.3,1.5c-24.7,1.1-44,4.8-62.5,12
		c-17.8,6.7-33.4,16.9-46.5,30.3C30.5,56.8,20.1,72.8,13.6,90c-7.2,18.7-10.9,38-12,62.5C0.3,179.3,0,188.2,0,256.1
		c0,67.3,0.3,76.3,1.5,103.3c1.1,24.7,4.8,44,12,62.5c6.6,17.6,16.8,33.2,30.2,46.4c13,13.2,29.1,23.7,46.3,30.2
		c18.7,7.2,38,10.9,62.5,12c27.1,1.2,36,1.5,103.3,1.5c67.3,0,76.3-0.3,103.3-1.5c24.7-1.1,44-4.8,62.5-12
		c35.1-13.6,63-41.5,76.5-76.5c7.2-18.7,10.9-38,12-62.5c1.2-27.1,1.5-36,1.5-103.3l0-14.6C511.8,187.2,511.8,177.4,510.7,152.7z
		 M455.4,256.3c0,67.8-0.3,74.8-1.5,100.7v0c-1,23.4-4.9,36.1-8.2,44.6c-7.8,20.2-23.9,36.3-44.1,44.1c-8.4,3.3-21.1,7.2-44.5,8.2
		c-25.9,1.2-32.8,1.5-100.8,1.5c-65.6,0-74.3-0.3-100.8-1.5c-23.4-1-36.1-4.9-44.5-8.2l-0.1,0c-10.1-3.7-19.3-9.7-26.5-17.2
		l-0.1-0.1c-7.7-7.5-13.5-16.5-17.3-26.6l0-0.1c-3.3-8.4-7.2-21.1-8.2-44.5c-1.2-25.9-1.5-32.8-1.5-100.8c0-65.6,0.3-74.3,1.5-100.8
		c1-23.4,4.9-36.1,8.2-44.5l0-0.1c3.7-10.1,9.7-19.3,17.3-26.5l0.1-0.1C92,76.5,100.9,70.7,111,67l0.1,0c8.4-3.3,21.1-7.2,44.5-8.2
		c25.9-1.2,32.8-1.5,100.8-1.5c68.1,0,75,0.3,100.8,1.5c23.4,1,36.1,4.9,44.5,8.2l0.1,0c10.1,3.7,19.3,9.7,26.5,17.2l0.1,0.1
		c7.7,7.5,13.5,16.5,17.3,26.6l0,0.1c3.3,8.4,7.2,21.1,8.2,44.5C455.1,181.4,455.4,188.4,455.4,256.3z"/>
	<path d="M256.1,121.6c-74.1,0-134.4,60.3-134.4,134.4c0,74.1,60.3,134.4,134.4,134.4c74.1,0,134.4-60.3,134.4-134.4
		C390.5,181.9,330.2,121.6,256.1,121.6z M333.6,256.1c0,42.7-34.8,77.5-77.5,77.5c-42.7,0-77.5-34.8-77.5-77.5
		c0-42.7,34.8-77.5,77.5-77.5C298.8,178.6,333.6,213.4,333.6,256.1z"/>
	<path d="M389.8,86.6c-19.8,0-35.9,16.1-35.9,35.9s16.1,35.9,35.9,35.9c19.8,0,35.9-16.1,35.9-35.9S409.5,86.6,389.8,86.6z"/>
</g>
</svg>
