<?xml version="1.0" encoding="utf-8"?>
<!-- Generator: Adobe Illustrator 25.4.1, SVG Export Plug-In . SVG Version: 6.00 Build 0)  -->
<svg version="1.1" id="Layer_2_00000183930581089106410240000015546380966074981287_"
	 xmlns="http://www.w3.org/2000/svg" xmlns:xlink="http://www.w3.org/1999/xlink" x="0px" y="0px" width="512px" height="512px"
	 viewBox="0 0 512 512" style="enable-background:new 0 0 512 512;" xml:space="preserve">
<path id="Path_31" d="M147,127.9c-7.2-7.1-18.8-7.1-25.9,0.1L5,244.5c-0.2,0.2-0.3,0.3-0.5,0.5c-6.2,6.4-5.9,16.6,0.5,22.8
	l116.4,116.4c7.1,7.1,18.7,7.1,25.8,0c7.1-7.1,7.1-18.7,0-25.8l-83.8-83.6h430.4c10.1,0,18.3-8.2,18.3-18.3
	c0-10.1-8.2-18.3-18.3-18.3H62.9l84.2-84.1c0,0,0.1-0.1,0.1-0.1c7.1-7.2,7.1-18.8-0.1-25.9C147.1,128,147,127.9,147,127.9z"/>
</svg>
