<?xml version="1.0" encoding="iso-8859-1"?>
<!-- Generator: Adobe Illustrator 22.0.1, SVG Export Plug-In . SVG Version: 6.00 Build 0)  -->
<svg version="1.1" id="Layer_1" xmlns="http://www.w3.org/2000/svg" xmlns:xlink="http://www.w3.org/1999/xlink" x="0px" y="0px"
	 width="512px" height="512px" viewBox="0 0 512 512" style="enable-background:new 0 0 512 512;" xml:space="preserve">
<g id="Group_159" transform="translate(-158.391 -113.104)">
	<path id="Path_955" d="M416.061,113.104L416.061,113.104h-1.629h-1.629l0,0c-110.425,1.746-199.035,91.588-199.065,201.835
		c0,148.822,175.01,290.001,200.694,310.165c25.602-20.11,200.613-161.343,200.613-310.165
		C615.044,204.712,526.467,114.865,416.061,113.104z M416.061,401.803c-57.654,0.015-104.405-46.629-104.42-104.183
		c-0.015-57.554,46.711-104.223,104.365-104.238c57.654-0.015,104.405,46.629,104.42,104.183c0,0.018,0,0.036,0,0.054
		C520.411,355.153,473.694,401.788,416.061,401.803z"/>
</g>
<g>
</g>
<g>
</g>
<g>
</g>
<g>
</g>
<g>
</g>
<g>
</g>
</svg>
