<?xml version="1.0" encoding="utf-8"?>
<!-- Generator: Adobe Illustrator 22.0.1, SVG Export Plug-In . SVG Version: 6.00 Build 0)  -->
<svg version="1.1" id="Capa_1" xmlns="http://www.w3.org/2000/svg" xmlns:xlink="http://www.w3.org/1999/xlink" x="0px" y="0px"
	 width="512px" height="512px" viewBox="0 0 512 512" style="enable-background:new 0 0 512 512;" xml:space="preserve">
<path d="M361.3,0H150.7c-23.2,0-42.1,18.9-42.1,42.1v427.8c0,23.2,18.9,42.1,42.1,42.1h210.7c23.2,0,42.1-18.9,42.1-42.1V42.1
	C403.4,18.9,384.5,0,361.3,0z M256,464.7c-9.7,0-17.6-7.9-17.6-17.6c0-9.7,7.9-17.6,17.6-17.6c9.7,0,17.6,7.9,17.6,17.6
	C273.6,456.8,265.7,464.7,256,464.7z M307.1,36.6c0,1.4-0.3,2.5-0.5,3.1H205.4c-0.2-0.6-0.5-1.7-0.5-3.1c0-1.5,0.3-2.5,0.5-3.1
	h101.2C306.8,34.1,307.1,35.1,307.1,36.6z M364.8,72.8V385H147.2V72.8H364.8z"/>
</svg>
