<?xml version="1.0" encoding="utf-8"?>
<!-- Generator: Adobe Illustrator 25.4.1, SVG Export Plug-In . SVG Version: 6.00 Build 0)  -->
<svg version="1.1" id="Capa_1" xmlns="http://www.w3.org/2000/svg" xmlns:xlink="http://www.w3.org/1999/xlink" x="0px" y="0px"
	 width="512px" height="512px" viewBox="0 0 512 512" style="enable-background:new 0 0 512 512;" xml:space="preserve">
<path d="M390.4,234.6L390.4,234.6L164.6,8.9C152.8-3,133.6-3,121.7,8.9c-5.7,5.7-8.9,13.3-8.9,21.4s3.2,15.7,8.9,21.4L326.1,256
	L121.7,460.4c-5.7,5.7-8.9,13.3-8.9,21.4s3.2,15.7,8.9,21.4c5.9,5.9,13.6,8.9,21.4,8.9s15.5-3,21.4-8.9l225.9-225.8
	c5.6-5.7,8.8-13.2,8.8-21.4C399.1,247.9,396,240.2,390.4,234.6z"/>
</svg>
