<?xml version="1.0" encoding="iso-8859-1"?>
<!-- Generator: Adobe Illustrator 22.0.1, SVG Export Plug-In . SVG Version: 6.00 Build 0)  -->
<svg version="1.1" id="Layer_1" xmlns="http://www.w3.org/2000/svg" xmlns:xlink="http://www.w3.org/1999/xlink" x="0px" y="0px"
	 width="512px" height="512px" viewBox="0 0 512 512" style="enable-background:new 0 0 512 512;" xml:space="preserve">
<path d="M389.019,339.598c-16.758-16.544-37.681-16.544-54.335,0c-12.704,12.6-25.406,25.193-37.896,38.006
	c-3.419,3.523-6.301,4.269-10.462,1.918c-8.22-4.482-16.977-8.111-24.874-13.021c-36.833-23.164-67.686-52.948-95.011-86.472
	c-13.558-16.654-25.625-34.48-34.058-54.548c-1.704-4.055-1.386-6.724,1.923-10.035c12.704-12.281,25.088-24.875,37.579-37.473
	c17.4-17.509,17.4-38.004-0.105-55.619c-9.929-10.034-19.859-19.855-29.784-29.888c-10.248-10.248-20.391-20.606-30.749-30.749
	C94.488,45.385,73.564,45.385,56.91,61.825C44.098,74.424,31.822,87.341,18.801,99.72C6.734,111.147,0.65,125.131-0.632,141.463
	c-2.027,26.584,4.484,51.666,13.668,76.114c18.786,50.604,47.397,95.546,82.092,136.751
	c46.866,55.728,102.802,99.816,168.241,131.629c29.467,14.304,59.997,25.302,93.196,27.115c22.847,1.282,42.701-4.482,58.61-22.31
	c10.889-12.171,23.164-23.274,34.695-34.908c17.082-17.295,17.186-38.218,0.213-55.3
	C429.802,380.163,409.411,359.88,389.019,339.598L389.019,339.598z M389.019,339.598"/>
<path d="M368.633,254.513l39.392-6.724c-6.193-36.191-23.275-68.961-49.217-95.009c-27.434-27.433-62.129-44.728-100.347-50.066
	l-5.553,39.604c29.572,4.165,56.474,17.509,77.721,38.75C350.697,201.136,363.826,226.547,368.633,254.513L368.633,254.513z
	 M368.633,254.513"/>
<path d="M430.229,83.28C384.75,37.806,327.208,9.089,263.693,0.228l-5.551,39.604c54.873,7.689,104.617,32.558,143.904,71.741
	c37.254,37.254,61.701,84.334,70.563,136.111L512,240.955C501.648,180.964,473.358,126.518,430.229,83.28L430.229,83.28z
	 M430.229,83.28"/>
</svg>
