<?xml version="1.0" encoding="utf-8"?>
<!-- Generator: Adobe Illustrator 25.4.1, SVG Export Plug-In . SVG Version: 6.00 Build 0)  -->
<svg version="1.1" id="Layer_1" xmlns="http://www.w3.org/2000/svg" xmlns:xlink="http://www.w3.org/1999/xlink" x="0px" y="0px"
	 width="512px" height="512px" viewBox="0 0 512 512" style="enable-background:new 0 0 512 512;" xml:space="preserve">
<path id="phone_in_talk_FILL0_wght400_GRAD0_opsz24" d="M454.8,255.5c1-52.9-19.9-103.9-57.8-140.9C360,76.7,309,55.8,256.1,56.8V0
	c34.3-0.2,68.2,6.8,99.7,20.4c30.2,12.9,57.6,31.5,80.9,54.6c23.2,23.3,41.7,50.7,54.6,80.9c13.6,31.4,20.5,65.3,20.3,99.5H454.8z
	 M341.3,255.5c0.4-22.7-8.6-44.5-24.8-60.3c-15.8-16.3-37.7-25.2-60.3-24.8v-56.8c37.8-0.6,74.1,14.4,100.4,41.5
	c27.1,26.3,42.2,62.6,41.5,100.4L341.3,255.5z M481.8,511c-60.5-0.3-120.3-13.5-175.3-38.7c-58.9-26.5-112.3-63.6-157.7-109.5
	c-45.9-45.3-83.1-98.7-109.7-157.5C13.9,150.2,0.7,90.5,0.4,29.9C0.2,22,3.3,14.3,9,8.6C14.6,3,22.3-0.1,30.3,0.1h115
	c6.5,0,12.9,2.4,17.7,6.7c4.9,4,8.2,9.7,9.2,16l18.4,99.3c1,6.4,0.8,12.9-0.7,19.2c-1.4,5.1-4.1,9.8-7.8,13.5l-68.8,69.5
	c9.7,17.9,21,34.9,33.7,50.7c13.3,16.6,27.6,32.4,42.9,47.2c14.5,14.6,29.8,28.2,46,40.9c16.2,12.6,33.3,24.1,51.1,34.4l66.7-66.7
	c4.7-4.5,10.4-7.8,16.7-9.6c6.6-2.1,13.6-2.7,20.4-1.8l98,19.9c6.3,1.7,12,5.3,16.3,10.2c4.1,4.6,6.4,10.5,6.4,16.7v115
	c0.2,8-2.9,15.7-8.5,21.3C497.4,508.2,489.7,511.2,481.8,511z M86.5,170.3l46.9-46.9l-12.1-66.7H58.1c2.4,19.4,5.7,38.5,9.9,57.5
	C72.4,133.5,78.6,152.2,86.5,170.3z M340.5,424.4c18.2,8,37,14.4,56.2,19.2c19,4.7,38.3,7.8,57.8,9.3v-62.4l-66.7-13.5L340.5,424.4z
	"/>
</svg>
