<?xml version="1.0" encoding="utf-8"?>
<!-- Generator: Adobe Illustrator 25.4.1, SVG Export Plug-In . SVG Version: 6.00 Build 0)  -->
<svg version="1.1" id="Capa_1" xmlns="http://www.w3.org/2000/svg" xmlns:xlink="http://www.w3.org/1999/xlink" x="0px" y="0px"
	 width="512px" height="512px" viewBox="0 0 512 512" style="enable-background:new 0 0 512 512;" xml:space="preserve">
<path d="M112.9,256c0,8.1,3.2,15.7,8.8,21.4l225.9,225.8c5.9,5.9,13.6,8.9,21.4,8.9c7.7,0,15.5-3,21.4-8.9
	c5.7-5.7,8.9-13.3,8.9-21.4s-3.2-15.7-8.9-21.4L185.9,256L390.3,51.6c5.7-5.7,8.9-13.3,8.9-21.4s-3.2-15.7-8.9-21.4
	c-11.9-11.8-31-11.8-42.9,0L121.6,234.6l0,0C116,240.2,112.9,247.9,112.9,256z"/>
</svg>
