<?xml version="1.0" encoding="utf-8"?>
<!-- Generator: Adobe Illustrator 25.4.1, SVG Export Plug-In . SVG Version: 6.00 Build 0)  -->
<svg version="1.1" id="Layer_1" xmlns="http://www.w3.org/2000/svg" xmlns:xlink="http://www.w3.org/1999/xlink" x="0px" y="0px"
	 width="512px" height="512px" viewBox="0 0 512 512" style="enable-background:new 0 0 512 512;" xml:space="preserve">
<g>
	<path d="M0.5,77.4c2.8-4.1,6.7-5.1,11.6-5.1c64.2,0.1,128.4,0.1,192.5,0.1c9.2,0,11.5,2.3,11.5,11.5c0,60.4,0.1,120.7-0.1,181.1
		c0,3.6-1.2,7.6-3.1,10.6c-33.2,52.5-66.5,105-99.9,157.4c-0.9,1.4-1.6,3.4-2.9,4c-2.5,1.2-5.8,2.7-8.1,2c-2.3-0.7-4.1-3.8-5.5-6.3
		c-0.7-1.3-0.2-3.3-0.2-4.9c0-48.2,0-96.4,0-144.7c0-2,0-3.9,0-6.5c-2.4,0-4.3,0-6.2,0c-26.1,0-52.2-0.1-78.3,0.1
		c-4.9,0-8.8-1.1-11.3-5.6C0.5,206.5,0.5,142,0.5,77.4z M112.3,403.7c1.4-1.9,2.1-2.8,2.6-3.7c27.8-43.7,55.7-87.5,83.4-131.3
		c1.2-1.9,1.7-4.6,1.7-7c0.1-56,0.1-112.1,0.1-168.1c0-1.6-0.1-3.2-0.2-4.8c-61.3,0-122.2,0-183.1,0c0,57.3,0,114.3,0,171.6
		c2.3,0,4.3,0,6.2,0c25.4,0,50.9,0,76.3,0c11.1,0,12.9,1.9,12.9,13.1c0,41.2,0,82.5,0,123.7C112.3,398.9,112.3,400.7,112.3,403.7z"
		/>
	<path d="M391.7,276.6c-2.6,0-4.6,0-6.6,0c-25.9,0-51.9,0-77.8,0c-9.1,0-11.4-2.4-11.4-11.6c0-60.4,0-120.7,0-181.1
		c0-9.2,2.3-11.5,11.5-11.5c64.3,0,128.7,0,193,0c8.6,0,11.1,2.5,11.1,10.9c0,60.9,0,121.7-0.1,182.6c0,3-1,6.3-2.5,8.8
		c-33.6,53.1-67.3,106.1-100.9,159.1c-2.5,3.9-5.4,7.1-10.5,5.5c-5.1-1.5-5.8-5.7-5.8-10.4c0.1-48.5,0-97.1,0-145.6
		C391.7,281.3,391.7,279.3,391.7,276.6z M407.7,403.8c1.4-2,2-2.8,2.5-3.6c27.8-43.7,55.7-87.5,83.4-131.3c1.3-2.1,1.9-4.9,1.9-7.4
		c0.1-55.9,0.1-111.7,0.1-167.6c0-1.7,0-3.5,0-5.2c-61.6,0-122.4,0-183.2,0c0,57.3,0,114.4,0,171.7c2.4,0,4.4,0,6.4,0
		c25.6,0,51.2,0,76.8,0c10.1,0,12.2,2.2,12.2,12.4c0,31.9,0,63.9,0,95.8C407.7,379.8,407.7,391.1,407.7,403.8z"/>
</g>
</svg>
