<?xml version="1.0" encoding="utf-8"?>
<!-- Generator: Adobe Illustrator 25.4.1, SVG Export Plug-In . SVG Version: 6.00 Build 0)  -->
<svg version="1.1" id="Layer_2_00000183930581089106410240000015546380966074981287_"
	 xmlns="http://www.w3.org/2000/svg" xmlns:xlink="http://www.w3.org/1999/xlink" x="0px" y="0px" width="512px" height="512px"
	 viewBox="0 0 512 512" style="enable-background:new 0 0 512 512;" xml:space="preserve">
<path id="Path_31" d="M364.9,128c-7.2,7.1-7.2,18.7-0.1,25.9c0,0,0.1,0.1,0.1,0.1l84.2,84.1H18.3C8.2,238.1,0,246.3,0,256.4
	c0,10.1,8.2,18.3,18.3,18.3h430.4l-83.8,83.6c-7.1,7.1-7.1,18.7,0,25.8c7.1,7.1,18.7,7.1,25.8,0L507,267.7
	c6.4-6.2,6.6-16.3,0.5-22.8c-0.2-0.2-0.3-0.3-0.5-0.5L390.9,128c-7.1-7.2-18.7-7.2-25.9-0.1C365,127.9,364.9,128,364.9,128z"/>
</svg>
