<?xml version="1.0" encoding="utf-8"?>
<!-- Generator: Adobe Illustrator 25.4.1, SVG Export Plug-In . SVG Version: 6.00 Build 0)  -->
<svg version="1.1" id="Layer_1" xmlns="http://www.w3.org/2000/svg" xmlns:xlink="http://www.w3.org/1999/xlink" x="0px" y="0px"
	 width="512px" height="512px" viewBox="0 0 512 512" style="enable-background:new 0 0 512 512;" xml:space="preserve">
<path d="M204,0C94.6,0,5.8,88.9,5.8,198.3S94.6,396.5,204,396.5c43.3,0,83.3-14,115.9-37.6l153.5,153l32.8-32.8l-151.6-152
	c29.7-34.6,47.7-79.8,47.7-129C402.3,88.9,313.4,0,204,0z M204,40.8c87.1,0,157.4,70.3,157.4,157.4S291.2,355.7,204,355.7
	S46.6,285.4,46.6,198.3S116.9,40.8,204,40.8z"/>
</svg>
