<?xml version="1.0" encoding="utf-8"?>
<!-- Generator: Adobe Illustrator 25.4.1, SVG Export Plug-In . SVG Version: 6.00 Build 0)  -->
<svg version="1.1" id="Layer_1" xmlns="http://www.w3.org/2000/svg" xmlns:xlink="http://www.w3.org/1999/xlink" x="0px" y="0px"
	 width="512px" height="512px" viewBox="0 0 512 512" style="enable-background:new 0 0 512 512;" xml:space="preserve">
<style type="text/css">
	.st0{fill:#0A140F;}
</style>
<g>
	<path class="st0" d="M333.1,92.1c-17.6-33.1-39.2-54.8-62-61.2v103.8c27-0.4,53.5-2,78.3-4.7C344.7,116.5,339.3,103.7,333.1,92.1z"
		/>
	<path class="st0" d="M357.8,159.3c-27.5,3.2-56.8,5.1-86.8,5.5V241h97.5C367.6,212.3,364,184.7,357.8,159.3z"/>
	<path class="st0" d="M143.5,241H241v-76.3c-30.1-0.6-59.3-2.7-86.6-6.1C148.1,184.2,144.4,212.1,143.5,241z"/>
	<path class="st0" d="M178.9,92.1c-6.1,11.5-11.4,23.9-16,37.3c24.6,2.9,51,4.7,78.1,5.2V30.9C218.1,37.3,196.5,59,178.9,92.1z"/>
	<path class="st0" d="M158.6,367.6c25.3-3.4,52.9-5.6,82.3-6.6v-90h-97.4C144.7,305.4,149.9,338.2,158.6,367.6z"/>
	<path class="st0" d="M458,138.8c0.5-0.2-5.3,2-2.4,0.8c-19.8,6.3-42.7,11.5-67.8,15.6c6.3,27,10,55.9,10.9,85.8H512
		c-2.3-39.5-13.4-77.2-32.5-111c-15.6,6.2-21.9,8.7-23.9,9.6C456.3,139.3,457.2,139.1,458,138.8z"/>
	<path class="st0" d="M128.7,372.4c-8.9-31.2-14.1-65.6-15.3-101.4H0c2.7,46.8,17.9,91.3,44.1,129.4c8.7-5.1,18.7-9.7,30.2-13.8
		C90,381.1,108.3,376.3,128.7,372.4z"/>
	<path class="st0" d="M124.5,154.2c-26-4.5-49.7-10.2-69.7-17.2c-2.9-1-11.4-4-21.6-8.3C13.7,162.8,2.3,201,0,241h113.4
		C114.3,210.7,118.1,181.4,124.5,154.2z"/>
	<path class="st0" d="M50,103.2c4.6,1.8,9.4,3.7,14.5,5.4l0.1,0.1c19.3,6.7,42.4,12.2,68,16.5c5.5-16.9,12.1-32.7,19.8-47.1
		C175.8,33.8,206.9,6.1,241,0C178.1,3.6,119.5,29.8,74.7,74.7C65.7,83.6,57.5,93.2,50,103.2z"/>
	<path class="st0" d="M152.3,432.3c-5.2-9.7-9.9-20.1-14.1-31.1c-20.4,3.7-38.6,8.3-53.9,13.8c-8.6,3.1-15.8,6.3-21.7,9.5
		c3.8,4.4,7.8,8.7,12,12.8c44.9,44.9,103.5,71.1,166.3,74.7C206.9,505.9,175.8,476.4,152.3,432.3z"/>
	<path class="st0" d="M359.7,78c7.8,14.7,14.5,30.8,20,48c25.6-4,48.9-9.3,68.6-15.7c2.2-0.8,5.6-2.4,14.5-6
		c-7.7-10.4-16.2-20.3-25.5-29.6C392.5,29.8,333.9,3.6,271,0C305.1,6.1,336.2,33.8,359.7,78z"/>
	<path class="st0" d="M359.7,432.3c-23.5,44.2-54.5,73.6-88.6,79.7c62.8-3.6,121.4-29.8,166.3-74.7c7.5-7.5,14.5-15.5,21-23.7
		c-23.6-7.3-51.8-13-82.9-16.9C370.8,409.3,365.5,421.2,359.7,432.3z"/>
	<path class="st0" d="M178.9,418.2c17.6,33.1,39.2,56.6,62,63v-90c-25.7,0.8-49.9,2.7-72.2,5.5C171.9,404.1,175.3,411.3,178.9,418.2
		z"/>
	<path class="st0" d="M384.6,367.6c34.6,4.7,65.9,11.5,91.5,20.2c21.1-35.2,33.5-75,35.9-116.7H398.6
		C397.4,305,392.7,337.7,384.6,367.6z"/>
	<path class="st0" d="M354.4,364.2c8.1-28.5,12.9-60.1,14.1-93.1H271v89.5c0.8,0,1.7,0,2.5,0C301.3,360.5,328.5,361.8,354.4,364.2z"
		/>
	<path class="st0" d="M333.1,418.2c4.1-7.8,7.9-16,11.4-24.7c-22.8-1.9-46.6-2.9-70.9-2.9c-0.8,0-1.7,0-2.5,0v90.6
		C293.9,474.7,315.5,451.2,333.1,418.2z"/>
</g>
</svg>
