<svg xmlns="http://www.w3.org/2000/svg" width="21.177" height="15" viewBox="0 0 21.177 15">
  <path id="youtube" d="M20.708,5.643l.026.173A2.685,2.685,0,0,0,18.91,3.953l-.019,0C17.24,3.5,10.6,3.5,10.6,3.5S3.971,3.491,2.3,3.948A2.686,2.686,0,0,0,.465,5.8l0,.019A29.518,29.518,0,0,0,.488,16.358l-.027-.175a2.685,2.685,0,0,0,1.825,1.864l.019,0c1.649.449,8.294.449,8.294.449s6.626,0,8.294-.449A2.685,2.685,0,0,0,20.731,16.2l0-.019a27.587,27.587,0,0,0,.441-4.984c0-.064,0-.13,0-.2s0-.131,0-.2a28.461,28.461,0,0,0-.469-5.158ZM8.478,14.221V7.786l5.529,3.222Z" transform="translate(0 -3.5)" fill="#fff"/>
</svg>
